<svg width="638" height="344" viewBox="0 0 638 344" fill="none" xmlns="http://www.w3.org/2000/svg">
<g clip-path="url(#clip0_4_133)">
<rect x="0.5" y="0.5" width="637" height="343" stroke="#767676" stroke-dasharray="2 5"/>
<circle cx="107" cy="217" r="43.5" stroke="black" stroke-width="3"/>
<path d="M95.96 209.92L99.6 219.08L103.26 209.92H107.52L101.08 225H98.04L91.7 209.92H95.96ZM118.515 213.24H113.295L113.035 214.96L114.275 214.86C115.795 214.74 117.062 215.213 118.075 216.28C119.102 217.347 119.615 218.673 119.615 220.26C119.615 221.913 118.968 223.273 117.675 224.34C116.622 225.18 115.155 225.6 113.275 225.6C111.408 225.6 109.768 225.147 108.355 224.24L108.935 220.54C110.228 221.7 111.628 222.28 113.135 222.28C113.775 222.28 114.335 222.073 114.815 221.66C115.295 221.233 115.535 220.7 115.535 220.06C115.535 219.22 115.202 218.58 114.535 218.14C113.882 217.7 113.115 217.48 112.235 217.48C111.195 217.48 110.235 217.687 109.355 218.1L110.675 209.92H118.515V213.24Z" fill="black"/>
<path d="M70.284 278.444H73.392L70.396 282.014L70.424 282.042C70.9093 281.827 71.3993 281.72 71.894 281.72C72.8927 281.72 73.7047 282.089 74.33 282.826C74.9647 283.554 75.282 284.422 75.282 285.43C75.282 286.671 74.8433 287.647 73.966 288.356C73.0887 289.065 72.0153 289.42 70.746 289.42C69.5047 289.42 68.5013 289.117 67.736 288.51C67.3067 288.155 66.9613 287.721 66.7 287.208C66.448 286.685 66.322 286.153 66.322 285.612C66.322 284.287 66.8867 282.887 68.016 281.412L70.284 278.444ZM69.5 286.76C69.8453 287.096 70.256 287.264 70.732 287.264C71.208 287.264 71.6093 287.096 71.936 286.76C72.2627 286.415 72.426 285.999 72.426 285.514C72.426 285.038 72.2627 284.632 71.936 284.296C71.6093 283.96 71.208 283.792 70.732 283.792C70.256 283.792 69.8453 283.96 69.5 284.296C69.164 284.632 68.996 285.038 68.996 285.514C68.996 285.999 69.164 286.415 69.5 286.76ZM84.0397 278.696V281.986C83.7597 281.613 83.405 281.328 82.9757 281.132C82.5557 280.927 82.1077 280.824 81.6317 280.824C80.801 280.824 80.1243 281.104 79.6017 281.664C79.079 282.224 78.8177 282.919 78.8177 283.75C78.8177 284.59 79.079 285.281 79.6017 285.822C80.1337 286.354 80.8243 286.62 81.6737 286.62C82.1217 286.62 82.5557 286.522 82.9757 286.326C83.3957 286.121 83.7503 285.845 84.0397 285.5V288.79C82.9757 289.117 82.1683 289.28 81.6177 289.28C80.115 289.28 78.7943 288.762 77.6557 287.726C76.5263 286.709 75.9617 285.379 75.9617 283.736C75.9617 282.224 76.4797 280.936 77.5157 279.872C78.0383 279.34 78.6543 278.925 79.3637 278.626C80.073 278.318 80.7963 278.164 81.5337 278.164C82.3457 278.164 83.181 278.341 84.0397 278.696ZM92.2038 287.166H88.4238L87.6958 289H84.7838L88.8438 278.444H91.8398L95.8158 289H92.8898L92.2038 287.166ZM91.4618 285.066L90.3418 281.706H90.3138L89.1798 285.066H91.4618ZM101.181 280.768H96.7713V278.444H105.437L99.3753 289H96.3653L101.181 280.768ZM111.101 277.38H113.103L107.755 290.302H105.753L111.101 277.38ZM120.384 280.768H117.122V282.532H120.216V284.856H117.122V286.676H120.384V289H114.378V278.444H120.384V280.768ZM124.82 278.444V286.676H128.11V289H122.076V278.444H124.82ZM131.681 281.482H129.133C129.236 280.427 129.647 279.578 130.365 278.934C131.047 278.327 131.943 278.024 133.053 278.024C134.033 278.024 134.841 278.295 135.475 278.836C136.11 279.377 136.427 280.129 136.427 281.09C136.427 281.538 136.334 281.963 136.147 282.364C135.961 282.756 135.685 283.055 135.321 283.26C135.853 283.4 136.273 283.736 136.581 284.268C136.889 284.791 137.043 285.341 137.043 285.92C137.043 286.657 136.843 287.297 136.441 287.838C136.049 288.379 135.545 288.776 134.929 289.028C134.323 289.289 133.66 289.42 132.941 289.42C131.625 289.42 130.575 289.023 129.791 288.23C129.455 287.885 129.166 287.465 128.923 286.97C128.69 286.475 128.578 286.009 128.587 285.57H131.387C131.387 285.999 131.523 286.359 131.793 286.648C132.073 286.928 132.428 287.068 132.857 287.068C133.287 287.068 133.637 286.937 133.907 286.676C134.187 286.415 134.327 286.074 134.327 285.654C134.327 285.262 134.183 284.931 133.893 284.66C133.604 284.38 133.263 284.24 132.871 284.24C132.759 284.24 132.601 284.268 132.395 284.324V282.49H132.675C133.03 282.49 133.319 282.387 133.543 282.182C133.767 281.967 133.879 281.683 133.879 281.328C133.879 281.011 133.777 280.754 133.571 280.558C133.366 280.362 133.109 280.264 132.801 280.264C132.456 280.264 132.181 280.381 131.975 280.614C131.77 280.838 131.672 281.127 131.681 281.482ZM145.605 284.716H146.879V286.816H145.605V289H143.057V286.816H137.933V285.066L142.007 278.444H145.605V284.716ZM143.057 284.716V280.656H143.029L140.565 284.716H143.057Z" fill="black"/>
<circle cx="232" cy="217" r="43.5" stroke="black" stroke-width="3"/>
<path d="M221.96 209.92L225.6 219.08L229.26 209.92H233.52L227.08 225H224.04L217.7 209.92H221.96ZM244.495 218.88H246.315V221.88H244.495V225H240.855V221.88H233.535V219.38L239.355 209.92H244.495V218.88ZM240.855 218.88V213.08H240.815L237.295 218.88H240.855Z" fill="black"/>
<path d="M195.284 278.444H198.392L195.396 282.014L195.424 282.042C195.909 281.827 196.399 281.72 196.894 281.72C197.893 281.72 198.705 282.089 199.33 282.826C199.965 283.554 200.282 284.422 200.282 285.43C200.282 286.671 199.843 287.647 198.966 288.356C198.089 289.065 197.015 289.42 195.746 289.42C194.505 289.42 193.501 289.117 192.736 288.51C192.307 288.155 191.961 287.721 191.7 287.208C191.448 286.685 191.322 286.153 191.322 285.612C191.322 284.287 191.887 282.887 193.016 281.412L195.284 278.444ZM194.5 286.76C194.845 287.096 195.256 287.264 195.732 287.264C196.208 287.264 196.609 287.096 196.936 286.76C197.263 286.415 197.426 285.999 197.426 285.514C197.426 285.038 197.263 284.632 196.936 284.296C196.609 283.96 196.208 283.792 195.732 283.792C195.256 283.792 194.845 283.96 194.5 284.296C194.164 284.632 193.996 285.038 193.996 285.514C193.996 285.999 194.164 286.415 194.5 286.76ZM209.04 278.696V281.986C208.76 281.613 208.405 281.328 207.976 281.132C207.556 280.927 207.108 280.824 206.632 280.824C205.801 280.824 205.124 281.104 204.602 281.664C204.079 282.224 203.818 282.919 203.818 283.75C203.818 284.59 204.079 285.281 204.602 285.822C205.134 286.354 205.824 286.62 206.674 286.62C207.122 286.62 207.556 286.522 207.976 286.326C208.396 286.121 208.75 285.845 209.04 285.5V288.79C207.976 289.117 207.168 289.28 206.618 289.28C205.115 289.28 203.794 288.762 202.656 287.726C201.526 286.709 200.962 285.379 200.962 283.736C200.962 282.224 201.48 280.936 202.516 279.872C203.038 279.34 203.654 278.925 204.364 278.626C205.073 278.318 205.796 278.164 206.534 278.164C207.346 278.164 208.181 278.341 209.04 278.696ZM217.204 287.166H213.424L212.696 289H209.784L213.844 278.444H216.84L220.816 289H217.89L217.204 287.166ZM216.462 285.066L215.342 281.706H215.314L214.18 285.066H216.462ZM226.181 280.768H221.771V278.444H230.437L224.375 289H221.365L226.181 280.768ZM236.101 277.38H238.103L232.755 290.302H230.753L236.101 277.38ZM245.384 280.768H242.122V282.532H245.216V284.856H242.122V286.676H245.384V289H239.378V278.444H245.384V280.768ZM249.82 278.444V286.676H253.11V289H247.076V278.444H249.82ZM256.681 281.482H254.133C254.236 280.427 254.647 279.578 255.365 278.934C256.047 278.327 256.943 278.024 258.053 278.024C259.033 278.024 259.841 278.295 260.475 278.836C261.11 279.377 261.427 280.129 261.427 281.09C261.427 281.538 261.334 281.963 261.147 282.364C260.961 282.756 260.685 283.055 260.321 283.26C260.853 283.4 261.273 283.736 261.581 284.268C261.889 284.791 262.043 285.341 262.043 285.92C262.043 286.657 261.843 287.297 261.441 287.838C261.049 288.379 260.545 288.776 259.929 289.028C259.323 289.289 258.66 289.42 257.941 289.42C256.625 289.42 255.575 289.023 254.791 288.23C254.455 287.885 254.166 287.465 253.923 286.97C253.69 286.475 253.578 286.009 253.587 285.57H256.387C256.387 285.999 256.523 286.359 256.793 286.648C257.073 286.928 257.428 287.068 257.857 287.068C258.287 287.068 258.637 286.937 258.907 286.676C259.187 286.415 259.327 286.074 259.327 285.654C259.327 285.262 259.183 284.931 258.893 284.66C258.604 284.38 258.263 284.24 257.871 284.24C257.759 284.24 257.601 284.268 257.395 284.324V282.49H257.675C258.03 282.49 258.319 282.387 258.543 282.182C258.767 281.967 258.879 281.683 258.879 281.328C258.879 281.011 258.777 280.754 258.571 280.558C258.366 280.362 258.109 280.264 257.801 280.264C257.456 280.264 257.181 280.381 256.975 280.614C256.77 280.838 256.672 281.127 256.681 281.482ZM270.605 284.716H271.879V286.816H270.605V289H268.057V286.816H262.933V285.066L267.007 278.444H270.605V284.716ZM268.057 284.716V280.656H268.029L265.565 284.716H268.057Z" fill="black"/>
<circle cx="544.5" cy="229.5" r="31" stroke="black" stroke-width="3"/>
<path d="M517.766 280.768H516.254V278.444H520.51V289H517.766V280.768ZM529.086 286.676H532.544V289H524.06L528.372 284.31C529.174 283.433 529.576 282.569 529.576 281.72C529.576 281.365 529.459 281.048 529.226 280.768C529.002 280.488 528.717 280.348 528.372 280.348C528.017 280.348 527.737 280.469 527.532 280.712C527.326 280.955 527.224 281.263 527.224 281.636C527.224 281.785 527.238 281.935 527.266 282.084H524.242C524.288 280.861 524.676 279.881 525.404 279.144C526.141 278.397 527.126 278.024 528.358 278.024C529.496 278.024 530.458 278.369 531.242 279.06C532.035 279.751 532.432 280.656 532.432 281.776C532.432 282.485 532.292 283.092 532.012 283.596C531.741 284.1 531.312 284.618 530.724 285.15L529.086 286.676ZM540.559 287.166H536.779L536.051 289H533.139L537.199 278.444H540.195L544.171 289H541.245L540.559 287.166ZM539.817 285.066L538.697 281.706H538.669L537.535 285.066H539.817ZM548.151 283.358L544.777 278.444H548.151L549.761 281.174L551.371 278.444H554.745L551.371 283.358L555.277 289H551.973L549.761 285.556L547.339 289H544.021L548.151 283.358ZM560.584 280.768H556.174V278.444H564.84L558.778 289H555.768L560.584 280.768ZM572.141 287.166H568.361L567.633 289H564.721L568.781 278.444H571.777L575.753 289H572.827L572.141 287.166ZM571.399 285.066L570.279 281.706H570.251L569.117 285.066H571.399Z" fill="black"/>
<circle cx="344.5" cy="229.5" r="31" stroke="black" stroke-width="3"/>
<path d="M317.766 280.768H316.254V278.444H320.51V289H317.766V280.768ZM329.086 286.676H332.544V289H324.06L328.372 284.31C329.174 283.433 329.576 282.569 329.576 281.72C329.576 281.365 329.459 281.048 329.226 280.768C329.002 280.488 328.717 280.348 328.372 280.348C328.017 280.348 327.737 280.469 327.532 280.712C327.326 280.955 327.224 281.263 327.224 281.636C327.224 281.785 327.238 281.935 327.266 282.084H324.242C324.288 280.861 324.676 279.881 325.404 279.144C326.141 278.397 327.126 278.024 328.358 278.024C329.496 278.024 330.458 278.369 331.242 279.06C332.035 279.751 332.432 280.656 332.432 281.776C332.432 282.485 332.292 283.092 332.012 283.596C331.741 284.1 331.312 284.618 330.724 285.15L329.086 286.676ZM340.559 287.166H336.779L336.051 289H333.139L337.199 278.444H340.195L344.171 289H341.245L340.559 287.166ZM339.817 285.066L338.697 281.706H338.669L337.535 285.066H339.817ZM348.151 283.358L344.777 278.444H348.151L349.761 281.174L351.371 278.444H354.745L351.371 283.358L355.277 289H351.973L349.761 285.556L347.339 289H344.021L348.151 283.358ZM360.584 280.768H356.174V278.444H364.84L358.778 289H355.768L360.584 280.768ZM372.141 287.166H368.361L367.633 289H364.721L368.781 278.444H371.777L375.753 289H372.827L372.141 287.166ZM371.399 285.066L370.279 281.706H370.251L369.117 285.066H371.399Z" fill="black"/>
<path d="M333.96 221.92L337.6 231.08L341.26 221.92H345.52L339.08 237H336.04L329.7 221.92H333.96ZM350.315 226.26H346.675C346.822 224.753 347.408 223.54 348.435 222.62C349.408 221.753 350.688 221.32 352.275 221.32C353.675 221.32 354.828 221.707 355.735 222.48C356.642 223.253 357.095 224.327 357.095 225.7C357.095 226.34 356.962 226.947 356.695 227.52C356.428 228.08 356.035 228.507 355.515 228.8C356.275 229 356.875 229.48 357.315 230.24C357.755 230.987 357.975 231.773 357.975 232.6C357.975 233.653 357.688 234.567 357.115 235.34C356.555 236.113 355.835 236.68 354.955 237.04C354.088 237.413 353.142 237.6 352.115 237.6C350.235 237.6 348.735 237.033 347.615 235.9C347.135 235.407 346.722 234.807 346.375 234.1C346.042 233.393 345.882 232.727 345.895 232.1H349.895C349.895 232.713 350.088 233.227 350.475 233.64C350.875 234.04 351.382 234.24 351.995 234.24C352.608 234.24 353.108 234.053 353.495 233.68C353.895 233.307 354.095 232.82 354.095 232.22C354.095 231.66 353.888 231.187 353.475 230.8C353.062 230.4 352.575 230.2 352.015 230.2C351.855 230.2 351.628 230.24 351.335 230.32V227.7H351.735C352.242 227.7 352.655 227.553 352.975 227.26C353.295 226.953 353.455 226.547 353.455 226.04C353.455 225.587 353.308 225.22 353.015 224.94C352.722 224.66 352.355 224.52 351.915 224.52C351.422 224.52 351.028 224.687 350.735 225.02C350.442 225.34 350.302 225.753 350.315 226.26Z" fill="black"/>
<circle cx="444.5" cy="229.5" r="31" stroke="black" stroke-width="3"/>
<path d="M417.766 280.768H416.254V278.444H420.51V289H417.766V280.768ZM429.086 286.676H432.544V289H424.06L428.372 284.31C429.174 283.433 429.576 282.569 429.576 281.72C429.576 281.365 429.459 281.048 429.226 280.768C429.002 280.488 428.717 280.348 428.372 280.348C428.017 280.348 427.737 280.469 427.532 280.712C427.326 280.955 427.224 281.263 427.224 281.636C427.224 281.785 427.238 281.935 427.266 282.084H424.242C424.288 280.861 424.676 279.881 425.404 279.144C426.141 278.397 427.126 278.024 428.358 278.024C429.496 278.024 430.458 278.369 431.242 279.06C432.035 279.751 432.432 280.656 432.432 281.776C432.432 282.485 432.292 283.092 432.012 283.596C431.741 284.1 431.312 284.618 430.724 285.15L429.086 286.676ZM440.559 287.166H436.779L436.051 289H433.139L437.199 278.444H440.195L444.171 289H441.245L440.559 287.166ZM439.817 285.066L438.697 281.706H438.669L437.535 285.066H439.817ZM448.151 283.358L444.777 278.444H448.151L449.761 281.174L451.371 278.444H454.745L451.371 283.358L455.277 289H451.973L449.761 285.556L447.339 289H444.021L448.151 283.358ZM460.584 280.768H456.174V278.444H464.84L458.778 289H455.768L460.584 280.768ZM472.141 287.166H468.361L467.633 289H464.721L468.781 278.444H471.777L475.753 289H472.827L472.141 287.166ZM471.399 285.066L470.279 281.706H470.251L469.117 285.066H471.399Z" fill="black"/>
<path d="M433.96 221.92L437.6 231.08L441.26 221.92H445.52L439.08 237H436.04L429.7 221.92H433.96ZM453.055 233.68H457.995V237H445.875L452.035 230.3C453.182 229.047 453.755 227.813 453.755 226.6C453.755 226.093 453.588 225.64 453.255 225.24C452.935 224.84 452.528 224.64 452.035 224.64C451.528 224.64 451.128 224.813 450.835 225.16C450.542 225.507 450.395 225.947 450.395 226.48C450.395 226.693 450.415 226.907 450.455 227.12H446.135C446.202 225.373 446.755 223.973 447.795 222.92C448.848 221.853 450.255 221.32 452.015 221.32C453.642 221.32 455.015 221.813 456.135 222.8C457.268 223.787 457.835 225.08 457.835 226.68C457.835 227.693 457.635 228.56 457.235 229.28C456.848 230 456.235 230.74 455.395 231.5L453.055 233.68Z" fill="black"/>
<path d="M534.96 221.92L538.6 231.08L542.26 221.92H546.52L540.08 237H537.04L530.7 221.92H534.96ZM551.595 225.24H549.435V221.92H555.515V237H551.595V225.24Z" fill="black"/>
<rect x="38" y="36" width="562" height="273" rx="9" stroke="black" stroke-width="2"/>
<path d="M136.563 96.568V94.312C136.563 94.08 136.587 93.932 136.635 93.868C136.683 93.796 136.819 93.76 137.043 93.76H138.675C138.915 93.76 139.063 93.724 139.119 93.652C139.175 93.58 139.203 93.42 139.203 93.172V91.444C139.203 91.116 139.175 90.884 139.119 90.748C139.063 90.604 138.975 90.444 138.855 90.268L133.731 82.792C133.595 82.584 133.479 82.44 133.383 82.36C133.295 82.28 133.071 82.24 132.711 82.24H131.439C131.191 82.24 131.043 82.2 130.995 82.12C130.947 82.04 130.923 81.876 130.923 81.628V79.84C130.923 79.464 130.991 79.232 131.127 79.144C131.263 79.048 131.503 79 131.847 79H141.375C141.679 79 141.891 79.036 142.011 79.108C142.139 79.172 142.203 79.368 142.203 79.696V81.676C142.203 81.916 142.167 82.072 142.095 82.144C142.031 82.208 141.883 82.24 141.651 82.24H140.631C140.335 82.24 140.159 82.284 140.103 82.372C140.047 82.46 140.107 82.632 140.283 82.888L142.347 85.888C142.571 86.2 142.735 86.4 142.839 86.488C142.951 86.576 143.063 86.564 143.175 86.452C143.287 86.332 143.455 86.128 143.679 85.84L145.995 82.84C146.195 82.584 146.251 82.42 146.163 82.348C146.075 82.276 145.903 82.24 145.647 82.24H144.723C144.419 82.24 144.223 82.212 144.135 82.156C144.047 82.092 144.003 81.908 144.003 81.604V79.6C144.003 79.328 144.035 79.16 144.099 79.096C144.171 79.032 144.339 79 144.603 79H152.055C152.263 79 152.411 79.02 152.499 79.06C152.595 79.1 152.643 79.236 152.643 79.468V81.916C152.643 82.068 152.607 82.16 152.535 82.192C152.471 82.224 152.359 82.24 152.199 82.24H151.407C151.055 82.24 150.827 82.28 150.723 82.36C150.627 82.432 150.503 82.56 150.351 82.744L145.323 88.972C145.171 89.172 145.051 89.34 144.963 89.476C144.883 89.612 144.843 89.868 144.843 90.244V93.196C144.843 93.42 144.867 93.572 144.915 93.652C144.963 93.724 145.099 93.76 145.323 93.76H147.231C147.463 93.76 147.603 93.8 147.651 93.88C147.699 93.952 147.723 94.108 147.723 94.348V96.532C147.723 96.716 147.699 96.84 147.651 96.904C147.611 96.968 147.499 97 147.315 97H136.947C136.787 97 136.683 96.972 136.635 96.916C136.587 96.86 136.563 96.744 136.563 96.568ZM165.957 93.76C166.645 93.76 167.181 93.66 167.565 93.46C167.949 93.252 168.217 92.968 168.369 92.608C168.521 92.248 168.597 91.832 168.597 91.36C168.597 90.888 168.485 90.504 168.261 90.208C168.045 89.904 167.737 89.68 167.337 89.536C166.945 89.392 166.485 89.32 165.957 89.32H164.169C164.017 89.32 163.897 89.368 163.809 89.464C163.721 89.552 163.677 89.68 163.677 89.848V93.088C163.677 93.336 163.709 93.512 163.773 93.616C163.837 93.712 163.985 93.76 164.217 93.76H165.957ZM164.361 86.08H165.477C165.965 86.08 166.389 86.008 166.749 85.864C167.109 85.72 167.385 85.5 167.577 85.204C167.777 84.9 167.877 84.512 167.877 84.04C167.877 83.568 167.793 83.204 167.625 82.948C167.465 82.684 167.209 82.5 166.857 82.396C166.505 82.292 166.045 82.24 165.477 82.24H164.289C164.105 82.24 163.957 82.26 163.845 82.3C163.733 82.332 163.677 82.44 163.677 82.624V85.372C163.677 85.668 163.717 85.86 163.797 85.948C163.877 86.036 164.065 86.08 164.361 86.08ZM166.437 97H155.961C155.689 97 155.525 96.94 155.469 96.82C155.421 96.692 155.397 96.488 155.397 96.208V94.12C155.397 93.96 155.429 93.86 155.493 93.82C155.565 93.78 155.673 93.76 155.817 93.76H157.473C157.737 93.76 157.897 93.704 157.953 93.592C158.009 93.48 158.037 93.288 158.037 93.016V82.864C158.037 82.648 158.005 82.492 157.941 82.396C157.885 82.292 157.753 82.24 157.545 82.24H155.913C155.689 82.24 155.545 82.212 155.481 82.156C155.425 82.092 155.397 81.952 155.397 81.736V79.624C155.397 79.384 155.433 79.22 155.505 79.132C155.585 79.044 155.737 79 155.961 79H165.717C167.565 79 169.073 79.136 170.241 79.408C171.409 79.68 172.265 80.14 172.809 80.788C173.361 81.436 173.637 82.32 173.637 83.44C173.637 84.432 173.353 85.248 172.785 85.888C172.225 86.528 171.409 87.012 170.337 87.34C170.113 87.404 170.001 87.496 170.001 87.616C170.001 87.736 170.137 87.824 170.409 87.88C171.745 88.152 172.777 88.628 173.505 89.308C174.233 89.98 174.597 90.864 174.597 91.96C174.597 93.24 174.317 94.248 173.757 94.984C173.205 95.712 172.329 96.232 171.129 96.544C169.929 96.848 168.365 97 166.437 97ZM185.848 84.772L184.444 88.18C184.364 88.356 184.316 88.532 184.3 88.708C184.292 88.876 184.448 88.96 184.768 88.96H187.3C187.58 88.96 187.72 88.88 187.72 88.72C187.728 88.56 187.7 88.396 187.636 88.228L186.388 84.724C186.292 84.444 186.196 84.336 186.1 84.4C186.012 84.464 185.928 84.588 185.848 84.772ZM175.9 96.316V94.348C175.9 94.14 175.936 93.992 176.008 93.904C176.08 93.808 176.228 93.76 176.452 93.76H178.432C178.632 93.76 178.748 93.72 178.78 93.64C178.812 93.552 178.856 93.444 178.912 93.316L184.996 79.036C185.076 78.844 185.152 78.732 185.224 78.7C185.304 78.66 185.48 78.64 185.752 78.64H189.352C189.632 78.64 189.812 78.68 189.892 78.76C189.98 78.832 190.064 78.964 190.144 79.156L195.676 93.028C195.764 93.252 195.832 93.432 195.88 93.568C195.936 93.696 196.136 93.76 196.48 93.76H198.064C198.272 93.76 198.428 93.78 198.532 93.82C198.644 93.86 198.7 93.996 198.7 94.228V96.46C198.7 96.7 198.668 96.852 198.604 96.916C198.54 96.972 198.392 97 198.16 97H187.432C187.192 97 187.048 96.964 187 96.892C186.96 96.812 186.94 96.652 186.94 96.412V94.276C186.94 94.044 186.968 93.9 187.024 93.844C187.088 93.788 187.232 93.76 187.456 93.76H188.824C189.176 93.76 189.384 93.72 189.448 93.64C189.512 93.56 189.5 93.404 189.412 93.172L189.124 92.356C189.068 92.196 189.016 92.092 188.968 92.044C188.928 91.988 188.792 91.96 188.56 91.96H183.496C183.264 91.96 183.1 91.968 183.004 91.984C182.908 91.992 182.824 92.084 182.752 92.26L182.356 93.244C182.276 93.436 182.252 93.572 182.284 93.652C182.316 93.724 182.44 93.76 182.656 93.76H183.904C184.096 93.76 184.208 93.796 184.24 93.868C184.28 93.932 184.3 94.06 184.3 94.252V96.556C184.3 96.756 184.264 96.88 184.192 96.928C184.12 96.976 183.992 97 183.808 97H176.692C176.356 97 176.14 96.972 176.044 96.916C175.948 96.852 175.9 96.652 175.9 96.316ZM202.953 86.32H210.297C210.481 86.32 210.593 86.352 210.633 86.416C210.681 86.472 210.705 86.596 210.705 86.788V88.588C210.705 88.796 210.685 88.932 210.645 88.996C210.605 89.052 210.481 89.08 210.273 89.08H203.049C202.833 89.08 202.693 89.052 202.629 88.996C202.573 88.94 202.545 88.808 202.545 88.6V86.812C202.545 86.62 202.565 86.492 202.605 86.428C202.645 86.356 202.761 86.32 202.953 86.32ZM215.384 96.22V95.008C215.384 94.752 215.424 94.6 215.504 94.552C215.592 94.504 215.764 94.48 216.02 94.48H219.164C219.46 94.48 219.644 94.444 219.716 94.372C219.788 94.292 219.824 94.112 219.824 93.832V84.124C219.824 83.884 219.788 83.732 219.716 83.668C219.644 83.596 219.492 83.56 219.26 83.56H216.332C216.132 83.56 215.992 83.536 215.912 83.488C215.832 83.44 215.792 83.308 215.792 83.092V81.652C215.792 81.324 215.88 81.14 216.056 81.1C216.232 81.06 216.46 81.036 216.74 81.028C217.476 81.012 218.172 80.948 218.828 80.836C219.484 80.716 220.08 80.484 220.616 80.14C221.152 79.796 221.604 79.276 221.972 78.58C222.076 78.388 222.172 78.252 222.26 78.172C222.348 78.084 222.548 78.04 222.86 78.04H223.892C224.148 78.04 224.312 78.072 224.384 78.136C224.464 78.192 224.504 78.344 224.504 78.592V93.808C224.504 94.128 224.552 94.32 224.648 94.384C224.744 94.448 224.956 94.48 225.284 94.48H227.948C228.148 94.48 228.304 94.508 228.416 94.564C228.528 94.612 228.584 94.744 228.584 94.96V96.292C228.584 96.588 228.556 96.78 228.5 96.868C228.444 96.956 228.268 97 227.972 97H216.164C215.82 97 215.604 96.96 215.516 96.88C215.428 96.8 215.384 96.58 215.384 96.22ZM255.858 83.92C255.858 84.504 255.706 85.012 255.402 85.444C255.106 85.868 254.714 86.196 254.226 86.428C253.746 86.66 253.234 86.776 252.69 86.776C251.682 86.776 250.87 86.448 250.254 85.792C249.638 85.128 249.33 84.148 249.33 82.852C249.33 82.012 249.514 81.244 249.882 80.548C250.258 79.844 250.738 79.232 251.322 78.712C251.914 78.192 252.534 77.776 253.182 77.464C253.83 77.144 254.43 76.948 254.982 76.876C255.158 76.852 255.274 76.864 255.33 76.912C255.394 76.96 255.426 77.08 255.426 77.272V78.7C255.426 78.82 255.402 78.9 255.354 78.94C255.306 78.972 255.23 78.996 255.126 79.012C254.646 79.06 254.178 79.204 253.722 79.444C253.266 79.684 252.862 79.96 252.51 80.272C252.166 80.584 251.91 80.88 251.742 81.16C251.71 81.208 251.71 81.248 251.742 81.28C251.782 81.304 251.838 81.3 251.91 81.268C252.046 81.204 252.218 81.156 252.426 81.124C252.642 81.084 252.882 81.064 253.146 81.064C253.962 81.064 254.618 81.32 255.114 81.832C255.61 82.344 255.858 83.04 255.858 83.92ZM248.418 83.92C248.418 84.504 248.266 85.012 247.962 85.444C247.666 85.868 247.274 86.196 246.786 86.428C246.306 86.66 245.794 86.776 245.25 86.776C244.242 86.776 243.43 86.448 242.814 85.792C242.198 85.128 241.89 84.148 241.89 82.852C241.89 82.012 242.074 81.244 242.442 80.548C242.818 79.844 243.298 79.232 243.882 78.712C244.474 78.192 245.094 77.776 245.742 77.464C246.39 77.144 246.99 76.948 247.542 76.876C247.718 76.852 247.834 76.864 247.89 76.912C247.954 76.96 247.986 77.08 247.986 77.272V78.7C247.986 78.82 247.962 78.9 247.914 78.94C247.866 78.972 247.79 78.996 247.686 79.012C247.206 79.06 246.738 79.204 246.282 79.444C245.826 79.684 245.422 79.96 245.07 80.272C244.726 80.584 244.47 80.88 244.302 81.16C244.27 81.208 244.27 81.248 244.302 81.28C244.342 81.304 244.398 81.3 244.47 81.268C244.606 81.204 244.778 81.156 244.986 81.124C245.202 81.084 245.442 81.064 245.706 81.064C246.522 81.064 247.178 81.32 247.674 81.832C248.17 82.344 248.418 83.04 248.418 83.92ZM270.38 93.76C271.068 93.76 271.604 93.66 271.988 93.46C272.372 93.252 272.64 92.968 272.792 92.608C272.944 92.248 273.02 91.832 273.02 91.36C273.02 90.888 272.908 90.504 272.684 90.208C272.468 89.904 272.16 89.68 271.76 89.536C271.368 89.392 270.908 89.32 270.38 89.32H268.592C268.44 89.32 268.32 89.368 268.232 89.464C268.144 89.552 268.1 89.68 268.1 89.848V93.088C268.1 93.336 268.132 93.512 268.196 93.616C268.26 93.712 268.408 93.76 268.64 93.76H270.38ZM268.784 86.08H269.9C270.388 86.08 270.812 86.008 271.172 85.864C271.532 85.72 271.808 85.5 272 85.204C272.2 84.9 272.3 84.512 272.3 84.04C272.3 83.568 272.216 83.204 272.048 82.948C271.888 82.684 271.632 82.5 271.28 82.396C270.928 82.292 270.468 82.24 269.9 82.24H268.712C268.528 82.24 268.38 82.26 268.268 82.3C268.156 82.332 268.1 82.44 268.1 82.624V85.372C268.1 85.668 268.14 85.86 268.22 85.948C268.3 86.036 268.488 86.08 268.784 86.08ZM270.86 97H260.384C260.112 97 259.948 96.94 259.892 96.82C259.844 96.692 259.82 96.488 259.82 96.208V94.12C259.82 93.96 259.852 93.86 259.916 93.82C259.988 93.78 260.096 93.76 260.24 93.76H261.896C262.16 93.76 262.32 93.704 262.376 93.592C262.432 93.48 262.46 93.288 262.46 93.016V82.864C262.46 82.648 262.428 82.492 262.364 82.396C262.308 82.292 262.176 82.24 261.968 82.24H260.336C260.112 82.24 259.968 82.212 259.904 82.156C259.848 82.092 259.82 81.952 259.82 81.736V79.624C259.82 79.384 259.856 79.22 259.928 79.132C260.008 79.044 260.16 79 260.384 79H270.14C271.988 79 273.496 79.136 274.664 79.408C275.832 79.68 276.688 80.14 277.232 80.788C277.784 81.436 278.06 82.32 278.06 83.44C278.06 84.432 277.776 85.248 277.208 85.888C276.648 86.528 275.832 87.012 274.76 87.34C274.536 87.404 274.424 87.496 274.424 87.616C274.424 87.736 274.56 87.824 274.832 87.88C276.168 88.152 277.2 88.628 277.928 89.308C278.656 89.98 279.02 90.864 279.02 91.96C279.02 93.24 278.74 94.248 278.18 94.984C277.628 95.712 276.752 96.232 275.552 96.544C274.352 96.848 272.788 97 270.86 97ZM290.271 84.772L288.867 88.18C288.787 88.356 288.739 88.532 288.723 88.708C288.715 88.876 288.871 88.96 289.191 88.96H291.723C292.003 88.96 292.143 88.88 292.143 88.72C292.151 88.56 292.123 88.396 292.059 88.228L290.811 84.724C290.715 84.444 290.619 84.336 290.523 84.4C290.435 84.464 290.351 84.588 290.271 84.772ZM280.323 96.316V94.348C280.323 94.14 280.359 93.992 280.431 93.904C280.503 93.808 280.651 93.76 280.875 93.76H282.855C283.055 93.76 283.171 93.72 283.203 93.64C283.235 93.552 283.279 93.444 283.335 93.316L289.419 79.036C289.499 78.844 289.575 78.732 289.647 78.7C289.727 78.66 289.903 78.64 290.175 78.64H293.775C294.055 78.64 294.235 78.68 294.315 78.76C294.403 78.832 294.487 78.964 294.567 79.156L300.099 93.028C300.187 93.252 300.255 93.432 300.303 93.568C300.359 93.696 300.559 93.76 300.903 93.76H302.487C302.695 93.76 302.851 93.78 302.955 93.82C303.067 93.86 303.123 93.996 303.123 94.228V96.46C303.123 96.7 303.091 96.852 303.027 96.916C302.963 96.972 302.815 97 302.583 97H291.855C291.615 97 291.471 96.964 291.423 96.892C291.383 96.812 291.363 96.652 291.363 96.412V94.276C291.363 94.044 291.391 93.9 291.447 93.844C291.511 93.788 291.655 93.76 291.879 93.76H293.247C293.599 93.76 293.807 93.72 293.871 93.64C293.935 93.56 293.923 93.404 293.835 93.172L293.547 92.356C293.491 92.196 293.439 92.092 293.391 92.044C293.351 91.988 293.215 91.96 292.983 91.96H287.919C287.687 91.96 287.523 91.968 287.427 91.984C287.331 91.992 287.247 92.084 287.175 92.26L286.779 93.244C286.699 93.436 286.675 93.572 286.707 93.652C286.739 93.724 286.863 93.76 287.079 93.76H288.327C288.519 93.76 288.631 93.796 288.663 93.868C288.703 93.932 288.723 94.06 288.723 94.252V96.556C288.723 96.756 288.687 96.88 288.615 96.928C288.543 96.976 288.415 97 288.231 97H281.115C280.779 97 280.563 96.972 280.467 96.916C280.371 96.852 280.323 96.652 280.323 96.316ZM319.256 84.796C319.104 84.052 318.776 83.46 318.272 83.02C317.768 82.58 317.188 82.264 316.532 82.072C315.884 81.88 315.256 81.784 314.648 81.784C313.856 81.784 313.24 81.908 312.8 82.156C312.368 82.396 312.152 82.72 312.152 83.128C312.152 83.536 312.34 83.872 312.716 84.136C313.1 84.4 313.604 84.632 314.228 84.832C314.86 85.032 315.548 85.236 316.292 85.444C317.044 85.644 317.792 85.888 318.536 86.176C319.288 86.464 319.976 86.832 320.6 87.28C321.232 87.728 321.736 88.292 322.112 88.972C322.496 89.652 322.688 90.488 322.688 91.48C322.688 93 322.36 94.196 321.704 95.068C321.048 95.94 320.148 96.56 319.004 96.928C317.868 97.296 316.576 97.48 315.128 97.48C314.048 97.48 313.14 97.336 312.404 97.048C311.668 96.76 311.064 96.396 310.592 95.956C310.336 95.716 310.16 95.652 310.064 95.764C309.976 95.868 309.84 96.076 309.656 96.388L309.44 96.796C309.36 96.932 309.26 97.02 309.14 97.06C309.028 97.1 308.86 97.12 308.636 97.12H307.136C306.904 97.12 306.736 97.084 306.632 97.012C306.536 96.948 306.488 96.804 306.488 96.58V90.556C306.488 90.3 306.512 90.132 306.56 90.052C306.616 89.964 306.768 89.92 307.016 89.92H308.768C309.048 89.92 309.196 89.956 309.212 90.028C309.228 90.1 309.252 90.26 309.284 90.508C309.38 91.212 309.64 91.856 310.064 92.44C310.496 93.016 311.06 93.476 311.756 93.82C312.46 94.164 313.264 94.336 314.168 94.336C314.856 94.336 315.432 94.272 315.896 94.144C316.36 94.008 316.708 93.808 316.94 93.544C317.172 93.28 317.288 92.952 317.288 92.56C317.288 92.08 317.1 91.696 316.724 91.408C316.348 91.112 315.848 90.864 315.224 90.664C314.608 90.464 313.928 90.272 313.184 90.088C312.44 89.904 311.696 89.684 310.952 89.428C310.208 89.164 309.524 88.824 308.9 88.408C308.284 87.984 307.788 87.444 307.412 86.788C307.036 86.124 306.848 85.296 306.848 84.304C306.848 83.28 307.04 82.412 307.424 81.7C307.816 80.98 308.332 80.396 308.972 79.948C309.612 79.492 310.32 79.16 311.096 78.952C311.88 78.744 312.664 78.64 313.448 78.64C314.36 78.64 315.184 78.768 315.92 79.024C316.664 79.28 317.304 79.612 317.84 80.02C318.072 80.196 318.248 80.28 318.368 80.272C318.496 80.264 318.648 80.12 318.824 79.84L319.124 79.324C319.196 79.212 319.252 79.132 319.292 79.084C319.34 79.028 319.464 79 319.664 79H321.512C321.72 79 321.868 79.036 321.956 79.108C322.044 79.18 322.088 79.328 322.088 79.552V84.94C322.088 85.228 322.048 85.412 321.968 85.492C321.896 85.564 321.708 85.6 321.404 85.6H320.096C319.704 85.6 319.48 85.544 319.424 85.432C319.376 85.32 319.32 85.108 319.256 84.796ZM338.953 84.796C338.801 84.052 338.473 83.46 337.969 83.02C337.465 82.58 336.885 82.264 336.229 82.072C335.581 81.88 334.953 81.784 334.345 81.784C333.553 81.784 332.937 81.908 332.497 82.156C332.065 82.396 331.849 82.72 331.849 83.128C331.849 83.536 332.037 83.872 332.413 84.136C332.797 84.4 333.301 84.632 333.925 84.832C334.557 85.032 335.245 85.236 335.989 85.444C336.741 85.644 337.489 85.888 338.233 86.176C338.985 86.464 339.673 86.832 340.297 87.28C340.929 87.728 341.433 88.292 341.809 88.972C342.193 89.652 342.385 90.488 342.385 91.48C342.385 93 342.057 94.196 341.401 95.068C340.745 95.94 339.845 96.56 338.701 96.928C337.565 97.296 336.273 97.48 334.825 97.48C333.745 97.48 332.837 97.336 332.101 97.048C331.365 96.76 330.761 96.396 330.289 95.956C330.033 95.716 329.857 95.652 329.761 95.764C329.673 95.868 329.537 96.076 329.353 96.388L329.137 96.796C329.057 96.932 328.957 97.02 328.837 97.06C328.725 97.1 328.557 97.12 328.333 97.12H326.833C326.601 97.12 326.433 97.084 326.329 97.012C326.233 96.948 326.185 96.804 326.185 96.58V90.556C326.185 90.3 326.209 90.132 326.257 90.052C326.313 89.964 326.465 89.92 326.713 89.92H328.465C328.745 89.92 328.893 89.956 328.909 90.028C328.925 90.1 328.949 90.26 328.981 90.508C329.077 91.212 329.337 91.856 329.761 92.44C330.193 93.016 330.757 93.476 331.453 93.82C332.157 94.164 332.961 94.336 333.865 94.336C334.553 94.336 335.129 94.272 335.593 94.144C336.057 94.008 336.405 93.808 336.637 93.544C336.869 93.28 336.985 92.952 336.985 92.56C336.985 92.08 336.797 91.696 336.421 91.408C336.045 91.112 335.545 90.864 334.921 90.664C334.305 90.464 333.625 90.272 332.881 90.088C332.137 89.904 331.393 89.684 330.649 89.428C329.905 89.164 329.221 88.824 328.597 88.408C327.981 87.984 327.485 87.444 327.109 86.788C326.733 86.124 326.545 85.296 326.545 84.304C326.545 83.28 326.737 82.412 327.121 81.7C327.513 80.98 328.029 80.396 328.669 79.948C329.309 79.492 330.017 79.16 330.793 78.952C331.577 78.744 332.361 78.64 333.145 78.64C334.057 78.64 334.881 78.768 335.617 79.024C336.361 79.28 337.001 79.612 337.537 80.02C337.769 80.196 337.945 80.28 338.065 80.272C338.193 80.264 338.345 80.12 338.521 79.84L338.821 79.324C338.893 79.212 338.949 79.132 338.989 79.084C339.037 79.028 339.161 79 339.361 79H341.209C341.417 79 341.565 79.036 341.653 79.108C341.741 79.18 341.785 79.328 341.785 79.552V84.94C341.785 85.228 341.745 85.412 341.665 85.492C341.593 85.564 341.405 85.6 341.101 85.6H339.793C339.401 85.6 339.177 85.544 339.121 85.432C339.073 85.32 339.017 85.108 338.953 84.796ZM348.306 82.24H346.938C346.658 82.24 346.49 82.22 346.434 82.18C346.386 82.132 346.362 81.964 346.362 81.676V79.372C346.362 79.124 346.418 79 346.53 79C346.642 79 346.81 79 347.034 79H355.794C356.114 79 356.33 79.036 356.442 79.108C356.562 79.18 356.642 79.292 356.682 79.444C356.73 79.588 356.79 79.772 356.862 79.996L359.154 87.172C359.282 87.556 359.386 87.924 359.466 88.276C359.554 88.628 359.658 88.804 359.778 88.804C359.914 88.804 360.026 88.7 360.114 88.492C360.202 88.276 360.322 87.964 360.474 87.556L363.486 79.492C363.574 79.268 363.65 79.132 363.714 79.084C363.786 79.028 363.978 79 364.29 79H371.802C372.106 79 372.322 79.004 372.45 79.012C372.578 79.02 372.642 79.188 372.642 79.516V81.628C372.642 81.924 372.622 82.1 372.582 82.156C372.542 82.212 372.37 82.24 372.066 82.24H370.602C370.346 82.24 370.198 82.264 370.158 82.312C370.126 82.36 370.114 82.508 370.122 82.756L370.482 93.268C370.49 93.476 370.502 93.612 370.518 93.676C370.542 93.732 370.666 93.76 370.89 93.76H372.81C373.01 93.76 373.13 93.792 373.17 93.856C373.218 93.912 373.242 94.044 373.242 94.252V96.34C373.242 96.596 373.214 96.772 373.158 96.868C373.11 96.956 372.946 97 372.666 97H363.354C363.09 97 362.93 96.964 362.874 96.892C362.826 96.812 362.802 96.636 362.802 96.364V94.324C362.802 94.052 362.846 93.892 362.934 93.844C363.03 93.788 363.202 93.76 363.45 93.76H364.722C364.978 93.76 365.146 93.72 365.226 93.64C365.314 93.552 365.354 93.384 365.346 93.136L365.202 87.724C365.186 87.164 365.198 86.636 365.238 86.14C365.286 85.636 365.31 85.228 365.31 84.916C365.31 84.596 365.234 84.436 365.082 84.436C364.986 84.436 364.91 84.488 364.854 84.592C364.798 84.688 364.742 84.844 364.686 85.06C364.63 85.276 364.538 85.564 364.41 85.924L360.726 96.748C360.638 97.004 360.542 97.168 360.438 97.24C360.334 97.32 360.106 97.36 359.754 97.36H357.594C357.242 97.36 357.01 97.32 356.898 97.24C356.794 97.168 356.698 97.004 356.61 96.748L353.046 86.356C352.942 86.052 352.842 85.704 352.746 85.312C352.658 84.92 352.57 84.576 352.482 84.28C352.394 83.984 352.298 83.836 352.194 83.836C352.09 83.836 352.03 83.948 352.014 84.172C351.998 84.396 351.978 84.78 351.954 85.324L351.594 92.908C351.586 93.196 351.598 93.412 351.63 93.556C351.662 93.692 351.842 93.76 352.17 93.76H353.754C353.978 93.76 354.122 93.792 354.186 93.856C354.25 93.92 354.282 94.068 354.282 94.3V96.388C354.282 96.684 354.234 96.86 354.138 96.916C354.05 96.972 353.866 97 353.586 97H346.146C345.866 97 345.69 96.964 345.618 96.892C345.554 96.82 345.522 96.636 345.522 96.34V94.18C345.522 94.012 345.542 93.9 345.582 93.844C345.622 93.788 345.722 93.76 345.882 93.76H347.778C348.138 93.76 348.322 93.688 348.33 93.544C348.346 93.392 348.362 93.156 348.378 92.836L348.93 82.66C348.946 82.404 348.91 82.272 348.822 82.264C348.734 82.248 348.562 82.24 348.306 82.24ZM386.192 84.772L384.788 88.18C384.708 88.356 384.66 88.532 384.644 88.708C384.636 88.876 384.792 88.96 385.112 88.96H387.644C387.924 88.96 388.064 88.88 388.064 88.72C388.072 88.56 388.044 88.396 387.98 88.228L386.732 84.724C386.636 84.444 386.54 84.336 386.444 84.4C386.356 84.464 386.272 84.588 386.192 84.772ZM376.244 96.316V94.348C376.244 94.14 376.28 93.992 376.352 93.904C376.424 93.808 376.572 93.76 376.796 93.76H378.776C378.976 93.76 379.092 93.72 379.124 93.64C379.156 93.552 379.2 93.444 379.256 93.316L385.34 79.036C385.42 78.844 385.496 78.732 385.568 78.7C385.648 78.66 385.824 78.64 386.096 78.64H389.696C389.976 78.64 390.156 78.68 390.236 78.76C390.324 78.832 390.408 78.964 390.488 79.156L396.02 93.028C396.108 93.252 396.176 93.432 396.224 93.568C396.28 93.696 396.48 93.76 396.824 93.76H398.408C398.616 93.76 398.772 93.78 398.876 93.82C398.988 93.86 399.044 93.996 399.044 94.228V96.46C399.044 96.7 399.012 96.852 398.948 96.916C398.884 96.972 398.736 97 398.504 97H387.776C387.536 97 387.392 96.964 387.344 96.892C387.304 96.812 387.284 96.652 387.284 96.412V94.276C387.284 94.044 387.312 93.9 387.368 93.844C387.432 93.788 387.576 93.76 387.8 93.76H389.168C389.52 93.76 389.728 93.72 389.792 93.64C389.856 93.56 389.844 93.404 389.756 93.172L389.468 92.356C389.412 92.196 389.36 92.092 389.312 92.044C389.272 91.988 389.136 91.96 388.904 91.96H383.84C383.608 91.96 383.444 91.968 383.348 91.984C383.252 91.992 383.168 92.084 383.096 92.26L382.7 93.244C382.62 93.436 382.596 93.572 382.628 93.652C382.66 93.724 382.784 93.76 383 93.76H384.248C384.44 93.76 384.552 93.796 384.584 93.868C384.624 93.932 384.644 94.06 384.644 94.252V96.556C384.644 96.756 384.608 96.88 384.536 96.928C384.464 96.976 384.336 97 384.152 97H377.036C376.7 97 376.484 96.972 376.388 96.916C376.292 96.852 376.244 96.652 376.244 96.316ZM415.176 84.796C415.024 84.052 414.696 83.46 414.192 83.02C413.688 82.58 413.108 82.264 412.452 82.072C411.804 81.88 411.176 81.784 410.568 81.784C409.776 81.784 409.16 81.908 408.72 82.156C408.288 82.396 408.072 82.72 408.072 83.128C408.072 83.536 408.26 83.872 408.636 84.136C409.02 84.4 409.524 84.632 410.148 84.832C410.78 85.032 411.468 85.236 412.212 85.444C412.964 85.644 413.712 85.888 414.456 86.176C415.208 86.464 415.896 86.832 416.52 87.28C417.152 87.728 417.656 88.292 418.032 88.972C418.416 89.652 418.608 90.488 418.608 91.48C418.608 93 418.28 94.196 417.624 95.068C416.968 95.94 416.068 96.56 414.924 96.928C413.788 97.296 412.496 97.48 411.048 97.48C409.968 97.48 409.06 97.336 408.324 97.048C407.588 96.76 406.984 96.396 406.512 95.956C406.256 95.716 406.08 95.652 405.984 95.764C405.896 95.868 405.76 96.076 405.576 96.388L405.36 96.796C405.28 96.932 405.18 97.02 405.06 97.06C404.948 97.1 404.78 97.12 404.556 97.12H403.056C402.824 97.12 402.656 97.084 402.552 97.012C402.456 96.948 402.408 96.804 402.408 96.58V90.556C402.408 90.3 402.432 90.132 402.48 90.052C402.536 89.964 402.688 89.92 402.936 89.92H404.688C404.968 89.92 405.116 89.956 405.132 90.028C405.148 90.1 405.172 90.26 405.204 90.508C405.3 91.212 405.56 91.856 405.984 92.44C406.416 93.016 406.98 93.476 407.676 93.82C408.38 94.164 409.184 94.336 410.088 94.336C410.776 94.336 411.352 94.272 411.816 94.144C412.28 94.008 412.628 93.808 412.86 93.544C413.092 93.28 413.208 92.952 413.208 92.56C413.208 92.08 413.02 91.696 412.644 91.408C412.268 91.112 411.768 90.864 411.144 90.664C410.528 90.464 409.848 90.272 409.104 90.088C408.36 89.904 407.616 89.684 406.872 89.428C406.128 89.164 405.444 88.824 404.82 88.408C404.204 87.984 403.708 87.444 403.332 86.788C402.956 86.124 402.768 85.296 402.768 84.304C402.768 83.28 402.96 82.412 403.344 81.7C403.736 80.98 404.252 80.396 404.892 79.948C405.532 79.492 406.24 79.16 407.016 78.952C407.8 78.744 408.584 78.64 409.368 78.64C410.28 78.64 411.104 78.768 411.84 79.024C412.584 79.28 413.224 79.612 413.76 80.02C413.992 80.196 414.168 80.28 414.288 80.272C414.416 80.264 414.568 80.12 414.744 79.84L415.044 79.324C415.116 79.212 415.172 79.132 415.212 79.084C415.26 79.028 415.384 79 415.584 79H417.432C417.64 79 417.788 79.036 417.876 79.108C417.964 79.18 418.008 79.328 418.008 79.552V84.94C418.008 85.228 417.968 85.412 417.888 85.492C417.816 85.564 417.628 85.6 417.324 85.6H416.016C415.624 85.6 415.4 85.544 415.344 85.432C415.296 85.32 415.24 85.108 415.176 84.796ZM425.874 96.388V94.36C425.874 94.12 425.906 93.96 425.97 93.88C426.042 93.8 426.194 93.76 426.426 93.76H428.01C428.33 93.76 428.534 93.712 428.622 93.616C428.71 93.512 428.754 93.3 428.754 92.98V82.576C428.754 82.432 428.722 82.32 428.658 82.24C428.602 82.16 428.498 82.12 428.346 82.12H428.154C427.362 82.12 426.742 82.228 426.294 82.444C425.854 82.66 425.542 83.04 425.358 83.584C425.174 84.12 425.07 84.884 425.046 85.876C425.038 86.164 424.978 86.352 424.866 86.44C424.762 86.52 424.554 86.56 424.242 86.56H422.79C422.558 86.56 422.394 86.536 422.298 86.488C422.202 86.44 422.154 86.3 422.154 86.068V79.696C422.154 79.44 422.178 79.26 422.226 79.156C422.274 79.052 422.426 79 422.682 79H440.034C440.226 79 440.354 79.044 440.418 79.132C440.482 79.22 440.514 79.368 440.514 79.576V85.876C440.514 86.18 440.47 86.372 440.382 86.452C440.294 86.524 440.09 86.56 439.77 86.56H438.354C438.042 86.56 437.842 86.524 437.754 86.452C437.674 86.38 437.63 86.196 437.622 85.9C437.598 84.9 437.494 84.128 437.31 83.584C437.126 83.04 436.814 82.66 436.374 82.444C435.934 82.228 435.314 82.12 434.514 82.12H434.37C434.194 82.12 434.074 82.164 434.01 82.252C433.946 82.332 433.914 82.46 433.914 82.636V92.8C433.914 93.176 433.95 93.432 434.022 93.568C434.102 93.696 434.33 93.76 434.706 93.76H436.11C436.39 93.76 436.574 93.808 436.662 93.904C436.75 93.992 436.794 94.164 436.794 94.42V96.34C436.794 96.628 436.75 96.812 436.662 96.892C436.582 96.964 436.402 97 436.122 97H426.522C426.274 97 426.102 96.968 426.006 96.904C425.918 96.832 425.874 96.66 425.874 96.388ZM446.625 82.24H445.065C444.817 82.24 444.661 82.204 444.597 82.132C444.541 82.06 444.513 81.904 444.513 81.664V79.552C444.513 79.28 444.561 79.12 444.657 79.072C444.761 79.024 444.937 79 445.185 79H462.369C462.601 79 462.741 79.04 462.789 79.12C462.845 79.2 462.873 79.352 462.873 79.576V85.624C462.873 85.848 462.853 85.98 462.813 86.02C462.781 86.06 462.649 86.08 462.417 86.08H460.137C459.961 86.08 459.853 86.04 459.813 85.96C459.773 85.872 459.749 85.752 459.741 85.6C459.717 84.784 459.609 84.132 459.417 83.644C459.233 83.148 458.901 82.792 458.421 82.576C457.949 82.352 457.273 82.24 456.393 82.24H453.489C453.257 82.24 453.081 82.272 452.961 82.336C452.849 82.392 452.793 82.548 452.793 82.804V85.984C452.793 86.272 452.821 86.46 452.877 86.548C452.933 86.636 453.057 86.68 453.249 86.68H453.309C453.925 86.68 454.421 86.464 454.797 86.032C455.173 85.6 455.409 85.104 455.505 84.544C455.537 84.36 455.573 84.22 455.613 84.124C455.653 84.02 455.757 83.968 455.925 83.968H457.257C457.513 83.968 457.673 84 457.737 84.064C457.801 84.128 457.833 84.288 457.833 84.544V91.504C457.833 91.712 457.805 91.848 457.749 91.912C457.693 91.976 457.553 92.008 457.329 92.008H456.033C455.785 92.008 455.641 91.956 455.601 91.852C455.569 91.74 455.533 91.584 455.493 91.384C455.429 91.016 455.289 90.668 455.073 90.34C454.865 90.004 454.613 89.732 454.317 89.524C454.029 89.308 453.729 89.2 453.417 89.2H453.345C453.185 89.2 453.053 89.256 452.949 89.368C452.845 89.472 452.793 89.648 452.793 89.896V93.28C452.793 93.56 452.833 93.712 452.913 93.736C452.993 93.752 453.169 93.76 453.441 93.76H456.153C457.169 93.76 457.945 93.632 458.481 93.376C459.025 93.112 459.405 92.696 459.621 92.128C459.837 91.56 459.957 90.816 459.981 89.896C459.997 89.592 460.021 89.4 460.053 89.32C460.085 89.24 460.265 89.2 460.593 89.2H462.633C462.905 89.2 463.053 89.236 463.077 89.308C463.101 89.372 463.113 89.536 463.113 89.8V96.52C463.113 96.768 463.089 96.912 463.041 96.952C462.993 96.984 462.841 97 462.585 97H445.113C444.873 97 444.713 96.992 444.633 96.976C444.553 96.96 444.513 96.824 444.513 96.568V94.144C444.513 93.936 444.533 93.82 444.573 93.796C444.621 93.772 444.745 93.76 444.945 93.76H446.625C446.881 93.76 447.033 93.74 447.081 93.7C447.129 93.66 447.153 93.512 447.153 93.256V82.696C447.153 82.488 447.117 82.36 447.045 82.312C446.981 82.264 446.841 82.24 446.625 82.24ZM489.101 94.444C488.509 95.332 487.805 96.06 486.989 96.628C486.173 97.196 485.133 97.48 483.869 97.48C482.965 97.48 482.241 97.336 481.697 97.048C481.153 96.76 480.733 96.384 480.437 95.92C480.141 95.448 479.917 94.932 479.765 94.372C479.613 93.804 479.481 93.24 479.369 92.68C479.257 92.112 479.117 91.596 478.949 91.132C478.781 90.66 478.529 90.28 478.193 89.992C477.865 89.704 477.397 89.56 476.789 89.56H475.805C475.581 89.56 475.449 89.6 475.409 89.68C475.369 89.752 475.349 89.904 475.349 90.136V93.28C475.349 93.464 475.365 93.592 475.397 93.664C475.437 93.728 475.549 93.76 475.733 93.76H477.437C477.653 93.76 477.797 93.796 477.869 93.868C477.949 93.932 477.989 94.08 477.989 94.312V96.136C477.989 96.488 477.957 96.72 477.893 96.832C477.829 96.944 477.621 97 477.269 97H467.585C467.385 97 467.249 96.976 467.177 96.928C467.105 96.872 467.069 96.744 467.069 96.544V94.288C467.069 94.064 467.097 93.92 467.153 93.856C467.217 93.792 467.357 93.76 467.573 93.76H469.025C469.305 93.76 469.489 93.724 469.577 93.652C469.665 93.58 469.709 93.408 469.709 93.136V82.852C469.709 82.572 469.665 82.4 469.577 82.336C469.489 82.272 469.317 82.24 469.061 82.24H467.621C467.373 82.24 467.217 82.196 467.153 82.108C467.097 82.02 467.069 81.856 467.069 81.616V79.456C467.069 79.248 467.105 79.12 467.177 79.072C467.257 79.024 467.401 79 467.609 79H477.989C479.837 79 481.345 79.192 482.513 79.576C483.681 79.952 484.537 80.492 485.081 81.196C485.633 81.892 485.909 82.72 485.909 83.68C485.909 84.648 485.701 85.452 485.285 86.092C484.877 86.732 484.177 87.24 483.185 87.616C482.889 87.728 482.701 87.84 482.621 87.952C482.549 88.064 482.669 88.208 482.981 88.384C483.469 88.648 483.849 88.952 484.121 89.296C484.393 89.64 484.593 89.996 484.721 90.364C484.857 90.732 484.953 91.092 485.009 91.444C485.065 91.788 485.117 92.104 485.165 92.392C485.213 92.672 485.285 92.896 485.381 93.064C485.485 93.224 485.653 93.304 485.885 93.304C486.069 93.304 486.253 93.236 486.437 93.1C486.629 92.956 486.797 92.784 486.941 92.584C487.077 92.384 487.189 92.284 487.277 92.284C487.373 92.276 487.521 92.352 487.721 92.512L488.957 93.472C489.173 93.64 489.285 93.792 489.293 93.928C489.309 94.056 489.245 94.228 489.101 94.444ZM475.973 86.44H477.989C478.437 86.44 478.821 86.352 479.141 86.176C479.469 86 479.717 85.76 479.885 85.456C480.061 85.144 480.149 84.792 480.149 84.4C480.149 84.008 480.061 83.648 479.885 83.32C479.717 82.992 479.469 82.732 479.141 82.54C478.821 82.34 478.437 82.24 477.989 82.24H475.853C475.629 82.24 475.489 82.28 475.433 82.36C475.377 82.432 475.349 82.584 475.349 82.816V85.888C475.349 86.184 475.381 86.352 475.445 86.392C475.509 86.424 475.685 86.44 475.973 86.44ZM491.907 78.976C491.907 78.392 492.055 77.888 492.351 77.464C492.655 77.032 493.047 76.7 493.527 76.468C494.015 76.236 494.531 76.12 495.075 76.12C496.083 76.12 496.895 76.452 497.511 77.116C498.127 77.772 498.435 78.748 498.435 80.044C498.435 80.884 498.247 81.656 497.871 82.36C497.503 83.056 497.023 83.664 496.431 84.184C495.847 84.704 495.231 85.124 494.583 85.444C493.935 85.756 493.335 85.948 492.783 86.02C492.607 86.044 492.487 86.032 492.423 85.984C492.367 85.936 492.339 85.816 492.339 85.624V84.196C492.339 84.076 492.363 83.996 492.411 83.956C492.459 83.916 492.535 83.892 492.639 83.884C493.119 83.836 493.587 83.692 494.043 83.452C494.499 83.212 494.899 82.936 495.243 82.624C495.595 82.304 495.855 82.008 496.023 81.736C496.055 81.688 496.051 81.652 496.011 81.628C495.979 81.596 495.927 81.596 495.855 81.628C495.719 81.684 495.543 81.732 495.327 81.772C495.119 81.812 494.883 81.832 494.619 81.832C493.803 81.832 493.147 81.576 492.651 81.064C492.155 80.544 491.907 79.848 491.907 78.976ZM499.347 78.976C499.347 78.392 499.495 77.888 499.791 77.464C500.095 77.032 500.487 76.7 500.967 76.468C501.455 76.236 501.971 76.12 502.515 76.12C503.523 76.12 504.335 76.452 504.951 77.116C505.567 77.772 505.875 78.748 505.875 80.044C505.875 80.884 505.687 81.656 505.311 82.36C504.943 83.056 504.463 83.664 503.871 84.184C503.287 84.704 502.671 85.124 502.023 85.444C501.375 85.756 500.775 85.948 500.223 86.02C500.047 86.044 499.927 86.032 499.863 85.984C499.807 85.936 499.779 85.816 499.779 85.624V84.196C499.779 84.076 499.803 83.996 499.851 83.956C499.899 83.916 499.975 83.892 500.079 83.884C500.559 83.836 501.027 83.692 501.483 83.452C501.939 83.212 502.339 82.936 502.683 82.624C503.035 82.304 503.295 82.008 503.463 81.736C503.495 81.688 503.491 81.652 503.451 81.628C503.419 81.596 503.367 81.596 503.295 81.628C503.159 81.684 502.983 81.732 502.767 81.772C502.559 81.812 502.323 81.832 502.059 81.832C501.243 81.832 500.587 81.576 500.091 81.064C499.595 80.544 499.347 79.848 499.347 78.976ZM255.819 117.6H252.979V128H249.519V117.6H246.679V114.66H255.819V117.6ZM259.353 114.66H262.813V122.56C262.813 123.12 262.833 123.98 263.493 124.62C263.893 125 264.533 125.26 265.133 125.26C265.733 125.26 266.353 125.02 266.733 124.68C267.533 123.98 267.513 123 267.513 122.26V114.66H270.973V122.32C270.973 123.72 270.913 125.18 269.473 126.64C268.353 127.78 266.953 128.3 265.073 128.3C262.973 128.3 261.473 127.58 260.653 126.7C259.493 125.44 259.353 123.74 259.353 122.32V114.66ZM281.327 128H275.767V114.66H280.927C281.887 114.66 283.027 114.8 283.847 115.7C284.307 116.2 284.667 117.02 284.667 118.2C284.667 118.78 284.567 119.28 284.287 119.84C284.007 120.36 283.707 120.66 283.207 120.88C283.907 120.96 284.607 121.28 285.027 121.68C285.567 122.2 285.927 123.06 285.927 124.12C285.927 125.38 285.447 126.24 284.947 126.74C284.227 127.48 282.967 128 281.327 128ZM279.227 117.32V119.92H279.867C280.227 119.92 280.827 119.88 281.187 119.5C281.407 119.28 281.507 118.92 281.507 118.62C281.507 118.28 281.387 117.94 281.187 117.72C280.967 117.5 280.547 117.32 279.867 117.32H279.227ZM279.227 122.5V125.3H280.007C280.967 125.3 281.767 125.2 282.147 124.76C282.307 124.58 282.427 124.28 282.427 123.9C282.427 123.48 282.287 123.14 282.087 122.94C281.667 122.52 280.807 122.5 279.947 122.5H279.227ZM297.71 114.66V117.6H293.59V119.82H297.49V122.76H293.59V125.06H297.71V128H290.13V114.66H297.71ZM308.584 114.66H312.044V125.06H316.204V128H308.584V114.66ZM328.938 128L328.118 125.76H323.278L322.378 128H318.718L323.838 114.66H327.618L332.638 128H328.938ZM324.238 123.12H327.198L325.698 118.8L324.238 123.12ZM337.853 128V121.6L333.033 114.66H337.173L339.693 118.3L342.113 114.66H346.313L341.333 121.6V128H337.853ZM362.825 121.34C362.825 123.1 362.145 124.96 360.725 126.32C359.365 127.62 357.445 128.3 355.465 128.3C353.485 128.3 351.565 127.62 350.205 126.32C348.785 124.96 348.105 123.1 348.105 121.34C348.105 119.56 348.785 117.68 350.205 116.34C351.565 115.04 353.485 114.36 355.465 114.36C357.445 114.36 359.365 115.04 360.725 116.34C362.145 117.68 362.825 119.56 362.825 121.34ZM355.465 117.72C354.505 117.72 353.485 118.06 352.765 118.78C352.045 119.48 351.705 120.46 351.705 121.4C351.705 122.58 352.265 123.4 352.765 123.88C353.405 124.5 354.305 124.94 355.465 124.94C356.645 124.94 357.525 124.52 358.145 123.9C358.765 123.28 359.225 122.36 359.225 121.34C359.225 120.3 358.765 119.38 358.145 118.78C357.405 118.08 356.385 117.72 355.465 117.72ZM367.033 114.66H370.493V122.56C370.493 123.12 370.513 123.98 371.173 124.62C371.573 125 372.213 125.26 372.813 125.26C373.413 125.26 374.033 125.02 374.413 124.68C375.213 123.98 375.193 123 375.193 122.26V114.66H378.653V122.32C378.653 123.72 378.593 125.18 377.153 126.64C376.033 127.78 374.633 128.3 372.753 128.3C370.653 128.3 369.153 127.58 368.333 126.7C367.173 125.44 367.033 123.74 367.033 122.32V114.66ZM391.327 117.6H388.487V128H385.027V117.6H382.187V114.66H391.327V117.6Z" fill="black"/>
</g>
<defs>
<clipPath id="clip0_4_133">
<rect width="638" height="344" fill="white"/>
</clipPath>
</defs>
</svg>
