<svg width="638" height="344" viewBox="0 0 638 344" fill="none" xmlns="http://www.w3.org/2000/svg">
<g clip-path="url(#clip0_4_184)">
<rect x="0.5" y="0.5" width="637" height="343" stroke="#767676" stroke-dasharray="2 5"/>
<circle cx="107" cy="217" r="43.5" stroke="black" stroke-width="3"/>
<path d="M95.96 209.92L99.6 219.08L103.26 209.92H107.52L101.08 225H98.04L91.7 209.92H95.96ZM118.515 213.24H113.295L113.035 214.96L114.275 214.86C115.795 214.74 117.062 215.213 118.075 216.28C119.102 217.347 119.615 218.673 119.615 220.26C119.615 221.913 118.968 223.273 117.675 224.34C116.622 225.18 115.155 225.6 113.275 225.6C111.408 225.6 109.768 225.147 108.355 224.24L108.935 220.54C110.228 221.7 111.628 222.28 113.135 222.28C113.775 222.28 114.335 222.073 114.815 221.66C115.295 221.233 115.535 220.7 115.535 220.06C115.535 219.22 115.202 218.58 114.535 218.14C113.882 217.7 113.115 217.48 112.235 217.48C111.195 217.48 110.235 217.687 109.355 218.1L110.675 209.92H118.515V213.24Z" fill="black"/>
<path d="M70.284 278.444H73.392L70.396 282.014L70.424 282.042C70.9093 281.827 71.3993 281.72 71.894 281.72C72.8927 281.72 73.7047 282.089 74.33 282.826C74.9647 283.554 75.282 284.422 75.282 285.43C75.282 286.671 74.8433 287.647 73.966 288.356C73.0887 289.065 72.0153 289.42 70.746 289.42C69.5047 289.42 68.5013 289.117 67.736 288.51C67.3067 288.155 66.9613 287.721 66.7 287.208C66.448 286.685 66.322 286.153 66.322 285.612C66.322 284.287 66.8867 282.887 68.016 281.412L70.284 278.444ZM69.5 286.76C69.8453 287.096 70.256 287.264 70.732 287.264C71.208 287.264 71.6093 287.096 71.936 286.76C72.2627 286.415 72.426 285.999 72.426 285.514C72.426 285.038 72.2627 284.632 71.936 284.296C71.6093 283.96 71.208 283.792 70.732 283.792C70.256 283.792 69.8453 283.96 69.5 284.296C69.164 284.632 68.996 285.038 68.996 285.514C68.996 285.999 69.164 286.415 69.5 286.76ZM84.0397 278.696V281.986C83.7597 281.613 83.405 281.328 82.9757 281.132C82.5557 280.927 82.1077 280.824 81.6317 280.824C80.801 280.824 80.1243 281.104 79.6017 281.664C79.079 282.224 78.8177 282.919 78.8177 283.75C78.8177 284.59 79.079 285.281 79.6017 285.822C80.1337 286.354 80.8243 286.62 81.6737 286.62C82.1217 286.62 82.5557 286.522 82.9757 286.326C83.3957 286.121 83.7503 285.845 84.0397 285.5V288.79C82.9757 289.117 82.1683 289.28 81.6177 289.28C80.115 289.28 78.7943 288.762 77.6557 287.726C76.5263 286.709 75.9617 285.379 75.9617 283.736C75.9617 282.224 76.4797 280.936 77.5157 279.872C78.0383 279.34 78.6543 278.925 79.3637 278.626C80.073 278.318 80.7963 278.164 81.5337 278.164C82.3457 278.164 83.181 278.341 84.0397 278.696ZM92.2038 287.166H88.4238L87.6958 289H84.7838L88.8438 278.444H91.8398L95.8158 289H92.8898L92.2038 287.166ZM91.4618 285.066L90.3418 281.706H90.3138L89.1798 285.066H91.4618ZM101.181 280.768H96.7713V278.444H105.437L99.3753 289H96.3653L101.181 280.768ZM111.101 277.38H113.103L107.755 290.302H105.753L111.101 277.38ZM120.384 280.768H117.122V282.532H120.216V284.856H117.122V286.676H120.384V289H114.378V278.444H120.384V280.768ZM124.82 278.444V286.676H128.11V289H122.076V278.444H124.82ZM131.681 281.482H129.133C129.236 280.427 129.647 279.578 130.365 278.934C131.047 278.327 131.943 278.024 133.053 278.024C134.033 278.024 134.841 278.295 135.475 278.836C136.11 279.377 136.427 280.129 136.427 281.09C136.427 281.538 136.334 281.963 136.147 282.364C135.961 282.756 135.685 283.055 135.321 283.26C135.853 283.4 136.273 283.736 136.581 284.268C136.889 284.791 137.043 285.341 137.043 285.92C137.043 286.657 136.843 287.297 136.441 287.838C136.049 288.379 135.545 288.776 134.929 289.028C134.323 289.289 133.66 289.42 132.941 289.42C131.625 289.42 130.575 289.023 129.791 288.23C129.455 287.885 129.166 287.465 128.923 286.97C128.69 286.475 128.578 286.009 128.587 285.57H131.387C131.387 285.999 131.523 286.359 131.793 286.648C132.073 286.928 132.428 287.068 132.857 287.068C133.287 287.068 133.637 286.937 133.907 286.676C134.187 286.415 134.327 286.074 134.327 285.654C134.327 285.262 134.183 284.931 133.893 284.66C133.604 284.38 133.263 284.24 132.871 284.24C132.759 284.24 132.601 284.268 132.395 284.324V282.49H132.675C133.03 282.49 133.319 282.387 133.543 282.182C133.767 281.967 133.879 281.683 133.879 281.328C133.879 281.011 133.777 280.754 133.571 280.558C133.366 280.362 133.109 280.264 132.801 280.264C132.456 280.264 132.181 280.381 131.975 280.614C131.77 280.838 131.672 281.127 131.681 281.482ZM145.605 284.716H146.879V286.816H145.605V289H143.057V286.816H137.933V285.066L142.007 278.444H145.605V284.716ZM143.057 284.716V280.656H143.029L140.565 284.716H143.057Z" fill="black"/>
<circle cx="232" cy="217" r="43.5" stroke="black" stroke-width="3"/>
<path d="M221.96 209.92L225.6 219.08L229.26 209.92H233.52L227.08 225H224.04L217.7 209.92H221.96ZM244.495 218.88H246.315V221.88H244.495V225H240.855V221.88H233.535V219.38L239.355 209.92H244.495V218.88ZM240.855 218.88V213.08H240.815L237.295 218.88H240.855Z" fill="black"/>
<path d="M195.284 278.444H198.392L195.396 282.014L195.424 282.042C195.909 281.827 196.399 281.72 196.894 281.72C197.893 281.72 198.705 282.089 199.33 282.826C199.965 283.554 200.282 284.422 200.282 285.43C200.282 286.671 199.843 287.647 198.966 288.356C198.089 289.065 197.015 289.42 195.746 289.42C194.505 289.42 193.501 289.117 192.736 288.51C192.307 288.155 191.961 287.721 191.7 287.208C191.448 286.685 191.322 286.153 191.322 285.612C191.322 284.287 191.887 282.887 193.016 281.412L195.284 278.444ZM194.5 286.76C194.845 287.096 195.256 287.264 195.732 287.264C196.208 287.264 196.609 287.096 196.936 286.76C197.263 286.415 197.426 285.999 197.426 285.514C197.426 285.038 197.263 284.632 196.936 284.296C196.609 283.96 196.208 283.792 195.732 283.792C195.256 283.792 194.845 283.96 194.5 284.296C194.164 284.632 193.996 285.038 193.996 285.514C193.996 285.999 194.164 286.415 194.5 286.76ZM209.04 278.696V281.986C208.76 281.613 208.405 281.328 207.976 281.132C207.556 280.927 207.108 280.824 206.632 280.824C205.801 280.824 205.124 281.104 204.602 281.664C204.079 282.224 203.818 282.919 203.818 283.75C203.818 284.59 204.079 285.281 204.602 285.822C205.134 286.354 205.824 286.62 206.674 286.62C207.122 286.62 207.556 286.522 207.976 286.326C208.396 286.121 208.75 285.845 209.04 285.5V288.79C207.976 289.117 207.168 289.28 206.618 289.28C205.115 289.28 203.794 288.762 202.656 287.726C201.526 286.709 200.962 285.379 200.962 283.736C200.962 282.224 201.48 280.936 202.516 279.872C203.038 279.34 203.654 278.925 204.364 278.626C205.073 278.318 205.796 278.164 206.534 278.164C207.346 278.164 208.181 278.341 209.04 278.696ZM217.204 287.166H213.424L212.696 289H209.784L213.844 278.444H216.84L220.816 289H217.89L217.204 287.166ZM216.462 285.066L215.342 281.706H215.314L214.18 285.066H216.462ZM226.181 280.768H221.771V278.444H230.437L224.375 289H221.365L226.181 280.768ZM236.101 277.38H238.103L232.755 290.302H230.753L236.101 277.38ZM245.384 280.768H242.122V282.532H245.216V284.856H242.122V286.676H245.384V289H239.378V278.444H245.384V280.768ZM249.82 278.444V286.676H253.11V289H247.076V278.444H249.82ZM256.681 281.482H254.133C254.236 280.427 254.647 279.578 255.365 278.934C256.047 278.327 256.943 278.024 258.053 278.024C259.033 278.024 259.841 278.295 260.475 278.836C261.11 279.377 261.427 280.129 261.427 281.09C261.427 281.538 261.334 281.963 261.147 282.364C260.961 282.756 260.685 283.055 260.321 283.26C260.853 283.4 261.273 283.736 261.581 284.268C261.889 284.791 262.043 285.341 262.043 285.92C262.043 286.657 261.843 287.297 261.441 287.838C261.049 288.379 260.545 288.776 259.929 289.028C259.323 289.289 258.66 289.42 257.941 289.42C256.625 289.42 255.575 289.023 254.791 288.23C254.455 287.885 254.166 287.465 253.923 286.97C253.69 286.475 253.578 286.009 253.587 285.57H256.387C256.387 285.999 256.523 286.359 256.793 286.648C257.073 286.928 257.428 287.068 257.857 287.068C258.287 287.068 258.637 286.937 258.907 286.676C259.187 286.415 259.327 286.074 259.327 285.654C259.327 285.262 259.183 284.931 258.893 284.66C258.604 284.38 258.263 284.24 257.871 284.24C257.759 284.24 257.601 284.268 257.395 284.324V282.49H257.675C258.03 282.49 258.319 282.387 258.543 282.182C258.767 281.967 258.879 281.683 258.879 281.328C258.879 281.011 258.777 280.754 258.571 280.558C258.366 280.362 258.109 280.264 257.801 280.264C257.456 280.264 257.181 280.381 256.975 280.614C256.77 280.838 256.672 281.127 256.681 281.482ZM270.605 284.716H271.879V286.816H270.605V289H268.057V286.816H262.933V285.066L267.007 278.444H270.605V284.716ZM268.057 284.716V280.656H268.029L265.565 284.716H268.057Z" fill="black"/>
<circle cx="544.5" cy="229.5" r="31" stroke="black" stroke-width="3"/>
<path d="M517.766 280.768H516.254V278.444H520.51V289H517.766V280.768ZM529.086 286.676H532.544V289H524.06L528.372 284.31C529.174 283.433 529.576 282.569 529.576 281.72C529.576 281.365 529.459 281.048 529.226 280.768C529.002 280.488 528.717 280.348 528.372 280.348C528.017 280.348 527.737 280.469 527.532 280.712C527.326 280.955 527.224 281.263 527.224 281.636C527.224 281.785 527.238 281.935 527.266 282.084H524.242C524.288 280.861 524.676 279.881 525.404 279.144C526.141 278.397 527.126 278.024 528.358 278.024C529.496 278.024 530.458 278.369 531.242 279.06C532.035 279.751 532.432 280.656 532.432 281.776C532.432 282.485 532.292 283.092 532.012 283.596C531.741 284.1 531.312 284.618 530.724 285.15L529.086 286.676ZM540.559 287.166H536.779L536.051 289H533.139L537.199 278.444H540.195L544.171 289H541.245L540.559 287.166ZM539.817 285.066L538.697 281.706H538.669L537.535 285.066H539.817ZM548.151 283.358L544.777 278.444H548.151L549.761 281.174L551.371 278.444H554.745L551.371 283.358L555.277 289H551.973L549.761 285.556L547.339 289H544.021L548.151 283.358ZM560.584 280.768H556.174V278.444H564.84L558.778 289H555.768L560.584 280.768ZM572.141 287.166H568.361L567.633 289H564.721L568.781 278.444H571.777L575.753 289H572.827L572.141 287.166ZM571.399 285.066L570.279 281.706H570.251L569.117 285.066H571.399Z" fill="black"/>
<circle cx="344.5" cy="229.5" r="31" stroke="black" stroke-width="3"/>
<path d="M317.766 280.768H316.254V278.444H320.51V289H317.766V280.768ZM329.086 286.676H332.544V289H324.06L328.372 284.31C329.174 283.433 329.576 282.569 329.576 281.72C329.576 281.365 329.459 281.048 329.226 280.768C329.002 280.488 328.717 280.348 328.372 280.348C328.017 280.348 327.737 280.469 327.532 280.712C327.326 280.955 327.224 281.263 327.224 281.636C327.224 281.785 327.238 281.935 327.266 282.084H324.242C324.288 280.861 324.676 279.881 325.404 279.144C326.141 278.397 327.126 278.024 328.358 278.024C329.496 278.024 330.458 278.369 331.242 279.06C332.035 279.751 332.432 280.656 332.432 281.776C332.432 282.485 332.292 283.092 332.012 283.596C331.741 284.1 331.312 284.618 330.724 285.15L329.086 286.676ZM340.559 287.166H336.779L336.051 289H333.139L337.199 278.444H340.195L344.171 289H341.245L340.559 287.166ZM339.817 285.066L338.697 281.706H338.669L337.535 285.066H339.817ZM348.151 283.358L344.777 278.444H348.151L349.761 281.174L351.371 278.444H354.745L351.371 283.358L355.277 289H351.973L349.761 285.556L347.339 289H344.021L348.151 283.358ZM360.584 280.768H356.174V278.444H364.84L358.778 289H355.768L360.584 280.768ZM372.141 287.166H368.361L367.633 289H364.721L368.781 278.444H371.777L375.753 289H372.827L372.141 287.166ZM371.399 285.066L370.279 281.706H370.251L369.117 285.066H371.399Z" fill="black"/>
<path d="M333.96 221.92L337.6 231.08L341.26 221.92H345.52L339.08 237H336.04L329.7 221.92H333.96ZM350.315 226.26H346.675C346.822 224.753 347.408 223.54 348.435 222.62C349.408 221.753 350.688 221.32 352.275 221.32C353.675 221.32 354.828 221.707 355.735 222.48C356.642 223.253 357.095 224.327 357.095 225.7C357.095 226.34 356.962 226.947 356.695 227.52C356.428 228.08 356.035 228.507 355.515 228.8C356.275 229 356.875 229.48 357.315 230.24C357.755 230.987 357.975 231.773 357.975 232.6C357.975 233.653 357.688 234.567 357.115 235.34C356.555 236.113 355.835 236.68 354.955 237.04C354.088 237.413 353.142 237.6 352.115 237.6C350.235 237.6 348.735 237.033 347.615 235.9C347.135 235.407 346.722 234.807 346.375 234.1C346.042 233.393 345.882 232.727 345.895 232.1H349.895C349.895 232.713 350.088 233.227 350.475 233.64C350.875 234.04 351.382 234.24 351.995 234.24C352.608 234.24 353.108 234.053 353.495 233.68C353.895 233.307 354.095 232.82 354.095 232.22C354.095 231.66 353.888 231.187 353.475 230.8C353.062 230.4 352.575 230.2 352.015 230.2C351.855 230.2 351.628 230.24 351.335 230.32V227.7H351.735C352.242 227.7 352.655 227.553 352.975 227.26C353.295 226.953 353.455 226.547 353.455 226.04C353.455 225.587 353.308 225.22 353.015 224.94C352.722 224.66 352.355 224.52 351.915 224.52C351.422 224.52 351.028 224.687 350.735 225.02C350.442 225.34 350.302 225.753 350.315 226.26Z" fill="black"/>
<circle cx="444.5" cy="229.5" r="31" stroke="black" stroke-width="3"/>
<path d="M417.766 280.768H416.254V278.444H420.51V289H417.766V280.768ZM429.086 286.676H432.544V289H424.06L428.372 284.31C429.174 283.433 429.576 282.569 429.576 281.72C429.576 281.365 429.459 281.048 429.226 280.768C429.002 280.488 428.717 280.348 428.372 280.348C428.017 280.348 427.737 280.469 427.532 280.712C427.326 280.955 427.224 281.263 427.224 281.636C427.224 281.785 427.238 281.935 427.266 282.084H424.242C424.288 280.861 424.676 279.881 425.404 279.144C426.141 278.397 427.126 278.024 428.358 278.024C429.496 278.024 430.458 278.369 431.242 279.06C432.035 279.751 432.432 280.656 432.432 281.776C432.432 282.485 432.292 283.092 432.012 283.596C431.741 284.1 431.312 284.618 430.724 285.15L429.086 286.676ZM440.559 287.166H436.779L436.051 289H433.139L437.199 278.444H440.195L444.171 289H441.245L440.559 287.166ZM439.817 285.066L438.697 281.706H438.669L437.535 285.066H439.817ZM448.151 283.358L444.777 278.444H448.151L449.761 281.174L451.371 278.444H454.745L451.371 283.358L455.277 289H451.973L449.761 285.556L447.339 289H444.021L448.151 283.358ZM460.584 280.768H456.174V278.444H464.84L458.778 289H455.768L460.584 280.768ZM472.141 287.166H468.361L467.633 289H464.721L468.781 278.444H471.777L475.753 289H472.827L472.141 287.166ZM471.399 285.066L470.279 281.706H470.251L469.117 285.066H471.399Z" fill="black"/>
<path d="M433.96 221.92L437.6 231.08L441.26 221.92H445.52L439.08 237H436.04L429.7 221.92H433.96ZM453.055 233.68H457.995V237H445.875L452.035 230.3C453.182 229.047 453.755 227.813 453.755 226.6C453.755 226.093 453.588 225.64 453.255 225.24C452.935 224.84 452.528 224.64 452.035 224.64C451.528 224.64 451.128 224.813 450.835 225.16C450.542 225.507 450.395 225.947 450.395 226.48C450.395 226.693 450.415 226.907 450.455 227.12H446.135C446.202 225.373 446.755 223.973 447.795 222.92C448.848 221.853 450.255 221.32 452.015 221.32C453.642 221.32 455.015 221.813 456.135 222.8C457.268 223.787 457.835 225.08 457.835 226.68C457.835 227.693 457.635 228.56 457.235 229.28C456.848 230 456.235 230.74 455.395 231.5L453.055 233.68Z" fill="black"/>
<path d="M534.96 221.92L538.6 231.08L542.26 221.92H546.52L540.08 237H537.04L530.7 221.92H534.96ZM551.595 225.24H549.435V221.92H555.515V237H551.595V225.24Z" fill="black"/>
<rect x="38" y="36" width="562" height="273" rx="9" stroke="black" stroke-width="2"/>
<path d="M195.496 96.568V94.312C195.496 94.08 195.52 93.932 195.568 93.868C195.616 93.796 195.752 93.76 195.976 93.76H197.608C197.848 93.76 197.996 93.724 198.052 93.652C198.108 93.58 198.136 93.42 198.136 93.172V91.444C198.136 91.116 198.108 90.884 198.052 90.748C197.996 90.604 197.908 90.444 197.788 90.268L192.664 82.792C192.528 82.584 192.412 82.44 192.316 82.36C192.228 82.28 192.004 82.24 191.644 82.24H190.372C190.124 82.24 189.976 82.2 189.928 82.12C189.88 82.04 189.856 81.876 189.856 81.628V79.84C189.856 79.464 189.924 79.232 190.06 79.144C190.196 79.048 190.436 79 190.78 79H200.308C200.612 79 200.824 79.036 200.944 79.108C201.072 79.172 201.136 79.368 201.136 79.696V81.676C201.136 81.916 201.1 82.072 201.028 82.144C200.964 82.208 200.816 82.24 200.584 82.24H199.564C199.268 82.24 199.092 82.284 199.036 82.372C198.98 82.46 199.04 82.632 199.216 82.888L201.28 85.888C201.504 86.2 201.668 86.4 201.772 86.488C201.884 86.576 201.996 86.564 202.108 86.452C202.22 86.332 202.388 86.128 202.612 85.84L204.928 82.84C205.128 82.584 205.184 82.42 205.096 82.348C205.008 82.276 204.836 82.24 204.58 82.24H203.656C203.352 82.24 203.156 82.212 203.068 82.156C202.98 82.092 202.936 81.908 202.936 81.604V79.6C202.936 79.328 202.968 79.16 203.032 79.096C203.104 79.032 203.272 79 203.536 79H210.988C211.196 79 211.344 79.02 211.432 79.06C211.528 79.1 211.576 79.236 211.576 79.468V81.916C211.576 82.068 211.54 82.16 211.468 82.192C211.404 82.224 211.292 82.24 211.132 82.24H210.34C209.988 82.24 209.76 82.28 209.656 82.36C209.56 82.432 209.436 82.56 209.284 82.744L204.256 88.972C204.104 89.172 203.984 89.34 203.896 89.476C203.816 89.612 203.776 89.868 203.776 90.244V93.196C203.776 93.42 203.8 93.572 203.848 93.652C203.896 93.724 204.032 93.76 204.256 93.76H206.164C206.396 93.76 206.536 93.8 206.584 93.88C206.632 93.952 206.656 94.108 206.656 94.348V96.532C206.656 96.716 206.632 96.84 206.584 96.904C206.544 96.968 206.432 97 206.248 97H195.88C195.72 97 195.616 96.972 195.568 96.916C195.52 96.86 195.496 96.744 195.496 96.568ZM224.89 93.76C225.578 93.76 226.114 93.66 226.498 93.46C226.882 93.252 227.15 92.968 227.302 92.608C227.454 92.248 227.53 91.832 227.53 91.36C227.53 90.888 227.418 90.504 227.194 90.208C226.978 89.904 226.67 89.68 226.27 89.536C225.878 89.392 225.418 89.32 224.89 89.32H223.102C222.95 89.32 222.83 89.368 222.742 89.464C222.654 89.552 222.61 89.68 222.61 89.848V93.088C222.61 93.336 222.642 93.512 222.706 93.616C222.77 93.712 222.918 93.76 223.15 93.76H224.89ZM223.294 86.08H224.41C224.898 86.08 225.322 86.008 225.682 85.864C226.042 85.72 226.318 85.5 226.51 85.204C226.71 84.9 226.81 84.512 226.81 84.04C226.81 83.568 226.726 83.204 226.558 82.948C226.398 82.684 226.142 82.5 225.79 82.396C225.438 82.292 224.978 82.24 224.41 82.24H223.222C223.038 82.24 222.89 82.26 222.778 82.3C222.666 82.332 222.61 82.44 222.61 82.624V85.372C222.61 85.668 222.65 85.86 222.73 85.948C222.81 86.036 222.998 86.08 223.294 86.08ZM225.37 97H214.894C214.622 97 214.458 96.94 214.402 96.82C214.354 96.692 214.33 96.488 214.33 96.208V94.12C214.33 93.96 214.362 93.86 214.426 93.82C214.498 93.78 214.606 93.76 214.75 93.76H216.406C216.67 93.76 216.83 93.704 216.886 93.592C216.942 93.48 216.97 93.288 216.97 93.016V82.864C216.97 82.648 216.938 82.492 216.874 82.396C216.818 82.292 216.686 82.24 216.478 82.24H214.846C214.622 82.24 214.478 82.212 214.414 82.156C214.358 82.092 214.33 81.952 214.33 81.736V79.624C214.33 79.384 214.366 79.22 214.438 79.132C214.518 79.044 214.67 79 214.894 79H224.65C226.498 79 228.006 79.136 229.174 79.408C230.342 79.68 231.198 80.14 231.742 80.788C232.294 81.436 232.57 82.32 232.57 83.44C232.57 84.432 232.286 85.248 231.718 85.888C231.158 86.528 230.342 87.012 229.27 87.34C229.046 87.404 228.934 87.496 228.934 87.616C228.934 87.736 229.07 87.824 229.342 87.88C230.678 88.152 231.71 88.628 232.438 89.308C233.166 89.98 233.53 90.864 233.53 91.96C233.53 93.24 233.25 94.248 232.69 94.984C232.138 95.712 231.262 96.232 230.062 96.544C228.862 96.848 227.298 97 225.37 97ZM244.782 84.772L243.378 88.18C243.298 88.356 243.25 88.532 243.234 88.708C243.226 88.876 243.382 88.96 243.702 88.96H246.234C246.514 88.96 246.654 88.88 246.654 88.72C246.662 88.56 246.634 88.396 246.57 88.228L245.322 84.724C245.226 84.444 245.13 84.336 245.034 84.4C244.946 84.464 244.862 84.588 244.782 84.772ZM234.834 96.316V94.348C234.834 94.14 234.87 93.992 234.942 93.904C235.014 93.808 235.162 93.76 235.386 93.76H237.366C237.566 93.76 237.682 93.72 237.714 93.64C237.746 93.552 237.79 93.444 237.846 93.316L243.93 79.036C244.01 78.844 244.086 78.732 244.158 78.7C244.238 78.66 244.414 78.64 244.686 78.64H248.286C248.566 78.64 248.746 78.68 248.826 78.76C248.914 78.832 248.998 78.964 249.078 79.156L254.61 93.028C254.698 93.252 254.766 93.432 254.814 93.568C254.87 93.696 255.07 93.76 255.414 93.76H256.998C257.206 93.76 257.362 93.78 257.466 93.82C257.578 93.86 257.634 93.996 257.634 94.228V96.46C257.634 96.7 257.602 96.852 257.538 96.916C257.474 96.972 257.326 97 257.094 97H246.366C246.126 97 245.982 96.964 245.934 96.892C245.894 96.812 245.874 96.652 245.874 96.412V94.276C245.874 94.044 245.902 93.9 245.958 93.844C246.022 93.788 246.166 93.76 246.39 93.76H247.758C248.11 93.76 248.318 93.72 248.382 93.64C248.446 93.56 248.434 93.404 248.346 93.172L248.058 92.356C248.002 92.196 247.95 92.092 247.902 92.044C247.862 91.988 247.726 91.96 247.494 91.96H242.43C242.198 91.96 242.034 91.968 241.938 91.984C241.842 91.992 241.758 92.084 241.686 92.26L241.29 93.244C241.21 93.436 241.186 93.572 241.218 93.652C241.25 93.724 241.374 93.76 241.59 93.76H242.838C243.03 93.76 243.142 93.796 243.174 93.868C243.214 93.932 243.234 94.06 243.234 94.252V96.556C243.234 96.756 243.198 96.88 243.126 96.928C243.054 96.976 242.926 97 242.742 97H235.626C235.29 97 235.074 96.972 234.978 96.916C234.882 96.852 234.834 96.652 234.834 96.316ZM261.886 86.32H269.23C269.414 86.32 269.526 86.352 269.566 86.416C269.614 86.472 269.638 86.596 269.638 86.788V88.588C269.638 88.796 269.618 88.932 269.578 88.996C269.538 89.052 269.414 89.08 269.206 89.08H261.982C261.766 89.08 261.626 89.052 261.562 88.996C261.506 88.94 261.478 88.808 261.478 88.6V86.812C261.478 86.62 261.498 86.492 261.538 86.428C261.578 86.356 261.694 86.32 261.886 86.32ZM274.317 96.22V95.008C274.317 94.752 274.357 94.6 274.437 94.552C274.525 94.504 274.697 94.48 274.953 94.48H278.097C278.393 94.48 278.577 94.444 278.649 94.372C278.721 94.292 278.757 94.112 278.757 93.832V84.124C278.757 83.884 278.721 83.732 278.649 83.668C278.577 83.596 278.425 83.56 278.193 83.56H275.265C275.065 83.56 274.925 83.536 274.845 83.488C274.765 83.44 274.725 83.308 274.725 83.092V81.652C274.725 81.324 274.813 81.14 274.989 81.1C275.165 81.06 275.393 81.036 275.673 81.028C276.409 81.012 277.105 80.948 277.761 80.836C278.417 80.716 279.013 80.484 279.549 80.14C280.085 79.796 280.537 79.276 280.905 78.58C281.009 78.388 281.105 78.252 281.193 78.172C281.281 78.084 281.481 78.04 281.793 78.04H282.825C283.081 78.04 283.245 78.072 283.317 78.136C283.397 78.192 283.437 78.344 283.437 78.592V93.808C283.437 94.128 283.485 94.32 283.581 94.384C283.677 94.448 283.889 94.48 284.217 94.48H286.881C287.081 94.48 287.237 94.508 287.349 94.564C287.461 94.612 287.517 94.744 287.517 94.96V96.292C287.517 96.588 287.489 96.78 287.433 96.868C287.377 96.956 287.201 97 286.905 97H275.097C274.753 97 274.537 96.96 274.449 96.88C274.361 96.8 274.317 96.58 274.317 96.22ZM300.216 84.772L298.812 88.18C298.732 88.356 298.684 88.532 298.668 88.708C298.66 88.876 298.816 88.96 299.136 88.96H301.668C301.948 88.96 302.088 88.88 302.088 88.72C302.096 88.56 302.068 88.396 302.004 88.228L300.756 84.724C300.66 84.444 300.564 84.336 300.468 84.4C300.38 84.464 300.296 84.588 300.216 84.772ZM290.268 96.316V94.348C290.268 94.14 290.304 93.992 290.376 93.904C290.448 93.808 290.596 93.76 290.82 93.76H292.8C293 93.76 293.116 93.72 293.148 93.64C293.18 93.552 293.224 93.444 293.28 93.316L299.364 79.036C299.444 78.844 299.52 78.732 299.592 78.7C299.672 78.66 299.848 78.64 300.12 78.64H303.72C304 78.64 304.18 78.68 304.26 78.76C304.348 78.832 304.432 78.964 304.512 79.156L310.044 93.028C310.132 93.252 310.2 93.432 310.248 93.568C310.304 93.696 310.504 93.76 310.848 93.76H312.432C312.64 93.76 312.796 93.78 312.9 93.82C313.012 93.86 313.068 93.996 313.068 94.228V96.46C313.068 96.7 313.036 96.852 312.972 96.916C312.908 96.972 312.76 97 312.528 97H301.8C301.56 97 301.416 96.964 301.368 96.892C301.328 96.812 301.308 96.652 301.308 96.412V94.276C301.308 94.044 301.336 93.9 301.392 93.844C301.456 93.788 301.6 93.76 301.824 93.76H303.192C303.544 93.76 303.752 93.72 303.816 93.64C303.88 93.56 303.868 93.404 303.78 93.172L303.492 92.356C303.436 92.196 303.384 92.092 303.336 92.044C303.296 91.988 303.16 91.96 302.928 91.96H297.864C297.632 91.96 297.468 91.968 297.372 91.984C297.276 91.992 297.192 92.084 297.12 92.26L296.724 93.244C296.644 93.436 296.62 93.572 296.652 93.652C296.684 93.724 296.808 93.76 297.024 93.76H298.272C298.464 93.76 298.576 93.796 298.608 93.868C298.648 93.932 298.668 94.06 298.668 94.252V96.556C298.668 96.756 298.632 96.88 298.56 96.928C298.488 96.976 298.36 97 298.176 97H291.06C290.724 97 290.508 96.972 290.412 96.916C290.316 96.852 290.268 96.652 290.268 96.316ZM339.996 83.92C339.996 84.504 339.844 85.012 339.54 85.444C339.244 85.868 338.852 86.196 338.364 86.428C337.884 86.66 337.372 86.776 336.828 86.776C335.82 86.776 335.008 86.448 334.392 85.792C333.776 85.128 333.468 84.148 333.468 82.852C333.468 82.012 333.652 81.244 334.02 80.548C334.396 79.844 334.876 79.232 335.46 78.712C336.052 78.192 336.672 77.776 337.32 77.464C337.968 77.144 338.568 76.948 339.12 76.876C339.296 76.852 339.412 76.864 339.468 76.912C339.532 76.96 339.564 77.08 339.564 77.272V78.7C339.564 78.82 339.54 78.9 339.492 78.94C339.444 78.972 339.368 78.996 339.264 79.012C338.784 79.06 338.316 79.204 337.86 79.444C337.404 79.684 337 79.96 336.648 80.272C336.304 80.584 336.048 80.88 335.88 81.16C335.848 81.208 335.848 81.248 335.88 81.28C335.92 81.304 335.976 81.3 336.048 81.268C336.184 81.204 336.356 81.156 336.564 81.124C336.78 81.084 337.02 81.064 337.284 81.064C338.1 81.064 338.756 81.32 339.252 81.832C339.748 82.344 339.996 83.04 339.996 83.92ZM332.556 83.92C332.556 84.504 332.404 85.012 332.1 85.444C331.804 85.868 331.412 86.196 330.924 86.428C330.444 86.66 329.932 86.776 329.388 86.776C328.38 86.776 327.568 86.448 326.952 85.792C326.336 85.128 326.028 84.148 326.028 82.852C326.028 82.012 326.212 81.244 326.58 80.548C326.956 79.844 327.436 79.232 328.02 78.712C328.612 78.192 329.232 77.776 329.88 77.464C330.528 77.144 331.128 76.948 331.68 76.876C331.856 76.852 331.972 76.864 332.028 76.912C332.092 76.96 332.124 77.08 332.124 77.272V78.7C332.124 78.82 332.1 78.9 332.052 78.94C332.004 78.972 331.928 78.996 331.824 79.012C331.344 79.06 330.876 79.204 330.42 79.444C329.964 79.684 329.56 79.96 329.208 80.272C328.864 80.584 328.608 80.88 328.44 81.16C328.408 81.208 328.408 81.248 328.44 81.28C328.48 81.304 328.536 81.3 328.608 81.268C328.744 81.204 328.916 81.156 329.124 81.124C329.34 81.084 329.58 81.064 329.844 81.064C330.66 81.064 331.316 81.32 331.812 81.832C332.308 82.344 332.556 83.04 332.556 83.92ZM346.743 82.24H345.375C345.095 82.24 344.927 82.22 344.871 82.18C344.823 82.132 344.799 81.964 344.799 81.676V79.372C344.799 79.124 344.855 79 344.967 79C345.079 79 345.247 79 345.471 79H354.231C354.551 79 354.767 79.036 354.879 79.108C354.999 79.18 355.079 79.292 355.119 79.444C355.167 79.588 355.227 79.772 355.299 79.996L357.591 87.172C357.719 87.556 357.823 87.924 357.903 88.276C357.991 88.628 358.095 88.804 358.215 88.804C358.351 88.804 358.463 88.7 358.551 88.492C358.639 88.276 358.759 87.964 358.911 87.556L361.923 79.492C362.011 79.268 362.087 79.132 362.151 79.084C362.223 79.028 362.415 79 362.727 79H370.239C370.543 79 370.759 79.004 370.887 79.012C371.015 79.02 371.079 79.188 371.079 79.516V81.628C371.079 81.924 371.059 82.1 371.019 82.156C370.979 82.212 370.807 82.24 370.503 82.24H369.039C368.783 82.24 368.635 82.264 368.595 82.312C368.563 82.36 368.551 82.508 368.559 82.756L368.919 93.268C368.927 93.476 368.939 93.612 368.955 93.676C368.979 93.732 369.103 93.76 369.327 93.76H371.247C371.447 93.76 371.567 93.792 371.607 93.856C371.655 93.912 371.679 94.044 371.679 94.252V96.34C371.679 96.596 371.651 96.772 371.595 96.868C371.547 96.956 371.383 97 371.103 97H361.791C361.527 97 361.367 96.964 361.311 96.892C361.263 96.812 361.239 96.636 361.239 96.364V94.324C361.239 94.052 361.283 93.892 361.371 93.844C361.467 93.788 361.639 93.76 361.887 93.76H363.159C363.415 93.76 363.583 93.72 363.663 93.64C363.751 93.552 363.791 93.384 363.783 93.136L363.639 87.724C363.623 87.164 363.635 86.636 363.675 86.14C363.723 85.636 363.747 85.228 363.747 84.916C363.747 84.596 363.671 84.436 363.519 84.436C363.423 84.436 363.347 84.488 363.291 84.592C363.235 84.688 363.179 84.844 363.123 85.06C363.067 85.276 362.975 85.564 362.847 85.924L359.163 96.748C359.075 97.004 358.979 97.168 358.875 97.24C358.771 97.32 358.543 97.36 358.191 97.36H356.031C355.679 97.36 355.447 97.32 355.335 97.24C355.231 97.168 355.135 97.004 355.047 96.748L351.483 86.356C351.379 86.052 351.279 85.704 351.183 85.312C351.095 84.92 351.007 84.576 350.919 84.28C350.831 83.984 350.735 83.836 350.631 83.836C350.527 83.836 350.467 83.948 350.451 84.172C350.435 84.396 350.415 84.78 350.391 85.324L350.031 92.908C350.023 93.196 350.035 93.412 350.067 93.556C350.099 93.692 350.279 93.76 350.607 93.76H352.191C352.415 93.76 352.559 93.792 352.623 93.856C352.687 93.92 352.719 94.068 352.719 94.3V96.388C352.719 96.684 352.671 96.86 352.575 96.916C352.487 96.972 352.303 97 352.023 97H344.583C344.303 97 344.127 96.964 344.055 96.892C343.991 96.82 343.959 96.636 343.959 96.34V94.18C343.959 94.012 343.979 93.9 344.019 93.844C344.059 93.788 344.159 93.76 344.319 93.76H346.215C346.575 93.76 346.759 93.688 346.767 93.544C346.783 93.392 346.799 93.156 346.815 92.836L347.367 82.66C347.383 82.404 347.347 82.272 347.259 82.264C347.171 82.248 346.999 82.24 346.743 82.24ZM375.28 96.352V94.312C375.28 94.08 375.308 93.932 375.364 93.868C375.42 93.796 375.56 93.76 375.784 93.76H377.296C377.584 93.76 377.76 93.72 377.824 93.64C377.888 93.56 377.92 93.384 377.92 93.112V82.672C377.92 82.464 377.876 82.34 377.788 82.3C377.708 82.26 377.564 82.24 377.356 82.24H375.76C375.528 82.24 375.388 82.196 375.34 82.108C375.3 82.02 375.28 81.86 375.28 81.628V79.552C375.28 79.304 375.328 79.152 375.424 79.096C375.52 79.032 375.68 79 375.904 79H385.84C386.056 79 386.208 79.032 386.296 79.096C386.392 79.152 386.44 79.296 386.44 79.528V81.52C386.44 81.816 386.408 82.012 386.344 82.108C386.28 82.196 386.104 82.24 385.816 82.24H384.136C383.896 82.24 383.74 82.276 383.668 82.348C383.596 82.42 383.56 82.584 383.56 82.84V86.296C383.56 86.728 383.62 86.964 383.74 87.004C383.86 87.044 384.008 86.992 384.184 86.848L389.392 82.624C389.552 82.488 389.636 82.392 389.644 82.336C389.66 82.272 389.512 82.24 389.2 82.24H388.276C387.964 82.24 387.76 82.212 387.664 82.156C387.568 82.092 387.52 81.904 387.52 81.592V79.504C387.52 79.312 387.544 79.18 387.592 79.108C387.648 79.036 387.768 79 387.952 79H396.736C396.92 79 397.028 79.056 397.06 79.168C397.1 79.272 397.12 79.416 397.12 79.6V81.556C397.12 81.828 397.096 82.012 397.048 82.108C397 82.196 396.84 82.24 396.568 82.24H394.888C394.544 82.24 394.312 82.284 394.192 82.372C394.072 82.46 393.92 82.576 393.736 82.72L390.664 85.252C390.424 85.452 390.264 85.592 390.184 85.672C390.112 85.752 390.172 85.928 390.364 86.2L395.392 93.232C395.552 93.456 395.692 93.6 395.812 93.664C395.932 93.728 396.192 93.76 396.592 93.76H397.96C398.144 93.76 398.268 93.792 398.332 93.856C398.404 93.912 398.44 94.036 398.44 94.228V96.52C398.44 96.728 398.388 96.86 398.284 96.916C398.188 96.972 398.032 97 397.816 97H387.664C387.44 97 387.3 96.964 387.244 96.892C387.188 96.82 387.16 96.672 387.16 96.448V94.324C387.16 94.068 387.216 93.912 387.328 93.856C387.448 93.792 387.624 93.76 387.856 93.76H388.984C389.312 93.76 389.456 93.7 389.416 93.58C389.384 93.452 389.312 93.308 389.2 93.148L386.608 89.2C386.456 88.968 386.348 88.868 386.284 88.9C386.22 88.924 386.088 89.016 385.888 89.176L383.992 90.736C383.84 90.864 383.728 90.972 383.656 91.06C383.592 91.148 383.56 91.344 383.56 91.648V93.28C383.56 93.504 383.596 93.64 383.668 93.688C383.74 93.736 383.888 93.76 384.112 93.76H385.72C385.928 93.76 386.06 93.796 386.116 93.868C386.172 93.932 386.2 94.072 386.2 94.288V96.328C386.2 96.632 386.152 96.82 386.056 96.892C385.96 96.964 385.768 97 385.48 97H375.832C375.568 97 375.408 96.96 375.352 96.88C375.304 96.792 375.28 96.616 375.28 96.352ZM409.774 82.624V93.472C409.774 93.728 409.814 93.88 409.894 93.928C409.982 93.976 410.158 94 410.422 94H412.318C412.518 94 412.662 94.02 412.75 94.06C412.846 94.092 412.894 94.208 412.894 94.408V96.4C412.894 96.672 412.858 96.84 412.786 96.904C412.722 96.968 412.558 97 412.294 97H401.854C401.582 97 401.414 96.96 401.35 96.88C401.286 96.792 401.254 96.608 401.254 96.328V94.588C401.254 94.316 401.302 94.152 401.398 94.096C401.494 94.032 401.666 94 401.914 94H403.57C403.802 94 403.954 93.968 404.026 93.904C404.098 93.84 404.134 93.684 404.134 93.436V82.648C404.134 82.392 404.106 82.22 404.05 82.132C404.002 82.044 403.85 82 403.594 82H401.89C401.642 82 401.474 81.972 401.386 81.916C401.298 81.852 401.254 81.688 401.254 81.424V79.684C401.254 79.396 401.282 79.212 401.338 79.132C401.394 79.044 401.566 79 401.854 79H412.246C412.534 79 412.714 79.044 412.786 79.132C412.858 79.22 412.894 79.4 412.894 79.672V81.352C412.894 81.64 412.858 81.82 412.786 81.892C412.714 81.964 412.538 82 412.258 82H410.374C410.11 82 409.942 82.04 409.87 82.12C409.806 82.2 409.774 82.368 409.774 82.624ZM425.604 82.624V93.472C425.604 93.728 425.644 93.88 425.724 93.928C425.812 93.976 425.988 94 426.252 94H428.148C428.348 94 428.492 94.02 428.58 94.06C428.676 94.092 428.724 94.208 428.724 94.408V96.4C428.724 96.672 428.688 96.84 428.616 96.904C428.552 96.968 428.388 97 428.124 97H417.684C417.412 97 417.244 96.96 417.18 96.88C417.116 96.792 417.084 96.608 417.084 96.328V94.588C417.084 94.316 417.132 94.152 417.228 94.096C417.324 94.032 417.496 94 417.744 94H419.4C419.632 94 419.784 93.968 419.856 93.904C419.928 93.84 419.964 93.684 419.964 93.436V82.648C419.964 82.392 419.936 82.22 419.88 82.132C419.832 82.044 419.68 82 419.424 82H417.72C417.472 82 417.304 81.972 417.216 81.916C417.128 81.852 417.084 81.688 417.084 81.424V79.684C417.084 79.396 417.112 79.212 417.168 79.132C417.224 79.044 417.396 79 417.684 79H428.076C428.364 79 428.544 79.044 428.616 79.132C428.688 79.22 428.724 79.4 428.724 79.672V81.352C428.724 81.64 428.688 81.82 428.616 81.892C428.544 81.964 428.368 82 428.088 82H426.204C425.94 82 425.772 82.04 425.7 82.12C425.636 82.2 425.604 82.368 425.604 82.624ZM432.973 78.976C432.973 78.392 433.121 77.888 433.417 77.464C433.721 77.032 434.113 76.7 434.593 76.468C435.081 76.236 435.597 76.12 436.141 76.12C437.149 76.12 437.961 76.452 438.577 77.116C439.193 77.772 439.501 78.748 439.501 80.044C439.501 80.884 439.313 81.656 438.937 82.36C438.569 83.056 438.089 83.664 437.497 84.184C436.913 84.704 436.297 85.124 435.649 85.444C435.001 85.756 434.401 85.948 433.849 86.02C433.673 86.044 433.553 86.032 433.489 85.984C433.433 85.936 433.405 85.816 433.405 85.624V84.196C433.405 84.076 433.429 83.996 433.477 83.956C433.525 83.916 433.601 83.892 433.705 83.884C434.185 83.836 434.653 83.692 435.109 83.452C435.565 83.212 435.965 82.936 436.309 82.624C436.661 82.304 436.921 82.008 437.089 81.736C437.121 81.688 437.117 81.652 437.077 81.628C437.045 81.596 436.993 81.596 436.921 81.628C436.785 81.684 436.609 81.732 436.393 81.772C436.185 81.812 435.949 81.832 435.685 81.832C434.869 81.832 434.213 81.576 433.717 81.064C433.221 80.544 432.973 79.848 432.973 78.976ZM440.413 78.976C440.413 78.392 440.561 77.888 440.857 77.464C441.161 77.032 441.553 76.7 442.033 76.468C442.521 76.236 443.037 76.12 443.581 76.12C444.589 76.12 445.401 76.452 446.017 77.116C446.633 77.772 446.941 78.748 446.941 80.044C446.941 80.884 446.753 81.656 446.377 82.36C446.009 83.056 445.529 83.664 444.937 84.184C444.353 84.704 443.737 85.124 443.089 85.444C442.441 85.756 441.841 85.948 441.289 86.02C441.113 86.044 440.993 86.032 440.929 85.984C440.873 85.936 440.845 85.816 440.845 85.624V84.196C440.845 84.076 440.869 83.996 440.917 83.956C440.965 83.916 441.041 83.892 441.145 83.884C441.625 83.836 442.093 83.692 442.549 83.452C443.005 83.212 443.405 82.936 443.749 82.624C444.101 82.304 444.361 82.008 444.529 81.736C444.561 81.688 444.557 81.652 444.517 81.628C444.485 81.596 444.433 81.596 444.361 81.628C444.225 81.684 444.049 81.732 443.833 81.772C443.625 81.812 443.389 81.832 443.125 81.832C442.309 81.832 441.653 81.576 441.157 81.064C440.661 80.544 440.413 79.848 440.413 78.976ZM255.819 117.6H252.979V128H249.519V117.6H246.679V114.66H255.819V117.6ZM259.353 114.66H262.813V122.56C262.813 123.12 262.833 123.98 263.493 124.62C263.893 125 264.533 125.26 265.133 125.26C265.733 125.26 266.353 125.02 266.733 124.68C267.533 123.98 267.513 123 267.513 122.26V114.66H270.973V122.32C270.973 123.72 270.913 125.18 269.473 126.64C268.353 127.78 266.953 128.3 265.073 128.3C262.973 128.3 261.473 127.58 260.653 126.7C259.493 125.44 259.353 123.74 259.353 122.32V114.66ZM281.327 128H275.767V114.66H280.927C281.887 114.66 283.027 114.8 283.847 115.7C284.307 116.2 284.667 117.02 284.667 118.2C284.667 118.78 284.567 119.28 284.287 119.84C284.007 120.36 283.707 120.66 283.207 120.88C283.907 120.96 284.607 121.28 285.027 121.68C285.567 122.2 285.927 123.06 285.927 124.12C285.927 125.38 285.447 126.24 284.947 126.74C284.227 127.48 282.967 128 281.327 128ZM279.227 117.32V119.92H279.867C280.227 119.92 280.827 119.88 281.187 119.5C281.407 119.28 281.507 118.92 281.507 118.62C281.507 118.28 281.387 117.94 281.187 117.72C280.967 117.5 280.547 117.32 279.867 117.32H279.227ZM279.227 122.5V125.3H280.007C280.967 125.3 281.767 125.2 282.147 124.76C282.307 124.58 282.427 124.28 282.427 123.9C282.427 123.48 282.287 123.14 282.087 122.94C281.667 122.52 280.807 122.5 279.947 122.5H279.227ZM297.71 114.66V117.6H293.59V119.82H297.49V122.76H293.59V125.06H297.71V128H290.13V114.66H297.71ZM308.584 114.66H312.044V125.06H316.204V128H308.584V114.66ZM328.938 128L328.118 125.76H323.278L322.378 128H318.718L323.838 114.66H327.618L332.638 128H328.938ZM324.238 123.12H327.198L325.698 118.8L324.238 123.12ZM337.853 128V121.6L333.033 114.66H337.173L339.693 118.3L342.113 114.66H346.313L341.333 121.6V128H337.853ZM362.825 121.34C362.825 123.1 362.145 124.96 360.725 126.32C359.365 127.62 357.445 128.3 355.465 128.3C353.485 128.3 351.565 127.62 350.205 126.32C348.785 124.96 348.105 123.1 348.105 121.34C348.105 119.56 348.785 117.68 350.205 116.34C351.565 115.04 353.485 114.36 355.465 114.36C357.445 114.36 359.365 115.04 360.725 116.34C362.145 117.68 362.825 119.56 362.825 121.34ZM355.465 117.72C354.505 117.72 353.485 118.06 352.765 118.78C352.045 119.48 351.705 120.46 351.705 121.4C351.705 122.58 352.265 123.4 352.765 123.88C353.405 124.5 354.305 124.94 355.465 124.94C356.645 124.94 357.525 124.52 358.145 123.9C358.765 123.28 359.225 122.36 359.225 121.34C359.225 120.3 358.765 119.38 358.145 118.78C357.405 118.08 356.385 117.72 355.465 117.72ZM367.033 114.66H370.493V122.56C370.493 123.12 370.513 123.98 371.173 124.62C371.573 125 372.213 125.26 372.813 125.26C373.413 125.26 374.033 125.02 374.413 124.68C375.213 123.98 375.193 123 375.193 122.26V114.66H378.653V122.32C378.653 123.72 378.593 125.18 377.153 126.64C376.033 127.78 374.633 128.3 372.753 128.3C370.653 128.3 369.153 127.58 368.333 126.7C367.173 125.44 367.033 123.74 367.033 122.32V114.66ZM391.327 117.6H388.487V128H385.027V117.6H382.187V114.66H391.327V117.6Z" fill="black"/>
</g>
<defs>
<clipPath id="clip0_4_184">
<rect width="638" height="344" fill="white"/>
</clipPath>
</defs>
</svg>
