<svg width="698" height="344" viewBox="0 0 698 344" fill="none" xmlns="http://www.w3.org/2000/svg">
<g clip-path="url(#clip0_15_2)">
<rect x="0.5" y="0.5" width="697" height="343" stroke="#767676" stroke-dasharray="2 5"/>
<circle cx="117" cy="217" r="43.5" stroke="black" stroke-width="3"/>
<path d="M105.96 209.92L109.6 219.08L113.26 209.92H117.52L111.08 225H108.04L101.7 209.92H105.96ZM128.515 213.24H123.295L123.035 214.96L124.275 214.86C125.795 214.74 127.062 215.213 128.075 216.28C129.102 217.347 129.615 218.673 129.615 220.26C129.615 221.913 128.968 223.273 127.675 224.34C126.622 225.18 125.155 225.6 123.275 225.6C121.408 225.6 119.768 225.147 118.355 224.24L118.935 220.54C120.228 221.7 121.628 222.28 123.135 222.28C123.775 222.28 124.335 222.073 124.815 221.66C125.295 221.233 125.535 220.7 125.535 220.06C125.535 219.22 125.202 218.58 124.535 218.14C123.882 217.7 123.115 217.48 122.235 217.48C121.195 217.48 120.235 217.687 119.355 218.1L120.675 209.92H128.515V213.24Z" fill="black"/>
<path d="M104.91 280.768H101.256L101.074 281.972L101.942 281.902C103.006 281.818 103.893 282.149 104.602 282.896C105.321 283.643 105.68 284.571 105.68 285.682C105.68 286.839 105.227 287.791 104.322 288.538C103.585 289.126 102.558 289.42 101.242 289.42C99.9353 289.42 98.7873 289.103 97.798 288.468L98.204 285.878C99.1093 286.69 100.089 287.096 101.144 287.096C101.592 287.096 101.984 286.951 102.32 286.662C102.656 286.363 102.824 285.99 102.824 285.542C102.824 284.954 102.591 284.506 102.124 284.198C101.667 283.89 101.13 283.736 100.514 283.736C99.786 283.736 99.114 283.881 98.498 284.17L99.422 278.444H104.91V280.768ZM114.016 287.166H110.236L109.508 289H106.596L110.656 278.444H113.652L117.628 289H114.702L114.016 287.166ZM113.274 285.066L112.154 281.706H112.126L110.992 285.066H113.274ZM123.946 284.674L127.264 289H123.848L121.258 284.94H121.23V289H118.486V278.444H122.588C123.689 278.444 124.576 278.715 125.248 279.256C125.92 279.797 126.256 280.609 126.256 281.692C126.256 282.448 126.051 283.101 125.64 283.652C125.239 284.203 124.674 284.543 123.946 284.674ZM121.23 280.544V283.176H121.496C122.765 283.176 123.4 282.737 123.4 281.86C123.4 280.983 122.765 280.544 121.496 280.544H121.23ZM135.001 284.716H136.275V286.816H135.001V289H132.453V286.816H127.329V285.066L131.403 278.444H135.001V284.716ZM132.453 284.716V280.656H132.425L129.961 284.716H132.453Z" fill="black"/>
<circle cx="226" cy="217" r="43.5" stroke="black" stroke-width="3"/>
<path d="M214.96 209.92L218.6 219.08L222.26 209.92H226.52L220.08 225H217.04L210.7 209.92H214.96ZM237.495 218.88H239.315V221.88H237.495V225H233.855V221.88H226.535V219.38L232.355 209.92H237.495V218.88ZM233.855 218.88V213.08H233.815L230.295 218.88H233.855Z" fill="black"/>
<path d="M212.404 280.768H207.994V278.444H216.66L210.598 289H207.588L212.404 280.768ZM219.384 278.528C219.972 278.192 220.644 278.024 221.4 278.024C222.156 278.024 222.828 278.192 223.416 278.528C224.004 278.855 224.47 279.298 224.816 279.858C225.17 280.409 225.436 281.015 225.614 281.678C225.791 282.331 225.88 283.013 225.88 283.722C225.88 284.282 225.824 284.833 225.712 285.374C225.609 285.906 225.441 286.419 225.208 286.914C224.974 287.409 224.685 287.843 224.34 288.216C224.004 288.58 223.579 288.869 223.066 289.084C222.562 289.308 222.006 289.42 221.4 289.42C220.793 289.42 220.233 289.308 219.72 289.084C219.216 288.869 218.791 288.58 218.446 288.216C218.11 287.843 217.825 287.409 217.592 286.914C217.358 286.419 217.186 285.906 217.074 285.374C216.971 284.833 216.92 284.282 216.92 283.722C216.92 283.013 217.008 282.331 217.186 281.678C217.363 281.015 217.624 280.409 217.97 279.858C218.324 279.298 218.796 278.855 219.384 278.528ZM222.254 280.81C222.011 280.567 221.726 280.446 221.4 280.446C221.073 280.446 220.784 280.567 220.532 280.81C220.289 281.043 220.107 281.342 219.986 281.706C219.864 282.07 219.776 282.42 219.72 282.756C219.673 283.092 219.65 283.409 219.65 283.708C219.65 284.007 219.673 284.329 219.72 284.674C219.776 285.01 219.864 285.365 219.986 285.738C220.107 286.102 220.289 286.405 220.532 286.648C220.784 286.881 221.073 286.998 221.4 286.998C221.726 286.998 222.011 286.881 222.254 286.648C222.506 286.405 222.692 286.102 222.814 285.738C222.935 285.365 223.019 285.01 223.066 284.674C223.122 284.329 223.15 284.007 223.15 283.708C223.15 283.409 223.122 283.092 223.066 282.756C223.019 282.42 222.935 282.07 222.814 281.706C222.692 281.342 222.506 281.043 222.254 280.81ZM231.683 286.676H235.141V289H226.657L230.969 284.31C231.772 283.433 232.173 282.569 232.173 281.72C232.173 281.365 232.057 281.048 231.823 280.768C231.599 280.488 231.315 280.348 230.969 280.348C230.615 280.348 230.335 280.469 230.129 280.712C229.924 280.955 229.821 281.263 229.821 281.636C229.821 281.785 229.835 281.935 229.863 282.084H226.839C226.886 280.861 227.273 279.881 228.001 279.144C228.739 278.397 229.723 278.024 230.955 278.024C232.094 278.024 233.055 278.369 233.839 279.06C234.633 279.751 235.029 280.656 235.029 281.776C235.029 282.485 234.889 283.092 234.609 283.596C234.339 284.1 233.909 284.618 233.321 285.15L231.683 286.676ZM241.197 280.768H236.787V278.444H245.453L239.391 289H236.381L241.197 280.768Z" fill="black"/>
<circle cx="335" cy="217" r="43.5" stroke="black" stroke-width="3"/>
<path d="M323.96 209.92L327.6 219.08L331.26 209.92H335.52L329.08 225H326.04L319.7 209.92H323.96ZM340.315 214.26H336.675C336.822 212.753 337.408 211.54 338.435 210.62C339.408 209.753 340.688 209.32 342.275 209.32C343.675 209.32 344.828 209.707 345.735 210.48C346.642 211.253 347.095 212.327 347.095 213.7C347.095 214.34 346.962 214.947 346.695 215.52C346.428 216.08 346.035 216.507 345.515 216.8C346.275 217 346.875 217.48 347.315 218.24C347.755 218.987 347.975 219.773 347.975 220.6C347.975 221.653 347.688 222.567 347.115 223.34C346.555 224.113 345.835 224.68 344.955 225.04C344.088 225.413 343.142 225.6 342.115 225.6C340.235 225.6 338.735 225.033 337.615 223.9C337.135 223.407 336.722 222.807 336.375 222.1C336.042 221.393 335.882 220.727 335.895 220.1H339.895C339.895 220.713 340.088 221.227 340.475 221.64C340.875 222.04 341.382 222.24 341.995 222.24C342.608 222.24 343.108 222.053 343.495 221.68C343.895 221.307 344.095 220.82 344.095 220.22C344.095 219.66 343.888 219.187 343.475 218.8C343.062 218.4 342.575 218.2 342.015 218.2C341.855 218.2 341.628 218.24 341.335 218.32V215.7H341.735C342.242 215.7 342.655 215.553 342.975 215.26C343.295 214.953 343.455 214.547 343.455 214.04C343.455 213.587 343.308 213.22 343.015 212.94C342.722 212.66 342.355 212.52 341.915 212.52C341.422 212.52 341.028 212.687 340.735 213.02C340.442 213.34 340.302 213.753 340.315 214.26Z" fill="black"/>
<path d="M321.404 280.768H316.994V278.444H325.66L319.598 289H316.588L321.404 280.768ZM328.384 278.528C328.972 278.192 329.644 278.024 330.4 278.024C331.156 278.024 331.828 278.192 332.416 278.528C333.004 278.855 333.47 279.298 333.816 279.858C334.17 280.409 334.436 281.015 334.614 281.678C334.791 282.331 334.88 283.013 334.88 283.722C334.88 284.282 334.824 284.833 334.712 285.374C334.609 285.906 334.441 286.419 334.208 286.914C333.974 287.409 333.685 287.843 333.34 288.216C333.004 288.58 332.579 288.869 332.066 289.084C331.562 289.308 331.006 289.42 330.4 289.42C329.793 289.42 329.233 289.308 328.72 289.084C328.216 288.869 327.791 288.58 327.446 288.216C327.11 287.843 326.825 287.409 326.592 286.914C326.358 286.419 326.186 285.906 326.074 285.374C325.971 284.833 325.92 284.282 325.92 283.722C325.92 283.013 326.008 282.331 326.186 281.678C326.363 281.015 326.624 280.409 326.97 279.858C327.324 279.298 327.796 278.855 328.384 278.528ZM331.254 280.81C331.011 280.567 330.726 280.446 330.4 280.446C330.073 280.446 329.784 280.567 329.532 280.81C329.289 281.043 329.107 281.342 328.986 281.706C328.864 282.07 328.776 282.42 328.72 282.756C328.673 283.092 328.65 283.409 328.65 283.708C328.65 284.007 328.673 284.329 328.72 284.674C328.776 285.01 328.864 285.365 328.986 285.738C329.107 286.102 329.289 286.405 329.532 286.648C329.784 286.881 330.073 286.998 330.4 286.998C330.726 286.998 331.011 286.881 331.254 286.648C331.506 286.405 331.692 286.102 331.814 285.738C331.935 285.365 332.019 285.01 332.066 284.674C332.122 284.329 332.15 284.007 332.15 283.708C332.15 283.409 332.122 283.092 332.066 282.756C332.019 282.42 331.935 282.07 331.814 281.706C331.692 281.342 331.506 281.043 331.254 280.81ZM340.683 286.676H344.141V289H335.657L339.969 284.31C340.772 283.433 341.173 282.569 341.173 281.72C341.173 281.365 341.057 281.048 340.823 280.768C340.599 280.488 340.315 280.348 339.969 280.348C339.615 280.348 339.335 280.469 339.129 280.712C338.924 280.955 338.821 281.263 338.821 281.636C338.821 281.785 338.835 281.935 338.863 282.084H335.839C335.886 280.861 336.273 279.881 337.001 279.144C337.739 278.397 338.723 278.024 339.955 278.024C341.094 278.024 342.055 278.369 342.839 279.06C343.633 279.751 344.029 280.656 344.029 281.776C344.029 282.485 343.889 283.092 343.609 283.596C343.339 284.1 342.909 284.618 342.321 285.15L340.683 286.676ZM350.197 280.768H345.787V278.444H354.453L348.391 289H345.381L350.197 280.768Z" fill="black"/>
<circle cx="515.5" cy="229.5" r="31" stroke="black" stroke-width="3"/>
<path d="M488.766 280.768H487.254V278.444H491.51V289H488.766V280.768ZM500.086 286.676H503.544V289H495.06L499.372 284.31C500.174 283.433 500.576 282.569 500.576 281.72C500.576 281.365 500.459 281.048 500.226 280.768C500.002 280.488 499.717 280.348 499.372 280.348C499.017 280.348 498.737 280.469 498.532 280.712C498.326 280.955 498.224 281.263 498.224 281.636C498.224 281.785 498.238 281.935 498.266 282.084H495.242C495.288 280.861 495.676 279.881 496.404 279.144C497.141 278.397 498.126 278.024 499.358 278.024C500.496 278.024 501.458 278.369 502.242 279.06C503.035 279.751 503.432 280.656 503.432 281.776C503.432 282.485 503.292 283.092 503.012 283.596C502.741 284.1 502.312 284.618 501.724 285.15L500.086 286.676ZM511.559 287.166H507.779L507.051 289H504.139L508.199 278.444H511.195L515.171 289H512.245L511.559 287.166ZM510.817 285.066L509.697 281.706H509.669L508.535 285.066H510.817ZM519.151 283.358L515.777 278.444H519.151L520.761 281.174L522.371 278.444H525.745L522.371 283.358L526.277 289H522.973L520.761 285.556L518.339 289H515.021L519.151 283.358ZM531.584 280.768H527.174V278.444H535.84L529.778 289H526.768L531.584 280.768ZM543.141 287.166H539.361L538.633 289H535.721L539.781 278.444H542.777L546.753 289H543.827L543.141 287.166ZM542.399 285.066L541.279 281.706H541.251L540.117 285.066H542.399Z" fill="black"/>
<path d="M504.96 221.92L508.6 231.08L512.26 221.92H516.52L510.08 237H507.04L500.7 221.92H504.96ZM521.595 225.24H519.435V221.92H525.515V237H521.595V225.24Z" fill="black"/>
<circle cx="599.5" cy="229.5" r="31" stroke="black" stroke-width="3"/>
<path d="M572.766 280.768H571.254V278.444H575.51V289H572.766V280.768ZM584.086 286.676H587.544V289H579.06L583.372 284.31C584.174 283.433 584.576 282.569 584.576 281.72C584.576 281.365 584.459 281.048 584.226 280.768C584.002 280.488 583.717 280.348 583.372 280.348C583.017 280.348 582.737 280.469 582.532 280.712C582.326 280.955 582.224 281.263 582.224 281.636C582.224 281.785 582.238 281.935 582.266 282.084H579.242C579.288 280.861 579.676 279.881 580.404 279.144C581.141 278.397 582.126 278.024 583.358 278.024C584.496 278.024 585.458 278.369 586.242 279.06C587.035 279.751 587.432 280.656 587.432 281.776C587.432 282.485 587.292 283.092 587.012 283.596C586.741 284.1 586.312 284.618 585.724 285.15L584.086 286.676ZM595.559 287.166H591.779L591.051 289H588.139L592.199 278.444H595.195L599.171 289H596.245L595.559 287.166ZM594.817 285.066L593.697 281.706H593.669L592.535 285.066H594.817ZM603.151 283.358L599.777 278.444H603.151L604.761 281.174L606.371 278.444H609.745L606.371 283.358L610.277 289H606.973L604.761 285.556L602.339 289H599.021L603.151 283.358ZM615.584 280.768H611.174V278.444H619.84L613.778 289H610.768L615.584 280.768ZM627.141 287.166H623.361L622.633 289H619.721L623.781 278.444H626.777L630.753 289H627.827L627.141 287.166ZM626.399 285.066L625.279 281.706H625.251L624.117 285.066H626.399Z" fill="black"/>
<path d="M588.96 221.92L592.6 231.08L596.26 221.92H600.52L594.08 237H591.04L584.7 221.92H588.96ZM605.595 225.24H603.435V221.92H609.515V237H605.595V225.24Z" fill="black"/>
<circle cx="431.5" cy="229.5" r="31" stroke="black" stroke-width="3"/>
<path d="M404.766 280.768H403.254V278.444H407.51V289H404.766V280.768ZM416.086 286.676H419.544V289H411.06L415.372 284.31C416.174 283.433 416.576 282.569 416.576 281.72C416.576 281.365 416.459 281.048 416.226 280.768C416.002 280.488 415.717 280.348 415.372 280.348C415.017 280.348 414.737 280.469 414.532 280.712C414.326 280.955 414.224 281.263 414.224 281.636C414.224 281.785 414.238 281.935 414.266 282.084H411.242C411.288 280.861 411.676 279.881 412.404 279.144C413.141 278.397 414.126 278.024 415.358 278.024C416.496 278.024 417.458 278.369 418.242 279.06C419.035 279.751 419.432 280.656 419.432 281.776C419.432 282.485 419.292 283.092 419.012 283.596C418.741 284.1 418.312 284.618 417.724 285.15L416.086 286.676ZM427.559 287.166H423.779L423.051 289H420.139L424.199 278.444H427.195L431.171 289H428.245L427.559 287.166ZM426.817 285.066L425.697 281.706H425.669L424.535 285.066H426.817ZM435.151 283.358L431.777 278.444H435.151L436.761 281.174L438.371 278.444H441.745L438.371 283.358L442.277 289H438.973L436.761 285.556L434.339 289H431.021L435.151 283.358ZM447.584 280.768H443.174V278.444H451.84L445.778 289H442.768L447.584 280.768ZM459.141 287.166H455.361L454.633 289H451.721L455.781 278.444H458.777L462.753 289H459.827L459.141 287.166ZM458.399 285.066L457.279 281.706H457.251L456.117 285.066H458.399Z" fill="black"/>
<path d="M420.96 221.92L424.6 231.08L428.26 221.92H432.52L426.08 237H423.04L416.7 221.92H420.96ZM440.055 233.68H444.995V237H432.875L439.035 230.3C440.182 229.047 440.755 227.813 440.755 226.6C440.755 226.093 440.588 225.64 440.255 225.24C439.935 224.84 439.528 224.64 439.035 224.64C438.528 224.64 438.128 224.813 437.835 225.16C437.542 225.507 437.395 225.947 437.395 226.48C437.395 226.693 437.415 226.907 437.455 227.12H433.135C433.202 225.373 433.755 223.973 434.795 222.92C435.848 221.853 437.255 221.32 439.015 221.32C440.642 221.32 442.015 221.813 443.135 222.8C444.268 223.787 444.835 225.08 444.835 226.68C444.835 227.693 444.635 228.56 444.235 229.28C443.848 230 443.235 230.74 442.395 231.5L440.055 233.68Z" fill="black"/>
<rect x="38" y="36" width="622" height="273" rx="9" stroke="black" stroke-width="2"/>
<path d="M142.806 95.568V93.312C142.806 93.08 142.83 92.932 142.878 92.868C142.926 92.796 143.062 92.76 143.286 92.76H144.918C145.158 92.76 145.306 92.724 145.362 92.652C145.418 92.58 145.446 92.42 145.446 92.172V90.444C145.446 90.116 145.418 89.884 145.362 89.748C145.306 89.604 145.218 89.444 145.098 89.268L139.974 81.792C139.838 81.584 139.722 81.44 139.626 81.36C139.538 81.28 139.314 81.24 138.954 81.24H137.682C137.434 81.24 137.286 81.2 137.238 81.12C137.19 81.04 137.166 80.876 137.166 80.628V78.84C137.166 78.464 137.234 78.232 137.37 78.144C137.506 78.048 137.746 78 138.09 78H147.618C147.922 78 148.134 78.036 148.254 78.108C148.382 78.172 148.446 78.368 148.446 78.696V80.676C148.446 80.916 148.41 81.072 148.338 81.144C148.274 81.208 148.126 81.24 147.894 81.24H146.874C146.578 81.24 146.402 81.284 146.346 81.372C146.29 81.46 146.35 81.632 146.526 81.888L148.59 84.888C148.814 85.2 148.978 85.4 149.082 85.488C149.194 85.576 149.306 85.564 149.418 85.452C149.53 85.332 149.698 85.128 149.922 84.84L152.238 81.84C152.438 81.584 152.494 81.42 152.406 81.348C152.318 81.276 152.146 81.24 151.89 81.24H150.966C150.662 81.24 150.466 81.212 150.378 81.156C150.29 81.092 150.246 80.908 150.246 80.604V78.6C150.246 78.328 150.278 78.16 150.342 78.096C150.414 78.032 150.582 78 150.846 78H158.298C158.506 78 158.654 78.02 158.742 78.06C158.838 78.1 158.886 78.236 158.886 78.468V80.916C158.886 81.068 158.85 81.16 158.778 81.192C158.714 81.224 158.602 81.24 158.442 81.24H157.65C157.298 81.24 157.07 81.28 156.966 81.36C156.87 81.432 156.746 81.56 156.594 81.744L151.566 87.972C151.414 88.172 151.294 88.34 151.206 88.476C151.126 88.612 151.086 88.868 151.086 89.244V92.196C151.086 92.42 151.11 92.572 151.158 92.652C151.206 92.724 151.342 92.76 151.566 92.76H153.474C153.706 92.76 153.846 92.8 153.894 92.88C153.942 92.952 153.966 93.108 153.966 93.348V95.532C153.966 95.716 153.942 95.84 153.894 95.904C153.854 95.968 153.742 96 153.558 96H143.19C143.03 96 142.926 95.972 142.878 95.916C142.83 95.86 142.806 95.744 142.806 95.568ZM172.201 92.76C172.889 92.76 173.425 92.66 173.809 92.46C174.193 92.252 174.461 91.968 174.613 91.608C174.765 91.248 174.841 90.832 174.841 90.36C174.841 89.888 174.729 89.504 174.505 89.208C174.289 88.904 173.981 88.68 173.581 88.536C173.189 88.392 172.729 88.32 172.201 88.32H170.413C170.261 88.32 170.141 88.368 170.053 88.464C169.965 88.552 169.921 88.68 169.921 88.848V92.088C169.921 92.336 169.953 92.512 170.017 92.616C170.081 92.712 170.229 92.76 170.461 92.76H172.201ZM170.605 85.08H171.721C172.209 85.08 172.633 85.008 172.993 84.864C173.353 84.72 173.629 84.5 173.821 84.204C174.021 83.9 174.121 83.512 174.121 83.04C174.121 82.568 174.037 82.204 173.869 81.948C173.709 81.684 173.453 81.5 173.101 81.396C172.749 81.292 172.289 81.24 171.721 81.24H170.533C170.349 81.24 170.201 81.26 170.089 81.3C169.977 81.332 169.921 81.44 169.921 81.624V84.372C169.921 84.668 169.961 84.86 170.041 84.948C170.121 85.036 170.309 85.08 170.605 85.08ZM172.681 96H162.205C161.933 96 161.769 95.94 161.713 95.82C161.665 95.692 161.641 95.488 161.641 95.208V93.12C161.641 92.96 161.673 92.86 161.737 92.82C161.809 92.78 161.917 92.76 162.061 92.76H163.717C163.981 92.76 164.141 92.704 164.197 92.592C164.253 92.48 164.281 92.288 164.281 92.016V81.864C164.281 81.648 164.249 81.492 164.185 81.396C164.129 81.292 163.997 81.24 163.789 81.24H162.157C161.933 81.24 161.789 81.212 161.725 81.156C161.669 81.092 161.641 80.952 161.641 80.736V78.624C161.641 78.384 161.677 78.22 161.749 78.132C161.829 78.044 161.981 78 162.205 78H171.961C173.809 78 175.317 78.136 176.485 78.408C177.653 78.68 178.509 79.14 179.053 79.788C179.605 80.436 179.881 81.32 179.881 82.44C179.881 83.432 179.597 84.248 179.029 84.888C178.469 85.528 177.653 86.012 176.581 86.34C176.357 86.404 176.245 86.496 176.245 86.616C176.245 86.736 176.381 86.824 176.653 86.88C177.989 87.152 179.021 87.628 179.749 88.308C180.477 88.98 180.841 89.864 180.841 90.96C180.841 92.24 180.561 93.248 180.001 93.984C179.449 94.712 178.573 95.232 177.373 95.544C176.173 95.848 174.609 96 172.681 96ZM192.092 83.772L190.688 87.18C190.608 87.356 190.56 87.532 190.544 87.708C190.536 87.876 190.692 87.96 191.012 87.96H193.544C193.824 87.96 193.964 87.88 193.964 87.72C193.972 87.56 193.944 87.396 193.88 87.228L192.632 83.724C192.536 83.444 192.44 83.336 192.344 83.4C192.256 83.464 192.172 83.588 192.092 83.772ZM182.144 95.316V93.348C182.144 93.14 182.18 92.992 182.252 92.904C182.324 92.808 182.472 92.76 182.696 92.76H184.676C184.876 92.76 184.992 92.72 185.024 92.64C185.056 92.552 185.1 92.444 185.156 92.316L191.24 78.036C191.32 77.844 191.396 77.732 191.468 77.7C191.548 77.66 191.724 77.64 191.996 77.64H195.596C195.876 77.64 196.056 77.68 196.136 77.76C196.224 77.832 196.308 77.964 196.388 78.156L201.92 92.028C202.008 92.252 202.076 92.432 202.124 92.568C202.18 92.696 202.38 92.76 202.724 92.76H204.308C204.516 92.76 204.672 92.78 204.776 92.82C204.888 92.86 204.944 92.996 204.944 93.228V95.46C204.944 95.7 204.912 95.852 204.848 95.916C204.784 95.972 204.636 96 204.404 96H193.676C193.436 96 193.292 95.964 193.244 95.892C193.204 95.812 193.184 95.652 193.184 95.412V93.276C193.184 93.044 193.212 92.9 193.268 92.844C193.332 92.788 193.476 92.76 193.7 92.76H195.068C195.42 92.76 195.628 92.72 195.692 92.64C195.756 92.56 195.744 92.404 195.656 92.172L195.368 91.356C195.312 91.196 195.26 91.092 195.212 91.044C195.172 90.988 195.036 90.96 194.804 90.96H189.74C189.508 90.96 189.344 90.968 189.248 90.984C189.152 90.992 189.068 91.084 188.996 91.26L188.6 92.244C188.52 92.436 188.496 92.572 188.528 92.652C188.56 92.724 188.684 92.76 188.9 92.76H190.148C190.34 92.76 190.452 92.796 190.484 92.868C190.524 92.932 190.544 93.06 190.544 93.252V95.556C190.544 95.756 190.508 95.88 190.436 95.928C190.364 95.976 190.236 96 190.052 96H182.936C182.6 96 182.384 95.972 182.288 95.916C182.192 95.852 182.144 95.652 182.144 95.316ZM209.196 85.32H216.54C216.724 85.32 216.836 85.352 216.876 85.416C216.924 85.472 216.948 85.596 216.948 85.788V87.588C216.948 87.796 216.928 87.932 216.888 87.996C216.848 88.052 216.724 88.08 216.516 88.08H209.292C209.076 88.08 208.936 88.052 208.872 87.996C208.816 87.94 208.788 87.808 208.788 87.6V85.812C208.788 85.62 208.808 85.492 208.848 85.428C208.888 85.356 209.004 85.32 209.196 85.32ZM221.627 95.22V94.008C221.627 93.752 221.667 93.6 221.747 93.552C221.835 93.504 222.007 93.48 222.263 93.48H225.407C225.703 93.48 225.887 93.444 225.959 93.372C226.031 93.292 226.067 93.112 226.067 92.832V83.124C226.067 82.884 226.031 82.732 225.959 82.668C225.887 82.596 225.735 82.56 225.503 82.56H222.575C222.375 82.56 222.235 82.536 222.155 82.488C222.075 82.44 222.035 82.308 222.035 82.092V80.652C222.035 80.324 222.123 80.14 222.299 80.1C222.475 80.06 222.703 80.036 222.983 80.028C223.719 80.012 224.415 79.948 225.071 79.836C225.727 79.716 226.323 79.484 226.859 79.14C227.395 78.796 227.847 78.276 228.215 77.58C228.319 77.388 228.415 77.252 228.503 77.172C228.591 77.084 228.791 77.04 229.103 77.04H230.135C230.391 77.04 230.555 77.072 230.627 77.136C230.707 77.192 230.747 77.344 230.747 77.592V92.808C230.747 93.128 230.795 93.32 230.891 93.384C230.987 93.448 231.199 93.48 231.527 93.48H234.191C234.391 93.48 234.547 93.508 234.659 93.564C234.771 93.612 234.827 93.744 234.827 93.96V95.292C234.827 95.588 234.799 95.78 234.743 95.868C234.687 95.956 234.511 96 234.215 96H222.407C222.063 96 221.847 95.96 221.759 95.88C221.671 95.8 221.627 95.58 221.627 95.22ZM262.101 82.92C262.101 83.504 261.949 84.012 261.645 84.444C261.349 84.868 260.957 85.196 260.469 85.428C259.989 85.66 259.477 85.776 258.933 85.776C257.925 85.776 257.113 85.448 256.497 84.792C255.881 84.128 255.573 83.148 255.573 81.852C255.573 81.012 255.757 80.244 256.125 79.548C256.501 78.844 256.981 78.232 257.565 77.712C258.157 77.192 258.777 76.776 259.425 76.464C260.073 76.144 260.673 75.948 261.225 75.876C261.401 75.852 261.517 75.864 261.573 75.912C261.637 75.96 261.669 76.08 261.669 76.272V77.7C261.669 77.82 261.645 77.9 261.597 77.94C261.549 77.972 261.473 77.996 261.369 78.012C260.889 78.06 260.421 78.204 259.965 78.444C259.509 78.684 259.105 78.96 258.753 79.272C258.409 79.584 258.153 79.88 257.985 80.16C257.953 80.208 257.953 80.248 257.985 80.28C258.025 80.304 258.081 80.3 258.153 80.268C258.289 80.204 258.461 80.156 258.669 80.124C258.885 80.084 259.125 80.064 259.389 80.064C260.205 80.064 260.861 80.32 261.357 80.832C261.853 81.344 262.101 82.04 262.101 82.92ZM254.661 82.92C254.661 83.504 254.509 84.012 254.205 84.444C253.909 84.868 253.517 85.196 253.029 85.428C252.549 85.66 252.037 85.776 251.493 85.776C250.485 85.776 249.673 85.448 249.057 84.792C248.441 84.128 248.133 83.148 248.133 81.852C248.133 81.012 248.317 80.244 248.685 79.548C249.061 78.844 249.541 78.232 250.125 77.712C250.717 77.192 251.337 76.776 251.985 76.464C252.633 76.144 253.233 75.948 253.785 75.876C253.961 75.852 254.077 75.864 254.133 75.912C254.197 75.96 254.229 76.08 254.229 76.272V77.7C254.229 77.82 254.205 77.9 254.157 77.94C254.109 77.972 254.033 77.996 253.929 78.012C253.449 78.06 252.981 78.204 252.525 78.444C252.069 78.684 251.665 78.96 251.313 79.272C250.969 79.584 250.713 79.88 250.545 80.16C250.513 80.208 250.513 80.248 250.545 80.28C250.585 80.304 250.641 80.3 250.713 80.268C250.849 80.204 251.021 80.156 251.229 80.124C251.445 80.084 251.685 80.064 251.949 80.064C252.765 80.064 253.421 80.32 253.917 80.832C254.413 81.344 254.661 82.04 254.661 82.92ZM266.064 95.592V93.24C266.064 93.04 266.096 92.912 266.16 92.856C266.224 92.792 266.348 92.76 266.532 92.76H268.26C268.476 92.76 268.604 92.724 268.644 92.652C268.684 92.58 268.704 92.432 268.704 92.208V81.852C268.704 81.596 268.672 81.432 268.608 81.36C268.544 81.28 268.388 81.24 268.14 81.24H266.652C266.388 81.24 266.224 81.208 266.16 81.144C266.096 81.072 266.064 80.912 266.064 80.664V78.636C266.064 78.364 266.104 78.192 266.184 78.12C266.272 78.04 266.444 78 266.7 78H276.384C278.384 78 280.048 78.228 281.376 78.684C282.704 79.132 283.756 79.764 284.532 80.58C285.316 81.396 285.872 82.352 286.2 83.448C286.536 84.536 286.704 85.72 286.704 87C286.704 88.28 286.528 89.468 286.176 90.564C285.824 91.652 285.248 92.604 284.448 93.42C283.656 94.236 282.596 94.872 281.268 95.328C279.948 95.776 278.32 96 276.384 96H266.64C266.44 96 266.292 95.984 266.196 95.952C266.108 95.912 266.064 95.792 266.064 95.592ZM275.04 92.76H276.144C277.056 92.76 277.832 92.552 278.472 92.136C279.12 91.712 279.612 91.076 279.948 90.228C280.292 89.372 280.464 88.296 280.464 87C280.464 85.704 280.276 84.632 279.9 83.784C279.532 82.928 279.02 82.292 278.364 81.876C277.716 81.452 276.976 81.24 276.144 81.24H275.052C274.772 81.24 274.584 81.28 274.488 81.36C274.392 81.44 274.344 81.624 274.344 81.912V92.208C274.344 92.472 274.392 92.632 274.488 92.688C274.584 92.736 274.768 92.76 275.04 92.76ZM292.459 95.568V93.312C292.459 93.08 292.483 92.932 292.531 92.868C292.579 92.796 292.715 92.76 292.939 92.76H294.571C294.811 92.76 294.959 92.724 295.015 92.652C295.071 92.58 295.099 92.42 295.099 92.172V90.444C295.099 90.116 295.071 89.884 295.015 89.748C294.959 89.604 294.871 89.444 294.751 89.268L289.627 81.792C289.491 81.584 289.375 81.44 289.279 81.36C289.191 81.28 288.967 81.24 288.607 81.24H287.335C287.087 81.24 286.939 81.2 286.891 81.12C286.843 81.04 286.819 80.876 286.819 80.628V78.84C286.819 78.464 286.887 78.232 287.023 78.144C287.159 78.048 287.399 78 287.743 78H297.271C297.575 78 297.787 78.036 297.907 78.108C298.035 78.172 298.099 78.368 298.099 78.696V80.676C298.099 80.916 298.063 81.072 297.991 81.144C297.927 81.208 297.779 81.24 297.547 81.24H296.527C296.231 81.24 296.055 81.284 295.999 81.372C295.943 81.46 296.003 81.632 296.179 81.888L298.243 84.888C298.467 85.2 298.631 85.4 298.735 85.488C298.847 85.576 298.959 85.564 299.071 85.452C299.183 85.332 299.351 85.128 299.575 84.84L301.891 81.84C302.091 81.584 302.147 81.42 302.059 81.348C301.971 81.276 301.799 81.24 301.543 81.24H300.619C300.315 81.24 300.119 81.212 300.031 81.156C299.943 81.092 299.899 80.908 299.899 80.604V78.6C299.899 78.328 299.931 78.16 299.995 78.096C300.067 78.032 300.235 78 300.499 78H307.951C308.159 78 308.307 78.02 308.395 78.06C308.491 78.1 308.539 78.236 308.539 78.468V80.916C308.539 81.068 308.503 81.16 308.431 81.192C308.367 81.224 308.255 81.24 308.095 81.24H307.303C306.951 81.24 306.723 81.28 306.619 81.36C306.523 81.432 306.399 81.56 306.247 81.744L301.219 87.972C301.067 88.172 300.947 88.34 300.859 88.476C300.779 88.612 300.739 88.868 300.739 89.244V92.196C300.739 92.42 300.763 92.572 300.811 92.652C300.859 92.724 300.995 92.76 301.219 92.76H303.127C303.359 92.76 303.499 92.8 303.547 92.88C303.595 92.952 303.619 93.108 303.619 93.348V95.532C303.619 95.716 303.595 95.84 303.547 95.904C303.507 95.968 303.395 96 303.211 96H292.843C292.683 96 292.579 95.972 292.531 95.916C292.483 95.86 292.459 95.744 292.459 95.568ZM313.202 81.24H311.834C311.626 81.24 311.482 81.216 311.402 81.168C311.33 81.12 311.294 80.996 311.294 80.796V78.768C311.294 78.416 311.338 78.2 311.426 78.12C311.522 78.04 311.738 78 312.074 78H317.738C318.178 78 318.498 78.028 318.698 78.084C318.906 78.14 319.11 78.276 319.31 78.492L326.894 86.652C327.086 86.852 327.234 86.94 327.338 86.916C327.442 86.892 327.494 86.612 327.494 86.076V81.708C327.494 81.532 327.474 81.412 327.434 81.348C327.394 81.276 327.29 81.24 327.122 81.24H325.394C325.13 81.24 324.974 81.196 324.926 81.108C324.878 81.02 324.854 80.844 324.854 80.58V78.612C324.854 78.324 324.902 78.152 324.998 78.096C325.102 78.032 325.29 78 325.562 78H332.81C332.97 78 333.082 78.028 333.146 78.084C333.218 78.132 333.254 78.244 333.254 78.42V80.484C333.254 80.836 333.206 81.052 333.11 81.132C333.014 81.204 332.786 81.24 332.426 81.24H331.274C331.05 81.24 330.902 81.284 330.83 81.372C330.766 81.46 330.734 81.612 330.734 81.828V95.88C330.734 96.104 330.698 96.24 330.626 96.288C330.554 96.336 330.402 96.36 330.17 96.36H328.454C328.094 96.36 327.842 96.308 327.698 96.204C327.554 96.108 327.402 95.972 327.242 95.796L317.642 84.924C317.442 84.692 317.294 84.62 317.198 84.708C317.102 84.788 317.054 85.108 317.054 85.668V92.1C317.054 92.38 317.086 92.56 317.15 92.64C317.222 92.72 317.394 92.76 317.666 92.76H319.394C319.562 92.76 319.674 92.792 319.73 92.856C319.786 92.912 319.814 93.032 319.814 93.216V95.4C319.814 95.696 319.738 95.872 319.586 95.928C319.434 95.976 319.226 96 318.962 96H312.098C311.754 96 311.534 95.96 311.438 95.88C311.342 95.8 311.294 95.58 311.294 95.22V93.372C311.294 93.068 311.342 92.892 311.438 92.844C311.534 92.788 311.73 92.76 312.026 92.76H313.202C313.482 92.76 313.654 92.72 313.718 92.64C313.782 92.552 313.814 92.368 313.814 92.088V81.852C313.814 81.548 313.786 81.372 313.73 81.324C313.682 81.268 313.506 81.24 313.202 81.24ZM345.964 83.772L344.56 87.18C344.48 87.356 344.432 87.532 344.416 87.708C344.408 87.876 344.564 87.96 344.884 87.96H347.416C347.696 87.96 347.836 87.88 347.836 87.72C347.844 87.56 347.816 87.396 347.752 87.228L346.504 83.724C346.408 83.444 346.312 83.336 346.216 83.4C346.128 83.464 346.044 83.588 345.964 83.772ZM336.016 95.316V93.348C336.016 93.14 336.052 92.992 336.124 92.904C336.196 92.808 336.344 92.76 336.568 92.76H338.548C338.748 92.76 338.864 92.72 338.896 92.64C338.928 92.552 338.972 92.444 339.028 92.316L345.112 78.036C345.192 77.844 345.268 77.732 345.34 77.7C345.42 77.66 345.596 77.64 345.868 77.64H349.468C349.748 77.64 349.928 77.68 350.008 77.76C350.096 77.832 350.18 77.964 350.26 78.156L355.792 92.028C355.88 92.252 355.948 92.432 355.996 92.568C356.052 92.696 356.252 92.76 356.596 92.76H358.18C358.388 92.76 358.544 92.78 358.648 92.82C358.76 92.86 358.816 92.996 358.816 93.228V95.46C358.816 95.7 358.784 95.852 358.72 95.916C358.656 95.972 358.508 96 358.276 96H347.548C347.308 96 347.164 95.964 347.116 95.892C347.076 95.812 347.056 95.652 347.056 95.412V93.276C347.056 93.044 347.084 92.9 347.14 92.844C347.204 92.788 347.348 92.76 347.572 92.76H348.94C349.292 92.76 349.5 92.72 349.564 92.64C349.628 92.56 349.616 92.404 349.528 92.172L349.24 91.356C349.184 91.196 349.132 91.092 349.084 91.044C349.044 90.988 348.908 90.96 348.676 90.96H343.612C343.38 90.96 343.216 90.968 343.12 90.984C343.024 90.992 342.94 91.084 342.868 91.26L342.472 92.244C342.392 92.436 342.368 92.572 342.4 92.652C342.432 92.724 342.556 92.76 342.772 92.76H344.02C344.212 92.76 344.324 92.796 344.356 92.868C344.396 92.932 344.416 93.06 344.416 93.252V95.556C344.416 95.756 344.38 95.88 344.308 95.928C344.236 95.976 344.108 96 343.924 96H336.808C336.472 96 336.256 95.972 336.16 95.916C336.064 95.852 336.016 95.652 336.016 95.316ZM381.976 92.76C382.664 92.76 383.2 92.66 383.584 92.46C383.968 92.252 384.236 91.968 384.388 91.608C384.54 91.248 384.616 90.832 384.616 90.36C384.616 89.888 384.504 89.504 384.28 89.208C384.064 88.904 383.756 88.68 383.356 88.536C382.964 88.392 382.504 88.32 381.976 88.32H380.188C380.036 88.32 379.916 88.368 379.828 88.464C379.74 88.552 379.696 88.68 379.696 88.848V92.088C379.696 92.336 379.728 92.512 379.792 92.616C379.856 92.712 380.004 92.76 380.236 92.76H381.976ZM380.38 85.08H381.496C381.984 85.08 382.408 85.008 382.768 84.864C383.128 84.72 383.404 84.5 383.596 84.204C383.796 83.9 383.896 83.512 383.896 83.04C383.896 82.568 383.812 82.204 383.644 81.948C383.484 81.684 383.228 81.5 382.876 81.396C382.524 81.292 382.064 81.24 381.496 81.24H380.308C380.124 81.24 379.976 81.26 379.864 81.3C379.752 81.332 379.696 81.44 379.696 81.624V84.372C379.696 84.668 379.736 84.86 379.816 84.948C379.896 85.036 380.084 85.08 380.38 85.08ZM382.456 96H371.98C371.708 96 371.544 95.94 371.488 95.82C371.44 95.692 371.416 95.488 371.416 95.208V93.12C371.416 92.96 371.448 92.86 371.512 92.82C371.584 92.78 371.692 92.76 371.836 92.76H373.492C373.756 92.76 373.916 92.704 373.972 92.592C374.028 92.48 374.056 92.288 374.056 92.016V81.864C374.056 81.648 374.024 81.492 373.96 81.396C373.904 81.292 373.772 81.24 373.564 81.24H371.932C371.708 81.24 371.564 81.212 371.5 81.156C371.444 81.092 371.416 80.952 371.416 80.736V78.624C371.416 78.384 371.452 78.22 371.524 78.132C371.604 78.044 371.756 78 371.98 78H381.736C383.584 78 385.092 78.136 386.26 78.408C387.428 78.68 388.284 79.14 388.828 79.788C389.38 80.436 389.656 81.32 389.656 82.44C389.656 83.432 389.372 84.248 388.804 84.888C388.244 85.528 387.428 86.012 386.356 86.34C386.132 86.404 386.02 86.496 386.02 86.616C386.02 86.736 386.156 86.824 386.428 86.88C387.764 87.152 388.796 87.628 389.524 88.308C390.252 88.98 390.616 89.864 390.616 90.96C390.616 92.24 390.336 93.248 389.776 93.984C389.224 94.712 388.348 95.232 387.148 95.544C385.948 95.848 384.384 96 382.456 96ZM401.867 83.772L400.463 87.18C400.383 87.356 400.335 87.532 400.319 87.708C400.311 87.876 400.467 87.96 400.787 87.96H403.319C403.599 87.96 403.739 87.88 403.739 87.72C403.747 87.56 403.719 87.396 403.655 87.228L402.407 83.724C402.311 83.444 402.215 83.336 402.119 83.4C402.031 83.464 401.947 83.588 401.867 83.772ZM391.919 95.316V93.348C391.919 93.14 391.955 92.992 392.027 92.904C392.099 92.808 392.247 92.76 392.471 92.76H394.451C394.651 92.76 394.767 92.72 394.799 92.64C394.831 92.552 394.875 92.444 394.931 92.316L401.015 78.036C401.095 77.844 401.171 77.732 401.243 77.7C401.323 77.66 401.499 77.64 401.771 77.64H405.371C405.651 77.64 405.831 77.68 405.911 77.76C405.999 77.832 406.083 77.964 406.163 78.156L411.695 92.028C411.783 92.252 411.851 92.432 411.899 92.568C411.955 92.696 412.155 92.76 412.499 92.76H414.083C414.291 92.76 414.447 92.78 414.551 92.82C414.663 92.86 414.719 92.996 414.719 93.228V95.46C414.719 95.7 414.687 95.852 414.623 95.916C414.559 95.972 414.411 96 414.179 96H403.451C403.211 96 403.067 95.964 403.019 95.892C402.979 95.812 402.959 95.652 402.959 95.412V93.276C402.959 93.044 402.987 92.9 403.043 92.844C403.107 92.788 403.251 92.76 403.475 92.76H404.843C405.195 92.76 405.403 92.72 405.467 92.64C405.531 92.56 405.519 92.404 405.431 92.172L405.143 91.356C405.087 91.196 405.035 91.092 404.987 91.044C404.947 90.988 404.811 90.96 404.579 90.96H399.515C399.283 90.96 399.119 90.968 399.023 90.984C398.927 90.992 398.843 91.084 398.771 91.26L398.375 92.244C398.295 92.436 398.271 92.572 398.303 92.652C398.335 92.724 398.459 92.76 398.675 92.76H399.923C400.115 92.76 400.227 92.796 400.259 92.868C400.299 92.932 400.319 93.06 400.319 93.252V95.556C400.319 95.756 400.283 95.88 400.211 95.928C400.139 95.976 400.011 96 399.827 96H392.711C392.375 96 392.159 95.972 392.063 95.916C391.967 95.852 391.919 95.652 391.919 95.316ZM430.851 83.796C430.699 83.052 430.371 82.46 429.867 82.02C429.363 81.58 428.783 81.264 428.127 81.072C427.479 80.88 426.851 80.784 426.243 80.784C425.451 80.784 424.835 80.908 424.395 81.156C423.963 81.396 423.747 81.72 423.747 82.128C423.747 82.536 423.935 82.872 424.311 83.136C424.695 83.4 425.199 83.632 425.823 83.832C426.455 84.032 427.143 84.236 427.887 84.444C428.639 84.644 429.387 84.888 430.131 85.176C430.883 85.464 431.571 85.832 432.195 86.28C432.827 86.728 433.331 87.292 433.707 87.972C434.091 88.652 434.283 89.488 434.283 90.48C434.283 92 433.955 93.196 433.299 94.068C432.643 94.94 431.743 95.56 430.599 95.928C429.463 96.296 428.171 96.48 426.723 96.48C425.643 96.48 424.735 96.336 423.999 96.048C423.263 95.76 422.659 95.396 422.187 94.956C421.931 94.716 421.755 94.652 421.659 94.764C421.571 94.868 421.435 95.076 421.251 95.388L421.035 95.796C420.955 95.932 420.855 96.02 420.735 96.06C420.623 96.1 420.455 96.12 420.231 96.12H418.731C418.499 96.12 418.331 96.084 418.227 96.012C418.131 95.948 418.083 95.804 418.083 95.58V89.556C418.083 89.3 418.107 89.132 418.155 89.052C418.211 88.964 418.363 88.92 418.611 88.92H420.363C420.643 88.92 420.791 88.956 420.807 89.028C420.823 89.1 420.847 89.26 420.879 89.508C420.975 90.212 421.235 90.856 421.659 91.44C422.091 92.016 422.655 92.476 423.351 92.82C424.055 93.164 424.859 93.336 425.763 93.336C426.451 93.336 427.027 93.272 427.491 93.144C427.955 93.008 428.303 92.808 428.535 92.544C428.767 92.28 428.883 91.952 428.883 91.56C428.883 91.08 428.695 90.696 428.319 90.408C427.943 90.112 427.443 89.864 426.819 89.664C426.203 89.464 425.523 89.272 424.779 89.088C424.035 88.904 423.291 88.684 422.547 88.428C421.803 88.164 421.119 87.824 420.495 87.408C419.879 86.984 419.383 86.444 419.007 85.788C418.631 85.124 418.443 84.296 418.443 83.304C418.443 82.28 418.635 81.412 419.019 80.7C419.411 79.98 419.927 79.396 420.567 78.948C421.207 78.492 421.915 78.16 422.691 77.952C423.475 77.744 424.259 77.64 425.043 77.64C425.955 77.64 426.779 77.768 427.515 78.024C428.259 78.28 428.899 78.612 429.435 79.02C429.667 79.196 429.843 79.28 429.963 79.272C430.091 79.264 430.243 79.12 430.419 78.84L430.719 78.324C430.791 78.212 430.847 78.132 430.887 78.084C430.935 78.028 431.059 78 431.259 78H433.107C433.315 78 433.463 78.036 433.551 78.108C433.639 78.18 433.683 78.328 433.683 78.552V83.94C433.683 84.228 433.643 84.412 433.563 84.492C433.491 84.564 433.303 84.6 432.999 84.6H431.691C431.299 84.6 431.075 84.544 431.019 84.432C430.971 84.32 430.915 84.108 430.851 83.796ZM450.548 83.796C450.396 83.052 450.068 82.46 449.564 82.02C449.06 81.58 448.48 81.264 447.824 81.072C447.176 80.88 446.548 80.784 445.94 80.784C445.148 80.784 444.532 80.908 444.092 81.156C443.66 81.396 443.444 81.72 443.444 82.128C443.444 82.536 443.632 82.872 444.008 83.136C444.392 83.4 444.896 83.632 445.52 83.832C446.152 84.032 446.84 84.236 447.584 84.444C448.336 84.644 449.084 84.888 449.828 85.176C450.58 85.464 451.268 85.832 451.892 86.28C452.524 86.728 453.028 87.292 453.404 87.972C453.788 88.652 453.98 89.488 453.98 90.48C453.98 92 453.652 93.196 452.996 94.068C452.34 94.94 451.44 95.56 450.296 95.928C449.16 96.296 447.868 96.48 446.42 96.48C445.34 96.48 444.432 96.336 443.696 96.048C442.96 95.76 442.356 95.396 441.884 94.956C441.628 94.716 441.452 94.652 441.356 94.764C441.268 94.868 441.132 95.076 440.948 95.388L440.732 95.796C440.652 95.932 440.552 96.02 440.432 96.06C440.32 96.1 440.152 96.12 439.928 96.12H438.428C438.196 96.12 438.028 96.084 437.924 96.012C437.828 95.948 437.78 95.804 437.78 95.58V89.556C437.78 89.3 437.804 89.132 437.852 89.052C437.908 88.964 438.06 88.92 438.308 88.92H440.06C440.34 88.92 440.488 88.956 440.504 89.028C440.52 89.1 440.544 89.26 440.576 89.508C440.672 90.212 440.932 90.856 441.356 91.44C441.788 92.016 442.352 92.476 443.048 92.82C443.752 93.164 444.556 93.336 445.46 93.336C446.148 93.336 446.724 93.272 447.188 93.144C447.652 93.008 448 92.808 448.232 92.544C448.464 92.28 448.58 91.952 448.58 91.56C448.58 91.08 448.392 90.696 448.016 90.408C447.64 90.112 447.14 89.864 446.516 89.664C445.9 89.464 445.22 89.272 444.476 89.088C443.732 88.904 442.988 88.684 442.244 88.428C441.5 88.164 440.816 87.824 440.192 87.408C439.576 86.984 439.08 86.444 438.704 85.788C438.328 85.124 438.14 84.296 438.14 83.304C438.14 82.28 438.332 81.412 438.716 80.7C439.108 79.98 439.624 79.396 440.264 78.948C440.904 78.492 441.612 78.16 442.388 77.952C443.172 77.744 443.956 77.64 444.74 77.64C445.652 77.64 446.476 77.768 447.212 78.024C447.956 78.28 448.596 78.612 449.132 79.02C449.364 79.196 449.54 79.28 449.66 79.272C449.788 79.264 449.94 79.12 450.116 78.84L450.416 78.324C450.488 78.212 450.544 78.132 450.584 78.084C450.632 78.028 450.756 78 450.956 78H452.804C453.012 78 453.16 78.036 453.248 78.108C453.336 78.18 453.38 78.328 453.38 78.552V83.94C453.38 84.228 453.34 84.412 453.26 84.492C453.188 84.564 453 84.6 452.696 84.6H451.388C450.996 84.6 450.772 84.544 450.716 84.432C450.668 84.32 450.612 84.108 450.548 83.796ZM476.529 83.772L475.125 87.18C475.045 87.356 474.997 87.532 474.981 87.708C474.973 87.876 475.129 87.96 475.449 87.96H477.981C478.261 87.96 478.401 87.88 478.401 87.72C478.409 87.56 478.381 87.396 478.317 87.228L477.069 83.724C476.973 83.444 476.877 83.336 476.781 83.4C476.693 83.464 476.609 83.588 476.529 83.772ZM466.581 95.316V93.348C466.581 93.14 466.617 92.992 466.689 92.904C466.761 92.808 466.909 92.76 467.133 92.76H469.113C469.313 92.76 469.429 92.72 469.461 92.64C469.493 92.552 469.537 92.444 469.593 92.316L475.677 78.036C475.757 77.844 475.833 77.732 475.905 77.7C475.985 77.66 476.161 77.64 476.433 77.64H480.033C480.313 77.64 480.493 77.68 480.573 77.76C480.661 77.832 480.745 77.964 480.825 78.156L486.357 92.028C486.445 92.252 486.513 92.432 486.561 92.568C486.617 92.696 486.817 92.76 487.161 92.76H488.745C488.953 92.76 489.109 92.78 489.213 92.82C489.325 92.86 489.381 92.996 489.381 93.228V95.46C489.381 95.7 489.349 95.852 489.285 95.916C489.221 95.972 489.073 96 488.841 96H478.113C477.873 96 477.729 95.964 477.681 95.892C477.641 95.812 477.621 95.652 477.621 95.412V93.276C477.621 93.044 477.649 92.9 477.705 92.844C477.769 92.788 477.913 92.76 478.137 92.76H479.505C479.857 92.76 480.065 92.72 480.129 92.64C480.193 92.56 480.181 92.404 480.093 92.172L479.805 91.356C479.749 91.196 479.697 91.092 479.649 91.044C479.609 90.988 479.473 90.96 479.241 90.96H474.177C473.945 90.96 473.781 90.968 473.685 90.984C473.589 90.992 473.505 91.084 473.433 91.26L473.037 92.244C472.957 92.436 472.933 92.572 472.965 92.652C472.997 92.724 473.121 92.76 473.337 92.76H474.585C474.777 92.76 474.889 92.796 474.921 92.868C474.961 92.932 474.981 93.06 474.981 93.252V95.556C474.981 95.756 474.945 95.88 474.873 95.928C474.801 95.976 474.673 96 474.489 96H467.373C467.037 96 466.821 95.972 466.725 95.916C466.629 95.852 466.581 95.652 466.581 95.316ZM495.17 81.24H493.802C493.522 81.24 493.354 81.22 493.298 81.18C493.25 81.132 493.226 80.964 493.226 80.676V78.372C493.226 78.124 493.282 78 493.394 78C493.506 78 493.674 78 493.898 78H502.658C502.978 78 503.194 78.036 503.306 78.108C503.426 78.18 503.506 78.292 503.546 78.444C503.594 78.588 503.654 78.772 503.726 78.996L506.018 86.172C506.146 86.556 506.25 86.924 506.33 87.276C506.418 87.628 506.522 87.804 506.642 87.804C506.778 87.804 506.89 87.7 506.978 87.492C507.066 87.276 507.186 86.964 507.338 86.556L510.35 78.492C510.438 78.268 510.514 78.132 510.578 78.084C510.65 78.028 510.842 78 511.154 78H518.666C518.97 78 519.186 78.004 519.314 78.012C519.442 78.02 519.506 78.188 519.506 78.516V80.628C519.506 80.924 519.486 81.1 519.446 81.156C519.406 81.212 519.234 81.24 518.93 81.24H517.466C517.21 81.24 517.062 81.264 517.022 81.312C516.99 81.36 516.978 81.508 516.986 81.756L517.346 92.268C517.354 92.476 517.366 92.612 517.382 92.676C517.406 92.732 517.53 92.76 517.754 92.76H519.674C519.874 92.76 519.994 92.792 520.034 92.856C520.082 92.912 520.106 93.044 520.106 93.252V95.34C520.106 95.596 520.078 95.772 520.022 95.868C519.974 95.956 519.81 96 519.53 96H510.218C509.954 96 509.794 95.964 509.738 95.892C509.69 95.812 509.666 95.636 509.666 95.364V93.324C509.666 93.052 509.71 92.892 509.798 92.844C509.894 92.788 510.066 92.76 510.314 92.76H511.586C511.842 92.76 512.01 92.72 512.09 92.64C512.178 92.552 512.218 92.384 512.21 92.136L512.066 86.724C512.05 86.164 512.062 85.636 512.102 85.14C512.15 84.636 512.174 84.228 512.174 83.916C512.174 83.596 512.098 83.436 511.946 83.436C511.85 83.436 511.774 83.488 511.718 83.592C511.662 83.688 511.606 83.844 511.55 84.06C511.494 84.276 511.402 84.564 511.274 84.924L507.59 95.748C507.502 96.004 507.406 96.168 507.302 96.24C507.198 96.32 506.97 96.36 506.618 96.36H504.458C504.106 96.36 503.874 96.32 503.762 96.24C503.658 96.168 503.562 96.004 503.474 95.748L499.91 85.356C499.806 85.052 499.706 84.704 499.61 84.312C499.522 83.92 499.434 83.576 499.346 83.28C499.258 82.984 499.162 82.836 499.058 82.836C498.954 82.836 498.894 82.948 498.878 83.172C498.862 83.396 498.842 83.78 498.818 84.324L498.458 91.908C498.45 92.196 498.462 92.412 498.494 92.556C498.526 92.692 498.706 92.76 499.034 92.76H500.618C500.842 92.76 500.986 92.792 501.05 92.856C501.114 92.92 501.146 93.068 501.146 93.3V95.388C501.146 95.684 501.098 95.86 501.002 95.916C500.914 95.972 500.73 96 500.45 96H493.01C492.73 96 492.554 95.964 492.482 95.892C492.418 95.82 492.386 95.636 492.386 95.34V93.18C492.386 93.012 492.406 92.9 492.446 92.844C492.486 92.788 492.586 92.76 492.746 92.76H494.642C495.002 92.76 495.186 92.688 495.194 92.544C495.21 92.392 495.226 92.156 495.242 91.836L495.794 81.66C495.81 81.404 495.774 81.272 495.686 81.264C495.598 81.248 495.426 81.24 495.17 81.24ZM525.676 81.24H524.356C524.084 81.24 523.908 81.212 523.828 81.156C523.748 81.1 523.708 80.936 523.708 80.664V78.624C523.708 78.336 523.752 78.16 523.84 78.096C523.928 78.032 524.108 78 524.38 78H533.668C534.756 78 535.788 78.1 536.764 78.3C537.748 78.492 538.62 78.804 539.38 79.236C540.14 79.66 540.736 80.224 541.168 80.928C541.608 81.632 541.828 82.496 541.828 83.52C541.828 84.536 541.608 85.412 541.168 86.148C540.736 86.876 540.14 87.472 539.38 87.936C538.62 88.392 537.748 88.732 536.764 88.956C535.788 89.172 534.756 89.28 533.668 89.28H532.516C532.26 89.28 532.108 89.32 532.06 89.4C532.012 89.48 531.988 89.648 531.988 89.904V92.184C531.988 92.448 532.024 92.612 532.096 92.676C532.168 92.732 532.34 92.76 532.612 92.76H534.58C534.836 92.76 534.988 92.796 535.036 92.868C535.084 92.94 535.108 93.104 535.108 93.36V95.328C535.108 95.6 535.084 95.78 535.036 95.868C534.996 95.956 534.836 96 534.556 96H524.284C524.044 96 523.888 95.972 523.816 95.916C523.744 95.852 523.708 95.696 523.708 95.448V93.36C523.708 93.104 523.736 92.94 523.792 92.868C523.856 92.796 524.012 92.76 524.26 92.76H525.652C525.988 92.76 526.188 92.712 526.252 92.616C526.316 92.52 526.348 92.312 526.348 91.992V81.816C526.348 81.536 526.304 81.372 526.216 81.324C526.136 81.268 525.956 81.24 525.676 81.24ZM532.492 86.04H533.188C533.98 86.04 534.616 85.828 535.096 85.404C535.584 84.972 535.828 84.344 535.828 83.52C535.828 82.688 535.584 82.1 535.096 81.756C534.616 81.412 533.98 81.24 533.188 81.24H532.42C532.212 81.24 532.088 81.276 532.048 81.348C532.008 81.42 531.988 81.56 531.988 81.768V85.512C531.988 85.736 532.016 85.88 532.072 85.944C532.128 86.008 532.268 86.04 532.492 86.04ZM545.663 77.976C545.663 77.392 545.811 76.888 546.107 76.464C546.411 76.032 546.803 75.7 547.283 75.468C547.771 75.236 548.287 75.12 548.831 75.12C549.839 75.12 550.651 75.452 551.267 76.116C551.883 76.772 552.191 77.748 552.191 79.044C552.191 79.884 552.003 80.656 551.627 81.36C551.259 82.056 550.779 82.664 550.187 83.184C549.603 83.704 548.987 84.124 548.339 84.444C547.691 84.756 547.091 84.948 546.539 85.02C546.363 85.044 546.243 85.032 546.179 84.984C546.123 84.936 546.095 84.816 546.095 84.624V83.196C546.095 83.076 546.119 82.996 546.167 82.956C546.215 82.916 546.291 82.892 546.395 82.884C546.875 82.836 547.343 82.692 547.799 82.452C548.255 82.212 548.655 81.936 548.999 81.624C549.351 81.304 549.611 81.008 549.779 80.736C549.811 80.688 549.807 80.652 549.767 80.628C549.735 80.596 549.683 80.596 549.611 80.628C549.475 80.684 549.299 80.732 549.083 80.772C548.875 80.812 548.639 80.832 548.375 80.832C547.559 80.832 546.903 80.576 546.407 80.064C545.911 79.544 545.663 78.848 545.663 77.976ZM553.103 77.976C553.103 77.392 553.251 76.888 553.547 76.464C553.851 76.032 554.243 75.7 554.723 75.468C555.211 75.236 555.727 75.12 556.271 75.12C557.279 75.12 558.091 75.452 558.707 76.116C559.323 76.772 559.631 77.748 559.631 79.044C559.631 79.884 559.443 80.656 559.067 81.36C558.699 82.056 558.219 82.664 557.627 83.184C557.043 83.704 556.427 84.124 555.779 84.444C555.131 84.756 554.531 84.948 553.979 85.02C553.803 85.044 553.683 85.032 553.619 84.984C553.563 84.936 553.535 84.816 553.535 84.624V83.196C553.535 83.076 553.559 82.996 553.607 82.956C553.655 82.916 553.731 82.892 553.835 82.884C554.315 82.836 554.783 82.692 555.239 82.452C555.695 82.212 556.095 81.936 556.439 81.624C556.791 81.304 557.051 81.008 557.219 80.736C557.251 80.688 557.247 80.652 557.207 80.628C557.175 80.596 557.123 80.596 557.051 80.628C556.915 80.684 556.739 80.732 556.523 80.772C556.315 80.812 556.079 80.832 555.815 80.832C554.999 80.832 554.343 80.576 553.847 80.064C553.351 79.544 553.103 78.848 553.103 77.976ZM285.819 116.6H282.979V127H279.519V116.6H276.679V113.66H285.819V116.6ZM289.353 113.66H292.813V121.56C292.813 122.12 292.833 122.98 293.493 123.62C293.893 124 294.533 124.26 295.133 124.26C295.733 124.26 296.353 124.02 296.733 123.68C297.533 122.98 297.513 122 297.513 121.26V113.66H300.973V121.32C300.973 122.72 300.913 124.18 299.473 125.64C298.353 126.78 296.953 127.3 295.073 127.3C292.973 127.3 291.473 126.58 290.653 125.7C289.493 124.44 289.353 122.74 289.353 121.32V113.66ZM311.327 127H305.767V113.66H310.927C311.887 113.66 313.027 113.8 313.847 114.7C314.307 115.2 314.667 116.02 314.667 117.2C314.667 117.78 314.567 118.28 314.287 118.84C314.007 119.36 313.707 119.66 313.207 119.88C313.907 119.96 314.607 120.28 315.027 120.68C315.567 121.2 315.927 122.06 315.927 123.12C315.927 124.38 315.447 125.24 314.947 125.74C314.227 126.48 312.967 127 311.327 127ZM309.227 116.32V118.92H309.867C310.227 118.92 310.827 118.88 311.187 118.5C311.407 118.28 311.507 117.92 311.507 117.62C311.507 117.28 311.387 116.94 311.187 116.72C310.967 116.5 310.547 116.32 309.867 116.32H309.227ZM309.227 121.5V124.3H310.007C310.967 124.3 311.767 124.2 312.147 123.76C312.307 123.58 312.427 123.28 312.427 122.9C312.427 122.48 312.287 122.14 312.087 121.94C311.667 121.52 310.807 121.5 309.947 121.5H309.227ZM327.71 113.66V116.6H323.59V118.82H327.49V121.76H323.59V124.06H327.71V127H320.13V113.66H327.71ZM338.584 113.66H342.044V124.06H346.204V127H338.584V113.66ZM358.938 127L358.118 124.76H353.278L352.378 127H348.718L353.838 113.66H357.618L362.638 127H358.938ZM354.238 122.12H357.198L355.698 117.8L354.238 122.12ZM367.853 127V120.6L363.033 113.66H367.173L369.693 117.3L372.113 113.66H376.313L371.333 120.6V127H367.853ZM392.825 120.34C392.825 122.1 392.145 123.96 390.725 125.32C389.365 126.62 387.445 127.3 385.465 127.3C383.485 127.3 381.565 126.62 380.205 125.32C378.785 123.96 378.105 122.1 378.105 120.34C378.105 118.56 378.785 116.68 380.205 115.34C381.565 114.04 383.485 113.36 385.465 113.36C387.445 113.36 389.365 114.04 390.725 115.34C392.145 116.68 392.825 118.56 392.825 120.34ZM385.465 116.72C384.505 116.72 383.485 117.06 382.765 117.78C382.045 118.48 381.705 119.46 381.705 120.4C381.705 121.58 382.265 122.4 382.765 122.88C383.405 123.5 384.305 123.94 385.465 123.94C386.645 123.94 387.525 123.52 388.145 122.9C388.765 122.28 389.225 121.36 389.225 120.34C389.225 119.3 388.765 118.38 388.145 117.78C387.405 117.08 386.385 116.72 385.465 116.72ZM397.033 113.66H400.493V121.56C400.493 122.12 400.513 122.98 401.173 123.62C401.573 124 402.213 124.26 402.813 124.26C403.413 124.26 404.033 124.02 404.413 123.68C405.213 122.98 405.193 122 405.193 121.26V113.66H408.653V121.32C408.653 122.72 408.593 124.18 407.153 125.64C406.033 126.78 404.633 127.3 402.753 127.3C400.653 127.3 399.153 126.58 398.333 125.7C397.173 124.44 397.033 122.74 397.033 121.32V113.66ZM421.327 116.6H418.487V127H415.027V116.6H412.187V113.66H421.327V116.6Z" fill="black"/>
</g>
<defs>
<clipPath id="clip0_15_2">
<rect width="698" height="344" fill="white"/>
</clipPath>
</defs>
</svg>
