<svg width="638" height="344" viewBox="0 0 638 344" fill="none" xmlns="http://www.w3.org/2000/svg">
<g clip-path="url(#clip0_4_24)">
<rect x="0.5" y="0.5" width="637" height="343" stroke="#767676" stroke-dasharray="2 5"/>
<circle cx="117" cy="217" r="43.5" stroke="black" stroke-width="3"/>
<path d="M105.96 209.92L109.6 219.08L113.26 209.92H117.52L111.08 225H108.04L101.7 209.92H105.96ZM128.495 218.88H130.315V221.88H128.495V225H124.855V221.88H117.535V219.38L123.355 209.92H128.495V218.88ZM124.855 218.88V213.08H124.815L121.295 218.88H124.855Z" fill="black"/>
<path d="M79.284 278.444H82.392L79.396 282.014L79.424 282.042C79.9093 281.827 80.3993 281.72 80.894 281.72C81.8927 281.72 82.7047 282.089 83.33 282.826C83.9647 283.554 84.282 284.422 84.282 285.43C84.282 286.671 83.8433 287.647 82.966 288.356C82.0887 289.065 81.0153 289.42 79.746 289.42C78.5047 289.42 77.5013 289.117 76.736 288.51C76.3067 288.155 75.9613 287.721 75.7 287.208C75.448 286.685 75.322 286.153 75.322 285.612C75.322 284.287 75.8867 282.887 77.016 281.412L79.284 278.444ZM78.5 286.76C78.8453 287.096 79.256 287.264 79.732 287.264C80.208 287.264 80.6093 287.096 80.936 286.76C81.2627 286.415 81.426 285.999 81.426 285.514C81.426 285.038 81.2627 284.632 80.936 284.296C80.6093 283.96 80.208 283.792 79.732 283.792C79.256 283.792 78.8453 283.96 78.5 284.296C78.164 284.632 77.996 285.038 77.996 285.514C77.996 285.999 78.164 286.415 78.5 286.76ZM88.2377 284.632V286.9H88.5877C88.8117 286.9 88.961 286.9 89.0357 286.9C89.1197 286.9 89.2737 286.891 89.4977 286.872C89.7217 286.853 89.885 286.821 89.9877 286.774C90.0997 286.727 90.2257 286.667 90.3657 286.592C90.515 286.508 90.6177 286.401 90.6737 286.27C90.739 286.13 90.7717 285.967 90.7717 285.78C90.7717 285.64 90.7577 285.514 90.7297 285.402C90.7017 285.29 90.6503 285.197 90.5757 285.122C90.5103 285.047 90.4497 284.982 90.3937 284.926C90.3377 284.861 90.2443 284.814 90.1137 284.786C89.9923 284.749 89.899 284.721 89.8337 284.702C89.7683 284.674 89.6517 284.655 89.4837 284.646C89.325 284.637 89.2177 284.632 89.1617 284.632C89.115 284.632 89.003 284.632 88.8257 284.632C88.6483 284.632 88.5457 284.632 88.5177 284.632H88.2377ZM89.7217 289H85.4937V278.444H89.4137C91.5043 278.444 92.5497 279.359 92.5497 281.188C92.5497 282.233 92.1623 282.952 91.3877 283.344V283.372C92.825 283.559 93.5437 284.455 93.5437 286.06C93.5437 286.592 93.4363 287.054 93.2217 287.446C93.007 287.838 92.713 288.146 92.3397 288.37C91.9757 288.585 91.5743 288.743 91.1357 288.846C90.7063 288.949 90.235 289 89.7217 289ZM88.2377 280.544V282.588H88.5457C88.9937 282.588 89.353 282.518 89.6237 282.378C89.8943 282.238 90.0297 281.967 90.0297 281.566C90.0297 281.333 89.983 281.146 89.8897 281.006C89.8057 280.857 89.675 280.754 89.4977 280.698C89.3203 280.633 89.157 280.591 89.0077 280.572C88.8583 280.553 88.667 280.544 88.4337 280.544H88.2377ZM102.024 284.548L102.766 285.318C103.093 284.861 103.256 284.343 103.256 283.764C103.256 282.961 102.962 282.261 102.374 281.664C101.796 281.057 101.1 280.754 100.288 280.754C99.4763 280.754 98.7716 281.034 98.1743 281.594C97.5863 282.154 97.2923 282.803 97.2923 283.54C97.2923 284.436 97.5816 285.187 98.1603 285.794C98.7483 286.391 99.4576 286.69 100.288 286.69C100.578 286.69 100.858 286.643 101.128 286.55L99.4343 284.87L102.024 284.548ZM106.532 289.266L104.012 289.658L103.172 288.664C102.416 289.121 101.45 289.35 100.274 289.35C98.5756 289.35 97.1756 288.809 96.0743 287.726C94.9823 286.634 94.4363 285.234 94.4363 283.526C94.4363 282.49 94.7116 281.552 95.2623 280.712C95.8129 279.872 96.5316 279.228 97.4183 278.78C98.3049 278.323 99.2569 278.094 100.274 278.094C101.945 278.094 103.336 278.617 104.446 279.662C105.557 280.698 106.112 282.061 106.112 283.75C106.112 285.103 105.66 286.34 104.754 287.46L106.532 289.266ZM114.396 280.768H110.742L110.56 281.972L111.428 281.902C112.492 281.818 113.379 282.149 114.088 282.896C114.807 283.643 115.166 284.571 115.166 285.682C115.166 286.839 114.714 287.791 113.808 288.538C113.071 289.126 112.044 289.42 110.728 289.42C109.422 289.42 108.274 289.103 107.284 288.468L107.69 285.878C108.596 286.69 109.576 287.096 110.63 287.096C111.078 287.096 111.47 286.951 111.806 286.662C112.142 286.363 112.31 285.99 112.31 285.542C112.31 284.954 112.077 284.506 111.61 284.198C111.153 283.89 110.616 283.736 110 283.736C109.272 283.736 108.6 283.881 107.984 284.17L108.908 278.444H114.396V280.768ZM121.865 277.38H123.867L118.519 290.302H116.517L121.865 277.38ZM131.148 280.768H127.886V282.532H130.98V284.856H127.886V286.676H131.148V289H125.142V278.444H131.148V280.768ZM135.583 278.444V286.676H138.873V289H132.839V278.444H135.583ZM144.489 280.278C144.265 280.045 143.994 279.928 143.677 279.928C143.36 279.928 143.084 280.045 142.851 280.278C142.627 280.511 142.515 280.791 142.515 281.118C142.515 281.445 142.627 281.725 142.851 281.958C143.084 282.191 143.36 282.308 143.677 282.308C143.994 282.308 144.265 282.191 144.489 281.958C144.722 281.725 144.839 281.445 144.839 281.118C144.839 280.791 144.722 280.511 144.489 280.278ZM144.559 284.954C144.316 284.693 144.022 284.562 143.677 284.562C143.332 284.562 143.033 284.693 142.781 284.954C142.538 285.206 142.417 285.514 142.417 285.878C142.417 286.233 142.538 286.536 142.781 286.788C143.033 287.04 143.332 287.166 143.677 287.166C144.022 287.166 144.316 287.04 144.559 286.788C144.811 286.536 144.937 286.233 144.937 285.878C144.937 285.514 144.811 285.206 144.559 284.954ZM141.143 278.822C141.852 278.29 142.697 278.024 143.677 278.024C144.657 278.024 145.502 278.29 146.211 278.822C146.92 279.345 147.275 280.082 147.275 281.034C147.275 281.585 147.116 282.084 146.799 282.532C146.491 282.971 146.094 283.269 145.609 283.428V283.456C146.253 283.671 146.762 284.021 147.135 284.506C147.518 284.982 147.709 285.556 147.709 286.228C147.709 286.919 147.494 287.516 147.065 288.02C146.636 288.515 146.122 288.869 145.525 289.084C144.937 289.308 144.321 289.42 143.677 289.42C143.033 289.42 142.412 289.308 141.815 289.084C141.227 288.869 140.718 288.515 140.289 288.02C139.86 287.516 139.645 286.919 139.645 286.228C139.645 285.556 139.832 284.982 140.205 284.506C140.588 284.021 141.101 283.671 141.745 283.456V283.428C141.26 283.269 140.858 282.971 140.541 282.532C140.233 282.084 140.079 281.585 140.079 281.034C140.079 280.082 140.434 279.345 141.143 278.822ZM156.369 284.716H157.643V286.816H156.369V289H153.821V286.816H148.697V285.066L152.771 278.444H156.369V284.716ZM153.821 284.716V280.656H153.793L151.329 284.716H153.821Z" fill="black"/>
<circle cx="268" cy="217" r="43.5" stroke="black" stroke-width="3"/>
<path d="M256.96 209.92L260.6 219.08L264.26 209.92H268.52L262.08 225H259.04L252.7 209.92H256.96ZM273.315 214.26H269.675C269.822 212.753 270.408 211.54 271.435 210.62C272.408 209.753 273.688 209.32 275.275 209.32C276.675 209.32 277.828 209.707 278.735 210.48C279.642 211.253 280.095 212.327 280.095 213.7C280.095 214.34 279.962 214.947 279.695 215.52C279.428 216.08 279.035 216.507 278.515 216.8C279.275 217 279.875 217.48 280.315 218.24C280.755 218.987 280.975 219.773 280.975 220.6C280.975 221.653 280.688 222.567 280.115 223.34C279.555 224.113 278.835 224.68 277.955 225.04C277.088 225.413 276.142 225.6 275.115 225.6C273.235 225.6 271.735 225.033 270.615 223.9C270.135 223.407 269.722 222.807 269.375 222.1C269.042 221.393 268.882 220.727 268.895 220.1H272.895C272.895 220.713 273.088 221.227 273.475 221.64C273.875 222.04 274.382 222.24 274.995 222.24C275.608 222.24 276.108 222.053 276.495 221.68C276.895 221.307 277.095 220.82 277.095 220.22C277.095 219.66 276.888 219.187 276.475 218.8C276.062 218.4 275.575 218.2 275.015 218.2C274.855 218.2 274.628 218.24 274.335 218.32V215.7H274.735C275.242 215.7 275.655 215.553 275.975 215.26C276.295 214.953 276.455 214.547 276.455 214.04C276.455 213.587 276.308 213.22 276.015 212.94C275.722 212.66 275.355 212.52 274.915 212.52C274.422 212.52 274.028 212.687 273.735 213.02C273.442 213.34 273.302 213.753 273.315 214.26Z" fill="black"/>
<path d="M230.284 278.444H233.392L230.396 282.014L230.424 282.042C230.909 281.827 231.399 281.72 231.894 281.72C232.893 281.72 233.705 282.089 234.33 282.826C234.965 283.554 235.282 284.422 235.282 285.43C235.282 286.671 234.843 287.647 233.966 288.356C233.089 289.065 232.015 289.42 230.746 289.42C229.505 289.42 228.501 289.117 227.736 288.51C227.307 288.155 226.961 287.721 226.7 287.208C226.448 286.685 226.322 286.153 226.322 285.612C226.322 284.287 226.887 282.887 228.016 281.412L230.284 278.444ZM229.5 286.76C229.845 287.096 230.256 287.264 230.732 287.264C231.208 287.264 231.609 287.096 231.936 286.76C232.263 286.415 232.426 285.999 232.426 285.514C232.426 285.038 232.263 284.632 231.936 284.296C231.609 283.96 231.208 283.792 230.732 283.792C230.256 283.792 229.845 283.96 229.5 284.296C229.164 284.632 228.996 285.038 228.996 285.514C228.996 285.999 229.164 286.415 229.5 286.76ZM239.238 284.632V286.9H239.588C239.812 286.9 239.961 286.9 240.036 286.9C240.12 286.9 240.274 286.891 240.498 286.872C240.722 286.853 240.885 286.821 240.988 286.774C241.1 286.727 241.226 286.667 241.366 286.592C241.515 286.508 241.618 286.401 241.674 286.27C241.739 286.13 241.772 285.967 241.772 285.78C241.772 285.64 241.758 285.514 241.73 285.402C241.702 285.29 241.65 285.197 241.576 285.122C241.51 285.047 241.45 284.982 241.394 284.926C241.338 284.861 241.244 284.814 241.114 284.786C240.992 284.749 240.899 284.721 240.834 284.702C240.768 284.674 240.652 284.655 240.484 284.646C240.325 284.637 240.218 284.632 240.162 284.632C240.115 284.632 240.003 284.632 239.826 284.632C239.648 284.632 239.546 284.632 239.518 284.632H239.238ZM240.722 289H236.494V278.444H240.414C242.504 278.444 243.55 279.359 243.55 281.188C243.55 282.233 243.162 282.952 242.388 283.344V283.372C243.825 283.559 244.544 284.455 244.544 286.06C244.544 286.592 244.436 287.054 244.222 287.446C244.007 287.838 243.713 288.146 243.34 288.37C242.976 288.585 242.574 288.743 242.136 288.846C241.706 288.949 241.235 289 240.722 289ZM239.238 280.544V282.588H239.546C239.994 282.588 240.353 282.518 240.624 282.378C240.894 282.238 241.03 281.967 241.03 281.566C241.03 281.333 240.983 281.146 240.89 281.006C240.806 280.857 240.675 280.754 240.498 280.698C240.32 280.633 240.157 280.591 240.008 280.572C239.858 280.553 239.667 280.544 239.434 280.544H239.238ZM253.024 284.548L253.766 285.318C254.093 284.861 254.256 284.343 254.256 283.764C254.256 282.961 253.962 282.261 253.374 281.664C252.796 281.057 252.1 280.754 251.288 280.754C250.476 280.754 249.772 281.034 249.174 281.594C248.586 282.154 248.292 282.803 248.292 283.54C248.292 284.436 248.582 285.187 249.16 285.794C249.748 286.391 250.458 286.69 251.288 286.69C251.578 286.69 251.858 286.643 252.128 286.55L250.434 284.87L253.024 284.548ZM257.532 289.266L255.012 289.658L254.172 288.664C253.416 289.121 252.45 289.35 251.274 289.35C249.576 289.35 248.176 288.809 247.074 287.726C245.982 286.634 245.436 285.234 245.436 283.526C245.436 282.49 245.712 281.552 246.262 280.712C246.813 279.872 247.532 279.228 248.418 278.78C249.305 278.323 250.257 278.094 251.274 278.094C252.945 278.094 254.336 278.617 255.446 279.662C256.557 280.698 257.112 282.061 257.112 283.75C257.112 285.103 256.66 286.34 255.754 287.46L257.532 289.266ZM265.396 280.768H261.742L261.56 281.972L262.428 281.902C263.492 281.818 264.379 282.149 265.088 282.896C265.807 283.643 266.166 284.571 266.166 285.682C266.166 286.839 265.714 287.791 264.808 288.538C264.071 289.126 263.044 289.42 261.728 289.42C260.422 289.42 259.274 289.103 258.284 288.468L258.69 285.878C259.596 286.69 260.576 287.096 261.63 287.096C262.078 287.096 262.47 286.951 262.806 286.662C263.142 286.363 263.31 285.99 263.31 285.542C263.31 284.954 263.077 284.506 262.61 284.198C262.153 283.89 261.616 283.736 261 283.736C260.272 283.736 259.6 283.881 258.984 284.17L259.908 278.444H265.396V280.768ZM272.865 277.38H274.867L269.519 290.302H267.517L272.865 277.38ZM282.148 280.768H278.886V282.532H281.98V284.856H278.886V286.676H282.148V289H276.142V278.444H282.148V280.768ZM286.583 278.444V286.676H289.873V289H283.839V278.444H286.583ZM295.489 280.278C295.265 280.045 294.994 279.928 294.677 279.928C294.36 279.928 294.084 280.045 293.851 280.278C293.627 280.511 293.515 280.791 293.515 281.118C293.515 281.445 293.627 281.725 293.851 281.958C294.084 282.191 294.36 282.308 294.677 282.308C294.994 282.308 295.265 282.191 295.489 281.958C295.722 281.725 295.839 281.445 295.839 281.118C295.839 280.791 295.722 280.511 295.489 280.278ZM295.559 284.954C295.316 284.693 295.022 284.562 294.677 284.562C294.332 284.562 294.033 284.693 293.781 284.954C293.538 285.206 293.417 285.514 293.417 285.878C293.417 286.233 293.538 286.536 293.781 286.788C294.033 287.04 294.332 287.166 294.677 287.166C295.022 287.166 295.316 287.04 295.559 286.788C295.811 286.536 295.937 286.233 295.937 285.878C295.937 285.514 295.811 285.206 295.559 284.954ZM292.143 278.822C292.852 278.29 293.697 278.024 294.677 278.024C295.657 278.024 296.502 278.29 297.211 278.822C297.92 279.345 298.275 280.082 298.275 281.034C298.275 281.585 298.116 282.084 297.799 282.532C297.491 282.971 297.094 283.269 296.609 283.428V283.456C297.253 283.671 297.762 284.021 298.135 284.506C298.518 284.982 298.709 285.556 298.709 286.228C298.709 286.919 298.494 287.516 298.065 288.02C297.636 288.515 297.122 288.869 296.525 289.084C295.937 289.308 295.321 289.42 294.677 289.42C294.033 289.42 293.412 289.308 292.815 289.084C292.227 288.869 291.718 288.515 291.289 288.02C290.86 287.516 290.645 286.919 290.645 286.228C290.645 285.556 290.832 284.982 291.205 284.506C291.588 284.021 292.101 283.671 292.745 283.456V283.428C292.26 283.269 291.858 282.971 291.541 282.532C291.233 282.084 291.079 281.585 291.079 281.034C291.079 280.082 291.434 279.345 292.143 278.822ZM307.369 284.716H308.643V286.816H307.369V289H304.821V286.816H299.697V285.066L303.771 278.444H307.369V284.716ZM304.821 284.716V280.656H304.793L302.329 284.716H304.821Z" fill="black"/>
<circle cx="532.5" cy="229.5" r="31" stroke="black" stroke-width="3"/>
<path d="M505.766 280.768H504.254V278.444H508.51V289H505.766V280.768ZM517.086 286.676H520.544V289H512.06L516.372 284.31C517.174 283.433 517.576 282.569 517.576 281.72C517.576 281.365 517.459 281.048 517.226 280.768C517.002 280.488 516.717 280.348 516.372 280.348C516.017 280.348 515.737 280.469 515.532 280.712C515.326 280.955 515.224 281.263 515.224 281.636C515.224 281.785 515.238 281.935 515.266 282.084H512.242C512.288 280.861 512.676 279.881 513.404 279.144C514.141 278.397 515.126 278.024 516.358 278.024C517.496 278.024 518.458 278.369 519.242 279.06C520.035 279.751 520.432 280.656 520.432 281.776C520.432 282.485 520.292 283.092 520.012 283.596C519.741 284.1 519.312 284.618 518.724 285.15L517.086 286.676ZM528.559 287.166H524.779L524.051 289H521.139L525.199 278.444H528.195L532.171 289H529.245L528.559 287.166ZM527.817 285.066L526.697 281.706H526.669L525.535 285.066H527.817ZM536.151 283.358L532.777 278.444H536.151L537.761 281.174L539.371 278.444H542.745L539.371 283.358L543.277 289H539.973L537.761 285.556L535.339 289H532.021L536.151 283.358ZM548.584 280.768H544.174V278.444H552.84L546.778 289H543.768L548.584 280.768ZM560.141 287.166H556.361L555.633 289H552.721L556.781 278.444H559.777L563.753 289H560.827L560.141 287.166ZM559.399 285.066L558.279 281.706H558.251L557.117 285.066H559.399Z" fill="black"/>
<path d="M521.96 221.92L525.6 231.08L529.26 221.92H533.52L527.08 237H524.04L517.7 221.92H521.96ZM538.595 225.24H536.435V221.92H542.515V237H538.595V225.24Z" fill="black"/>
<circle cx="406.5" cy="229.5" r="31" stroke="black" stroke-width="3"/>
<path d="M379.766 280.768H378.254V278.444H382.51V289H379.766V280.768ZM391.086 286.676H394.544V289H386.06L390.372 284.31C391.174 283.433 391.576 282.569 391.576 281.72C391.576 281.365 391.459 281.048 391.226 280.768C391.002 280.488 390.717 280.348 390.372 280.348C390.017 280.348 389.737 280.469 389.532 280.712C389.326 280.955 389.224 281.263 389.224 281.636C389.224 281.785 389.238 281.935 389.266 282.084H386.242C386.288 280.861 386.676 279.881 387.404 279.144C388.141 278.397 389.126 278.024 390.358 278.024C391.496 278.024 392.458 278.369 393.242 279.06C394.035 279.751 394.432 280.656 394.432 281.776C394.432 282.485 394.292 283.092 394.012 283.596C393.741 284.1 393.312 284.618 392.724 285.15L391.086 286.676ZM402.559 287.166H398.779L398.051 289H395.139L399.199 278.444H402.195L406.171 289H403.245L402.559 287.166ZM401.817 285.066L400.697 281.706H400.669L399.535 285.066H401.817ZM410.151 283.358L406.777 278.444H410.151L411.761 281.174L413.371 278.444H416.745L413.371 283.358L417.277 289H413.973L411.761 285.556L409.339 289H406.021L410.151 283.358ZM422.584 280.768H418.174V278.444H426.84L420.778 289H417.768L422.584 280.768ZM434.141 287.166H430.361L429.633 289H426.721L430.781 278.444H433.777L437.753 289H434.827L434.141 287.166ZM433.399 285.066L432.279 281.706H432.251L431.117 285.066H433.399Z" fill="black"/>
<path d="M395.96 221.92L399.6 231.08L403.26 221.92H407.52L401.08 237H398.04L391.7 221.92H395.96ZM415.055 233.68H419.995V237H407.875L414.035 230.3C415.182 229.047 415.755 227.813 415.755 226.6C415.755 226.093 415.588 225.64 415.255 225.24C414.935 224.84 414.528 224.64 414.035 224.64C413.528 224.64 413.128 224.813 412.835 225.16C412.542 225.507 412.395 225.947 412.395 226.48C412.395 226.693 412.415 226.907 412.455 227.12H408.135C408.202 225.373 408.755 223.973 409.795 222.92C410.848 221.853 412.255 221.32 414.015 221.32C415.642 221.32 417.015 221.813 418.135 222.8C419.268 223.787 419.835 225.08 419.835 226.68C419.835 227.693 419.635 228.56 419.235 229.28C418.848 230 418.235 230.74 417.395 231.5L415.055 233.68Z" fill="black"/>
<rect x="38" y="36" width="562" height="273" rx="9" stroke="black" stroke-width="2"/>
<path d="M152.72 96.568V94.312C152.72 94.08 152.744 93.932 152.792 93.868C152.84 93.796 152.976 93.76 153.2 93.76H154.832C155.072 93.76 155.22 93.724 155.276 93.652C155.332 93.58 155.36 93.42 155.36 93.172V91.444C155.36 91.116 155.332 90.884 155.276 90.748C155.22 90.604 155.132 90.444 155.012 90.268L149.888 82.792C149.752 82.584 149.636 82.44 149.54 82.36C149.452 82.28 149.228 82.24 148.868 82.24H147.596C147.348 82.24 147.2 82.2 147.152 82.12C147.104 82.04 147.08 81.876 147.08 81.628V79.84C147.08 79.464 147.148 79.232 147.284 79.144C147.42 79.048 147.66 79 148.004 79H157.532C157.836 79 158.048 79.036 158.168 79.108C158.296 79.172 158.36 79.368 158.36 79.696V81.676C158.36 81.916 158.324 82.072 158.252 82.144C158.188 82.208 158.04 82.24 157.808 82.24H156.788C156.492 82.24 156.316 82.284 156.26 82.372C156.204 82.46 156.264 82.632 156.44 82.888L158.504 85.888C158.728 86.2 158.892 86.4 158.996 86.488C159.108 86.576 159.22 86.564 159.332 86.452C159.444 86.332 159.612 86.128 159.836 85.84L162.152 82.84C162.352 82.584 162.408 82.42 162.32 82.348C162.232 82.276 162.06 82.24 161.804 82.24H160.88C160.576 82.24 160.38 82.212 160.292 82.156C160.204 82.092 160.16 81.908 160.16 81.604V79.6C160.16 79.328 160.192 79.16 160.256 79.096C160.328 79.032 160.496 79 160.76 79H168.212C168.42 79 168.568 79.02 168.656 79.06C168.752 79.1 168.8 79.236 168.8 79.468V81.916C168.8 82.068 168.764 82.16 168.692 82.192C168.628 82.224 168.516 82.24 168.356 82.24H167.564C167.212 82.24 166.984 82.28 166.88 82.36C166.784 82.432 166.66 82.56 166.508 82.744L161.48 88.972C161.328 89.172 161.208 89.34 161.12 89.476C161.04 89.612 161 89.868 161 90.244V93.196C161 93.42 161.024 93.572 161.072 93.652C161.12 93.724 161.256 93.76 161.48 93.76H163.388C163.62 93.76 163.76 93.8 163.808 93.88C163.856 93.952 163.88 94.108 163.88 94.348V96.532C163.88 96.716 163.856 96.84 163.808 96.904C163.768 96.968 163.656 97 163.472 97H153.104C152.944 97 152.84 96.972 152.792 96.916C152.744 96.86 152.72 96.744 152.72 96.568ZM182.114 93.76C182.802 93.76 183.338 93.66 183.722 93.46C184.106 93.252 184.374 92.968 184.526 92.608C184.678 92.248 184.754 91.832 184.754 91.36C184.754 90.888 184.642 90.504 184.418 90.208C184.202 89.904 183.894 89.68 183.494 89.536C183.102 89.392 182.642 89.32 182.114 89.32H180.326C180.174 89.32 180.054 89.368 179.966 89.464C179.878 89.552 179.834 89.68 179.834 89.848V93.088C179.834 93.336 179.866 93.512 179.93 93.616C179.994 93.712 180.142 93.76 180.374 93.76H182.114ZM180.518 86.08H181.634C182.122 86.08 182.546 86.008 182.906 85.864C183.266 85.72 183.542 85.5 183.734 85.204C183.934 84.9 184.034 84.512 184.034 84.04C184.034 83.568 183.95 83.204 183.782 82.948C183.622 82.684 183.366 82.5 183.014 82.396C182.662 82.292 182.202 82.24 181.634 82.24H180.446C180.262 82.24 180.114 82.26 180.002 82.3C179.89 82.332 179.834 82.44 179.834 82.624V85.372C179.834 85.668 179.874 85.86 179.954 85.948C180.034 86.036 180.222 86.08 180.518 86.08ZM182.594 97H172.118C171.846 97 171.682 96.94 171.626 96.82C171.578 96.692 171.554 96.488 171.554 96.208V94.12C171.554 93.96 171.586 93.86 171.65 93.82C171.722 93.78 171.83 93.76 171.974 93.76H173.63C173.894 93.76 174.054 93.704 174.11 93.592C174.166 93.48 174.194 93.288 174.194 93.016V82.864C174.194 82.648 174.162 82.492 174.098 82.396C174.042 82.292 173.91 82.24 173.702 82.24H172.07C171.846 82.24 171.702 82.212 171.638 82.156C171.582 82.092 171.554 81.952 171.554 81.736V79.624C171.554 79.384 171.59 79.22 171.662 79.132C171.742 79.044 171.894 79 172.118 79H181.874C183.722 79 185.23 79.136 186.398 79.408C187.566 79.68 188.422 80.14 188.966 80.788C189.518 81.436 189.794 82.32 189.794 83.44C189.794 84.432 189.51 85.248 188.942 85.888C188.382 86.528 187.566 87.012 186.494 87.34C186.27 87.404 186.158 87.496 186.158 87.616C186.158 87.736 186.294 87.824 186.566 87.88C187.902 88.152 188.934 88.628 189.662 89.308C190.39 89.98 190.754 90.864 190.754 91.96C190.754 93.24 190.474 94.248 189.914 94.984C189.362 95.712 188.486 96.232 187.286 96.544C186.086 96.848 184.522 97 182.594 97ZM202.005 84.772L200.601 88.18C200.521 88.356 200.473 88.532 200.457 88.708C200.449 88.876 200.605 88.96 200.925 88.96H203.457C203.737 88.96 203.877 88.88 203.877 88.72C203.885 88.56 203.857 88.396 203.793 88.228L202.545 84.724C202.449 84.444 202.353 84.336 202.257 84.4C202.169 84.464 202.085 84.588 202.005 84.772ZM192.057 96.316V94.348C192.057 94.14 192.093 93.992 192.165 93.904C192.237 93.808 192.385 93.76 192.609 93.76H194.589C194.789 93.76 194.905 93.72 194.937 93.64C194.969 93.552 195.013 93.444 195.069 93.316L201.153 79.036C201.233 78.844 201.309 78.732 201.381 78.7C201.461 78.66 201.637 78.64 201.909 78.64H205.509C205.789 78.64 205.969 78.68 206.049 78.76C206.137 78.832 206.221 78.964 206.301 79.156L211.833 93.028C211.921 93.252 211.989 93.432 212.037 93.568C212.093 93.696 212.293 93.76 212.637 93.76H214.221C214.429 93.76 214.585 93.78 214.689 93.82C214.801 93.86 214.857 93.996 214.857 94.228V96.46C214.857 96.7 214.825 96.852 214.761 96.916C214.697 96.972 214.549 97 214.317 97H203.589C203.349 97 203.205 96.964 203.157 96.892C203.117 96.812 203.097 96.652 203.097 96.412V94.276C203.097 94.044 203.125 93.9 203.181 93.844C203.245 93.788 203.389 93.76 203.613 93.76H204.981C205.333 93.76 205.541 93.72 205.605 93.64C205.669 93.56 205.657 93.404 205.569 93.172L205.281 92.356C205.225 92.196 205.173 92.092 205.125 92.044C205.085 91.988 204.949 91.96 204.717 91.96H199.653C199.421 91.96 199.257 91.968 199.161 91.984C199.065 91.992 198.981 92.084 198.909 92.26L198.513 93.244C198.433 93.436 198.409 93.572 198.441 93.652C198.473 93.724 198.597 93.76 198.813 93.76H200.061C200.253 93.76 200.365 93.796 200.397 93.868C200.437 93.932 200.457 94.06 200.457 94.252V96.556C200.457 96.756 200.421 96.88 200.349 96.928C200.277 96.976 200.149 97 199.965 97H192.849C192.513 97 192.297 96.972 192.201 96.916C192.105 96.852 192.057 96.652 192.057 96.316ZM219.11 86.32H226.454C226.638 86.32 226.75 86.352 226.79 86.416C226.838 86.472 226.862 86.596 226.862 86.788V88.588C226.862 88.796 226.842 88.932 226.802 88.996C226.762 89.052 226.638 89.08 226.43 89.08H219.206C218.99 89.08 218.85 89.052 218.786 88.996C218.73 88.94 218.702 88.808 218.702 88.6V86.812C218.702 86.62 218.722 86.492 218.762 86.428C218.802 86.356 218.918 86.32 219.11 86.32ZM246.949 90.88C246.909 92.352 246.685 93.56 246.277 94.504C245.869 95.44 245.289 96.132 244.537 96.58C243.785 97.02 242.873 97.24 241.801 97.24C241.097 97.24 240.461 97.168 239.893 97.024C239.333 96.88 238.817 96.712 238.345 96.52C237.873 96.328 237.421 96.16 236.989 96.016C236.557 95.872 236.121 95.8 235.681 95.8C235.337 95.8 235.049 95.872 234.817 96.016C234.593 96.16 234.413 96.352 234.277 96.592C234.181 96.752 234.113 96.86 234.073 96.916C234.041 96.972 233.889 97 233.617 97H231.913C231.681 97 231.533 96.972 231.469 96.916C231.405 96.86 231.373 96.72 231.373 96.496C231.381 94.824 231.797 93.244 232.621 91.756C233.445 90.26 234.681 88.936 236.329 87.784C236.777 87.472 237.273 87.16 237.817 86.848C238.369 86.528 238.893 86.188 239.389 85.828C239.893 85.468 240.309 85.076 240.637 84.652C240.965 84.22 241.129 83.736 241.129 83.2C241.129 82.368 240.921 81.768 240.505 81.4C240.089 81.032 239.257 80.848 238.009 80.848C237.497 80.848 237.029 80.904 236.605 81.016C236.189 81.128 235.853 81.268 235.597 81.436C235.349 81.604 235.225 81.776 235.225 81.952C235.225 82.056 235.321 82.148 235.513 82.228C235.713 82.3 235.941 82.4 236.197 82.528C236.453 82.656 236.677 82.86 236.869 83.14C237.069 83.412 237.169 83.808 237.169 84.328C237.169 85.128 236.901 85.74 236.365 86.164C235.837 86.588 235.229 86.8 234.541 86.8C234.069 86.8 233.617 86.7 233.185 86.5C232.761 86.292 232.413 85.984 232.141 85.576C231.877 85.16 231.745 84.64 231.745 84.016C231.745 82.92 232.061 81.98 232.693 81.196C233.333 80.412 234.205 79.812 235.309 79.396C236.413 78.972 237.673 78.76 239.089 78.76C241.265 78.76 242.993 79.132 244.273 79.876C245.553 80.612 246.193 81.76 246.193 83.32C246.193 84.16 246.001 84.864 245.617 85.432C245.233 85.992 244.713 86.472 244.057 86.872C243.401 87.264 242.653 87.632 241.813 87.976C240.981 88.312 240.113 88.68 239.209 89.08C238.201 89.52 237.385 89.956 236.761 90.388C236.137 90.82 235.637 91.26 235.261 91.708C235.077 91.924 234.905 92.164 234.745 92.428C234.593 92.692 234.481 92.92 234.409 93.112C234.345 93.296 234.357 93.388 234.445 93.388C234.581 93.388 234.689 93.248 234.769 92.968C234.857 92.688 235.085 92.376 235.453 92.032C235.733 91.768 236.081 91.592 236.497 91.504C236.921 91.416 237.329 91.372 237.721 91.372C238.401 91.372 238.989 91.46 239.485 91.636C239.981 91.812 240.461 91.988 240.925 92.164C241.397 92.34 241.937 92.428 242.545 92.428C243.185 92.428 243.665 92.288 243.985 92.008C244.313 91.728 244.517 91.352 244.597 90.88C244.637 90.624 244.673 90.472 244.705 90.424C244.737 90.376 244.897 90.352 245.185 90.352H246.457C246.721 90.352 246.869 90.376 246.901 90.424C246.933 90.472 246.949 90.624 246.949 90.88ZM274.733 83.92C274.733 84.504 274.581 85.012 274.277 85.444C273.981 85.868 273.589 86.196 273.101 86.428C272.621 86.66 272.109 86.776 271.565 86.776C270.557 86.776 269.745 86.448 269.129 85.792C268.513 85.128 268.205 84.148 268.205 82.852C268.205 82.012 268.389 81.244 268.757 80.548C269.133 79.844 269.613 79.232 270.197 78.712C270.789 78.192 271.409 77.776 272.057 77.464C272.705 77.144 273.305 76.948 273.857 76.876C274.033 76.852 274.149 76.864 274.205 76.912C274.269 76.96 274.301 77.08 274.301 77.272V78.7C274.301 78.82 274.277 78.9 274.229 78.94C274.181 78.972 274.105 78.996 274.001 79.012C273.521 79.06 273.053 79.204 272.597 79.444C272.141 79.684 271.737 79.96 271.385 80.272C271.041 80.584 270.785 80.88 270.617 81.16C270.585 81.208 270.585 81.248 270.617 81.28C270.657 81.304 270.713 81.3 270.785 81.268C270.921 81.204 271.093 81.156 271.301 81.124C271.517 81.084 271.757 81.064 272.021 81.064C272.837 81.064 273.493 81.32 273.989 81.832C274.485 82.344 274.733 83.04 274.733 83.92ZM267.293 83.92C267.293 84.504 267.141 85.012 266.837 85.444C266.541 85.868 266.149 86.196 265.661 86.428C265.181 86.66 264.669 86.776 264.125 86.776C263.117 86.776 262.305 86.448 261.689 85.792C261.073 85.128 260.765 84.148 260.765 82.852C260.765 82.012 260.949 81.244 261.317 80.548C261.693 79.844 262.173 79.232 262.757 78.712C263.349 78.192 263.969 77.776 264.617 77.464C265.265 77.144 265.865 76.948 266.417 76.876C266.593 76.852 266.709 76.864 266.765 76.912C266.829 76.96 266.861 77.08 266.861 77.272V78.7C266.861 78.82 266.837 78.9 266.789 78.94C266.741 78.972 266.665 78.996 266.561 79.012C266.081 79.06 265.613 79.204 265.157 79.444C264.701 79.684 264.297 79.96 263.945 80.272C263.601 80.584 263.345 80.88 263.177 81.16C263.145 81.208 263.145 81.248 263.177 81.28C263.217 81.304 263.273 81.3 263.345 81.268C263.481 81.204 263.653 81.156 263.861 81.124C264.077 81.084 264.317 81.064 264.581 81.064C265.397 81.064 266.053 81.32 266.549 81.832C267.045 82.344 267.293 83.04 267.293 83.92ZM289.256 93.76C289.944 93.76 290.48 93.66 290.864 93.46C291.248 93.252 291.516 92.968 291.668 92.608C291.82 92.248 291.896 91.832 291.896 91.36C291.896 90.888 291.784 90.504 291.56 90.208C291.344 89.904 291.036 89.68 290.636 89.536C290.244 89.392 289.784 89.32 289.256 89.32H287.468C287.316 89.32 287.196 89.368 287.108 89.464C287.02 89.552 286.976 89.68 286.976 89.848V93.088C286.976 93.336 287.008 93.512 287.072 93.616C287.136 93.712 287.284 93.76 287.516 93.76H289.256ZM287.66 86.08H288.776C289.264 86.08 289.688 86.008 290.048 85.864C290.408 85.72 290.684 85.5 290.876 85.204C291.076 84.9 291.176 84.512 291.176 84.04C291.176 83.568 291.092 83.204 290.924 82.948C290.764 82.684 290.508 82.5 290.156 82.396C289.804 82.292 289.344 82.24 288.776 82.24H287.588C287.404 82.24 287.256 82.26 287.144 82.3C287.032 82.332 286.976 82.44 286.976 82.624V85.372C286.976 85.668 287.016 85.86 287.096 85.948C287.176 86.036 287.364 86.08 287.66 86.08ZM289.736 97H279.26C278.988 97 278.824 96.94 278.768 96.82C278.72 96.692 278.696 96.488 278.696 96.208V94.12C278.696 93.96 278.728 93.86 278.792 93.82C278.864 93.78 278.972 93.76 279.116 93.76H280.772C281.036 93.76 281.196 93.704 281.252 93.592C281.308 93.48 281.336 93.288 281.336 93.016V82.864C281.336 82.648 281.304 82.492 281.24 82.396C281.184 82.292 281.052 82.24 280.844 82.24H279.212C278.988 82.24 278.844 82.212 278.78 82.156C278.724 82.092 278.696 81.952 278.696 81.736V79.624C278.696 79.384 278.732 79.22 278.804 79.132C278.884 79.044 279.036 79 279.26 79H289.016C290.864 79 292.372 79.136 293.54 79.408C294.708 79.68 295.564 80.14 296.108 80.788C296.66 81.436 296.936 82.32 296.936 83.44C296.936 84.432 296.652 85.248 296.084 85.888C295.524 86.528 294.708 87.012 293.636 87.34C293.412 87.404 293.3 87.496 293.3 87.616C293.3 87.736 293.436 87.824 293.708 87.88C295.044 88.152 296.076 88.628 296.804 89.308C297.532 89.98 297.896 90.864 297.896 91.96C297.896 93.24 297.616 94.248 297.056 94.984C296.504 95.712 295.628 96.232 294.428 96.544C293.228 96.848 291.664 97 289.736 97ZM309.147 84.772L307.743 88.18C307.663 88.356 307.615 88.532 307.599 88.708C307.591 88.876 307.747 88.96 308.067 88.96H310.599C310.879 88.96 311.019 88.88 311.019 88.72C311.027 88.56 310.999 88.396 310.935 88.228L309.687 84.724C309.591 84.444 309.495 84.336 309.399 84.4C309.311 84.464 309.227 84.588 309.147 84.772ZM299.199 96.316V94.348C299.199 94.14 299.235 93.992 299.307 93.904C299.379 93.808 299.527 93.76 299.751 93.76H301.731C301.931 93.76 302.047 93.72 302.079 93.64C302.111 93.552 302.155 93.444 302.211 93.316L308.295 79.036C308.375 78.844 308.451 78.732 308.523 78.7C308.603 78.66 308.779 78.64 309.051 78.64H312.651C312.931 78.64 313.111 78.68 313.191 78.76C313.279 78.832 313.363 78.964 313.443 79.156L318.975 93.028C319.063 93.252 319.131 93.432 319.179 93.568C319.235 93.696 319.435 93.76 319.779 93.76H321.363C321.571 93.76 321.727 93.78 321.831 93.82C321.943 93.86 321.999 93.996 321.999 94.228V96.46C321.999 96.7 321.967 96.852 321.903 96.916C321.839 96.972 321.691 97 321.459 97H310.731C310.491 97 310.347 96.964 310.299 96.892C310.259 96.812 310.239 96.652 310.239 96.412V94.276C310.239 94.044 310.267 93.9 310.323 93.844C310.387 93.788 310.531 93.76 310.755 93.76H312.123C312.475 93.76 312.683 93.72 312.747 93.64C312.811 93.56 312.799 93.404 312.711 93.172L312.423 92.356C312.367 92.196 312.315 92.092 312.267 92.044C312.227 91.988 312.091 91.96 311.859 91.96H306.795C306.563 91.96 306.399 91.968 306.303 91.984C306.207 91.992 306.123 92.084 306.051 92.26L305.655 93.244C305.575 93.436 305.551 93.572 305.583 93.652C305.615 93.724 305.739 93.76 305.955 93.76H307.203C307.395 93.76 307.507 93.796 307.539 93.868C307.579 93.932 307.599 94.06 307.599 94.252V96.556C307.599 96.756 307.563 96.88 307.491 96.928C307.419 96.976 307.291 97 307.107 97H299.991C299.655 97 299.439 96.972 299.343 96.916C299.247 96.852 299.199 96.652 299.199 96.316ZM338.132 84.796C337.98 84.052 337.652 83.46 337.148 83.02C336.644 82.58 336.064 82.264 335.408 82.072C334.76 81.88 334.132 81.784 333.524 81.784C332.732 81.784 332.116 81.908 331.676 82.156C331.244 82.396 331.028 82.72 331.028 83.128C331.028 83.536 331.216 83.872 331.592 84.136C331.976 84.4 332.48 84.632 333.104 84.832C333.736 85.032 334.424 85.236 335.168 85.444C335.92 85.644 336.668 85.888 337.412 86.176C338.164 86.464 338.852 86.832 339.476 87.28C340.108 87.728 340.612 88.292 340.988 88.972C341.372 89.652 341.564 90.488 341.564 91.48C341.564 93 341.236 94.196 340.58 95.068C339.924 95.94 339.024 96.56 337.88 96.928C336.744 97.296 335.452 97.48 334.004 97.48C332.924 97.48 332.016 97.336 331.28 97.048C330.544 96.76 329.94 96.396 329.468 95.956C329.212 95.716 329.036 95.652 328.94 95.764C328.852 95.868 328.716 96.076 328.532 96.388L328.316 96.796C328.236 96.932 328.136 97.02 328.016 97.06C327.904 97.1 327.736 97.12 327.512 97.12H326.012C325.78 97.12 325.612 97.084 325.508 97.012C325.412 96.948 325.364 96.804 325.364 96.58V90.556C325.364 90.3 325.388 90.132 325.436 90.052C325.492 89.964 325.644 89.92 325.892 89.92H327.644C327.924 89.92 328.072 89.956 328.088 90.028C328.104 90.1 328.128 90.26 328.16 90.508C328.256 91.212 328.516 91.856 328.94 92.44C329.372 93.016 329.936 93.476 330.632 93.82C331.336 94.164 332.14 94.336 333.044 94.336C333.732 94.336 334.308 94.272 334.772 94.144C335.236 94.008 335.584 93.808 335.816 93.544C336.048 93.28 336.164 92.952 336.164 92.56C336.164 92.08 335.976 91.696 335.6 91.408C335.224 91.112 334.724 90.864 334.1 90.664C333.484 90.464 332.804 90.272 332.06 90.088C331.316 89.904 330.572 89.684 329.828 89.428C329.084 89.164 328.4 88.824 327.776 88.408C327.16 87.984 326.664 87.444 326.288 86.788C325.912 86.124 325.724 85.296 325.724 84.304C325.724 83.28 325.916 82.412 326.3 81.7C326.692 80.98 327.208 80.396 327.848 79.948C328.488 79.492 329.196 79.16 329.972 78.952C330.756 78.744 331.54 78.64 332.324 78.64C333.236 78.64 334.06 78.768 334.796 79.024C335.54 79.28 336.18 79.612 336.716 80.02C336.948 80.196 337.124 80.28 337.244 80.272C337.372 80.264 337.524 80.12 337.7 79.84L338 79.324C338.072 79.212 338.128 79.132 338.168 79.084C338.216 79.028 338.34 79 338.54 79H340.388C340.596 79 340.744 79.036 340.832 79.108C340.92 79.18 340.964 79.328 340.964 79.552V84.94C340.964 85.228 340.924 85.412 340.844 85.492C340.772 85.564 340.584 85.6 340.28 85.6H338.972C338.58 85.6 338.356 85.544 338.3 85.432C338.252 85.32 338.196 85.108 338.132 84.796ZM357.829 84.796C357.677 84.052 357.349 83.46 356.845 83.02C356.341 82.58 355.761 82.264 355.105 82.072C354.457 81.88 353.829 81.784 353.221 81.784C352.429 81.784 351.813 81.908 351.373 82.156C350.941 82.396 350.725 82.72 350.725 83.128C350.725 83.536 350.913 83.872 351.289 84.136C351.673 84.4 352.177 84.632 352.801 84.832C353.433 85.032 354.121 85.236 354.865 85.444C355.617 85.644 356.365 85.888 357.109 86.176C357.861 86.464 358.549 86.832 359.173 87.28C359.805 87.728 360.309 88.292 360.685 88.972C361.069 89.652 361.261 90.488 361.261 91.48C361.261 93 360.933 94.196 360.277 95.068C359.621 95.94 358.721 96.56 357.577 96.928C356.441 97.296 355.149 97.48 353.701 97.48C352.621 97.48 351.713 97.336 350.977 97.048C350.241 96.76 349.637 96.396 349.165 95.956C348.909 95.716 348.733 95.652 348.637 95.764C348.549 95.868 348.413 96.076 348.229 96.388L348.013 96.796C347.933 96.932 347.833 97.02 347.713 97.06C347.601 97.1 347.433 97.12 347.209 97.12H345.709C345.477 97.12 345.309 97.084 345.205 97.012C345.109 96.948 345.061 96.804 345.061 96.58V90.556C345.061 90.3 345.085 90.132 345.133 90.052C345.189 89.964 345.341 89.92 345.589 89.92H347.341C347.621 89.92 347.769 89.956 347.785 90.028C347.801 90.1 347.825 90.26 347.857 90.508C347.953 91.212 348.213 91.856 348.637 92.44C349.069 93.016 349.633 93.476 350.329 93.82C351.033 94.164 351.837 94.336 352.741 94.336C353.429 94.336 354.005 94.272 354.469 94.144C354.933 94.008 355.281 93.808 355.513 93.544C355.745 93.28 355.861 92.952 355.861 92.56C355.861 92.08 355.673 91.696 355.297 91.408C354.921 91.112 354.421 90.864 353.797 90.664C353.181 90.464 352.501 90.272 351.757 90.088C351.013 89.904 350.269 89.684 349.525 89.428C348.781 89.164 348.097 88.824 347.473 88.408C346.857 87.984 346.361 87.444 345.985 86.788C345.609 86.124 345.421 85.296 345.421 84.304C345.421 83.28 345.613 82.412 345.997 81.7C346.389 80.98 346.905 80.396 347.545 79.948C348.185 79.492 348.893 79.16 349.669 78.952C350.453 78.744 351.237 78.64 352.021 78.64C352.933 78.64 353.757 78.768 354.493 79.024C355.237 79.28 355.877 79.612 356.413 80.02C356.645 80.196 356.821 80.28 356.941 80.272C357.069 80.264 357.221 80.12 357.397 79.84L357.697 79.324C357.769 79.212 357.825 79.132 357.865 79.084C357.913 79.028 358.037 79 358.237 79H360.085C360.293 79 360.441 79.036 360.529 79.108C360.617 79.18 360.661 79.328 360.661 79.552V84.94C360.661 85.228 360.621 85.412 360.541 85.492C360.469 85.564 360.281 85.6 359.977 85.6H358.669C358.277 85.6 358.053 85.544 357.997 85.432C357.949 85.32 357.893 85.108 357.829 84.796ZM377.246 82.24H375.878C375.598 82.24 375.43 82.22 375.374 82.18C375.326 82.132 375.302 81.964 375.302 81.676V79.372C375.302 79.124 375.358 79 375.47 79C375.582 79 375.75 79 375.974 79H384.734C385.054 79 385.27 79.036 385.382 79.108C385.502 79.18 385.582 79.292 385.622 79.444C385.67 79.588 385.73 79.772 385.802 79.996L388.094 87.172C388.222 87.556 388.326 87.924 388.406 88.276C388.494 88.628 388.598 88.804 388.718 88.804C388.854 88.804 388.966 88.7 389.054 88.492C389.142 88.276 389.262 87.964 389.414 87.556L392.426 79.492C392.514 79.268 392.59 79.132 392.654 79.084C392.726 79.028 392.918 79 393.23 79H400.742C401.046 79 401.262 79.004 401.39 79.012C401.518 79.02 401.582 79.188 401.582 79.516V81.628C401.582 81.924 401.562 82.1 401.522 82.156C401.482 82.212 401.31 82.24 401.006 82.24H399.542C399.286 82.24 399.138 82.264 399.098 82.312C399.066 82.36 399.054 82.508 399.062 82.756L399.422 93.268C399.43 93.476 399.442 93.612 399.458 93.676C399.482 93.732 399.606 93.76 399.83 93.76H401.75C401.95 93.76 402.07 93.792 402.11 93.856C402.158 93.912 402.182 94.044 402.182 94.252V96.34C402.182 96.596 402.154 96.772 402.098 96.868C402.05 96.956 401.886 97 401.606 97H392.294C392.03 97 391.87 96.964 391.814 96.892C391.766 96.812 391.742 96.636 391.742 96.364V94.324C391.742 94.052 391.786 93.892 391.874 93.844C391.97 93.788 392.142 93.76 392.39 93.76H393.662C393.918 93.76 394.086 93.72 394.166 93.64C394.254 93.552 394.294 93.384 394.286 93.136L394.142 87.724C394.126 87.164 394.138 86.636 394.178 86.14C394.226 85.636 394.25 85.228 394.25 84.916C394.25 84.596 394.174 84.436 394.022 84.436C393.926 84.436 393.85 84.488 393.794 84.592C393.738 84.688 393.682 84.844 393.626 85.06C393.57 85.276 393.478 85.564 393.35 85.924L389.666 96.748C389.578 97.004 389.482 97.168 389.378 97.24C389.274 97.32 389.046 97.36 388.694 97.36H386.534C386.182 97.36 385.95 97.32 385.838 97.24C385.734 97.168 385.638 97.004 385.55 96.748L381.986 86.356C381.882 86.052 381.782 85.704 381.686 85.312C381.598 84.92 381.51 84.576 381.422 84.28C381.334 83.984 381.238 83.836 381.134 83.836C381.03 83.836 380.97 83.948 380.954 84.172C380.938 84.396 380.918 84.78 380.894 85.324L380.534 92.908C380.526 93.196 380.538 93.412 380.57 93.556C380.602 93.692 380.782 93.76 381.11 93.76H382.694C382.918 93.76 383.062 93.792 383.126 93.856C383.19 93.92 383.222 94.068 383.222 94.3V96.388C383.222 96.684 383.174 96.86 383.078 96.916C382.99 96.972 382.806 97 382.526 97H375.086C374.806 97 374.63 96.964 374.558 96.892C374.494 96.82 374.462 96.636 374.462 96.34V94.18C374.462 94.012 374.482 93.9 374.522 93.844C374.562 93.788 374.662 93.76 374.822 93.76H376.718C377.078 93.76 377.262 93.688 377.27 93.544C377.286 93.392 377.302 93.156 377.318 92.836L377.87 82.66C377.886 82.404 377.85 82.272 377.762 82.264C377.674 82.248 377.502 82.24 377.246 82.24ZM415.132 84.772L413.728 88.18C413.648 88.356 413.6 88.532 413.584 88.708C413.576 88.876 413.732 88.96 414.052 88.96H416.584C416.864 88.96 417.004 88.88 417.004 88.72C417.012 88.56 416.984 88.396 416.92 88.228L415.672 84.724C415.576 84.444 415.48 84.336 415.384 84.4C415.296 84.464 415.212 84.588 415.132 84.772ZM405.184 96.316V94.348C405.184 94.14 405.22 93.992 405.292 93.904C405.364 93.808 405.512 93.76 405.736 93.76H407.716C407.916 93.76 408.032 93.72 408.064 93.64C408.096 93.552 408.14 93.444 408.196 93.316L414.28 79.036C414.36 78.844 414.436 78.732 414.508 78.7C414.588 78.66 414.764 78.64 415.036 78.64H418.636C418.916 78.64 419.096 78.68 419.176 78.76C419.264 78.832 419.348 78.964 419.428 79.156L424.96 93.028C425.048 93.252 425.116 93.432 425.164 93.568C425.22 93.696 425.42 93.76 425.764 93.76H427.348C427.556 93.76 427.712 93.78 427.816 93.82C427.928 93.86 427.984 93.996 427.984 94.228V96.46C427.984 96.7 427.952 96.852 427.888 96.916C427.824 96.972 427.676 97 427.444 97H416.716C416.476 97 416.332 96.964 416.284 96.892C416.244 96.812 416.224 96.652 416.224 96.412V94.276C416.224 94.044 416.252 93.9 416.308 93.844C416.372 93.788 416.516 93.76 416.74 93.76H418.108C418.46 93.76 418.668 93.72 418.732 93.64C418.796 93.56 418.784 93.404 418.696 93.172L418.408 92.356C418.352 92.196 418.3 92.092 418.252 92.044C418.212 91.988 418.076 91.96 417.844 91.96H412.78C412.548 91.96 412.384 91.968 412.288 91.984C412.192 91.992 412.108 92.084 412.036 92.26L411.64 93.244C411.56 93.436 411.536 93.572 411.568 93.652C411.6 93.724 411.724 93.76 411.94 93.76H413.188C413.38 93.76 413.492 93.796 413.524 93.868C413.564 93.932 413.584 94.06 413.584 94.252V96.556C413.584 96.756 413.548 96.88 413.476 96.928C413.404 96.976 413.276 97 413.092 97H405.976C405.64 97 405.424 96.972 405.328 96.916C405.232 96.852 405.184 96.652 405.184 96.316ZM433.195 96.388V94.36C433.195 94.12 433.227 93.96 433.291 93.88C433.363 93.8 433.515 93.76 433.747 93.76H435.331C435.651 93.76 435.855 93.712 435.943 93.616C436.031 93.512 436.075 93.3 436.075 92.98V82.576C436.075 82.432 436.043 82.32 435.979 82.24C435.923 82.16 435.819 82.12 435.667 82.12H435.475C434.683 82.12 434.063 82.228 433.615 82.444C433.175 82.66 432.863 83.04 432.679 83.584C432.495 84.12 432.391 84.884 432.367 85.876C432.359 86.164 432.299 86.352 432.187 86.44C432.083 86.52 431.875 86.56 431.563 86.56H430.111C429.879 86.56 429.715 86.536 429.619 86.488C429.523 86.44 429.475 86.3 429.475 86.068V79.696C429.475 79.44 429.499 79.26 429.547 79.156C429.595 79.052 429.747 79 430.003 79H447.355C447.547 79 447.675 79.044 447.739 79.132C447.803 79.22 447.835 79.368 447.835 79.576V85.876C447.835 86.18 447.791 86.372 447.703 86.452C447.615 86.524 447.411 86.56 447.091 86.56H445.675C445.363 86.56 445.163 86.524 445.075 86.452C444.995 86.38 444.951 86.196 444.943 85.9C444.919 84.9 444.815 84.128 444.631 83.584C444.447 83.04 444.135 82.66 443.695 82.444C443.255 82.228 442.635 82.12 441.835 82.12H441.691C441.515 82.12 441.395 82.164 441.331 82.252C441.267 82.332 441.235 82.46 441.235 82.636V92.8C441.235 93.176 441.271 93.432 441.343 93.568C441.423 93.696 441.651 93.76 442.027 93.76H443.431C443.711 93.76 443.895 93.808 443.983 93.904C444.071 93.992 444.115 94.164 444.115 94.42V96.34C444.115 96.628 444.071 96.812 443.983 96.892C443.903 96.964 443.723 97 443.443 97H433.843C433.595 97 433.423 96.968 433.327 96.904C433.239 96.832 433.195 96.66 433.195 96.388ZM453.946 82.24H452.386C452.138 82.24 451.982 82.204 451.918 82.132C451.862 82.06 451.834 81.904 451.834 81.664V79.552C451.834 79.28 451.882 79.12 451.978 79.072C452.082 79.024 452.258 79 452.506 79H469.69C469.922 79 470.062 79.04 470.11 79.12C470.166 79.2 470.194 79.352 470.194 79.576V85.624C470.194 85.848 470.174 85.98 470.134 86.02C470.102 86.06 469.97 86.08 469.738 86.08H467.458C467.282 86.08 467.174 86.04 467.134 85.96C467.094 85.872 467.07 85.752 467.062 85.6C467.038 84.784 466.93 84.132 466.738 83.644C466.554 83.148 466.222 82.792 465.742 82.576C465.27 82.352 464.594 82.24 463.714 82.24H460.81C460.578 82.24 460.402 82.272 460.282 82.336C460.17 82.392 460.114 82.548 460.114 82.804V85.984C460.114 86.272 460.142 86.46 460.198 86.548C460.254 86.636 460.378 86.68 460.57 86.68H460.63C461.246 86.68 461.742 86.464 462.118 86.032C462.494 85.6 462.73 85.104 462.826 84.544C462.858 84.36 462.894 84.22 462.934 84.124C462.974 84.02 463.078 83.968 463.246 83.968H464.578C464.834 83.968 464.994 84 465.058 84.064C465.122 84.128 465.154 84.288 465.154 84.544V91.504C465.154 91.712 465.126 91.848 465.07 91.912C465.014 91.976 464.874 92.008 464.65 92.008H463.354C463.106 92.008 462.962 91.956 462.922 91.852C462.89 91.74 462.854 91.584 462.814 91.384C462.75 91.016 462.61 90.668 462.394 90.34C462.186 90.004 461.934 89.732 461.638 89.524C461.35 89.308 461.05 89.2 460.738 89.2H460.666C460.506 89.2 460.374 89.256 460.27 89.368C460.166 89.472 460.114 89.648 460.114 89.896V93.28C460.114 93.56 460.154 93.712 460.234 93.736C460.314 93.752 460.49 93.76 460.762 93.76H463.474C464.49 93.76 465.266 93.632 465.802 93.376C466.346 93.112 466.726 92.696 466.942 92.128C467.158 91.56 467.278 90.816 467.302 89.896C467.318 89.592 467.342 89.4 467.374 89.32C467.406 89.24 467.586 89.2 467.914 89.2H469.954C470.226 89.2 470.374 89.236 470.398 89.308C470.422 89.372 470.434 89.536 470.434 89.8V96.52C470.434 96.768 470.41 96.912 470.362 96.952C470.314 96.984 470.162 97 469.906 97H452.434C452.194 97 452.034 96.992 451.954 96.976C451.874 96.96 451.834 96.824 451.834 96.568V94.144C451.834 93.936 451.854 93.82 451.894 93.796C451.942 93.772 452.066 93.76 452.266 93.76H453.946C454.202 93.76 454.354 93.74 454.402 93.7C454.45 93.66 454.474 93.512 454.474 93.256V82.696C454.474 82.488 454.438 82.36 454.366 82.312C454.302 82.264 454.162 82.24 453.946 82.24ZM474.75 78.976C474.75 78.392 474.898 77.888 475.194 77.464C475.498 77.032 475.89 76.7 476.37 76.468C476.858 76.236 477.374 76.12 477.918 76.12C478.926 76.12 479.738 76.452 480.354 77.116C480.97 77.772 481.278 78.748 481.278 80.044C481.278 80.884 481.09 81.656 480.714 82.36C480.346 83.056 479.866 83.664 479.274 84.184C478.69 84.704 478.074 85.124 477.426 85.444C476.778 85.756 476.178 85.948 475.626 86.02C475.45 86.044 475.33 86.032 475.266 85.984C475.21 85.936 475.182 85.816 475.182 85.624V84.196C475.182 84.076 475.206 83.996 475.254 83.956C475.302 83.916 475.378 83.892 475.482 83.884C475.962 83.836 476.43 83.692 476.886 83.452C477.342 83.212 477.742 82.936 478.086 82.624C478.438 82.304 478.698 82.008 478.866 81.736C478.898 81.688 478.894 81.652 478.854 81.628C478.822 81.596 478.77 81.596 478.698 81.628C478.562 81.684 478.386 81.732 478.17 81.772C477.962 81.812 477.726 81.832 477.462 81.832C476.646 81.832 475.99 81.576 475.494 81.064C474.998 80.544 474.75 79.848 474.75 78.976ZM482.19 78.976C482.19 78.392 482.338 77.888 482.634 77.464C482.938 77.032 483.33 76.7 483.81 76.468C484.298 76.236 484.814 76.12 485.358 76.12C486.366 76.12 487.178 76.452 487.794 77.116C488.41 77.772 488.718 78.748 488.718 80.044C488.718 80.884 488.53 81.656 488.154 82.36C487.786 83.056 487.306 83.664 486.714 84.184C486.13 84.704 485.514 85.124 484.866 85.444C484.218 85.756 483.618 85.948 483.066 86.02C482.89 86.044 482.77 86.032 482.706 85.984C482.65 85.936 482.622 85.816 482.622 85.624V84.196C482.622 84.076 482.646 83.996 482.694 83.956C482.742 83.916 482.818 83.892 482.922 83.884C483.402 83.836 483.87 83.692 484.326 83.452C484.782 83.212 485.182 82.936 485.526 82.624C485.878 82.304 486.138 82.008 486.306 81.736C486.338 81.688 486.334 81.652 486.294 81.628C486.262 81.596 486.21 81.596 486.138 81.628C486.002 81.684 485.826 81.732 485.61 81.772C485.402 81.812 485.166 81.832 484.902 81.832C484.086 81.832 483.43 81.576 482.934 81.064C482.438 80.544 482.19 79.848 482.19 78.976ZM255.319 117.6H252.479V128H249.019V117.6H246.179V114.66H255.319V117.6ZM258.853 114.66H262.313V122.56C262.313 123.12 262.333 123.98 262.993 124.62C263.393 125 264.033 125.26 264.633 125.26C265.233 125.26 265.853 125.02 266.233 124.68C267.033 123.98 267.013 123 267.013 122.26V114.66H270.473V122.32C270.473 123.72 270.413 125.18 268.973 126.64C267.853 127.78 266.453 128.3 264.573 128.3C262.473 128.3 260.973 127.58 260.153 126.7C258.993 125.44 258.853 123.74 258.853 122.32V114.66ZM280.827 128H275.267V114.66H280.427C281.387 114.66 282.527 114.8 283.347 115.7C283.807 116.2 284.167 117.02 284.167 118.2C284.167 118.78 284.067 119.28 283.787 119.84C283.507 120.36 283.207 120.66 282.707 120.88C283.407 120.96 284.107 121.28 284.527 121.68C285.067 122.2 285.427 123.06 285.427 124.12C285.427 125.38 284.947 126.24 284.447 126.74C283.727 127.48 282.467 128 280.827 128ZM278.727 117.32V119.92H279.367C279.727 119.92 280.327 119.88 280.687 119.5C280.907 119.28 281.007 118.92 281.007 118.62C281.007 118.28 280.887 117.94 280.687 117.72C280.467 117.5 280.047 117.32 279.367 117.32H278.727ZM278.727 122.5V125.3H279.507C280.467 125.3 281.267 125.2 281.647 124.76C281.807 124.58 281.927 124.28 281.927 123.9C281.927 123.48 281.787 123.14 281.587 122.94C281.167 122.52 280.307 122.5 279.447 122.5H278.727ZM297.21 114.66V117.6H293.09V119.82H296.99V122.76H293.09V125.06H297.21V128H289.63V114.66H297.21ZM308.084 114.66H311.544V125.06H315.704V128H308.084V114.66ZM328.438 128L327.618 125.76H322.778L321.878 128H318.218L323.338 114.66H327.118L332.138 128H328.438ZM323.738 123.12H326.698L325.198 118.8L323.738 123.12ZM337.353 128V121.6L332.533 114.66H336.673L339.193 118.3L341.613 114.66H345.813L340.833 121.6V128H337.353ZM362.325 121.34C362.325 123.1 361.645 124.96 360.225 126.32C358.865 127.62 356.945 128.3 354.965 128.3C352.985 128.3 351.065 127.62 349.705 126.32C348.285 124.96 347.605 123.1 347.605 121.34C347.605 119.56 348.285 117.68 349.705 116.34C351.065 115.04 352.985 114.36 354.965 114.36C356.945 114.36 358.865 115.04 360.225 116.34C361.645 117.68 362.325 119.56 362.325 121.34ZM354.965 117.72C354.005 117.72 352.985 118.06 352.265 118.78C351.545 119.48 351.205 120.46 351.205 121.4C351.205 122.58 351.765 123.4 352.265 123.88C352.905 124.5 353.805 124.94 354.965 124.94C356.145 124.94 357.025 124.52 357.645 123.9C358.265 123.28 358.725 122.36 358.725 121.34C358.725 120.3 358.265 119.38 357.645 118.78C356.905 118.08 355.885 117.72 354.965 117.72ZM366.533 114.66H369.993V122.56C369.993 123.12 370.013 123.98 370.673 124.62C371.073 125 371.713 125.26 372.313 125.26C372.913 125.26 373.533 125.02 373.913 124.68C374.713 123.98 374.693 123 374.693 122.26V114.66H378.153V122.32C378.153 123.72 378.093 125.18 376.653 126.64C375.533 127.78 374.133 128.3 372.253 128.3C370.153 128.3 368.653 127.58 367.833 126.7C366.673 125.44 366.533 123.74 366.533 122.32V114.66ZM390.827 117.6H387.987V128H384.527V117.6H381.687V114.66H390.827V117.6Z" fill="black"/>
</g>
<defs>
<clipPath id="clip0_4_24">
<rect width="638" height="344" fill="white"/>
</clipPath>
</defs>
</svg>
