<svg width="638" height="344" viewBox="0 0 638 344" fill="none" xmlns="http://www.w3.org/2000/svg">
<g clip-path="url(#clip0_4_160)">
<rect x="0.5" y="0.5" width="637" height="343" stroke="#767676" stroke-dasharray="2 5"/>
<circle cx="107" cy="217" r="43.5" stroke="black" stroke-width="3"/>
<path d="M95.96 209.92L99.6 219.08L103.26 209.92H107.52L101.08 225H98.04L91.7 209.92H95.96ZM118.515 213.24H113.295L113.035 214.96L114.275 214.86C115.795 214.74 117.062 215.213 118.075 216.28C119.102 217.347 119.615 218.673 119.615 220.26C119.615 221.913 118.968 223.273 117.675 224.34C116.622 225.18 115.155 225.6 113.275 225.6C111.408 225.6 109.768 225.147 108.355 224.24L108.935 220.54C110.228 221.7 111.628 222.28 113.135 222.28C113.775 222.28 114.335 222.073 114.815 221.66C115.295 221.233 115.535 220.7 115.535 220.06C115.535 219.22 115.202 218.58 114.535 218.14C113.882 217.7 113.115 217.48 112.235 217.48C111.195 217.48 110.235 217.687 109.355 218.1L110.675 209.92H118.515V213.24Z" fill="black"/>
<path d="M70.284 278.444H73.392L70.396 282.014L70.424 282.042C70.9093 281.827 71.3993 281.72 71.894 281.72C72.8927 281.72 73.7047 282.089 74.33 282.826C74.9647 283.554 75.282 284.422 75.282 285.43C75.282 286.671 74.8433 287.647 73.966 288.356C73.0887 289.065 72.0153 289.42 70.746 289.42C69.5047 289.42 68.5013 289.117 67.736 288.51C67.3067 288.155 66.9613 287.721 66.7 287.208C66.448 286.685 66.322 286.153 66.322 285.612C66.322 284.287 66.8867 282.887 68.016 281.412L70.284 278.444ZM69.5 286.76C69.8453 287.096 70.256 287.264 70.732 287.264C71.208 287.264 71.6093 287.096 71.936 286.76C72.2627 286.415 72.426 285.999 72.426 285.514C72.426 285.038 72.2627 284.632 71.936 284.296C71.6093 283.96 71.208 283.792 70.732 283.792C70.256 283.792 69.8453 283.96 69.5 284.296C69.164 284.632 68.996 285.038 68.996 285.514C68.996 285.999 69.164 286.415 69.5 286.76ZM84.0397 278.696V281.986C83.7597 281.613 83.405 281.328 82.9757 281.132C82.5557 280.927 82.1077 280.824 81.6317 280.824C80.801 280.824 80.1243 281.104 79.6017 281.664C79.079 282.224 78.8177 282.919 78.8177 283.75C78.8177 284.59 79.079 285.281 79.6017 285.822C80.1337 286.354 80.8243 286.62 81.6737 286.62C82.1217 286.62 82.5557 286.522 82.9757 286.326C83.3957 286.121 83.7503 285.845 84.0397 285.5V288.79C82.9757 289.117 82.1683 289.28 81.6177 289.28C80.115 289.28 78.7943 288.762 77.6557 287.726C76.5263 286.709 75.9617 285.379 75.9617 283.736C75.9617 282.224 76.4797 280.936 77.5157 279.872C78.0383 279.34 78.6543 278.925 79.3637 278.626C80.073 278.318 80.7963 278.164 81.5337 278.164C82.3457 278.164 83.181 278.341 84.0397 278.696ZM92.2038 287.166H88.4238L87.6958 289H84.7838L88.8438 278.444H91.8398L95.8158 289H92.8898L92.2038 287.166ZM91.4618 285.066L90.3418 281.706H90.3138L89.1798 285.066H91.4618ZM101.181 280.768H96.7713V278.444H105.437L99.3753 289H96.3653L101.181 280.768ZM111.101 277.38H113.103L107.755 290.302H105.753L111.101 277.38ZM120.384 280.768H117.122V282.532H120.216V284.856H117.122V286.676H120.384V289H114.378V278.444H120.384V280.768ZM124.82 278.444V286.676H128.11V289H122.076V278.444H124.82ZM131.681 281.482H129.133C129.236 280.427 129.647 279.578 130.365 278.934C131.047 278.327 131.943 278.024 133.053 278.024C134.033 278.024 134.841 278.295 135.475 278.836C136.11 279.377 136.427 280.129 136.427 281.09C136.427 281.538 136.334 281.963 136.147 282.364C135.961 282.756 135.685 283.055 135.321 283.26C135.853 283.4 136.273 283.736 136.581 284.268C136.889 284.791 137.043 285.341 137.043 285.92C137.043 286.657 136.843 287.297 136.441 287.838C136.049 288.379 135.545 288.776 134.929 289.028C134.323 289.289 133.66 289.42 132.941 289.42C131.625 289.42 130.575 289.023 129.791 288.23C129.455 287.885 129.166 287.465 128.923 286.97C128.69 286.475 128.578 286.009 128.587 285.57H131.387C131.387 285.999 131.523 286.359 131.793 286.648C132.073 286.928 132.428 287.068 132.857 287.068C133.287 287.068 133.637 286.937 133.907 286.676C134.187 286.415 134.327 286.074 134.327 285.654C134.327 285.262 134.183 284.931 133.893 284.66C133.604 284.38 133.263 284.24 132.871 284.24C132.759 284.24 132.601 284.268 132.395 284.324V282.49H132.675C133.03 282.49 133.319 282.387 133.543 282.182C133.767 281.967 133.879 281.683 133.879 281.328C133.879 281.011 133.777 280.754 133.571 280.558C133.366 280.362 133.109 280.264 132.801 280.264C132.456 280.264 132.181 280.381 131.975 280.614C131.77 280.838 131.672 281.127 131.681 281.482ZM145.605 284.716H146.879V286.816H145.605V289H143.057V286.816H137.933V285.066L142.007 278.444H145.605V284.716ZM143.057 284.716V280.656H143.029L140.565 284.716H143.057Z" fill="black"/>
<circle cx="232" cy="217" r="43.5" stroke="black" stroke-width="3"/>
<path d="M221.96 209.92L225.6 219.08L229.26 209.92H233.52L227.08 225H224.04L217.7 209.92H221.96ZM244.495 218.88H246.315V221.88H244.495V225H240.855V221.88H233.535V219.38L239.355 209.92H244.495V218.88ZM240.855 218.88V213.08H240.815L237.295 218.88H240.855Z" fill="black"/>
<path d="M195.284 278.444H198.392L195.396 282.014L195.424 282.042C195.909 281.827 196.399 281.72 196.894 281.72C197.893 281.72 198.705 282.089 199.33 282.826C199.965 283.554 200.282 284.422 200.282 285.43C200.282 286.671 199.843 287.647 198.966 288.356C198.089 289.065 197.015 289.42 195.746 289.42C194.505 289.42 193.501 289.117 192.736 288.51C192.307 288.155 191.961 287.721 191.7 287.208C191.448 286.685 191.322 286.153 191.322 285.612C191.322 284.287 191.887 282.887 193.016 281.412L195.284 278.444ZM194.5 286.76C194.845 287.096 195.256 287.264 195.732 287.264C196.208 287.264 196.609 287.096 196.936 286.76C197.263 286.415 197.426 285.999 197.426 285.514C197.426 285.038 197.263 284.632 196.936 284.296C196.609 283.96 196.208 283.792 195.732 283.792C195.256 283.792 194.845 283.96 194.5 284.296C194.164 284.632 193.996 285.038 193.996 285.514C193.996 285.999 194.164 286.415 194.5 286.76ZM209.04 278.696V281.986C208.76 281.613 208.405 281.328 207.976 281.132C207.556 280.927 207.108 280.824 206.632 280.824C205.801 280.824 205.124 281.104 204.602 281.664C204.079 282.224 203.818 282.919 203.818 283.75C203.818 284.59 204.079 285.281 204.602 285.822C205.134 286.354 205.824 286.62 206.674 286.62C207.122 286.62 207.556 286.522 207.976 286.326C208.396 286.121 208.75 285.845 209.04 285.5V288.79C207.976 289.117 207.168 289.28 206.618 289.28C205.115 289.28 203.794 288.762 202.656 287.726C201.526 286.709 200.962 285.379 200.962 283.736C200.962 282.224 201.48 280.936 202.516 279.872C203.038 279.34 203.654 278.925 204.364 278.626C205.073 278.318 205.796 278.164 206.534 278.164C207.346 278.164 208.181 278.341 209.04 278.696ZM217.204 287.166H213.424L212.696 289H209.784L213.844 278.444H216.84L220.816 289H217.89L217.204 287.166ZM216.462 285.066L215.342 281.706H215.314L214.18 285.066H216.462ZM226.181 280.768H221.771V278.444H230.437L224.375 289H221.365L226.181 280.768ZM236.101 277.38H238.103L232.755 290.302H230.753L236.101 277.38ZM245.384 280.768H242.122V282.532H245.216V284.856H242.122V286.676H245.384V289H239.378V278.444H245.384V280.768ZM249.82 278.444V286.676H253.11V289H247.076V278.444H249.82ZM256.681 281.482H254.133C254.236 280.427 254.647 279.578 255.365 278.934C256.047 278.327 256.943 278.024 258.053 278.024C259.033 278.024 259.841 278.295 260.475 278.836C261.11 279.377 261.427 280.129 261.427 281.09C261.427 281.538 261.334 281.963 261.147 282.364C260.961 282.756 260.685 283.055 260.321 283.26C260.853 283.4 261.273 283.736 261.581 284.268C261.889 284.791 262.043 285.341 262.043 285.92C262.043 286.657 261.843 287.297 261.441 287.838C261.049 288.379 260.545 288.776 259.929 289.028C259.323 289.289 258.66 289.42 257.941 289.42C256.625 289.42 255.575 289.023 254.791 288.23C254.455 287.885 254.166 287.465 253.923 286.97C253.69 286.475 253.578 286.009 253.587 285.57H256.387C256.387 285.999 256.523 286.359 256.793 286.648C257.073 286.928 257.428 287.068 257.857 287.068C258.287 287.068 258.637 286.937 258.907 286.676C259.187 286.415 259.327 286.074 259.327 285.654C259.327 285.262 259.183 284.931 258.893 284.66C258.604 284.38 258.263 284.24 257.871 284.24C257.759 284.24 257.601 284.268 257.395 284.324V282.49H257.675C258.03 282.49 258.319 282.387 258.543 282.182C258.767 281.967 258.879 281.683 258.879 281.328C258.879 281.011 258.777 280.754 258.571 280.558C258.366 280.362 258.109 280.264 257.801 280.264C257.456 280.264 257.181 280.381 256.975 280.614C256.77 280.838 256.672 281.127 256.681 281.482ZM270.605 284.716H271.879V286.816H270.605V289H268.057V286.816H262.933V285.066L267.007 278.444H270.605V284.716ZM268.057 284.716V280.656H268.029L265.565 284.716H268.057Z" fill="black"/>
<circle cx="544.5" cy="229.5" r="31" stroke="black" stroke-width="3"/>
<path d="M517.766 280.768H516.254V278.444H520.51V289H517.766V280.768ZM529.086 286.676H532.544V289H524.06L528.372 284.31C529.174 283.433 529.576 282.569 529.576 281.72C529.576 281.365 529.459 281.048 529.226 280.768C529.002 280.488 528.717 280.348 528.372 280.348C528.017 280.348 527.737 280.469 527.532 280.712C527.326 280.955 527.224 281.263 527.224 281.636C527.224 281.785 527.238 281.935 527.266 282.084H524.242C524.288 280.861 524.676 279.881 525.404 279.144C526.141 278.397 527.126 278.024 528.358 278.024C529.496 278.024 530.458 278.369 531.242 279.06C532.035 279.751 532.432 280.656 532.432 281.776C532.432 282.485 532.292 283.092 532.012 283.596C531.741 284.1 531.312 284.618 530.724 285.15L529.086 286.676ZM540.559 287.166H536.779L536.051 289H533.139L537.199 278.444H540.195L544.171 289H541.245L540.559 287.166ZM539.817 285.066L538.697 281.706H538.669L537.535 285.066H539.817ZM548.151 283.358L544.777 278.444H548.151L549.761 281.174L551.371 278.444H554.745L551.371 283.358L555.277 289H551.973L549.761 285.556L547.339 289H544.021L548.151 283.358ZM560.584 280.768H556.174V278.444H564.84L558.778 289H555.768L560.584 280.768ZM572.141 287.166H568.361L567.633 289H564.721L568.781 278.444H571.777L575.753 289H572.827L572.141 287.166ZM571.399 285.066L570.279 281.706H570.251L569.117 285.066H571.399Z" fill="black"/>
<circle cx="344.5" cy="229.5" r="31" stroke="black" stroke-width="3"/>
<path d="M317.766 280.768H316.254V278.444H320.51V289H317.766V280.768ZM329.086 286.676H332.544V289H324.06L328.372 284.31C329.174 283.433 329.576 282.569 329.576 281.72C329.576 281.365 329.459 281.048 329.226 280.768C329.002 280.488 328.717 280.348 328.372 280.348C328.017 280.348 327.737 280.469 327.532 280.712C327.326 280.955 327.224 281.263 327.224 281.636C327.224 281.785 327.238 281.935 327.266 282.084H324.242C324.288 280.861 324.676 279.881 325.404 279.144C326.141 278.397 327.126 278.024 328.358 278.024C329.496 278.024 330.458 278.369 331.242 279.06C332.035 279.751 332.432 280.656 332.432 281.776C332.432 282.485 332.292 283.092 332.012 283.596C331.741 284.1 331.312 284.618 330.724 285.15L329.086 286.676ZM340.559 287.166H336.779L336.051 289H333.139L337.199 278.444H340.195L344.171 289H341.245L340.559 287.166ZM339.817 285.066L338.697 281.706H338.669L337.535 285.066H339.817ZM348.151 283.358L344.777 278.444H348.151L349.761 281.174L351.371 278.444H354.745L351.371 283.358L355.277 289H351.973L349.761 285.556L347.339 289H344.021L348.151 283.358ZM360.584 280.768H356.174V278.444H364.84L358.778 289H355.768L360.584 280.768ZM372.141 287.166H368.361L367.633 289H364.721L368.781 278.444H371.777L375.753 289H372.827L372.141 287.166ZM371.399 285.066L370.279 281.706H370.251L369.117 285.066H371.399Z" fill="black"/>
<path d="M333.96 221.92L337.6 231.08L341.26 221.92H345.52L339.08 237H336.04L329.7 221.92H333.96ZM350.315 226.26H346.675C346.822 224.753 347.408 223.54 348.435 222.62C349.408 221.753 350.688 221.32 352.275 221.32C353.675 221.32 354.828 221.707 355.735 222.48C356.642 223.253 357.095 224.327 357.095 225.7C357.095 226.34 356.962 226.947 356.695 227.52C356.428 228.08 356.035 228.507 355.515 228.8C356.275 229 356.875 229.48 357.315 230.24C357.755 230.987 357.975 231.773 357.975 232.6C357.975 233.653 357.688 234.567 357.115 235.34C356.555 236.113 355.835 236.68 354.955 237.04C354.088 237.413 353.142 237.6 352.115 237.6C350.235 237.6 348.735 237.033 347.615 235.9C347.135 235.407 346.722 234.807 346.375 234.1C346.042 233.393 345.882 232.727 345.895 232.1H349.895C349.895 232.713 350.088 233.227 350.475 233.64C350.875 234.04 351.382 234.24 351.995 234.24C352.608 234.24 353.108 234.053 353.495 233.68C353.895 233.307 354.095 232.82 354.095 232.22C354.095 231.66 353.888 231.187 353.475 230.8C353.062 230.4 352.575 230.2 352.015 230.2C351.855 230.2 351.628 230.24 351.335 230.32V227.7H351.735C352.242 227.7 352.655 227.553 352.975 227.26C353.295 226.953 353.455 226.547 353.455 226.04C353.455 225.587 353.308 225.22 353.015 224.94C352.722 224.66 352.355 224.52 351.915 224.52C351.422 224.52 351.028 224.687 350.735 225.02C350.442 225.34 350.302 225.753 350.315 226.26Z" fill="black"/>
<circle cx="444.5" cy="229.5" r="31" stroke="black" stroke-width="3"/>
<path d="M417.766 280.768H416.254V278.444H420.51V289H417.766V280.768ZM429.086 286.676H432.544V289H424.06L428.372 284.31C429.174 283.433 429.576 282.569 429.576 281.72C429.576 281.365 429.459 281.048 429.226 280.768C429.002 280.488 428.717 280.348 428.372 280.348C428.017 280.348 427.737 280.469 427.532 280.712C427.326 280.955 427.224 281.263 427.224 281.636C427.224 281.785 427.238 281.935 427.266 282.084H424.242C424.288 280.861 424.676 279.881 425.404 279.144C426.141 278.397 427.126 278.024 428.358 278.024C429.496 278.024 430.458 278.369 431.242 279.06C432.035 279.751 432.432 280.656 432.432 281.776C432.432 282.485 432.292 283.092 432.012 283.596C431.741 284.1 431.312 284.618 430.724 285.15L429.086 286.676ZM440.559 287.166H436.779L436.051 289H433.139L437.199 278.444H440.195L444.171 289H441.245L440.559 287.166ZM439.817 285.066L438.697 281.706H438.669L437.535 285.066H439.817ZM448.151 283.358L444.777 278.444H448.151L449.761 281.174L451.371 278.444H454.745L451.371 283.358L455.277 289H451.973L449.761 285.556L447.339 289H444.021L448.151 283.358ZM460.584 280.768H456.174V278.444H464.84L458.778 289H455.768L460.584 280.768ZM472.141 287.166H468.361L467.633 289H464.721L468.781 278.444H471.777L475.753 289H472.827L472.141 287.166ZM471.399 285.066L470.279 281.706H470.251L469.117 285.066H471.399Z" fill="black"/>
<path d="M433.96 221.92L437.6 231.08L441.26 221.92H445.52L439.08 237H436.04L429.7 221.92H433.96ZM453.055 233.68H457.995V237H445.875L452.035 230.3C453.182 229.047 453.755 227.813 453.755 226.6C453.755 226.093 453.588 225.64 453.255 225.24C452.935 224.84 452.528 224.64 452.035 224.64C451.528 224.64 451.128 224.813 450.835 225.16C450.542 225.507 450.395 225.947 450.395 226.48C450.395 226.693 450.415 226.907 450.455 227.12H446.135C446.202 225.373 446.755 223.973 447.795 222.92C448.848 221.853 450.255 221.32 452.015 221.32C453.642 221.32 455.015 221.813 456.135 222.8C457.268 223.787 457.835 225.08 457.835 226.68C457.835 227.693 457.635 228.56 457.235 229.28C456.848 230 456.235 230.74 455.395 231.5L453.055 233.68Z" fill="black"/>
<path d="M534.96 221.92L538.6 231.08L542.26 221.92H546.52L540.08 237H537.04L530.7 221.92H534.96ZM551.595 225.24H549.435V221.92H555.515V237H551.595V225.24Z" fill="black"/>
<rect x="38" y="36" width="562" height="273" rx="9" stroke="black" stroke-width="2"/>
<path d="M275.346 96.568V94.312C275.346 94.08 275.37 93.932 275.418 93.868C275.466 93.796 275.602 93.76 275.826 93.76H277.458C277.698 93.76 277.846 93.724 277.902 93.652C277.958 93.58 277.986 93.42 277.986 93.172V91.444C277.986 91.116 277.958 90.884 277.902 90.748C277.846 90.604 277.758 90.444 277.638 90.268L272.514 82.792C272.378 82.584 272.262 82.44 272.166 82.36C272.078 82.28 271.854 82.24 271.494 82.24H270.222C269.974 82.24 269.826 82.2 269.778 82.12C269.73 82.04 269.706 81.876 269.706 81.628V79.84C269.706 79.464 269.774 79.232 269.91 79.144C270.046 79.048 270.286 79 270.63 79H280.158C280.462 79 280.674 79.036 280.794 79.108C280.922 79.172 280.986 79.368 280.986 79.696V81.676C280.986 81.916 280.95 82.072 280.878 82.144C280.814 82.208 280.666 82.24 280.434 82.24H279.414C279.118 82.24 278.942 82.284 278.886 82.372C278.83 82.46 278.89 82.632 279.066 82.888L281.13 85.888C281.354 86.2 281.518 86.4 281.622 86.488C281.734 86.576 281.846 86.564 281.958 86.452C282.07 86.332 282.238 86.128 282.462 85.84L284.778 82.84C284.978 82.584 285.034 82.42 284.946 82.348C284.858 82.276 284.686 82.24 284.43 82.24H283.506C283.202 82.24 283.006 82.212 282.918 82.156C282.83 82.092 282.786 81.908 282.786 81.604V79.6C282.786 79.328 282.818 79.16 282.882 79.096C282.954 79.032 283.122 79 283.386 79H290.838C291.046 79 291.194 79.02 291.282 79.06C291.378 79.1 291.426 79.236 291.426 79.468V81.916C291.426 82.068 291.39 82.16 291.318 82.192C291.254 82.224 291.142 82.24 290.982 82.24H290.19C289.838 82.24 289.61 82.28 289.506 82.36C289.41 82.432 289.286 82.56 289.134 82.744L284.106 88.972C283.954 89.172 283.834 89.34 283.746 89.476C283.666 89.612 283.626 89.868 283.626 90.244V93.196C283.626 93.42 283.65 93.572 283.698 93.652C283.746 93.724 283.882 93.76 284.106 93.76H286.014C286.246 93.76 286.386 93.8 286.434 93.88C286.482 93.952 286.506 94.108 286.506 94.348V96.532C286.506 96.716 286.482 96.84 286.434 96.904C286.394 96.968 286.282 97 286.098 97H275.73C275.57 97 275.466 96.972 275.418 96.916C275.37 96.86 275.346 96.744 275.346 96.568ZM304.74 93.76C305.428 93.76 305.964 93.66 306.348 93.46C306.732 93.252 307 92.968 307.152 92.608C307.304 92.248 307.38 91.832 307.38 91.36C307.38 90.888 307.268 90.504 307.044 90.208C306.828 89.904 306.52 89.68 306.12 89.536C305.728 89.392 305.268 89.32 304.74 89.32H302.952C302.8 89.32 302.68 89.368 302.592 89.464C302.504 89.552 302.46 89.68 302.46 89.848V93.088C302.46 93.336 302.492 93.512 302.556 93.616C302.62 93.712 302.768 93.76 303 93.76H304.74ZM303.144 86.08H304.26C304.748 86.08 305.172 86.008 305.532 85.864C305.892 85.72 306.168 85.5 306.36 85.204C306.56 84.9 306.66 84.512 306.66 84.04C306.66 83.568 306.576 83.204 306.408 82.948C306.248 82.684 305.992 82.5 305.64 82.396C305.288 82.292 304.828 82.24 304.26 82.24H303.072C302.888 82.24 302.74 82.26 302.628 82.3C302.516 82.332 302.46 82.44 302.46 82.624V85.372C302.46 85.668 302.5 85.86 302.58 85.948C302.66 86.036 302.848 86.08 303.144 86.08ZM305.22 97H294.744C294.472 97 294.308 96.94 294.252 96.82C294.204 96.692 294.18 96.488 294.18 96.208V94.12C294.18 93.96 294.212 93.86 294.276 93.82C294.348 93.78 294.456 93.76 294.6 93.76H296.256C296.52 93.76 296.68 93.704 296.736 93.592C296.792 93.48 296.82 93.288 296.82 93.016V82.864C296.82 82.648 296.788 82.492 296.724 82.396C296.668 82.292 296.536 82.24 296.328 82.24H294.696C294.472 82.24 294.328 82.212 294.264 82.156C294.208 82.092 294.18 81.952 294.18 81.736V79.624C294.18 79.384 294.216 79.22 294.288 79.132C294.368 79.044 294.52 79 294.744 79H304.5C306.348 79 307.856 79.136 309.024 79.408C310.192 79.68 311.048 80.14 311.592 80.788C312.144 81.436 312.42 82.32 312.42 83.44C312.42 84.432 312.136 85.248 311.568 85.888C311.008 86.528 310.192 87.012 309.12 87.34C308.896 87.404 308.784 87.496 308.784 87.616C308.784 87.736 308.92 87.824 309.192 87.88C310.528 88.152 311.56 88.628 312.288 89.308C313.016 89.98 313.38 90.864 313.38 91.96C313.38 93.24 313.1 94.248 312.54 94.984C311.988 95.712 311.112 96.232 309.912 96.544C308.712 96.848 307.148 97 305.22 97ZM324.632 84.772L323.228 88.18C323.148 88.356 323.1 88.532 323.084 88.708C323.076 88.876 323.232 88.96 323.552 88.96H326.084C326.364 88.96 326.504 88.88 326.504 88.72C326.512 88.56 326.484 88.396 326.42 88.228L325.172 84.724C325.076 84.444 324.98 84.336 324.884 84.4C324.796 84.464 324.712 84.588 324.632 84.772ZM314.684 96.316V94.348C314.684 94.14 314.72 93.992 314.792 93.904C314.864 93.808 315.012 93.76 315.236 93.76H317.216C317.416 93.76 317.532 93.72 317.564 93.64C317.596 93.552 317.64 93.444 317.696 93.316L323.78 79.036C323.86 78.844 323.936 78.732 324.008 78.7C324.088 78.66 324.264 78.64 324.536 78.64H328.136C328.416 78.64 328.596 78.68 328.676 78.76C328.764 78.832 328.848 78.964 328.928 79.156L334.46 93.028C334.548 93.252 334.616 93.432 334.664 93.568C334.72 93.696 334.92 93.76 335.264 93.76H336.848C337.056 93.76 337.212 93.78 337.316 93.82C337.428 93.86 337.484 93.996 337.484 94.228V96.46C337.484 96.7 337.452 96.852 337.388 96.916C337.324 96.972 337.176 97 336.944 97H326.216C325.976 97 325.832 96.964 325.784 96.892C325.744 96.812 325.724 96.652 325.724 96.412V94.276C325.724 94.044 325.752 93.9 325.808 93.844C325.872 93.788 326.016 93.76 326.24 93.76H327.608C327.96 93.76 328.168 93.72 328.232 93.64C328.296 93.56 328.284 93.404 328.196 93.172L327.908 92.356C327.852 92.196 327.8 92.092 327.752 92.044C327.712 91.988 327.576 91.96 327.344 91.96H322.28C322.048 91.96 321.884 91.968 321.788 91.984C321.692 91.992 321.608 92.084 321.536 92.26L321.14 93.244C321.06 93.436 321.036 93.572 321.068 93.652C321.1 93.724 321.224 93.76 321.44 93.76H322.688C322.88 93.76 322.992 93.796 323.024 93.868C323.064 93.932 323.084 94.06 323.084 94.252V96.556C323.084 96.756 323.048 96.88 322.976 96.928C322.904 96.976 322.776 97 322.592 97H315.476C315.14 97 314.924 96.972 314.828 96.916C314.732 96.852 314.684 96.652 314.684 96.316ZM341.736 86.32H349.08C349.264 86.32 349.376 86.352 349.416 86.416C349.464 86.472 349.488 86.596 349.488 86.788V88.588C349.488 88.796 349.468 88.932 349.428 88.996C349.388 89.052 349.264 89.08 349.056 89.08H341.832C341.616 89.08 341.476 89.052 341.412 88.996C341.356 88.94 341.328 88.808 341.328 88.6V86.812C341.328 86.62 341.348 86.492 341.388 86.428C341.428 86.356 341.544 86.32 341.736 86.32ZM368.447 95.032V96.568C368.447 96.768 368.415 96.892 368.351 96.94C368.287 96.98 368.151 97 367.943 97H359.159C358.879 97 358.695 96.976 358.607 96.928C358.527 96.872 358.487 96.704 358.487 96.424V95.02C358.487 94.804 358.519 94.66 358.583 94.588C358.647 94.516 358.791 94.48 359.015 94.48H360.803C361.067 94.48 361.227 94.444 361.283 94.372C361.339 94.3 361.367 94.128 361.367 93.856V92.728C361.367 92.4 361.339 92.212 361.283 92.164C361.235 92.108 361.047 92.08 360.719 92.08H354.743C354.487 92.08 354.331 92.052 354.275 91.996C354.219 91.932 354.147 91.824 354.059 91.672L353.687 90.976C353.615 90.848 353.591 90.744 353.615 90.664C353.647 90.584 353.695 90.48 353.759 90.352C354.135 89.6 354.611 88.9 355.187 88.252C355.771 87.596 356.391 86.956 357.047 86.332C357.711 85.708 358.359 85.064 358.991 84.4C359.631 83.736 360.199 83.02 360.695 82.252C361.199 81.484 361.575 80.624 361.823 79.672C361.887 79.416 361.955 79.24 362.027 79.144C362.099 79.048 362.303 79 362.639 79H365.879C366.199 79 366.399 79.036 366.479 79.108C366.559 79.172 366.575 79.344 366.527 79.624C366.375 80.552 366.047 81.38 365.543 82.108C365.047 82.828 364.451 83.48 363.755 84.064C363.059 84.648 362.331 85.192 361.571 85.696C360.811 86.2 360.087 86.696 359.399 87.184C358.711 87.664 358.131 88.168 357.659 88.696C357.555 88.816 357.467 88.944 357.395 89.08C357.323 89.208 357.323 89.32 357.395 89.416C357.467 89.512 357.659 89.56 357.971 89.56H360.911C361.119 89.56 361.247 89.528 361.295 89.464C361.343 89.392 361.367 89.248 361.367 89.032V88.48C361.367 88.2 361.403 88.036 361.475 87.988C361.555 87.932 361.687 87.852 361.871 87.748C362.271 87.54 362.699 87.28 363.155 86.968C363.619 86.648 363.975 86.232 364.223 85.72C364.279 85.6 364.339 85.512 364.403 85.456C364.467 85.392 364.591 85.36 364.775 85.36H365.567C365.751 85.36 365.875 85.38 365.939 85.42C366.011 85.452 366.047 85.56 366.047 85.744V88.864C366.047 89.064 366.083 89.232 366.155 89.368C366.227 89.496 366.375 89.56 366.599 89.56H368.375C368.567 89.56 368.687 89.592 368.735 89.656C368.783 89.712 368.807 89.832 368.807 90.016V91.408C368.807 91.68 368.783 91.86 368.735 91.948C368.695 92.036 368.535 92.08 368.255 92.08H366.695C366.447 92.08 366.275 92.112 366.179 92.176C366.091 92.232 366.047 92.392 366.047 92.656V93.856C366.047 94.128 366.079 94.3 366.143 94.372C366.215 94.444 366.391 94.48 366.671 94.48H367.919C368.151 94.48 368.295 94.512 368.351 94.576C368.415 94.64 368.447 94.792 368.447 95.032ZM256.319 117.6H253.479V128H250.019V117.6H247.179V114.66H256.319V117.6ZM259.853 114.66H263.313V122.56C263.313 123.12 263.333 123.98 263.993 124.62C264.393 125 265.033 125.26 265.633 125.26C266.233 125.26 266.853 125.02 267.233 124.68C268.033 123.98 268.013 123 268.013 122.26V114.66H271.473V122.32C271.473 123.72 271.413 125.18 269.973 126.64C268.853 127.78 267.453 128.3 265.573 128.3C263.473 128.3 261.973 127.58 261.153 126.7C259.993 125.44 259.853 123.74 259.853 122.32V114.66ZM281.827 128H276.267V114.66H281.427C282.387 114.66 283.527 114.8 284.347 115.7C284.807 116.2 285.167 117.02 285.167 118.2C285.167 118.78 285.067 119.28 284.787 119.84C284.507 120.36 284.207 120.66 283.707 120.88C284.407 120.96 285.107 121.28 285.527 121.68C286.067 122.2 286.427 123.06 286.427 124.12C286.427 125.38 285.947 126.24 285.447 126.74C284.727 127.48 283.467 128 281.827 128ZM279.727 117.32V119.92H280.367C280.727 119.92 281.327 119.88 281.687 119.5C281.907 119.28 282.007 118.92 282.007 118.62C282.007 118.28 281.887 117.94 281.687 117.72C281.467 117.5 281.047 117.32 280.367 117.32H279.727ZM279.727 122.5V125.3H280.507C281.467 125.3 282.267 125.2 282.647 124.76C282.807 124.58 282.927 124.28 282.927 123.9C282.927 123.48 282.787 123.14 282.587 122.94C282.167 122.52 281.307 122.5 280.447 122.5H279.727ZM298.21 114.66V117.6H294.09V119.82H297.99V122.76H294.09V125.06H298.21V128H290.63V114.66H298.21ZM309.084 114.66H312.544V125.06H316.704V128H309.084V114.66ZM329.438 128L328.618 125.76H323.778L322.878 128H319.218L324.338 114.66H328.118L333.138 128H329.438ZM324.738 123.12H327.698L326.198 118.8L324.738 123.12ZM338.353 128V121.6L333.533 114.66H337.673L340.193 118.3L342.613 114.66H346.813L341.833 121.6V128H338.353ZM363.325 121.34C363.325 123.1 362.645 124.96 361.225 126.32C359.865 127.62 357.945 128.3 355.965 128.3C353.985 128.3 352.065 127.62 350.705 126.32C349.285 124.96 348.605 123.1 348.605 121.34C348.605 119.56 349.285 117.68 350.705 116.34C352.065 115.04 353.985 114.36 355.965 114.36C357.945 114.36 359.865 115.04 361.225 116.34C362.645 117.68 363.325 119.56 363.325 121.34ZM355.965 117.72C355.005 117.72 353.985 118.06 353.265 118.78C352.545 119.48 352.205 120.46 352.205 121.4C352.205 122.58 352.765 123.4 353.265 123.88C353.905 124.5 354.805 124.94 355.965 124.94C357.145 124.94 358.025 124.52 358.645 123.9C359.265 123.28 359.725 122.36 359.725 121.34C359.725 120.3 359.265 119.38 358.645 118.78C357.905 118.08 356.885 117.72 355.965 117.72ZM367.533 114.66H370.993V122.56C370.993 123.12 371.013 123.98 371.673 124.62C372.073 125 372.713 125.26 373.313 125.26C373.913 125.26 374.533 125.02 374.913 124.68C375.713 123.98 375.693 123 375.693 122.26V114.66H379.153V122.32C379.153 123.72 379.093 125.18 377.653 126.64C376.533 127.78 375.133 128.3 373.253 128.3C371.153 128.3 369.653 127.58 368.833 126.7C367.673 125.44 367.533 123.74 367.533 122.32V114.66ZM391.827 117.6H388.987V128H385.527V117.6H382.687V114.66H391.827V117.6Z" fill="black"/>
</g>
<defs>
<clipPath id="clip0_4_160">
<rect width="638" height="344" fill="white"/>
</clipPath>
</defs>
</svg>
