<svg width="797" height="344" viewBox="0 0 797 344" fill="none" xmlns="http://www.w3.org/2000/svg">
<g clip-path="url(#clip0_8_38)">
<rect x="0.5" y="0.5" width="796" height="343" stroke="#767676" stroke-dasharray="2 5"/>
<circle cx="105" cy="218" r="43.5" stroke="black" stroke-width="3"/>
<path d="M86.96 210.92L90.6 220.08L94.26 210.92H98.52L92.08 226H89.04L82.7 210.92H86.96ZM103.595 214.24H101.435V210.92H107.515V226H103.595V214.24ZM115.906 211.04C116.746 210.56 117.706 210.32 118.786 210.32C119.866 210.32 120.826 210.56 121.666 211.04C122.506 211.507 123.172 212.14 123.666 212.94C124.172 213.727 124.552 214.593 124.806 215.54C125.059 216.473 125.186 217.447 125.186 218.46C125.186 219.26 125.106 220.047 124.946 220.82C124.799 221.58 124.559 222.313 124.226 223.02C123.892 223.727 123.479 224.347 122.986 224.88C122.506 225.4 121.899 225.813 121.166 226.12C120.446 226.44 119.652 226.6 118.786 226.6C117.919 226.6 117.119 226.44 116.386 226.12C115.666 225.813 115.059 225.4 114.566 224.88C114.086 224.347 113.679 223.727 113.346 223.02C113.012 222.313 112.766 221.58 112.606 220.82C112.459 220.047 112.386 219.26 112.386 218.46C112.386 217.447 112.512 216.473 112.766 215.54C113.019 214.593 113.392 213.727 113.886 212.94C114.392 212.14 115.066 211.507 115.906 211.04ZM120.006 214.3C119.659 213.953 119.252 213.78 118.786 213.78C118.319 213.78 117.906 213.953 117.546 214.3C117.199 214.633 116.939 215.06 116.766 215.58C116.592 216.1 116.466 216.6 116.386 217.08C116.319 217.56 116.286 218.013 116.286 218.44C116.286 218.867 116.319 219.327 116.386 219.82C116.466 220.3 116.592 220.807 116.766 221.34C116.939 221.86 117.199 222.293 117.546 222.64C117.906 222.973 118.319 223.14 118.786 223.14C119.252 223.14 119.659 222.973 120.006 222.64C120.366 222.293 120.632 221.86 120.806 221.34C120.979 220.807 121.099 220.3 121.166 219.82C121.246 219.327 121.286 218.867 121.286 218.44C121.286 218.013 121.246 217.56 121.166 217.08C121.099 216.6 120.979 216.1 120.806 215.58C120.632 215.06 120.366 214.633 120.006 214.3Z" fill="black"/>
<path d="M89.284 279.444H92.392L89.396 283.014L89.424 283.042C89.9093 282.827 90.3993 282.72 90.894 282.72C91.8927 282.72 92.7047 283.089 93.33 283.826C93.9647 284.554 94.282 285.422 94.282 286.43C94.282 287.671 93.8433 288.647 92.966 289.356C92.0887 290.065 91.0153 290.42 89.746 290.42C88.5047 290.42 87.5013 290.117 86.736 289.51C86.3067 289.155 85.9613 288.721 85.7 288.208C85.448 287.685 85.322 287.153 85.322 286.612C85.322 285.287 85.8867 283.887 87.016 282.412L89.284 279.444ZM88.5 287.76C88.8453 288.096 89.256 288.264 89.732 288.264C90.208 288.264 90.6093 288.096 90.936 287.76C91.2627 287.415 91.426 286.999 91.426 286.514C91.426 286.038 91.2627 285.632 90.936 285.296C90.6093 284.96 90.208 284.792 89.732 284.792C89.256 284.792 88.8453 284.96 88.5 285.296C88.164 285.632 87.996 286.038 87.996 286.514C87.996 286.999 88.164 287.415 88.5 287.76ZM103.04 279.696V282.986C102.76 282.613 102.405 282.328 101.976 282.132C101.556 281.927 101.108 281.824 100.632 281.824C99.801 281.824 99.1243 282.104 98.6017 282.664C98.079 283.224 97.8177 283.919 97.8177 284.75C97.8177 285.59 98.079 286.281 98.6017 286.822C99.1337 287.354 99.8243 287.62 100.674 287.62C101.122 287.62 101.556 287.522 101.976 287.326C102.396 287.121 102.75 286.845 103.04 286.5V289.79C101.976 290.117 101.168 290.28 100.618 290.28C99.115 290.28 97.7943 289.762 96.6557 288.726C95.5263 287.709 94.9617 286.379 94.9617 284.736C94.9617 283.224 95.4797 281.936 96.5157 280.872C97.0383 280.34 97.6543 279.925 98.3637 279.626C99.073 279.318 99.7963 279.164 100.534 279.164C101.346 279.164 102.181 279.341 103.04 279.696ZM111.204 288.166H107.424L106.696 290H103.784L107.844 279.444H110.84L114.816 290H111.89L111.204 288.166ZM110.462 286.066L109.342 282.706H109.314L108.18 286.066H110.462ZM120.181 281.768H115.771V279.444H124.437L118.375 290H115.365L120.181 281.768Z" fill="black"/>
<circle cx="213" cy="219" r="43.5" stroke="black" stroke-width="3"/>
<path d="M201.96 211.92L205.6 221.08L209.26 211.92H213.52L207.08 227H204.04L197.7 211.92H201.96ZM220.835 227H216.375L220.675 221.92L220.635 221.88C219.942 222.187 219.235 222.34 218.515 222.34C217.088 222.34 215.922 221.82 215.015 220.78C214.122 219.727 213.675 218.473 213.675 217.02C213.675 215.247 214.302 213.853 215.555 212.84C216.808 211.827 218.342 211.32 220.155 211.32C221.955 211.32 223.388 211.753 224.455 212.62C225.068 213.113 225.555 213.733 225.915 214.48C226.288 215.227 226.475 215.993 226.475 216.78C226.475 218.647 225.668 220.647 224.055 222.78L220.835 227ZM220.175 214.42C219.495 214.42 218.922 214.66 218.455 215.14C217.988 215.62 217.755 216.207 217.755 216.9C217.755 217.593 217.988 218.18 218.455 218.66C218.922 219.14 219.495 219.38 220.175 219.38C220.868 219.38 221.455 219.14 221.935 218.66C222.428 218.18 222.675 217.593 222.675 216.9C222.675 216.207 222.428 215.62 221.935 215.14C221.455 214.66 220.868 214.42 220.175 214.42Z" fill="black"/>
<path d="M197.284 280.444H200.392L197.396 284.014L197.424 284.042C197.909 283.827 198.399 283.72 198.894 283.72C199.893 283.72 200.705 284.089 201.33 284.826C201.965 285.554 202.282 286.422 202.282 287.43C202.282 288.671 201.843 289.647 200.966 290.356C200.089 291.065 199.015 291.42 197.746 291.42C196.505 291.42 195.501 291.117 194.736 290.51C194.307 290.155 193.961 289.721 193.7 289.208C193.448 288.685 193.322 288.153 193.322 287.612C193.322 286.287 193.887 284.887 195.016 283.412L197.284 280.444ZM196.5 288.76C196.845 289.096 197.256 289.264 197.732 289.264C198.208 289.264 198.609 289.096 198.936 288.76C199.263 288.415 199.426 287.999 199.426 287.514C199.426 287.038 199.263 286.632 198.936 286.296C198.609 285.96 198.208 285.792 197.732 285.792C197.256 285.792 196.845 285.96 196.5 286.296C196.164 286.632 195.996 287.038 195.996 287.514C195.996 287.999 196.164 288.415 196.5 288.76ZM211.04 280.696V283.986C210.76 283.613 210.405 283.328 209.976 283.132C209.556 282.927 209.108 282.824 208.632 282.824C207.801 282.824 207.124 283.104 206.602 283.664C206.079 284.224 205.818 284.919 205.818 285.75C205.818 286.59 206.079 287.281 206.602 287.822C207.134 288.354 207.824 288.62 208.674 288.62C209.122 288.62 209.556 288.522 209.976 288.326C210.396 288.121 210.75 287.845 211.04 287.5V290.79C209.976 291.117 209.168 291.28 208.618 291.28C207.115 291.28 205.794 290.762 204.656 289.726C203.526 288.709 202.962 287.379 202.962 285.736C202.962 284.224 203.48 282.936 204.516 281.872C205.038 281.34 205.654 280.925 206.364 280.626C207.073 280.318 207.796 280.164 208.534 280.164C209.346 280.164 210.181 280.341 211.04 280.696ZM219.204 289.166H215.424L214.696 291H211.784L215.844 280.444H218.84L222.816 291H219.89L219.204 289.166ZM218.462 287.066L217.342 283.706H217.314L216.18 287.066H218.462ZM228.181 282.768H223.771V280.444H232.437L226.375 291H223.365L228.181 282.768Z" fill="black"/>
<circle cx="321" cy="219" r="43.5" stroke="black" stroke-width="3"/>
<path d="M309.96 211.92L313.6 221.08L317.26 211.92H321.52L315.08 227H312.04L305.7 211.92H309.96ZM328.935 215.24H322.635V211.92H335.015L326.355 227H322.055L328.935 215.24Z" fill="black"/>
<path d="M305.284 280.444H308.392L305.396 284.014L305.424 284.042C305.909 283.827 306.399 283.72 306.894 283.72C307.893 283.72 308.705 284.089 309.33 284.826C309.965 285.554 310.282 286.422 310.282 287.43C310.282 288.671 309.843 289.647 308.966 290.356C308.089 291.065 307.015 291.42 305.746 291.42C304.505 291.42 303.501 291.117 302.736 290.51C302.307 290.155 301.961 289.721 301.7 289.208C301.448 288.685 301.322 288.153 301.322 287.612C301.322 286.287 301.887 284.887 303.016 283.412L305.284 280.444ZM304.5 288.76C304.845 289.096 305.256 289.264 305.732 289.264C306.208 289.264 306.609 289.096 306.936 288.76C307.263 288.415 307.426 287.999 307.426 287.514C307.426 287.038 307.263 286.632 306.936 286.296C306.609 285.96 306.208 285.792 305.732 285.792C305.256 285.792 304.845 285.96 304.5 286.296C304.164 286.632 303.996 287.038 303.996 287.514C303.996 287.999 304.164 288.415 304.5 288.76ZM319.04 280.696V283.986C318.76 283.613 318.405 283.328 317.976 283.132C317.556 282.927 317.108 282.824 316.632 282.824C315.801 282.824 315.124 283.104 314.602 283.664C314.079 284.224 313.818 284.919 313.818 285.75C313.818 286.59 314.079 287.281 314.602 287.822C315.134 288.354 315.824 288.62 316.674 288.62C317.122 288.62 317.556 288.522 317.976 288.326C318.396 288.121 318.75 287.845 319.04 287.5V290.79C317.976 291.117 317.168 291.28 316.618 291.28C315.115 291.28 313.794 290.762 312.656 289.726C311.526 288.709 310.962 287.379 310.962 285.736C310.962 284.224 311.48 282.936 312.516 281.872C313.038 281.34 313.654 280.925 314.364 280.626C315.073 280.318 315.796 280.164 316.534 280.164C317.346 280.164 318.181 280.341 319.04 280.696ZM327.204 289.166H323.424L322.696 291H319.784L323.844 280.444H326.84L330.816 291H327.89L327.204 289.166ZM326.462 287.066L325.342 283.706H325.314L324.18 287.066H326.462ZM336.181 282.768H331.771V280.444H340.437L334.375 291H331.365L336.181 282.768Z" fill="black"/>
<circle cx="429" cy="219" r="43.5" stroke="black" stroke-width="3"/>
<path d="M417.96 211.92L421.6 221.08L425.26 211.92H429.52L423.08 227H420.04L413.7 211.92H417.96ZM437.235 214.54C436.915 214.207 436.528 214.04 436.075 214.04C435.622 214.04 435.228 214.207 434.895 214.54C434.575 214.873 434.415 215.273 434.415 215.74C434.415 216.207 434.575 216.607 434.895 216.94C435.228 217.273 435.622 217.44 436.075 217.44C436.528 217.44 436.915 217.273 437.235 216.94C437.568 216.607 437.735 216.207 437.735 215.74C437.735 215.273 437.568 214.873 437.235 214.54ZM437.335 221.22C436.988 220.847 436.568 220.66 436.075 220.66C435.582 220.66 435.155 220.847 434.795 221.22C434.448 221.58 434.275 222.02 434.275 222.54C434.275 223.047 434.448 223.48 434.795 223.84C435.155 224.2 435.582 224.38 436.075 224.38C436.568 224.38 436.988 224.2 437.335 223.84C437.695 223.48 437.875 223.047 437.875 222.54C437.875 222.02 437.695 221.58 437.335 221.22ZM432.455 212.46C433.468 211.7 434.675 211.32 436.075 211.32C437.475 211.32 438.682 211.7 439.695 212.46C440.708 213.207 441.215 214.26 441.215 215.62C441.215 216.407 440.988 217.12 440.535 217.76C440.095 218.387 439.528 218.813 438.835 219.04V219.08C439.755 219.387 440.482 219.887 441.015 220.58C441.562 221.26 441.835 222.08 441.835 223.04C441.835 224.027 441.528 224.88 440.915 225.6C440.302 226.307 439.568 226.813 438.715 227.12C437.875 227.44 436.995 227.6 436.075 227.6C435.155 227.6 434.268 227.44 433.415 227.12C432.575 226.813 431.848 226.307 431.235 225.6C430.622 224.88 430.315 224.027 430.315 223.04C430.315 222.08 430.582 221.26 431.115 220.58C431.662 219.887 432.395 219.387 433.315 219.08V219.04C432.622 218.813 432.048 218.387 431.595 217.76C431.155 217.12 430.935 216.407 430.935 215.62C430.935 214.26 431.442 213.207 432.455 212.46Z" fill="black"/>
<path d="M413.284 280.444H416.392L413.396 284.014L413.424 284.042C413.909 283.827 414.399 283.72 414.894 283.72C415.893 283.72 416.705 284.089 417.33 284.826C417.965 285.554 418.282 286.422 418.282 287.43C418.282 288.671 417.843 289.647 416.966 290.356C416.089 291.065 415.015 291.42 413.746 291.42C412.505 291.42 411.501 291.117 410.736 290.51C410.307 290.155 409.961 289.721 409.7 289.208C409.448 288.685 409.322 288.153 409.322 287.612C409.322 286.287 409.887 284.887 411.016 283.412L413.284 280.444ZM412.5 288.76C412.845 289.096 413.256 289.264 413.732 289.264C414.208 289.264 414.609 289.096 414.936 288.76C415.263 288.415 415.426 287.999 415.426 287.514C415.426 287.038 415.263 286.632 414.936 286.296C414.609 285.96 414.208 285.792 413.732 285.792C413.256 285.792 412.845 285.96 412.5 286.296C412.164 286.632 411.996 287.038 411.996 287.514C411.996 287.999 412.164 288.415 412.5 288.76ZM427.04 280.696V283.986C426.76 283.613 426.405 283.328 425.976 283.132C425.556 282.927 425.108 282.824 424.632 282.824C423.801 282.824 423.124 283.104 422.602 283.664C422.079 284.224 421.818 284.919 421.818 285.75C421.818 286.59 422.079 287.281 422.602 287.822C423.134 288.354 423.824 288.62 424.674 288.62C425.122 288.62 425.556 288.522 425.976 288.326C426.396 288.121 426.75 287.845 427.04 287.5V290.79C425.976 291.117 425.168 291.28 424.618 291.28C423.115 291.28 421.794 290.762 420.656 289.726C419.526 288.709 418.962 287.379 418.962 285.736C418.962 284.224 419.48 282.936 420.516 281.872C421.038 281.34 421.654 280.925 422.364 280.626C423.073 280.318 423.796 280.164 424.534 280.164C425.346 280.164 426.181 280.341 427.04 280.696ZM435.204 289.166H431.424L430.696 291H427.784L431.844 280.444H434.84L438.816 291H435.89L435.204 289.166ZM434.462 287.066L433.342 283.706H433.314L432.18 287.066H434.462ZM444.181 282.768H439.771V280.444H448.437L442.375 291H439.365L444.181 282.768Z" fill="black"/>
<circle cx="709.5" cy="230.5" r="31" stroke="black" stroke-width="3"/>
<path d="M682.766 281.768H681.254V279.444H685.51V290H682.766V281.768ZM694.086 287.676H697.544V290H689.06L693.372 285.31C694.174 284.433 694.576 283.569 694.576 282.72C694.576 282.365 694.459 282.048 694.226 281.768C694.002 281.488 693.717 281.348 693.372 281.348C693.017 281.348 692.737 281.469 692.532 281.712C692.326 281.955 692.224 282.263 692.224 282.636C692.224 282.785 692.238 282.935 692.266 283.084H689.242C689.288 281.861 689.676 280.881 690.404 280.144C691.141 279.397 692.126 279.024 693.358 279.024C694.496 279.024 695.458 279.369 696.242 280.06C697.035 280.751 697.432 281.656 697.432 282.776C697.432 283.485 697.292 284.092 697.012 284.596C696.741 285.1 696.312 285.618 695.724 286.15L694.086 287.676ZM705.559 288.166H701.779L701.051 290H698.139L702.199 279.444H705.195L709.171 290H706.245L705.559 288.166ZM704.817 286.066L703.697 282.706H703.669L702.535 286.066H704.817ZM713.151 284.358L709.777 279.444H713.151L714.761 282.174L716.371 279.444H719.745L716.371 284.358L720.277 290H716.973L714.761 286.556L712.339 290H709.021L713.151 284.358ZM725.584 281.768H721.174V279.444H729.84L723.778 290H720.768L725.584 281.768ZM737.141 288.166H733.361L732.633 290H729.721L733.781 279.444H736.777L740.753 290H737.827L737.141 288.166ZM736.399 286.066L735.279 282.706H735.251L734.117 286.066H736.399Z" fill="black"/>
<path d="M698.96 222.92L702.6 232.08L706.26 222.92H710.52L704.08 238H701.04L694.7 222.92H698.96ZM721.495 231.88H723.315V234.88H721.495V238H717.855V234.88H710.535V232.38L716.355 222.92H721.495V231.88ZM717.855 231.88V226.08H717.815L714.295 231.88H717.855Z" fill="black"/>
<circle cx="709.5" cy="86.5" r="31" stroke="black" stroke-width="3"/>
<path d="M682.766 137.768H681.254V135.444H685.51V146H682.766V137.768ZM694.086 143.676H697.544V146H689.06L693.372 141.31C694.174 140.433 694.576 139.569 694.576 138.72C694.576 138.365 694.459 138.048 694.226 137.768C694.002 137.488 693.717 137.348 693.372 137.348C693.017 137.348 692.737 137.469 692.532 137.712C692.326 137.955 692.224 138.263 692.224 138.636C692.224 138.785 692.238 138.935 692.266 139.084H689.242C689.288 137.861 689.676 136.881 690.404 136.144C691.141 135.397 692.126 135.024 693.358 135.024C694.496 135.024 695.458 135.369 696.242 136.06C697.035 136.751 697.432 137.656 697.432 138.776C697.432 139.485 697.292 140.092 697.012 140.596C696.741 141.1 696.312 141.618 695.724 142.15L694.086 143.676ZM705.559 144.166H701.779L701.051 146H698.139L702.199 135.444H705.195L709.171 146H706.245L705.559 144.166ZM704.817 142.066L703.697 138.706H703.669L702.535 142.066H704.817ZM713.151 140.358L709.777 135.444H713.151L714.761 138.174L716.371 135.444H719.745L716.371 140.358L720.277 146H716.973L714.761 142.556L712.339 146H709.021L713.151 140.358ZM725.584 137.768H721.174V135.444H729.84L723.778 146H720.768L725.584 137.768ZM737.141 144.166H733.361L732.633 146H729.721L733.781 135.444H736.777L740.753 146H737.827L737.141 144.166ZM736.399 142.066L735.279 138.706H735.251L734.117 142.066H736.399Z" fill="black"/>
<path d="M698.96 78.92L702.6 88.08L706.26 78.92H710.52L704.08 94H701.04L694.7 78.92H698.96ZM715.595 82.24H713.435V78.92H719.515V94H715.595V82.24Z" fill="black"/>
<circle cx="524.5" cy="231.5" r="31" stroke="black" stroke-width="3"/>
<path d="M497.766 282.768H496.254V280.444H500.51V291H497.766V282.768ZM509.086 288.676H512.544V291H504.06L508.372 286.31C509.174 285.433 509.576 284.569 509.576 283.72C509.576 283.365 509.459 283.048 509.226 282.768C509.002 282.488 508.717 282.348 508.372 282.348C508.017 282.348 507.737 282.469 507.532 282.712C507.326 282.955 507.224 283.263 507.224 283.636C507.224 283.785 507.238 283.935 507.266 284.084H504.242C504.288 282.861 504.676 281.881 505.404 281.144C506.141 280.397 507.126 280.024 508.358 280.024C509.496 280.024 510.458 280.369 511.242 281.06C512.035 281.751 512.432 282.656 512.432 283.776C512.432 284.485 512.292 285.092 512.012 285.596C511.741 286.1 511.312 286.618 510.724 287.15L509.086 288.676ZM520.559 289.166H516.779L516.051 291H513.139L517.199 280.444H520.195L524.171 291H521.245L520.559 289.166ZM519.817 287.066L518.697 283.706H518.669L517.535 287.066H519.817ZM528.151 285.358L524.777 280.444H528.151L529.761 283.174L531.371 280.444H534.745L531.371 285.358L535.277 291H531.973L529.761 287.556L527.339 291H524.021L528.151 285.358ZM540.584 282.768H536.174V280.444H544.84L538.778 291H535.768L540.584 282.768ZM552.141 289.166H548.361L547.633 291H544.721L548.781 280.444H551.777L555.753 291H552.827L552.141 289.166ZM551.399 287.066L550.279 283.706H550.251L549.117 287.066H551.399Z" fill="black"/>
<path d="M513.96 223.92L517.6 233.08L521.26 223.92H525.52L519.08 239H516.04L509.7 223.92H513.96ZM531.335 223.92H535.775L531.495 229.02L531.535 229.06C532.228 228.753 532.928 228.6 533.635 228.6C535.062 228.6 536.222 229.127 537.115 230.18C538.022 231.22 538.475 232.46 538.475 233.9C538.475 235.673 537.848 237.067 536.595 238.08C535.342 239.093 533.808 239.6 531.995 239.6C530.222 239.6 528.788 239.167 527.695 238.3C527.082 237.793 526.588 237.173 526.215 236.44C525.855 235.693 525.675 234.933 525.675 234.16C525.675 232.267 526.482 230.267 528.095 228.16L531.335 223.92ZM530.215 235.8C530.708 236.28 531.295 236.52 531.975 236.52C532.655 236.52 533.228 236.28 533.695 235.8C534.162 235.307 534.395 234.713 534.395 234.02C534.395 233.34 534.162 232.76 533.695 232.28C533.228 231.8 532.655 231.56 531.975 231.56C531.295 231.56 530.708 231.8 530.215 232.28C529.735 232.76 529.495 233.34 529.495 234.02C529.495 234.713 529.735 235.307 530.215 235.8Z" fill="black"/>
<circle cx="428.5" cy="86.5" r="31" stroke="black" stroke-width="3"/>
<path d="M401.766 137.768H400.254V135.444H404.51V146H401.766V137.768ZM413.086 143.676H416.544V146H408.06L412.372 141.31C413.174 140.433 413.576 139.569 413.576 138.72C413.576 138.365 413.459 138.048 413.226 137.768C413.002 137.488 412.717 137.348 412.372 137.348C412.017 137.348 411.737 137.469 411.532 137.712C411.326 137.955 411.224 138.263 411.224 138.636C411.224 138.785 411.238 138.935 411.266 139.084H408.242C408.288 137.861 408.676 136.881 409.404 136.144C410.141 135.397 411.126 135.024 412.358 135.024C413.496 135.024 414.458 135.369 415.242 136.06C416.035 136.751 416.432 137.656 416.432 138.776C416.432 139.485 416.292 140.092 416.012 140.596C415.741 141.1 415.312 141.618 414.724 142.15L413.086 143.676ZM424.559 144.166H420.779L420.051 146H417.139L421.199 135.444H424.195L428.171 146H425.245L424.559 144.166ZM423.817 142.066L422.697 138.706H422.669L421.535 142.066H423.817ZM432.151 140.358L428.777 135.444H432.151L433.761 138.174L435.371 135.444H438.745L435.371 140.358L439.277 146H435.973L433.761 142.556L431.339 146H428.021L432.151 140.358ZM444.584 137.768H440.174V135.444H448.84L442.778 146H439.768L444.584 137.768ZM456.141 144.166H452.361L451.633 146H448.721L452.781 135.444H455.777L459.753 146H456.827L456.141 144.166ZM455.399 142.066L454.279 138.706H454.251L453.117 142.066H455.399Z" fill="black"/>
<path d="M417.96 78.92L421.6 88.08L425.26 78.92H429.52L423.08 94H420.04L413.7 78.92H417.96ZM437.055 90.68H441.995V94H429.875L436.035 87.3C437.182 86.0467 437.755 84.8133 437.755 83.6C437.755 83.0933 437.588 82.64 437.255 82.24C436.935 81.84 436.528 81.64 436.035 81.64C435.528 81.64 435.128 81.8133 434.835 82.16C434.542 82.5067 434.395 82.9467 434.395 83.48C434.395 83.6933 434.415 83.9067 434.455 84.12H430.135C430.202 82.3733 430.755 80.9733 431.795 79.92C432.848 78.8533 434.255 78.32 436.015 78.32C437.642 78.32 439.015 78.8133 440.135 79.8C441.268 80.7867 441.835 82.08 441.835 83.68C441.835 84.6933 441.635 85.56 441.235 86.28C440.848 87 440.235 87.74 439.395 88.5L437.055 90.68Z" fill="black"/>
<circle cx="104.5" cy="86.5" r="31" stroke="black" stroke-width="3"/>
<path d="M77.766 137.768H76.254V135.444H80.51V146H77.766V137.768ZM89.0857 143.676H92.5437V146H84.0597L88.3717 141.31C89.1743 140.433 89.5757 139.569 89.5757 138.72C89.5757 138.365 89.459 138.048 89.2257 137.768C89.0017 137.488 88.717 137.348 88.3717 137.348C88.017 137.348 87.737 137.469 87.5317 137.712C87.3263 137.955 87.2237 138.263 87.2237 138.636C87.2237 138.785 87.2377 138.935 87.2657 139.084H84.2417C84.2883 137.861 84.6757 136.881 85.4037 136.144C86.141 135.397 87.1257 135.024 88.3577 135.024C89.4963 135.024 90.4577 135.369 91.2417 136.06C92.035 136.751 92.4317 137.656 92.4317 138.776C92.4317 139.485 92.2917 140.092 92.0117 140.596C91.741 141.1 91.3117 141.618 90.7237 142.15L89.0857 143.676ZM100.559 144.166H96.7793L96.0513 146H93.1393L97.1993 135.444H100.195L104.171 146H101.245L100.559 144.166ZM99.8173 142.066L98.6973 138.706H98.6693L97.5353 142.066H99.8173ZM108.151 140.358L104.777 135.444H108.151L109.761 138.174L111.371 135.444H114.745L111.371 140.358L115.277 146H111.973L109.761 142.556L107.339 146H104.021L108.151 140.358ZM120.584 137.768H116.174V135.444H124.84L118.778 146H115.768L120.584 137.768ZM132.141 144.166H128.361L127.633 146H124.721L128.781 135.444H131.777L135.753 146H132.827L132.141 144.166ZM131.399 142.066L130.279 138.706H130.251L129.117 142.066H131.399Z" fill="black"/>
<path d="M93.96 78.92L97.6 88.08L101.26 78.92H105.52L99.08 94H96.04L89.7 78.92H93.96ZM110.315 83.26H106.675C106.822 81.7533 107.408 80.54 108.435 79.62C109.408 78.7533 110.688 78.32 112.275 78.32C113.675 78.32 114.828 78.7067 115.735 79.48C116.642 80.2533 117.095 81.3267 117.095 82.7C117.095 83.34 116.962 83.9467 116.695 84.52C116.428 85.08 116.035 85.5067 115.515 85.8C116.275 86 116.875 86.48 117.315 87.24C117.755 87.9867 117.975 88.7733 117.975 89.6C117.975 90.6533 117.688 91.5667 117.115 92.34C116.555 93.1133 115.835 93.68 114.955 94.04C114.088 94.4133 113.142 94.6 112.115 94.6C110.235 94.6 108.735 94.0333 107.615 92.9C107.135 92.4067 106.722 91.8067 106.375 91.1C106.042 90.3933 105.882 89.7267 105.895 89.1H109.895C109.895 89.7133 110.088 90.2267 110.475 90.64C110.875 91.04 111.382 91.24 111.995 91.24C112.608 91.24 113.108 91.0533 113.495 90.68C113.895 90.3067 114.095 89.82 114.095 89.22C114.095 88.66 113.888 88.1867 113.475 87.8C113.062 87.4 112.575 87.2 112.015 87.2C111.855 87.2 111.628 87.24 111.335 87.32V84.7H111.735C112.242 84.7 112.655 84.5533 112.975 84.26C113.295 83.9533 113.455 83.5467 113.455 83.04C113.455 82.5867 113.308 82.22 113.015 81.94C112.722 81.66 112.355 81.52 111.915 81.52C111.422 81.52 111.028 81.6867 110.735 82.02C110.442 82.34 110.302 82.7533 110.315 83.26Z" fill="black"/>
<circle cx="616.5" cy="230.5" r="31" stroke="black" stroke-width="3"/>
<path d="M579.284 279.444H582.392L579.396 283.014L579.424 283.042C579.909 282.827 580.399 282.72 580.894 282.72C581.893 282.72 582.705 283.089 583.33 283.826C583.965 284.554 584.282 285.422 584.282 286.43C584.282 287.671 583.843 288.647 582.966 289.356C582.089 290.065 581.015 290.42 579.746 290.42C578.505 290.42 577.501 290.117 576.736 289.51C576.307 289.155 575.961 288.721 575.7 288.208C575.448 287.685 575.322 287.153 575.322 286.612C575.322 285.287 575.887 283.887 577.016 282.412L579.284 279.444ZM578.5 287.76C578.845 288.096 579.256 288.264 579.732 288.264C580.208 288.264 580.609 288.096 580.936 287.76C581.263 287.415 581.426 286.999 581.426 286.514C581.426 286.038 581.263 285.632 580.936 285.296C580.609 284.96 580.208 284.792 579.732 284.792C579.256 284.792 578.845 284.96 578.5 285.296C578.164 285.632 577.996 286.038 577.996 286.514C577.996 286.999 578.164 287.415 578.5 287.76ZM588.238 285.632V287.9H588.588C588.812 287.9 588.961 287.9 589.036 287.9C589.12 287.9 589.274 287.891 589.498 287.872C589.722 287.853 589.885 287.821 589.988 287.774C590.1 287.727 590.226 287.667 590.366 287.592C590.515 287.508 590.618 287.401 590.674 287.27C590.739 287.13 590.772 286.967 590.772 286.78C590.772 286.64 590.758 286.514 590.73 286.402C590.702 286.29 590.65 286.197 590.576 286.122C590.51 286.047 590.45 285.982 590.394 285.926C590.338 285.861 590.244 285.814 590.114 285.786C589.992 285.749 589.899 285.721 589.834 285.702C589.768 285.674 589.652 285.655 589.484 285.646C589.325 285.637 589.218 285.632 589.162 285.632C589.115 285.632 589.003 285.632 588.826 285.632C588.648 285.632 588.546 285.632 588.518 285.632H588.238ZM589.722 290H585.494V279.444H589.414C591.504 279.444 592.55 280.359 592.55 282.188C592.55 283.233 592.162 283.952 591.388 284.344V284.372C592.825 284.559 593.544 285.455 593.544 287.06C593.544 287.592 593.436 288.054 593.222 288.446C593.007 288.838 592.713 289.146 592.34 289.37C591.976 289.585 591.574 289.743 591.136 289.846C590.706 289.949 590.235 290 589.722 290ZM588.238 281.544V283.588H588.546C588.994 283.588 589.353 283.518 589.624 283.378C589.894 283.238 590.03 282.967 590.03 282.566C590.03 282.333 589.983 282.146 589.89 282.006C589.806 281.857 589.675 281.754 589.498 281.698C589.32 281.633 589.157 281.591 589.008 281.572C588.858 281.553 588.667 281.544 588.434 281.544H588.238ZM602.024 285.548L602.766 286.318C603.093 285.861 603.256 285.343 603.256 284.764C603.256 283.961 602.962 283.261 602.374 282.664C601.796 282.057 601.1 281.754 600.288 281.754C599.476 281.754 598.772 282.034 598.174 282.594C597.586 283.154 597.292 283.803 597.292 284.54C597.292 285.436 597.582 286.187 598.16 286.794C598.748 287.391 599.458 287.69 600.288 287.69C600.578 287.69 600.858 287.643 601.128 287.55L599.434 285.87L602.024 285.548ZM606.532 290.266L604.012 290.658L603.172 289.664C602.416 290.121 601.45 290.35 600.274 290.35C598.576 290.35 597.176 289.809 596.074 288.726C594.982 287.634 594.436 286.234 594.436 284.526C594.436 283.49 594.712 282.552 595.262 281.712C595.813 280.872 596.532 280.228 597.418 279.78C598.305 279.323 599.257 279.094 600.274 279.094C601.945 279.094 603.336 279.617 604.446 280.662C605.557 281.698 606.112 283.061 606.112 284.75C606.112 286.103 605.66 287.34 604.754 288.46L606.532 290.266ZM614.396 281.768H610.742L610.56 282.972L611.428 282.902C612.492 282.818 613.379 283.149 614.088 283.896C614.807 284.643 615.166 285.571 615.166 286.682C615.166 287.839 614.714 288.791 613.808 289.538C613.071 290.126 612.044 290.42 610.728 290.42C609.422 290.42 608.274 290.103 607.284 289.468L607.69 286.878C608.596 287.69 609.576 288.096 610.63 288.096C611.078 288.096 611.47 287.951 611.806 287.662C612.142 287.363 612.31 286.99 612.31 286.542C612.31 285.954 612.077 285.506 611.61 285.198C611.153 284.89 610.616 284.736 610 284.736C609.272 284.736 608.6 284.881 607.984 285.17L608.908 279.444H614.396V281.768ZM621.865 278.38H623.867L618.519 291.302H616.517L621.865 278.38ZM631.148 281.768H627.886V283.532H630.98V285.856H627.886V287.676H631.148V290H625.142V279.444H631.148V281.768ZM635.583 279.444V287.676H638.873V290H632.839V279.444H635.583ZM644.489 281.278C644.265 281.045 643.994 280.928 643.677 280.928C643.36 280.928 643.084 281.045 642.851 281.278C642.627 281.511 642.515 281.791 642.515 282.118C642.515 282.445 642.627 282.725 642.851 282.958C643.084 283.191 643.36 283.308 643.677 283.308C643.994 283.308 644.265 283.191 644.489 282.958C644.722 282.725 644.839 282.445 644.839 282.118C644.839 281.791 644.722 281.511 644.489 281.278ZM644.559 285.954C644.316 285.693 644.022 285.562 643.677 285.562C643.332 285.562 643.033 285.693 642.781 285.954C642.538 286.206 642.417 286.514 642.417 286.878C642.417 287.233 642.538 287.536 642.781 287.788C643.033 288.04 643.332 288.166 643.677 288.166C644.022 288.166 644.316 288.04 644.559 287.788C644.811 287.536 644.937 287.233 644.937 286.878C644.937 286.514 644.811 286.206 644.559 285.954ZM641.143 279.822C641.852 279.29 642.697 279.024 643.677 279.024C644.657 279.024 645.502 279.29 646.211 279.822C646.92 280.345 647.275 281.082 647.275 282.034C647.275 282.585 647.116 283.084 646.799 283.532C646.491 283.971 646.094 284.269 645.609 284.428V284.456C646.253 284.671 646.762 285.021 647.135 285.506C647.518 285.982 647.709 286.556 647.709 287.228C647.709 287.919 647.494 288.516 647.065 289.02C646.636 289.515 646.122 289.869 645.525 290.084C644.937 290.308 644.321 290.42 643.677 290.42C643.033 290.42 642.412 290.308 641.815 290.084C641.227 289.869 640.718 289.515 640.289 289.02C639.86 288.516 639.645 287.919 639.645 287.228C639.645 286.556 639.832 285.982 640.205 285.506C640.588 285.021 641.101 284.671 641.745 284.456V284.428C641.26 284.269 640.858 283.971 640.541 283.532C640.233 283.084 640.079 282.585 640.079 282.034C640.079 281.082 640.434 280.345 641.143 279.822ZM656.369 285.716H657.643V287.816H656.369V290H653.821V287.816H648.697V286.066L652.771 279.444H656.369V285.716ZM653.821 285.716V281.656H653.793L651.329 285.716H653.821Z" fill="black"/>
<path d="M605.96 222.92L609.6 232.08L613.26 222.92H617.52L611.08 238H608.04L601.7 222.92H605.96ZM628.515 226.24H623.295L623.035 227.96L624.275 227.86C625.795 227.74 627.062 228.213 628.075 229.28C629.102 230.347 629.615 231.673 629.615 233.26C629.615 234.913 628.968 236.273 627.675 237.34C626.622 238.18 625.155 238.6 623.275 238.6C621.408 238.6 619.768 238.147 618.355 237.24L618.935 233.54C620.228 234.7 621.628 235.28 623.135 235.28C623.775 235.28 624.335 235.073 624.815 234.66C625.295 234.233 625.535 233.7 625.535 233.06C625.535 232.22 625.202 231.58 624.535 231.14C623.882 230.7 623.115 230.48 622.235 230.48C621.195 230.48 620.235 230.687 619.355 231.1L620.675 222.92H628.515V226.24Z" fill="black"/>
<rect x="38" y="36" width="722" height="273" rx="9" stroke="black" stroke-width="2"/>
<path d="M200.319 119.6H197.479V130H194.019V119.6H191.179V116.66H200.319V119.6ZM203.853 116.66H207.313V124.56C207.313 125.12 207.333 125.98 207.993 126.62C208.393 127 209.033 127.26 209.633 127.26C210.233 127.26 210.853 127.02 211.233 126.68C212.033 125.98 212.013 125 212.013 124.26V116.66H215.473V124.32C215.473 125.72 215.413 127.18 213.973 128.64C212.853 129.78 211.453 130.3 209.573 130.3C207.473 130.3 205.973 129.58 205.153 128.7C203.993 127.44 203.853 125.74 203.853 124.32V116.66ZM225.827 130H220.267V116.66H225.427C226.387 116.66 227.527 116.8 228.347 117.7C228.807 118.2 229.167 119.02 229.167 120.2C229.167 120.78 229.067 121.28 228.787 121.84C228.507 122.36 228.207 122.66 227.707 122.88C228.407 122.96 229.107 123.28 229.527 123.68C230.067 124.2 230.427 125.06 230.427 126.12C230.427 127.38 229.947 128.24 229.447 128.74C228.727 129.48 227.467 130 225.827 130ZM223.727 119.32V121.92H224.367C224.727 121.92 225.327 121.88 225.687 121.5C225.907 121.28 226.007 120.92 226.007 120.62C226.007 120.28 225.887 119.94 225.687 119.72C225.467 119.5 225.047 119.32 224.367 119.32H223.727ZM223.727 124.5V127.3H224.507C225.467 127.3 226.267 127.2 226.647 126.76C226.807 126.58 226.927 126.28 226.927 125.9C226.927 125.48 226.787 125.14 226.587 124.94C226.167 124.52 225.307 124.5 224.447 124.5H223.727ZM242.21 116.66V119.6H238.09V121.82H241.99V124.76H238.09V127.06H242.21V130H234.63V116.66H242.21ZM253.084 116.66H256.544V127.06H260.704V130H253.084V116.66ZM273.438 130L272.618 127.76H267.778L266.878 130H263.218L268.338 116.66H272.118L277.138 130H273.438ZM268.738 125.12H271.698L270.198 120.8L268.738 125.12ZM282.353 130V123.6L277.533 116.66H281.673L284.193 120.3L286.613 116.66H290.813L285.833 123.6V130H282.353ZM307.325 123.34C307.325 125.1 306.645 126.96 305.225 128.32C303.865 129.62 301.945 130.3 299.965 130.3C297.985 130.3 296.065 129.62 294.705 128.32C293.285 126.96 292.605 125.1 292.605 123.34C292.605 121.56 293.285 119.68 294.705 118.34C296.065 117.04 297.985 116.36 299.965 116.36C301.945 116.36 303.865 117.04 305.225 118.34C306.645 119.68 307.325 121.56 307.325 123.34ZM299.965 119.72C299.005 119.72 297.985 120.06 297.265 120.78C296.545 121.48 296.205 122.46 296.205 123.4C296.205 124.58 296.765 125.4 297.265 125.88C297.905 126.5 298.805 126.94 299.965 126.94C301.145 126.94 302.025 126.52 302.645 125.9C303.265 125.28 303.725 124.36 303.725 123.34C303.725 122.3 303.265 121.38 302.645 120.78C301.905 120.08 300.885 119.72 299.965 119.72ZM311.533 116.66H314.993V124.56C314.993 125.12 315.013 125.98 315.673 126.62C316.073 127 316.713 127.26 317.313 127.26C317.913 127.26 318.533 127.02 318.913 126.68C319.713 125.98 319.693 125 319.693 124.26V116.66H323.153V124.32C323.153 125.72 323.093 127.18 321.653 128.64C320.533 129.78 319.133 130.3 317.253 130.3C315.153 130.3 313.653 129.58 312.833 128.7C311.673 127.44 311.533 125.74 311.533 124.32V116.66ZM335.827 119.6H332.987V130H329.527V119.6H326.687V116.66H335.827V119.6Z" fill="black"/>
<path d="M189.402 92.568V90.312C189.402 90.08 189.426 89.932 189.474 89.868C189.522 89.796 189.658 89.76 189.882 89.76H191.514C191.754 89.76 191.902 89.724 191.958 89.652C192.014 89.58 192.042 89.42 192.042 89.172V87.444C192.042 87.116 192.014 86.884 191.958 86.748C191.902 86.604 191.814 86.444 191.694 86.268L186.57 78.792C186.434 78.584 186.318 78.44 186.222 78.36C186.134 78.28 185.91 78.24 185.55 78.24H184.278C184.03 78.24 183.882 78.2 183.834 78.12C183.786 78.04 183.762 77.876 183.762 77.628V75.84C183.762 75.464 183.83 75.232 183.966 75.144C184.102 75.048 184.342 75 184.686 75H194.214C194.518 75 194.73 75.036 194.85 75.108C194.978 75.172 195.042 75.368 195.042 75.696V77.676C195.042 77.916 195.006 78.072 194.934 78.144C194.87 78.208 194.722 78.24 194.49 78.24H193.47C193.174 78.24 192.998 78.284 192.942 78.372C192.886 78.46 192.946 78.632 193.122 78.888L195.186 81.888C195.41 82.2 195.574 82.4 195.678 82.488C195.79 82.576 195.902 82.564 196.014 82.452C196.126 82.332 196.294 82.128 196.518 81.84L198.834 78.84C199.034 78.584 199.09 78.42 199.002 78.348C198.914 78.276 198.742 78.24 198.486 78.24H197.562C197.258 78.24 197.062 78.212 196.974 78.156C196.886 78.092 196.842 77.908 196.842 77.604V75.6C196.842 75.328 196.874 75.16 196.938 75.096C197.01 75.032 197.178 75 197.442 75H204.894C205.102 75 205.25 75.02 205.338 75.06C205.434 75.1 205.482 75.236 205.482 75.468V77.916C205.482 78.068 205.446 78.16 205.374 78.192C205.31 78.224 205.198 78.24 205.038 78.24H204.246C203.894 78.24 203.666 78.28 203.562 78.36C203.466 78.432 203.342 78.56 203.19 78.744L198.162 84.972C198.01 85.172 197.89 85.34 197.802 85.476C197.722 85.612 197.682 85.868 197.682 86.244V89.196C197.682 89.42 197.706 89.572 197.754 89.652C197.802 89.724 197.938 89.76 198.162 89.76H200.07C200.302 89.76 200.442 89.8 200.49 89.88C200.538 89.952 200.562 90.108 200.562 90.348V92.532C200.562 92.716 200.538 92.84 200.49 92.904C200.45 92.968 200.338 93 200.154 93H189.786C189.626 93 189.522 92.972 189.474 92.916C189.426 92.86 189.402 92.744 189.402 92.568ZM217.319 82.68H227.543C227.815 82.68 227.983 82.716 228.047 82.788C228.119 82.852 228.155 83.024 228.155 83.304V85.488C228.155 85.688 228.119 85.812 228.047 85.86C227.983 85.9 227.847 85.92 227.639 85.92H226.199C226.015 85.92 225.895 85.944 225.839 85.992C225.783 86.032 225.755 86.144 225.755 86.328V88.992C225.755 89.264 225.731 89.444 225.683 89.532C225.635 89.62 225.543 89.732 225.407 89.868C225.031 90.228 224.559 90.616 223.991 91.032C223.423 91.448 222.771 91.844 222.035 92.22C221.299 92.588 220.487 92.888 219.599 93.12C218.711 93.36 217.763 93.48 216.755 93.48C215.267 93.48 213.899 93.26 212.651 92.82C211.411 92.38 210.335 91.748 209.423 90.924C208.511 90.1 207.803 89.104 207.299 87.936C206.803 86.768 206.555 85.456 206.555 84C206.555 82.664 206.791 81.42 207.263 80.268C207.743 79.116 208.419 78.112 209.291 77.256C210.163 76.392 211.199 75.72 212.399 75.24C213.607 74.76 214.939 74.52 216.395 74.52C217.395 74.52 218.279 74.648 219.047 74.904C219.815 75.152 220.479 75.484 221.039 75.9C221.223 76.028 221.363 76.092 221.459 76.092C221.555 76.084 221.679 75.984 221.831 75.792L222.347 75.096C222.411 75.016 222.483 74.96 222.563 74.928C222.643 74.896 222.759 74.88 222.911 74.88H224.711C224.919 74.88 225.063 74.904 225.143 74.952C225.231 74.992 225.275 75.112 225.275 75.312V80.652C225.275 80.916 225.251 81.1 225.203 81.204C225.155 81.308 224.999 81.36 224.735 81.36H222.383C222.039 81.36 221.839 81.316 221.783 81.228C221.727 81.14 221.647 80.984 221.543 80.76C221.231 80.072 220.867 79.492 220.451 79.02C220.035 78.548 219.543 78.192 218.975 77.952C218.415 77.712 217.755 77.592 216.995 77.592C216.163 77.592 215.431 77.84 214.799 78.336C214.167 78.832 213.675 79.556 213.323 80.508C212.971 81.46 212.795 82.624 212.795 84C212.795 85.376 212.951 86.548 213.263 87.516C213.575 88.476 214.015 89.212 214.583 89.724C215.159 90.228 215.843 90.48 216.635 90.48C217.347 90.48 217.911 90.38 218.327 90.18C218.751 89.98 219.079 89.72 219.311 89.4C219.551 89.08 219.747 88.744 219.899 88.392C219.971 88.224 220.023 88.068 220.055 87.924C220.095 87.772 220.115 87.568 220.115 87.312V86.472C220.115 86.24 220.091 86.092 220.043 86.028C219.995 85.956 219.855 85.92 219.623 85.92H217.175C216.903 85.92 216.743 85.86 216.695 85.74C216.655 85.612 216.635 85.424 216.635 85.176V83.28C216.635 82.992 216.679 82.82 216.767 82.764C216.863 82.708 217.047 82.68 217.319 82.68ZM233.058 78.24H231.354C231.178 78.24 231.062 78.212 231.006 78.156C230.958 78.1 230.934 77.976 230.934 77.784V75.648C230.934 75.376 230.958 75.2 231.006 75.12C231.062 75.04 231.226 75 231.498 75H241.746C241.986 75 242.142 75.032 242.214 75.096C242.294 75.16 242.334 75.32 242.334 75.576V77.664C242.334 77.928 242.29 78.092 242.202 78.156C242.114 78.212 241.946 78.24 241.698 78.24H239.802C239.57 78.24 239.414 78.264 239.334 78.312C239.254 78.352 239.214 78.488 239.214 78.72V89.088C239.214 89.368 239.242 89.552 239.298 89.64C239.354 89.72 239.522 89.76 239.802 89.76H241.254C242.15 89.76 242.91 89.632 243.534 89.376C244.158 89.12 244.642 88.668 244.986 88.02C245.33 87.364 245.522 86.44 245.562 85.248C245.578 85 245.602 84.852 245.634 84.804C245.666 84.748 245.81 84.72 246.066 84.72H247.962C248.162 84.72 248.294 84.744 248.358 84.792C248.422 84.84 248.454 84.96 248.454 85.152V92.376C248.454 92.632 248.426 92.8 248.37 92.88C248.322 92.96 248.17 93 247.914 93H231.474C231.234 93 231.082 92.968 231.018 92.904C230.962 92.832 230.934 92.672 230.934 92.424V90.192C230.934 90.032 230.954 89.92 230.994 89.856C231.034 89.792 231.13 89.76 231.282 89.76H232.938C233.202 89.76 233.374 89.724 233.454 89.652C233.534 89.572 233.574 89.396 233.574 89.124V78.84C233.574 78.592 233.546 78.432 233.49 78.36C233.442 78.28 233.298 78.24 233.058 78.24ZM253.308 82.32H260.652C260.836 82.32 260.948 82.352 260.988 82.416C261.036 82.472 261.06 82.596 261.06 82.788V84.588C261.06 84.796 261.04 84.932 261 84.996C260.96 85.052 260.836 85.08 260.628 85.08H253.404C253.188 85.08 253.048 85.052 252.984 84.996C252.928 84.94 252.9 84.808 252.9 84.6V82.812C252.9 82.62 252.92 82.492 252.96 82.428C253 82.356 253.116 82.32 253.308 82.32ZM265.259 88.824C265.259 88.008 265.511 87.32 266.015 86.76C266.527 86.2 267.227 85.92 268.115 85.92C268.923 85.92 269.531 86.112 269.939 86.496C270.355 86.872 270.563 87.344 270.563 87.912C270.563 88.304 270.487 88.612 270.335 88.836C270.183 89.06 270.007 89.236 269.807 89.364C269.615 89.492 269.443 89.604 269.291 89.7C269.139 89.796 269.063 89.912 269.063 90.048C269.063 90.264 269.171 90.444 269.387 90.588C269.611 90.732 269.883 90.844 270.203 90.924C270.531 90.996 270.851 91.032 271.163 91.032C271.755 91.032 272.291 90.952 272.771 90.792C273.259 90.624 273.643 90.32 273.923 89.88C274.211 89.432 274.355 88.792 274.355 87.96C274.355 87.416 274.235 86.932 273.995 86.508C273.755 86.076 273.395 85.724 272.915 85.452C272.435 85.18 271.827 85.016 271.091 84.96C270.939 84.944 270.815 84.94 270.719 84.948C270.631 84.948 270.567 84.92 270.527 84.864C270.487 84.808 270.467 84.692 270.467 84.516V82.944C270.467 82.784 270.479 82.68 270.503 82.632C270.535 82.584 270.587 82.56 270.659 82.56C270.739 82.552 270.847 82.544 270.983 82.536C271.535 82.496 271.995 82.388 272.363 82.212C272.739 82.036 273.035 81.804 273.251 81.516C273.475 81.228 273.635 80.896 273.731 80.52C273.827 80.144 273.875 79.736 273.875 79.296C273.875 78.408 273.615 77.78 273.095 77.412C272.575 77.036 271.931 76.848 271.163 76.848C270.819 76.848 270.483 76.896 270.155 76.992C269.835 77.088 269.675 77.24 269.675 77.448C269.675 77.584 269.755 77.696 269.915 77.784C270.075 77.864 270.263 77.964 270.479 78.084C270.695 78.204 270.883 78.38 271.043 78.612C271.203 78.836 271.283 79.16 271.283 79.584C271.283 80.088 271.059 80.548 270.611 80.964C270.171 81.372 269.579 81.576 268.835 81.576C268.363 81.576 267.907 81.476 267.467 81.276C267.035 81.076 266.679 80.78 266.399 80.388C266.119 79.988 265.979 79.496 265.979 78.912C265.979 78.136 266.227 77.436 266.723 76.812C267.227 76.18 267.939 75.68 268.859 75.312C269.779 74.944 270.867 74.76 272.123 74.76C273.451 74.76 274.607 74.948 275.591 75.324C276.575 75.692 277.339 76.216 277.883 76.896C278.427 77.576 278.699 78.376 278.699 79.296C278.699 79.872 278.575 80.424 278.327 80.952C278.087 81.472 277.699 81.944 277.163 82.368C276.627 82.792 275.915 83.144 275.027 83.424C274.763 83.504 274.547 83.548 274.379 83.556C274.219 83.564 274.139 83.612 274.139 83.7C274.139 83.804 274.203 83.856 274.331 83.856C274.467 83.848 274.699 83.888 275.027 83.976C276.459 84.352 277.507 84.908 278.171 85.644C278.843 86.38 279.179 87.232 279.179 88.2C279.179 89.096 278.971 89.864 278.555 90.504C278.147 91.144 277.591 91.668 276.887 92.076C276.191 92.476 275.407 92.772 274.535 92.964C273.671 93.148 272.787 93.24 271.883 93.24C270.467 93.24 269.267 93.036 268.283 92.628C267.299 92.212 266.547 91.668 266.027 90.996C265.515 90.324 265.259 89.6 265.259 88.824ZM291.268 74.28H292.684C293.084 74.28 293.332 74.312 293.428 74.376C293.524 74.44 293.52 74.628 293.416 74.94L286.348 96.048C286.268 96.288 286.176 96.44 286.072 96.504C285.976 96.568 285.764 96.6 285.436 96.6H284.116C283.692 96.6 283.42 96.572 283.3 96.516C283.188 96.46 283.184 96.272 283.288 95.952L290.512 74.712C290.576 74.528 290.652 74.412 290.74 74.364C290.828 74.308 291.004 74.28 291.268 74.28ZM297.34 88.824C297.34 88.008 297.592 87.32 298.096 86.76C298.608 86.2 299.308 85.92 300.196 85.92C301.004 85.92 301.612 86.112 302.02 86.496C302.436 86.872 302.644 87.344 302.644 87.912C302.644 88.304 302.568 88.612 302.416 88.836C302.264 89.06 302.088 89.236 301.888 89.364C301.696 89.492 301.524 89.604 301.372 89.7C301.22 89.796 301.144 89.912 301.144 90.048C301.144 90.264 301.252 90.444 301.468 90.588C301.692 90.732 301.964 90.844 302.284 90.924C302.612 90.996 302.932 91.032 303.244 91.032C303.836 91.032 304.372 90.952 304.852 90.792C305.34 90.624 305.724 90.32 306.004 89.88C306.292 89.432 306.436 88.792 306.436 87.96C306.436 87.416 306.316 86.932 306.076 86.508C305.836 86.076 305.476 85.724 304.996 85.452C304.516 85.18 303.908 85.016 303.172 84.96C303.02 84.944 302.896 84.94 302.8 84.948C302.712 84.948 302.648 84.92 302.608 84.864C302.568 84.808 302.548 84.692 302.548 84.516V82.944C302.548 82.784 302.56 82.68 302.584 82.632C302.616 82.584 302.668 82.56 302.74 82.56C302.82 82.552 302.928 82.544 303.064 82.536C303.616 82.496 304.076 82.388 304.444 82.212C304.82 82.036 305.116 81.804 305.332 81.516C305.556 81.228 305.716 80.896 305.812 80.52C305.908 80.144 305.956 79.736 305.956 79.296C305.956 78.408 305.696 77.78 305.176 77.412C304.656 77.036 304.012 76.848 303.244 76.848C302.9 76.848 302.564 76.896 302.236 76.992C301.916 77.088 301.756 77.24 301.756 77.448C301.756 77.584 301.836 77.696 301.996 77.784C302.156 77.864 302.344 77.964 302.56 78.084C302.776 78.204 302.964 78.38 303.124 78.612C303.284 78.836 303.364 79.16 303.364 79.584C303.364 80.088 303.14 80.548 302.692 80.964C302.252 81.372 301.66 81.576 300.916 81.576C300.444 81.576 299.988 81.476 299.548 81.276C299.116 81.076 298.76 80.78 298.48 80.388C298.2 79.988 298.06 79.496 298.06 78.912C298.06 78.136 298.308 77.436 298.804 76.812C299.308 76.18 300.02 75.68 300.94 75.312C301.86 74.944 302.948 74.76 304.204 74.76C305.532 74.76 306.688 74.948 307.672 75.324C308.656 75.692 309.42 76.216 309.964 76.896C310.508 77.576 310.78 78.376 310.78 79.296C310.78 79.872 310.656 80.424 310.408 80.952C310.168 81.472 309.78 81.944 309.244 82.368C308.708 82.792 307.996 83.144 307.108 83.424C306.844 83.504 306.628 83.548 306.46 83.556C306.3 83.564 306.22 83.612 306.22 83.7C306.22 83.804 306.284 83.856 306.412 83.856C306.548 83.848 306.78 83.888 307.108 83.976C308.54 84.352 309.588 84.908 310.252 85.644C310.924 86.38 311.26 87.232 311.26 88.2C311.26 89.096 311.052 89.864 310.636 90.504C310.228 91.144 309.672 91.668 308.968 92.076C308.272 92.476 307.488 92.772 306.616 92.964C305.752 93.148 304.868 93.24 303.964 93.24C302.548 93.24 301.348 93.036 300.364 92.628C299.38 92.212 298.628 91.668 298.108 90.996C297.596 90.324 297.34 89.6 297.34 88.824ZM324.141 80.772L322.737 84.18C322.657 84.356 322.609 84.532 322.593 84.708C322.585 84.876 322.741 84.96 323.061 84.96H325.593C325.873 84.96 326.013 84.88 326.013 84.72C326.021 84.56 325.993 84.396 325.929 84.228L324.681 80.724C324.585 80.444 324.489 80.336 324.393 80.4C324.305 80.464 324.221 80.588 324.141 80.772ZM314.193 92.316V90.348C314.193 90.14 314.229 89.992 314.301 89.904C314.373 89.808 314.521 89.76 314.745 89.76H316.725C316.925 89.76 317.041 89.72 317.073 89.64C317.105 89.552 317.149 89.444 317.205 89.316L323.289 75.036C323.369 74.844 323.445 74.732 323.517 74.7C323.597 74.66 323.773 74.64 324.045 74.64H327.645C327.925 74.64 328.105 74.68 328.185 74.76C328.273 74.832 328.357 74.964 328.437 75.156L333.969 89.028C334.057 89.252 334.125 89.432 334.173 89.568C334.229 89.696 334.429 89.76 334.773 89.76H336.357C336.565 89.76 336.721 89.78 336.825 89.82C336.937 89.86 336.993 89.996 336.993 90.228V92.46C336.993 92.7 336.961 92.852 336.897 92.916C336.833 92.972 336.685 93 336.453 93H325.725C325.485 93 325.341 92.964 325.293 92.892C325.253 92.812 325.233 92.652 325.233 92.412V90.276C325.233 90.044 325.261 89.9 325.317 89.844C325.381 89.788 325.525 89.76 325.749 89.76H327.117C327.469 89.76 327.677 89.72 327.741 89.64C327.805 89.56 327.793 89.404 327.705 89.172L327.417 88.356C327.361 88.196 327.309 88.092 327.261 88.044C327.221 87.988 327.085 87.96 326.853 87.96H321.789C321.557 87.96 321.393 87.968 321.297 87.984C321.201 87.992 321.117 88.084 321.045 88.26L320.649 89.244C320.569 89.436 320.545 89.572 320.577 89.652C320.609 89.724 320.733 89.76 320.949 89.76H322.197C322.389 89.76 322.501 89.796 322.533 89.868C322.573 89.932 322.593 90.06 322.593 90.252V92.556C322.593 92.756 322.557 92.88 322.485 92.928C322.413 92.976 322.285 93 322.101 93H314.985C314.649 93 314.433 92.972 314.337 92.916C314.241 92.852 314.193 92.652 314.193 92.316Z" fill="black"/>
</g>
<defs>
<clipPath id="clip0_8_38">
<rect width="797" height="344" fill="white"/>
</clipPath>
</defs>
</svg>
