<svg width="638" height="344" viewBox="0 0 638 344" fill="none" xmlns="http://www.w3.org/2000/svg">
<g clip-path="url(#clip0_45_2)">
<rect x="0.5" y="0.5" width="637" height="343" stroke="#767676" stroke-dasharray="2 5"/>
<circle cx="107" cy="217" r="43.5" stroke="black" stroke-width="3"/>
<circle cx="230" cy="217" r="43.5" stroke="black" stroke-width="3"/>
<circle cx="349.5" cy="229.5" r="31" stroke="black" stroke-width="3"/>
<circle cx="447.5" cy="229.5" r="31" stroke="black" stroke-width="3"/>
<circle cx="545.5" cy="229.5" r="31" stroke="black" stroke-width="3"/>
<path d="M95.96 209.92L99.6 219.08L103.26 209.92H107.52L101.08 225H98.04L91.7 209.92H95.96ZM118.515 213.24H113.295L113.035 214.96L114.275 214.86C115.795 214.74 117.062 215.213 118.075 216.28C119.102 217.347 119.615 218.673 119.615 220.26C119.615 221.913 118.968 223.273 117.675 224.34C116.622 225.18 115.155 225.6 113.275 225.6C111.408 225.6 109.768 225.147 108.355 224.24L108.935 220.54C110.228 221.7 111.628 222.28 113.135 222.28C113.775 222.28 114.335 222.073 114.815 221.66C115.295 221.233 115.535 220.7 115.535 220.06C115.535 219.22 115.202 218.58 114.535 218.14C113.882 217.7 113.115 217.48 112.235 217.48C111.195 217.48 110.235 217.687 109.355 218.1L110.675 209.92H118.515V213.24Z" fill="black"/>
<path d="M218.96 209.92L222.6 219.08L226.26 209.92H230.52L224.08 225H221.04L214.7 209.92H218.96ZM241.495 218.88H243.315V221.88H241.495V225H237.855V221.88H230.535V219.38L236.355 209.92H241.495V218.88ZM237.855 218.88V213.08H237.815L234.295 218.88H237.855Z" fill="black"/>
<path d="M69.284 278.444H72.392L69.396 282.014L69.424 282.042C69.9093 281.827 70.3993 281.72 70.894 281.72C71.8927 281.72 72.7047 282.089 73.33 282.826C73.9647 283.554 74.282 284.422 74.282 285.43C74.282 286.671 73.8433 287.647 72.966 288.356C72.0887 289.065 71.0153 289.42 69.746 289.42C68.5047 289.42 67.5013 289.117 66.736 288.51C66.3067 288.155 65.9613 287.721 65.7 287.208C65.448 286.685 65.322 286.153 65.322 285.612C65.322 284.287 65.8867 282.887 67.016 281.412L69.284 278.444ZM68.5 286.76C68.8453 287.096 69.256 287.264 69.732 287.264C70.208 287.264 70.6093 287.096 70.936 286.76C71.2627 286.415 71.426 285.999 71.426 285.514C71.426 285.038 71.2627 284.632 70.936 284.296C70.6093 283.96 70.208 283.792 69.732 283.792C69.256 283.792 68.8453 283.96 68.5 284.296C68.164 284.632 67.996 285.038 67.996 285.514C67.996 285.999 68.164 286.415 68.5 286.76ZM78.2377 284.632V286.9H78.5877C78.8117 286.9 78.961 286.9 79.0357 286.9C79.1197 286.9 79.2737 286.891 79.4977 286.872C79.7217 286.853 79.885 286.821 79.9877 286.774C80.0997 286.727 80.2257 286.667 80.3657 286.592C80.515 286.508 80.6177 286.401 80.6737 286.27C80.739 286.13 80.7717 285.967 80.7717 285.78C80.7717 285.64 80.7577 285.514 80.7297 285.402C80.7017 285.29 80.6503 285.197 80.5757 285.122C80.5103 285.047 80.4497 284.982 80.3937 284.926C80.3377 284.861 80.2443 284.814 80.1137 284.786C79.9923 284.749 79.899 284.721 79.8337 284.702C79.7683 284.674 79.6517 284.655 79.4837 284.646C79.325 284.637 79.2177 284.632 79.1617 284.632C79.115 284.632 79.003 284.632 78.8257 284.632C78.6483 284.632 78.5457 284.632 78.5177 284.632H78.2377ZM79.7217 289H75.4937V278.444H79.4137C81.5043 278.444 82.5497 279.359 82.5497 281.188C82.5497 282.233 82.1623 282.952 81.3877 283.344V283.372C82.825 283.559 83.5437 284.455 83.5437 286.06C83.5437 286.592 83.4363 287.054 83.2217 287.446C83.007 287.838 82.713 288.146 82.3397 288.37C81.9757 288.585 81.5743 288.743 81.1357 288.846C80.7063 288.949 80.235 289 79.7217 289ZM78.2377 280.544V282.588H78.5457C78.9937 282.588 79.353 282.518 79.6237 282.378C79.8943 282.238 80.0297 281.967 80.0297 281.566C80.0297 281.333 79.983 281.146 79.8897 281.006C79.8057 280.857 79.675 280.754 79.4977 280.698C79.3203 280.633 79.157 280.591 79.0077 280.572C78.8583 280.553 78.667 280.544 78.4337 280.544H78.2377ZM92.0243 284.548L92.7663 285.318C93.0929 284.861 93.2563 284.343 93.2563 283.764C93.2563 282.961 92.9623 282.261 92.3743 281.664C91.7956 281.057 91.1003 280.754 90.2883 280.754C89.4763 280.754 88.7716 281.034 88.1743 281.594C87.5863 282.154 87.2923 282.803 87.2923 283.54C87.2923 284.436 87.5816 285.187 88.1603 285.794C88.7483 286.391 89.4576 286.69 90.2883 286.69C90.5776 286.69 90.8576 286.643 91.1283 286.55L89.4343 284.87L92.0243 284.548ZM96.5323 289.266L94.0123 289.658L93.1723 288.664C92.4163 289.121 91.4503 289.35 90.2743 289.35C88.5756 289.35 87.1756 288.809 86.0743 287.726C84.9823 286.634 84.4363 285.234 84.4363 283.526C84.4363 282.49 84.7116 281.552 85.2623 280.712C85.8129 279.872 86.5316 279.228 87.4183 278.78C88.3049 278.323 89.2569 278.094 90.2743 278.094C91.9449 278.094 93.3356 278.617 94.4463 279.662C95.5569 280.698 96.1123 282.061 96.1123 283.75C96.1123 285.103 95.6596 286.34 94.7543 287.46L96.5323 289.266ZM104.396 280.768H100.742L100.56 281.972L101.428 281.902C102.492 281.818 103.379 282.149 104.088 282.896C104.807 283.643 105.166 284.571 105.166 285.682C105.166 286.839 104.714 287.791 103.808 288.538C103.071 289.126 102.044 289.42 100.728 289.42C99.4217 289.42 98.2737 289.103 97.2843 288.468L97.6903 285.878C98.5957 286.69 99.5757 287.096 100.63 287.096C101.078 287.096 101.47 286.951 101.806 286.662C102.142 286.363 102.31 285.99 102.31 285.542C102.31 284.954 102.077 284.506 101.61 284.198C101.153 283.89 100.616 283.736 100 283.736C99.2723 283.736 98.6003 283.881 97.9843 284.17L98.9083 278.444H104.396V280.768ZM111.865 277.38H113.867L108.519 290.302H106.517L111.865 277.38ZM121.148 280.768H117.886V282.532H120.98V284.856H117.886V286.676H121.148V289H115.142V278.444H121.148V280.768ZM125.583 278.444V286.676H128.873V289H122.839V278.444H125.583ZM134.489 280.278C134.265 280.045 133.994 279.928 133.677 279.928C133.36 279.928 133.084 280.045 132.851 280.278C132.627 280.511 132.515 280.791 132.515 281.118C132.515 281.445 132.627 281.725 132.851 281.958C133.084 282.191 133.36 282.308 133.677 282.308C133.994 282.308 134.265 282.191 134.489 281.958C134.722 281.725 134.839 281.445 134.839 281.118C134.839 280.791 134.722 280.511 134.489 280.278ZM134.559 284.954C134.316 284.693 134.022 284.562 133.677 284.562C133.332 284.562 133.033 284.693 132.781 284.954C132.538 285.206 132.417 285.514 132.417 285.878C132.417 286.233 132.538 286.536 132.781 286.788C133.033 287.04 133.332 287.166 133.677 287.166C134.022 287.166 134.316 287.04 134.559 286.788C134.811 286.536 134.937 286.233 134.937 285.878C134.937 285.514 134.811 285.206 134.559 284.954ZM131.143 278.822C131.852 278.29 132.697 278.024 133.677 278.024C134.657 278.024 135.502 278.29 136.211 278.822C136.92 279.345 137.275 280.082 137.275 281.034C137.275 281.585 137.116 282.084 136.799 282.532C136.491 282.971 136.094 283.269 135.609 283.428V283.456C136.253 283.671 136.762 284.021 137.135 284.506C137.518 284.982 137.709 285.556 137.709 286.228C137.709 286.919 137.494 287.516 137.065 288.02C136.636 288.515 136.122 288.869 135.525 289.084C134.937 289.308 134.321 289.42 133.677 289.42C133.033 289.42 132.412 289.308 131.815 289.084C131.227 288.869 130.718 288.515 130.289 288.02C129.86 287.516 129.645 286.919 129.645 286.228C129.645 285.556 129.832 284.982 130.205 284.506C130.588 284.021 131.101 283.671 131.745 283.456V283.428C131.26 283.269 130.858 282.971 130.541 282.532C130.233 282.084 130.079 281.585 130.079 281.034C130.079 280.082 130.434 279.345 131.143 278.822ZM146.369 284.716H147.643V286.816H146.369V289H143.821V286.816H138.697V285.066L142.771 278.444H146.369V284.716ZM143.821 284.716V280.656H143.793L141.329 284.716H143.821Z" fill="black"/>
<path d="M192.284 278.444H195.392L192.396 282.014L192.424 282.042C192.909 281.827 193.399 281.72 193.894 281.72C194.893 281.72 195.705 282.089 196.33 282.826C196.965 283.554 197.282 284.422 197.282 285.43C197.282 286.671 196.843 287.647 195.966 288.356C195.089 289.065 194.015 289.42 192.746 289.42C191.505 289.42 190.501 289.117 189.736 288.51C189.307 288.155 188.961 287.721 188.7 287.208C188.448 286.685 188.322 286.153 188.322 285.612C188.322 284.287 188.887 282.887 190.016 281.412L192.284 278.444ZM191.5 286.76C191.845 287.096 192.256 287.264 192.732 287.264C193.208 287.264 193.609 287.096 193.936 286.76C194.263 286.415 194.426 285.999 194.426 285.514C194.426 285.038 194.263 284.632 193.936 284.296C193.609 283.96 193.208 283.792 192.732 283.792C192.256 283.792 191.845 283.96 191.5 284.296C191.164 284.632 190.996 285.038 190.996 285.514C190.996 285.999 191.164 286.415 191.5 286.76ZM201.238 284.632V286.9H201.588C201.812 286.9 201.961 286.9 202.036 286.9C202.12 286.9 202.274 286.891 202.498 286.872C202.722 286.853 202.885 286.821 202.988 286.774C203.1 286.727 203.226 286.667 203.366 286.592C203.515 286.508 203.618 286.401 203.674 286.27C203.739 286.13 203.772 285.967 203.772 285.78C203.772 285.64 203.758 285.514 203.73 285.402C203.702 285.29 203.65 285.197 203.576 285.122C203.51 285.047 203.45 284.982 203.394 284.926C203.338 284.861 203.244 284.814 203.114 284.786C202.992 284.749 202.899 284.721 202.834 284.702C202.768 284.674 202.652 284.655 202.484 284.646C202.325 284.637 202.218 284.632 202.162 284.632C202.115 284.632 202.003 284.632 201.826 284.632C201.648 284.632 201.546 284.632 201.518 284.632H201.238ZM202.722 289H198.494V278.444H202.414C204.504 278.444 205.55 279.359 205.55 281.188C205.55 282.233 205.162 282.952 204.388 283.344V283.372C205.825 283.559 206.544 284.455 206.544 286.06C206.544 286.592 206.436 287.054 206.222 287.446C206.007 287.838 205.713 288.146 205.34 288.37C204.976 288.585 204.574 288.743 204.136 288.846C203.706 288.949 203.235 289 202.722 289ZM201.238 280.544V282.588H201.546C201.994 282.588 202.353 282.518 202.624 282.378C202.894 282.238 203.03 281.967 203.03 281.566C203.03 281.333 202.983 281.146 202.89 281.006C202.806 280.857 202.675 280.754 202.498 280.698C202.32 280.633 202.157 280.591 202.008 280.572C201.858 280.553 201.667 280.544 201.434 280.544H201.238ZM215.024 284.548L215.766 285.318C216.093 284.861 216.256 284.343 216.256 283.764C216.256 282.961 215.962 282.261 215.374 281.664C214.796 281.057 214.1 280.754 213.288 280.754C212.476 280.754 211.772 281.034 211.174 281.594C210.586 282.154 210.292 282.803 210.292 283.54C210.292 284.436 210.582 285.187 211.16 285.794C211.748 286.391 212.458 286.69 213.288 286.69C213.578 286.69 213.858 286.643 214.128 286.55L212.434 284.87L215.024 284.548ZM219.532 289.266L217.012 289.658L216.172 288.664C215.416 289.121 214.45 289.35 213.274 289.35C211.576 289.35 210.176 288.809 209.074 287.726C207.982 286.634 207.436 285.234 207.436 283.526C207.436 282.49 207.712 281.552 208.262 280.712C208.813 279.872 209.532 279.228 210.418 278.78C211.305 278.323 212.257 278.094 213.274 278.094C214.945 278.094 216.336 278.617 217.446 279.662C218.557 280.698 219.112 282.061 219.112 283.75C219.112 285.103 218.66 286.34 217.754 287.46L219.532 289.266ZM227.396 280.768H223.742L223.56 281.972L224.428 281.902C225.492 281.818 226.379 282.149 227.088 282.896C227.807 283.643 228.166 284.571 228.166 285.682C228.166 286.839 227.714 287.791 226.808 288.538C226.071 289.126 225.044 289.42 223.728 289.42C222.422 289.42 221.274 289.103 220.284 288.468L220.69 285.878C221.596 286.69 222.576 287.096 223.63 287.096C224.078 287.096 224.47 286.951 224.806 286.662C225.142 286.363 225.31 285.99 225.31 285.542C225.31 284.954 225.077 284.506 224.61 284.198C224.153 283.89 223.616 283.736 223 283.736C222.272 283.736 221.6 283.881 220.984 284.17L221.908 278.444H227.396V280.768ZM234.865 277.38H236.867L231.519 290.302H229.517L234.865 277.38ZM244.148 280.768H240.886V282.532H243.98V284.856H240.886V286.676H244.148V289H238.142V278.444H244.148V280.768ZM248.583 278.444V286.676H251.873V289H245.839V278.444H248.583ZM257.489 280.278C257.265 280.045 256.994 279.928 256.677 279.928C256.36 279.928 256.084 280.045 255.851 280.278C255.627 280.511 255.515 280.791 255.515 281.118C255.515 281.445 255.627 281.725 255.851 281.958C256.084 282.191 256.36 282.308 256.677 282.308C256.994 282.308 257.265 282.191 257.489 281.958C257.722 281.725 257.839 281.445 257.839 281.118C257.839 280.791 257.722 280.511 257.489 280.278ZM257.559 284.954C257.316 284.693 257.022 284.562 256.677 284.562C256.332 284.562 256.033 284.693 255.781 284.954C255.538 285.206 255.417 285.514 255.417 285.878C255.417 286.233 255.538 286.536 255.781 286.788C256.033 287.04 256.332 287.166 256.677 287.166C257.022 287.166 257.316 287.04 257.559 286.788C257.811 286.536 257.937 286.233 257.937 285.878C257.937 285.514 257.811 285.206 257.559 284.954ZM254.143 278.822C254.852 278.29 255.697 278.024 256.677 278.024C257.657 278.024 258.502 278.29 259.211 278.822C259.92 279.345 260.275 280.082 260.275 281.034C260.275 281.585 260.116 282.084 259.799 282.532C259.491 282.971 259.094 283.269 258.609 283.428V283.456C259.253 283.671 259.762 284.021 260.135 284.506C260.518 284.982 260.709 285.556 260.709 286.228C260.709 286.919 260.494 287.516 260.065 288.02C259.636 288.515 259.122 288.869 258.525 289.084C257.937 289.308 257.321 289.42 256.677 289.42C256.033 289.42 255.412 289.308 254.815 289.084C254.227 288.869 253.718 288.515 253.289 288.02C252.86 287.516 252.645 286.919 252.645 286.228C252.645 285.556 252.832 284.982 253.205 284.506C253.588 284.021 254.101 283.671 254.745 283.456V283.428C254.26 283.269 253.858 282.971 253.541 282.532C253.233 282.084 253.079 281.585 253.079 281.034C253.079 280.082 253.434 279.345 254.143 278.822ZM269.369 284.716H270.643V286.816H269.369V289H266.821V286.816H261.697V285.066L265.771 278.444H269.369V284.716ZM266.821 284.716V280.656H266.793L264.329 284.716H266.821Z" fill="black"/>
<path d="M322.766 280.768H321.254V278.444H325.51V289H322.766V280.768ZM334.086 286.676H337.544V289H329.06L333.372 284.31C334.174 283.433 334.576 282.569 334.576 281.72C334.576 281.365 334.459 281.048 334.226 280.768C334.002 280.488 333.717 280.348 333.372 280.348C333.017 280.348 332.737 280.469 332.532 280.712C332.326 280.955 332.224 281.263 332.224 281.636C332.224 281.785 332.238 281.935 332.266 282.084H329.242C329.288 280.861 329.676 279.881 330.404 279.144C331.141 278.397 332.126 278.024 333.358 278.024C334.496 278.024 335.458 278.369 336.242 279.06C337.035 279.751 337.432 280.656 337.432 281.776C337.432 282.485 337.292 283.092 337.012 283.596C336.741 284.1 336.312 284.618 335.724 285.15L334.086 286.676ZM345.559 287.166H341.779L341.051 289H338.139L342.199 278.444H345.195L349.171 289H346.245L345.559 287.166ZM344.817 285.066L343.697 281.706H343.669L342.535 285.066H344.817ZM353.151 283.358L349.777 278.444H353.151L354.761 281.174L356.371 278.444H359.745L356.371 283.358L360.277 289H356.973L354.761 285.556L352.339 289H349.021L353.151 283.358ZM365.584 280.768H361.174V278.444H369.84L363.778 289H360.768L365.584 280.768ZM377.141 287.166H373.361L372.633 289H369.721L373.781 278.444H376.777L380.753 289H377.827L377.141 287.166ZM376.399 285.066L375.279 281.706H375.251L374.117 285.066H376.399Z" fill="black"/>
<path d="M420.766 280.768H419.254V278.444H423.51V289H420.766V280.768ZM432.086 286.676H435.544V289H427.06L431.372 284.31C432.174 283.433 432.576 282.569 432.576 281.72C432.576 281.365 432.459 281.048 432.226 280.768C432.002 280.488 431.717 280.348 431.372 280.348C431.017 280.348 430.737 280.469 430.532 280.712C430.326 280.955 430.224 281.263 430.224 281.636C430.224 281.785 430.238 281.935 430.266 282.084H427.242C427.288 280.861 427.676 279.881 428.404 279.144C429.141 278.397 430.126 278.024 431.358 278.024C432.496 278.024 433.458 278.369 434.242 279.06C435.035 279.751 435.432 280.656 435.432 281.776C435.432 282.485 435.292 283.092 435.012 283.596C434.741 284.1 434.312 284.618 433.724 285.15L432.086 286.676ZM443.559 287.166H439.779L439.051 289H436.139L440.199 278.444H443.195L447.171 289H444.245L443.559 287.166ZM442.817 285.066L441.697 281.706H441.669L440.535 285.066H442.817ZM451.151 283.358L447.777 278.444H451.151L452.761 281.174L454.371 278.444H457.745L454.371 283.358L458.277 289H454.973L452.761 285.556L450.339 289H447.021L451.151 283.358ZM463.584 280.768H459.174V278.444H467.84L461.778 289H458.768L463.584 280.768ZM475.141 287.166H471.361L470.633 289H467.721L471.781 278.444H474.777L478.753 289H475.827L475.141 287.166ZM474.399 285.066L473.279 281.706H473.251L472.117 285.066H474.399Z" fill="black"/>
<path d="M518.766 280.768H517.254V278.444H521.51V289H518.766V280.768ZM530.086 286.676H533.544V289H525.06L529.372 284.31C530.174 283.433 530.576 282.569 530.576 281.72C530.576 281.365 530.459 281.048 530.226 280.768C530.002 280.488 529.717 280.348 529.372 280.348C529.017 280.348 528.737 280.469 528.532 280.712C528.326 280.955 528.224 281.263 528.224 281.636C528.224 281.785 528.238 281.935 528.266 282.084H525.242C525.288 280.861 525.676 279.881 526.404 279.144C527.141 278.397 528.126 278.024 529.358 278.024C530.496 278.024 531.458 278.369 532.242 279.06C533.035 279.751 533.432 280.656 533.432 281.776C533.432 282.485 533.292 283.092 533.012 283.596C532.741 284.1 532.312 284.618 531.724 285.15L530.086 286.676ZM541.559 287.166H537.779L537.051 289H534.139L538.199 278.444H541.195L545.171 289H542.245L541.559 287.166ZM540.817 285.066L539.697 281.706H539.669L538.535 285.066H540.817ZM549.151 283.358L545.777 278.444H549.151L550.761 281.174L552.371 278.444H555.745L552.371 283.358L556.277 289H552.973L550.761 285.556L548.339 289H545.021L549.151 283.358ZM561.584 280.768H557.174V278.444H565.84L559.778 289H556.768L561.584 280.768ZM573.141 287.166H569.361L568.633 289H565.721L569.781 278.444H572.777L576.753 289H573.827L573.141 287.166ZM572.399 285.066L571.279 281.706H571.251L570.117 285.066H572.399Z" fill="black"/>
<path d="M338.96 222.92L342.6 232.08L346.26 222.92H350.52L344.08 238H341.04L334.7 222.92H338.96ZM355.315 227.26H351.675C351.822 225.753 352.408 224.54 353.435 223.62C354.408 222.753 355.688 222.32 357.275 222.32C358.675 222.32 359.828 222.707 360.735 223.48C361.642 224.253 362.095 225.327 362.095 226.7C362.095 227.34 361.962 227.947 361.695 228.52C361.428 229.08 361.035 229.507 360.515 229.8C361.275 230 361.875 230.48 362.315 231.24C362.755 231.987 362.975 232.773 362.975 233.6C362.975 234.653 362.688 235.567 362.115 236.34C361.555 237.113 360.835 237.68 359.955 238.04C359.088 238.413 358.142 238.6 357.115 238.6C355.235 238.6 353.735 238.033 352.615 236.9C352.135 236.407 351.722 235.807 351.375 235.1C351.042 234.393 350.882 233.727 350.895 233.1H354.895C354.895 233.713 355.088 234.227 355.475 234.64C355.875 235.04 356.382 235.24 356.995 235.24C357.608 235.24 358.108 235.053 358.495 234.68C358.895 234.307 359.095 233.82 359.095 233.22C359.095 232.66 358.888 232.187 358.475 231.8C358.062 231.4 357.575 231.2 357.015 231.2C356.855 231.2 356.628 231.24 356.335 231.32V228.7H356.735C357.242 228.7 357.655 228.553 357.975 228.26C358.295 227.953 358.455 227.547 358.455 227.04C358.455 226.587 358.308 226.22 358.015 225.94C357.722 225.66 357.355 225.52 356.915 225.52C356.422 225.52 356.028 225.687 355.735 226.02C355.442 226.34 355.302 226.753 355.315 227.26Z" fill="black"/>
<path d="M436.96 222.92L440.6 232.08L444.26 222.92H448.52L442.08 238H439.04L432.7 222.92H436.96ZM456.055 234.68H460.995V238H448.875L455.035 231.3C456.182 230.047 456.755 228.813 456.755 227.6C456.755 227.093 456.588 226.64 456.255 226.24C455.935 225.84 455.528 225.64 455.035 225.64C454.528 225.64 454.128 225.813 453.835 226.16C453.542 226.507 453.395 226.947 453.395 227.48C453.395 227.693 453.415 227.907 453.455 228.12H449.135C449.202 226.373 449.755 224.973 450.795 223.92C451.848 222.853 453.255 222.32 455.015 222.32C456.642 222.32 458.015 222.813 459.135 223.8C460.268 224.787 460.835 226.08 460.835 227.68C460.835 228.693 460.635 229.56 460.235 230.28C459.848 231 459.235 231.74 458.395 232.5L456.055 234.68Z" fill="black"/>
<path d="M535.96 221.92L539.6 231.08L543.26 221.92H547.52L541.08 237H538.04L531.7 221.92H535.96ZM552.595 225.24H550.435V221.92H556.515V237H552.595V225.24Z" fill="black"/>
<rect x="38" y="36" width="562" height="273" rx="9" stroke="black" stroke-width="2"/>
<path d="M124.644 103.568V101.312C124.644 101.08 124.668 100.932 124.716 100.868C124.764 100.796 124.9 100.76 125.124 100.76H126.756C126.996 100.76 127.144 100.724 127.2 100.652C127.256 100.58 127.284 100.42 127.284 100.172V98.444C127.284 98.116 127.256 97.884 127.2 97.748C127.144 97.604 127.056 97.444 126.936 97.268L121.812 89.792C121.676 89.584 121.56 89.44 121.464 89.36C121.376 89.28 121.152 89.24 120.792 89.24H119.52C119.272 89.24 119.124 89.2 119.076 89.12C119.028 89.04 119.004 88.876 119.004 88.628V86.84C119.004 86.464 119.072 86.232 119.208 86.144C119.344 86.048 119.584 86 119.928 86H129.456C129.76 86 129.972 86.036 130.092 86.108C130.22 86.172 130.284 86.368 130.284 86.696V88.676C130.284 88.916 130.248 89.072 130.176 89.144C130.112 89.208 129.964 89.24 129.732 89.24H128.712C128.416 89.24 128.24 89.284 128.184 89.372C128.128 89.46 128.188 89.632 128.364 89.888L130.428 92.888C130.652 93.2 130.816 93.4 130.92 93.488C131.032 93.576 131.144 93.564 131.256 93.452C131.368 93.332 131.536 93.128 131.76 92.84L134.076 89.84C134.276 89.584 134.332 89.42 134.244 89.348C134.156 89.276 133.984 89.24 133.728 89.24H132.804C132.5 89.24 132.304 89.212 132.216 89.156C132.128 89.092 132.084 88.908 132.084 88.604V86.6C132.084 86.328 132.116 86.16 132.18 86.096C132.252 86.032 132.42 86 132.684 86H140.136C140.344 86 140.492 86.02 140.58 86.06C140.676 86.1 140.724 86.236 140.724 86.468V88.916C140.724 89.068 140.688 89.16 140.616 89.192C140.552 89.224 140.44 89.24 140.28 89.24H139.488C139.136 89.24 138.908 89.28 138.804 89.36C138.708 89.432 138.584 89.56 138.432 89.744L133.404 95.972C133.252 96.172 133.132 96.34 133.044 96.476C132.964 96.612 132.924 96.868 132.924 97.244V100.196C132.924 100.42 132.948 100.572 132.996 100.652C133.044 100.724 133.18 100.76 133.404 100.76H135.312C135.544 100.76 135.684 100.8 135.732 100.88C135.78 100.952 135.804 101.108 135.804 101.348V103.532C135.804 103.716 135.78 103.84 135.732 103.904C135.692 103.968 135.58 104 135.396 104H125.028C124.868 104 124.764 103.972 124.716 103.916C124.668 103.86 124.644 103.744 124.644 103.568ZM152.56 93.68H162.784C163.056 93.68 163.224 93.716 163.288 93.788C163.36 93.852 163.396 94.024 163.396 94.304V96.488C163.396 96.688 163.36 96.812 163.288 96.86C163.224 96.9 163.088 96.92 162.88 96.92H161.44C161.256 96.92 161.136 96.944 161.08 96.992C161.024 97.032 160.996 97.144 160.996 97.328V99.992C160.996 100.264 160.972 100.444 160.924 100.532C160.876 100.62 160.784 100.732 160.648 100.868C160.272 101.228 159.8 101.616 159.232 102.032C158.664 102.448 158.012 102.844 157.276 103.22C156.54 103.588 155.728 103.888 154.84 104.12C153.952 104.36 153.004 104.48 151.996 104.48C150.508 104.48 149.14 104.26 147.892 103.82C146.652 103.38 145.576 102.748 144.664 101.924C143.752 101.1 143.044 100.104 142.54 98.936C142.044 97.768 141.796 96.456 141.796 95C141.796 93.664 142.032 92.42 142.504 91.268C142.984 90.116 143.66 89.112 144.532 88.256C145.404 87.392 146.44 86.72 147.64 86.24C148.848 85.76 150.18 85.52 151.636 85.52C152.636 85.52 153.52 85.648 154.288 85.904C155.056 86.152 155.72 86.484 156.28 86.9C156.464 87.028 156.604 87.092 156.7 87.092C156.796 87.084 156.92 86.984 157.072 86.792L157.588 86.096C157.652 86.016 157.724 85.96 157.804 85.928C157.884 85.896 158 85.88 158.152 85.88H159.952C160.16 85.88 160.304 85.904 160.384 85.952C160.472 85.992 160.516 86.112 160.516 86.312V91.652C160.516 91.916 160.492 92.1 160.444 92.204C160.396 92.308 160.24 92.36 159.976 92.36H157.624C157.28 92.36 157.08 92.316 157.024 92.228C156.968 92.14 156.888 91.984 156.784 91.76C156.472 91.072 156.108 90.492 155.692 90.02C155.276 89.548 154.784 89.192 154.216 88.952C153.656 88.712 152.996 88.592 152.236 88.592C151.404 88.592 150.672 88.84 150.04 89.336C149.408 89.832 148.916 90.556 148.564 91.508C148.212 92.46 148.036 93.624 148.036 95C148.036 96.376 148.192 97.548 148.504 98.516C148.816 99.476 149.256 100.212 149.824 100.724C150.4 101.228 151.084 101.48 151.876 101.48C152.588 101.48 153.152 101.38 153.568 101.18C153.992 100.98 154.32 100.72 154.552 100.4C154.792 100.08 154.988 99.744 155.14 99.392C155.212 99.224 155.264 99.068 155.296 98.924C155.336 98.772 155.356 98.568 155.356 98.312V97.472C155.356 97.24 155.332 97.092 155.284 97.028C155.236 96.956 155.096 96.92 154.864 96.92H152.416C152.144 96.92 151.984 96.86 151.936 96.74C151.896 96.612 151.876 96.424 151.876 96.176V94.28C151.876 93.992 151.92 93.82 152.008 93.764C152.104 93.708 152.288 93.68 152.56 93.68ZM168.959 89.24H167.591C167.311 89.24 167.143 89.22 167.087 89.18C167.039 89.132 167.015 88.964 167.015 88.676V86.372C167.015 86.124 167.071 86 167.183 86C167.295 86 167.463 86 167.687 86H176.447C176.767 86 176.983 86.036 177.095 86.108C177.215 86.18 177.295 86.292 177.335 86.444C177.383 86.588 177.443 86.772 177.515 86.996L179.807 94.172C179.935 94.556 180.039 94.924 180.119 95.276C180.207 95.628 180.311 95.804 180.431 95.804C180.567 95.804 180.679 95.7 180.767 95.492C180.855 95.276 180.975 94.964 181.127 94.556L184.139 86.492C184.227 86.268 184.303 86.132 184.367 86.084C184.439 86.028 184.631 86 184.943 86H192.455C192.759 86 192.975 86.004 193.103 86.012C193.231 86.02 193.295 86.188 193.295 86.516V88.628C193.295 88.924 193.275 89.1 193.235 89.156C193.195 89.212 193.023 89.24 192.719 89.24H191.255C190.999 89.24 190.851 89.264 190.811 89.312C190.779 89.36 190.767 89.508 190.775 89.756L191.135 100.268C191.143 100.476 191.155 100.612 191.171 100.676C191.195 100.732 191.319 100.76 191.543 100.76H193.463C193.663 100.76 193.783 100.792 193.823 100.856C193.871 100.912 193.895 101.044 193.895 101.252V103.34C193.895 103.596 193.867 103.772 193.811 103.868C193.763 103.956 193.599 104 193.319 104H184.007C183.743 104 183.583 103.964 183.527 103.892C183.479 103.812 183.455 103.636 183.455 103.364V101.324C183.455 101.052 183.499 100.892 183.587 100.844C183.683 100.788 183.855 100.76 184.103 100.76H185.375C185.631 100.76 185.799 100.72 185.879 100.64C185.967 100.552 186.007 100.384 185.999 100.136L185.855 94.724C185.839 94.164 185.851 93.636 185.891 93.14C185.939 92.636 185.963 92.228 185.963 91.916C185.963 91.596 185.887 91.436 185.735 91.436C185.639 91.436 185.563 91.488 185.507 91.592C185.451 91.688 185.395 91.844 185.339 92.06C185.283 92.276 185.191 92.564 185.063 92.924L181.379 103.748C181.291 104.004 181.195 104.168 181.091 104.24C180.987 104.32 180.759 104.36 180.407 104.36H178.247C177.895 104.36 177.663 104.32 177.551 104.24C177.447 104.168 177.351 104.004 177.263 103.748L173.699 93.356C173.595 93.052 173.495 92.704 173.399 92.312C173.311 91.92 173.223 91.576 173.135 91.28C173.047 90.984 172.951 90.836 172.847 90.836C172.743 90.836 172.683 90.948 172.667 91.172C172.651 91.396 172.631 91.78 172.607 92.324L172.247 99.908C172.239 100.196 172.251 100.412 172.283 100.556C172.315 100.692 172.495 100.76 172.823 100.76H174.407C174.631 100.76 174.775 100.792 174.839 100.856C174.903 100.92 174.935 101.068 174.935 101.3V103.388C174.935 103.684 174.887 103.86 174.791 103.916C174.703 103.972 174.519 104 174.239 104H166.799C166.519 104 166.343 103.964 166.271 103.892C166.207 103.82 166.175 103.636 166.175 103.34V101.18C166.175 101.012 166.195 100.9 166.235 100.844C166.275 100.788 166.375 100.76 166.535 100.76H168.431C168.791 100.76 168.975 100.688 168.983 100.544C168.999 100.392 169.015 100.156 169.031 99.836L169.583 89.66C169.599 89.404 169.563 89.272 169.475 89.264C169.387 89.248 169.215 89.24 168.959 89.24ZM198.745 93.32H206.089C206.273 93.32 206.385 93.352 206.425 93.416C206.473 93.472 206.497 93.596 206.497 93.788V95.588C206.497 95.796 206.477 95.932 206.437 95.996C206.397 96.052 206.273 96.08 206.065 96.08H198.841C198.625 96.08 198.485 96.052 198.421 95.996C198.365 95.94 198.337 95.808 198.337 95.6V93.812C198.337 93.62 198.357 93.492 198.397 93.428C198.437 93.356 198.553 93.32 198.745 93.32ZM226.584 97.88C226.544 99.352 226.32 100.56 225.912 101.504C225.504 102.44 224.924 103.132 224.172 103.58C223.42 104.02 222.508 104.24 221.436 104.24C220.732 104.24 220.096 104.168 219.528 104.024C218.968 103.88 218.452 103.712 217.98 103.52C217.508 103.328 217.056 103.16 216.624 103.016C216.192 102.872 215.756 102.8 215.316 102.8C214.972 102.8 214.684 102.872 214.452 103.016C214.228 103.16 214.048 103.352 213.912 103.592C213.816 103.752 213.748 103.86 213.708 103.916C213.676 103.972 213.524 104 213.252 104H211.548C211.316 104 211.168 103.972 211.104 103.916C211.04 103.86 211.008 103.72 211.008 103.496C211.016 101.824 211.432 100.244 212.256 98.756C213.08 97.26 214.316 95.936 215.964 94.784C216.412 94.472 216.908 94.16 217.452 93.848C218.004 93.528 218.528 93.188 219.024 92.828C219.528 92.468 219.944 92.076 220.272 91.652C220.6 91.22 220.764 90.736 220.764 90.2C220.764 89.368 220.556 88.768 220.14 88.4C219.724 88.032 218.892 87.848 217.644 87.848C217.132 87.848 216.664 87.904 216.24 88.016C215.824 88.128 215.488 88.268 215.232 88.436C214.984 88.604 214.86 88.776 214.86 88.952C214.86 89.056 214.956 89.148 215.148 89.228C215.348 89.3 215.576 89.4 215.832 89.528C216.088 89.656 216.312 89.86 216.504 90.14C216.704 90.412 216.804 90.808 216.804 91.328C216.804 92.128 216.536 92.74 216 93.164C215.472 93.588 214.864 93.8 214.176 93.8C213.704 93.8 213.252 93.7 212.82 93.5C212.396 93.292 212.048 92.984 211.776 92.576C211.512 92.16 211.38 91.64 211.38 91.016C211.38 89.92 211.696 88.98 212.328 88.196C212.968 87.412 213.84 86.812 214.944 86.396C216.048 85.972 217.308 85.76 218.724 85.76C220.9 85.76 222.628 86.132 223.908 86.876C225.188 87.612 225.828 88.76 225.828 90.32C225.828 91.16 225.636 91.864 225.252 92.432C224.868 92.992 224.348 93.472 223.692 93.872C223.036 94.264 222.288 94.632 221.448 94.976C220.616 95.312 219.748 95.68 218.844 96.08C217.836 96.52 217.02 96.956 216.396 97.388C215.772 97.82 215.272 98.26 214.896 98.708C214.712 98.924 214.54 99.164 214.38 99.428C214.228 99.692 214.116 99.92 214.044 100.112C213.98 100.296 213.992 100.388 214.08 100.388C214.216 100.388 214.324 100.248 214.404 99.968C214.492 99.688 214.72 99.376 215.088 99.032C215.368 98.768 215.716 98.592 216.132 98.504C216.556 98.416 216.964 98.372 217.356 98.372C218.036 98.372 218.624 98.46 219.12 98.636C219.616 98.812 220.096 98.988 220.56 99.164C221.032 99.34 221.572 99.428 222.18 99.428C222.82 99.428 223.3 99.288 223.62 99.008C223.948 98.728 224.152 98.352 224.232 97.88C224.272 97.624 224.308 97.472 224.34 97.424C224.372 97.376 224.532 97.352 224.82 97.352H226.092C226.356 97.352 226.504 97.376 226.536 97.424C226.568 97.472 226.584 97.624 226.584 97.88ZM254.369 90.92C254.369 91.504 254.217 92.012 253.913 92.444C253.617 92.868 253.225 93.196 252.737 93.428C252.257 93.66 251.745 93.776 251.201 93.776C250.193 93.776 249.381 93.448 248.765 92.792C248.149 92.128 247.841 91.148 247.841 89.852C247.841 89.012 248.025 88.244 248.393 87.548C248.769 86.844 249.249 86.232 249.833 85.712C250.425 85.192 251.045 84.776 251.693 84.464C252.341 84.144 252.941 83.948 253.493 83.876C253.669 83.852 253.785 83.864 253.841 83.912C253.905 83.96 253.937 84.08 253.937 84.272V85.7C253.937 85.82 253.913 85.9 253.865 85.94C253.817 85.972 253.741 85.996 253.637 86.012C253.157 86.06 252.689 86.204 252.233 86.444C251.777 86.684 251.373 86.96 251.021 87.272C250.677 87.584 250.421 87.88 250.253 88.16C250.221 88.208 250.221 88.248 250.253 88.28C250.293 88.304 250.349 88.3 250.421 88.268C250.557 88.204 250.729 88.156 250.937 88.124C251.153 88.084 251.393 88.064 251.657 88.064C252.473 88.064 253.129 88.32 253.625 88.832C254.121 89.344 254.369 90.04 254.369 90.92ZM246.929 90.92C246.929 91.504 246.777 92.012 246.473 92.444C246.177 92.868 245.785 93.196 245.297 93.428C244.817 93.66 244.305 93.776 243.761 93.776C242.753 93.776 241.941 93.448 241.325 92.792C240.709 92.128 240.401 91.148 240.401 89.852C240.401 89.012 240.585 88.244 240.953 87.548C241.329 86.844 241.809 86.232 242.393 85.712C242.985 85.192 243.605 84.776 244.253 84.464C244.901 84.144 245.501 83.948 246.053 83.876C246.229 83.852 246.345 83.864 246.401 83.912C246.465 83.96 246.497 84.08 246.497 84.272V85.7C246.497 85.82 246.473 85.9 246.425 85.94C246.377 85.972 246.301 85.996 246.197 86.012C245.717 86.06 245.249 86.204 244.793 86.444C244.337 86.684 243.933 86.96 243.581 87.272C243.237 87.584 242.981 87.88 242.813 88.16C242.781 88.208 242.781 88.248 242.813 88.28C242.853 88.304 242.909 88.3 242.981 88.268C243.117 88.204 243.289 88.156 243.497 88.124C243.713 88.084 243.953 88.064 244.217 88.064C245.033 88.064 245.689 88.32 246.185 88.832C246.681 89.344 246.929 90.04 246.929 90.92ZM268.609 93.68H278.833C279.105 93.68 279.273 93.716 279.337 93.788C279.409 93.852 279.445 94.024 279.445 94.304V96.488C279.445 96.688 279.409 96.812 279.337 96.86C279.273 96.9 279.137 96.92 278.929 96.92H277.489C277.305 96.92 277.185 96.944 277.129 96.992C277.073 97.032 277.045 97.144 277.045 97.328V99.992C277.045 100.264 277.021 100.444 276.973 100.532C276.925 100.62 276.833 100.732 276.697 100.868C276.321 101.228 275.849 101.616 275.281 102.032C274.713 102.448 274.061 102.844 273.325 103.22C272.589 103.588 271.777 103.888 270.889 104.12C270.001 104.36 269.053 104.48 268.045 104.48C266.557 104.48 265.189 104.26 263.941 103.82C262.701 103.38 261.625 102.748 260.713 101.924C259.801 101.1 259.093 100.104 258.589 98.936C258.093 97.768 257.845 96.456 257.845 95C257.845 93.664 258.081 92.42 258.553 91.268C259.033 90.116 259.709 89.112 260.581 88.256C261.453 87.392 262.489 86.72 263.689 86.24C264.897 85.76 266.229 85.52 267.685 85.52C268.685 85.52 269.569 85.648 270.337 85.904C271.105 86.152 271.769 86.484 272.329 86.9C272.513 87.028 272.653 87.092 272.749 87.092C272.845 87.084 272.969 86.984 273.121 86.792L273.637 86.096C273.701 86.016 273.773 85.96 273.853 85.928C273.933 85.896 274.049 85.88 274.201 85.88H276.001C276.209 85.88 276.353 85.904 276.433 85.952C276.521 85.992 276.565 86.112 276.565 86.312V91.652C276.565 91.916 276.541 92.1 276.493 92.204C276.445 92.308 276.289 92.36 276.025 92.36H273.673C273.329 92.36 273.129 92.316 273.073 92.228C273.017 92.14 272.937 91.984 272.833 91.76C272.521 91.072 272.157 90.492 271.741 90.02C271.325 89.548 270.833 89.192 270.265 88.952C269.705 88.712 269.045 88.592 268.285 88.592C267.453 88.592 266.721 88.84 266.089 89.336C265.457 89.832 264.965 90.556 264.613 91.508C264.261 92.46 264.085 93.624 264.085 95C264.085 96.376 264.241 97.548 264.553 98.516C264.865 99.476 265.305 100.212 265.873 100.724C266.449 101.228 267.133 101.48 267.925 101.48C268.637 101.48 269.201 101.38 269.617 101.18C270.041 100.98 270.369 100.72 270.601 100.4C270.841 100.08 271.037 99.744 271.189 99.392C271.261 99.224 271.313 99.068 271.345 98.924C271.385 98.772 271.405 98.568 271.405 98.312V97.472C271.405 97.24 271.381 97.092 271.333 97.028C271.285 96.956 271.145 96.92 270.913 96.92H268.465C268.193 96.92 268.033 96.86 267.985 96.74C267.945 96.612 267.925 96.424 267.925 96.176V94.28C267.925 93.992 267.969 93.82 268.057 93.764C268.153 93.708 268.337 93.68 268.609 93.68ZM296.623 89.24H294.991C294.703 89.24 294.511 89.196 294.415 89.108C294.319 89.012 294.271 88.828 294.271 88.556V86.876C294.271 86.548 294.303 86.32 294.367 86.192C294.431 86.064 294.623 86 294.943 86H302.695C302.951 86 303.111 86.04 303.175 86.12C303.239 86.2 303.271 86.376 303.271 86.648V88.58C303.271 88.868 303.231 89.052 303.151 89.132C303.079 89.204 302.891 89.24 302.587 89.24H301.375C301.063 89.24 300.859 89.28 300.763 89.36C300.675 89.44 300.631 89.644 300.631 89.972V96.8C300.631 99.376 299.883 101.3 298.387 102.572C296.899 103.844 294.847 104.48 292.231 104.48C290.471 104.48 289.051 104.276 287.971 103.868C286.899 103.46 286.079 102.896 285.511 102.176C284.951 101.448 284.571 100.604 284.371 99.644C284.171 98.684 284.071 97.656 284.071 96.56V89.852C284.071 89.572 284.027 89.4 283.939 89.336C283.859 89.272 283.687 89.24 283.423 89.24H282.151C281.855 89.24 281.659 89.212 281.563 89.156C281.475 89.1 281.431 88.924 281.431 88.628V86.756C281.431 86.46 281.467 86.26 281.539 86.156C281.619 86.052 281.799 86 282.079 86H292.087C292.311 86 292.451 86.04 292.507 86.12C292.563 86.192 292.591 86.344 292.591 86.576V88.652C292.591 88.892 292.555 89.052 292.483 89.132C292.419 89.204 292.259 89.24 292.003 89.24H290.383C290.063 89.24 289.871 89.292 289.807 89.396C289.743 89.492 289.711 89.704 289.711 90.032V96.08C289.711 97.216 289.819 98.144 290.035 98.864C290.259 99.576 290.631 100.104 291.151 100.448C291.679 100.784 292.399 100.952 293.311 100.952C293.983 100.952 294.619 100.828 295.219 100.58C295.827 100.324 296.319 99.896 296.695 99.296C297.079 98.688 297.271 97.856 297.271 96.8V89.852C297.271 89.58 297.227 89.412 297.139 89.348C297.051 89.276 296.879 89.24 296.623 89.24ZM315.381 89.624V100.472C315.381 100.728 315.421 100.88 315.501 100.928C315.589 100.976 315.765 101 316.029 101H317.925C318.125 101 318.269 101.02 318.357 101.06C318.453 101.092 318.501 101.208 318.501 101.408V103.4C318.501 103.672 318.465 103.84 318.393 103.904C318.329 103.968 318.165 104 317.901 104H307.461C307.189 104 307.021 103.96 306.957 103.88C306.893 103.792 306.861 103.608 306.861 103.328V101.588C306.861 101.316 306.909 101.152 307.005 101.096C307.101 101.032 307.273 101 307.521 101H309.177C309.409 101 309.561 100.968 309.633 100.904C309.705 100.84 309.741 100.684 309.741 100.436V89.648C309.741 89.392 309.713 89.22 309.657 89.132C309.609 89.044 309.457 89 309.201 89H307.497C307.249 89 307.081 88.972 306.993 88.916C306.905 88.852 306.861 88.688 306.861 88.424V86.684C306.861 86.396 306.889 86.212 306.945 86.132C307.001 86.044 307.173 86 307.461 86H317.853C318.141 86 318.321 86.044 318.393 86.132C318.465 86.22 318.501 86.4 318.501 86.672V88.352C318.501 88.64 318.465 88.82 318.393 88.892C318.321 88.964 318.145 89 317.865 89H315.981C315.717 89 315.549 89.04 315.477 89.12C315.413 89.2 315.381 89.368 315.381 89.624ZM326.519 103.388V101.36C326.519 101.12 326.551 100.96 326.615 100.88C326.687 100.8 326.839 100.76 327.071 100.76H328.655C328.975 100.76 329.179 100.712 329.267 100.616C329.355 100.512 329.399 100.3 329.399 99.98V89.576C329.399 89.432 329.367 89.32 329.303 89.24C329.247 89.16 329.143 89.12 328.991 89.12H328.799C328.007 89.12 327.387 89.228 326.939 89.444C326.499 89.66 326.187 90.04 326.003 90.584C325.819 91.12 325.715 91.884 325.691 92.876C325.683 93.164 325.623 93.352 325.511 93.44C325.407 93.52 325.199 93.56 324.887 93.56H323.435C323.203 93.56 323.039 93.536 322.943 93.488C322.847 93.44 322.799 93.3 322.799 93.068V86.696C322.799 86.44 322.823 86.26 322.871 86.156C322.919 86.052 323.071 86 323.327 86H340.679C340.871 86 340.999 86.044 341.063 86.132C341.127 86.22 341.159 86.368 341.159 86.576V92.876C341.159 93.18 341.115 93.372 341.027 93.452C340.939 93.524 340.735 93.56 340.415 93.56H338.999C338.687 93.56 338.487 93.524 338.399 93.452C338.319 93.38 338.275 93.196 338.267 92.9C338.243 91.9 338.139 91.128 337.955 90.584C337.771 90.04 337.459 89.66 337.019 89.444C336.579 89.228 335.959 89.12 335.159 89.12H335.015C334.839 89.12 334.719 89.164 334.655 89.252C334.591 89.332 334.559 89.46 334.559 89.636V99.8C334.559 100.176 334.595 100.432 334.667 100.568C334.747 100.696 334.975 100.76 335.351 100.76H336.755C337.035 100.76 337.219 100.808 337.307 100.904C337.395 100.992 337.439 101.164 337.439 101.42V103.34C337.439 103.628 337.395 103.812 337.307 103.892C337.227 103.964 337.047 104 336.767 104H327.167C326.919 104 326.747 103.968 326.651 103.904C326.563 103.832 326.519 103.66 326.519 103.388ZM351.881 91.772L350.477 95.18C350.397 95.356 350.349 95.532 350.333 95.708C350.325 95.876 350.481 95.96 350.801 95.96H353.333C353.613 95.96 353.753 95.88 353.753 95.72C353.761 95.56 353.733 95.396 353.669 95.228L352.421 91.724C352.325 91.444 352.229 91.336 352.133 91.4C352.045 91.464 351.961 91.588 351.881 91.772ZM341.933 103.316V101.348C341.933 101.14 341.969 100.992 342.041 100.904C342.113 100.808 342.261 100.76 342.485 100.76H344.465C344.665 100.76 344.781 100.72 344.813 100.64C344.845 100.552 344.889 100.444 344.945 100.316L351.029 86.036C351.109 85.844 351.185 85.732 351.257 85.7C351.337 85.66 351.513 85.64 351.785 85.64H355.385C355.665 85.64 355.845 85.68 355.925 85.76C356.013 85.832 356.097 85.964 356.177 86.156L361.709 100.028C361.797 100.252 361.865 100.432 361.913 100.568C361.969 100.696 362.169 100.76 362.513 100.76H364.097C364.305 100.76 364.461 100.78 364.565 100.82C364.677 100.86 364.733 100.996 364.733 101.228V103.46C364.733 103.7 364.701 103.852 364.637 103.916C364.573 103.972 364.425 104 364.193 104H353.465C353.225 104 353.081 103.964 353.033 103.892C352.993 103.812 352.973 103.652 352.973 103.412V101.276C352.973 101.044 353.001 100.9 353.057 100.844C353.121 100.788 353.265 100.76 353.489 100.76H354.857C355.209 100.76 355.417 100.72 355.481 100.64C355.545 100.56 355.533 100.404 355.445 100.172L355.157 99.356C355.101 99.196 355.049 99.092 355.001 99.044C354.961 98.988 354.825 98.96 354.593 98.96H349.529C349.297 98.96 349.133 98.968 349.037 98.984C348.941 98.992 348.857 99.084 348.785 99.26L348.389 100.244C348.309 100.436 348.285 100.572 348.317 100.652C348.349 100.724 348.473 100.76 348.689 100.76H349.937C350.129 100.76 350.241 100.796 350.273 100.868C350.313 100.932 350.333 101.06 350.333 101.252V103.556C350.333 103.756 350.297 103.88 350.225 103.928C350.153 103.976 350.025 104 349.841 104H342.725C342.389 104 342.173 103.972 342.077 103.916C341.981 103.852 341.933 103.652 341.933 103.316ZM389.769 101.444C389.177 102.332 388.473 103.06 387.657 103.628C386.841 104.196 385.801 104.48 384.537 104.48C383.633 104.48 382.909 104.336 382.365 104.048C381.821 103.76 381.401 103.384 381.105 102.92C380.809 102.448 380.585 101.932 380.433 101.372C380.281 100.804 380.149 100.24 380.037 99.68C379.925 99.112 379.785 98.596 379.617 98.132C379.449 97.66 379.197 97.28 378.861 96.992C378.533 96.704 378.065 96.56 377.457 96.56H376.473C376.249 96.56 376.117 96.6 376.077 96.68C376.037 96.752 376.017 96.904 376.017 97.136V100.28C376.017 100.464 376.033 100.592 376.065 100.664C376.105 100.728 376.217 100.76 376.401 100.76H378.105C378.321 100.76 378.465 100.796 378.537 100.868C378.617 100.932 378.657 101.08 378.657 101.312V103.136C378.657 103.488 378.625 103.72 378.561 103.832C378.497 103.944 378.289 104 377.937 104H368.253C368.053 104 367.917 103.976 367.845 103.928C367.773 103.872 367.737 103.744 367.737 103.544V101.288C367.737 101.064 367.765 100.92 367.821 100.856C367.885 100.792 368.025 100.76 368.241 100.76H369.693C369.973 100.76 370.157 100.724 370.245 100.652C370.333 100.58 370.377 100.408 370.377 100.136V89.852C370.377 89.572 370.333 89.4 370.245 89.336C370.157 89.272 369.985 89.24 369.729 89.24H368.289C368.041 89.24 367.885 89.196 367.821 89.108C367.765 89.02 367.737 88.856 367.737 88.616V86.456C367.737 86.248 367.773 86.12 367.845 86.072C367.925 86.024 368.069 86 368.277 86H378.657C380.505 86 382.013 86.192 383.181 86.576C384.349 86.952 385.205 87.492 385.749 88.196C386.301 88.892 386.577 89.72 386.577 90.68C386.577 91.648 386.369 92.452 385.953 93.092C385.545 93.732 384.845 94.24 383.853 94.616C383.557 94.728 383.369 94.84 383.289 94.952C383.217 95.064 383.337 95.208 383.649 95.384C384.137 95.648 384.517 95.952 384.789 96.296C385.061 96.64 385.261 96.996 385.389 97.364C385.525 97.732 385.621 98.092 385.677 98.444C385.733 98.788 385.785 99.104 385.833 99.392C385.881 99.672 385.953 99.896 386.049 100.064C386.153 100.224 386.321 100.304 386.553 100.304C386.737 100.304 386.921 100.236 387.105 100.1C387.297 99.956 387.465 99.784 387.609 99.584C387.745 99.384 387.857 99.284 387.945 99.284C388.041 99.276 388.189 99.352 388.389 99.512L389.625 100.472C389.841 100.64 389.953 100.792 389.961 100.928C389.977 101.056 389.913 101.228 389.769 101.444ZM376.641 93.44H378.657C379.105 93.44 379.489 93.352 379.809 93.176C380.137 93 380.385 92.76 380.553 92.456C380.729 92.144 380.817 91.792 380.817 91.4C380.817 91.008 380.729 90.648 380.553 90.32C380.385 89.992 380.137 89.732 379.809 89.54C379.489 89.34 379.105 89.24 378.657 89.24H376.521C376.297 89.24 376.157 89.28 376.101 89.36C376.045 89.432 376.017 89.584 376.017 89.816V92.888C376.017 93.184 376.049 93.352 376.113 93.392C376.177 93.424 376.353 93.44 376.641 93.44ZM405.322 89.24H403.954C403.674 89.24 403.506 89.22 403.45 89.18C403.402 89.132 403.378 88.964 403.378 88.676V86.372C403.378 86.124 403.434 86 403.546 86C403.658 86 403.826 86 404.05 86H412.81C413.13 86 413.346 86.036 413.458 86.108C413.578 86.18 413.658 86.292 413.698 86.444C413.746 86.588 413.806 86.772 413.878 86.996L416.17 94.172C416.298 94.556 416.402 94.924 416.482 95.276C416.57 95.628 416.674 95.804 416.794 95.804C416.93 95.804 417.042 95.7 417.13 95.492C417.218 95.276 417.338 94.964 417.49 94.556L420.502 86.492C420.59 86.268 420.666 86.132 420.73 86.084C420.802 86.028 420.994 86 421.306 86H428.818C429.122 86 429.338 86.004 429.466 86.012C429.594 86.02 429.658 86.188 429.658 86.516V88.628C429.658 88.924 429.638 89.1 429.598 89.156C429.558 89.212 429.386 89.24 429.082 89.24H427.618C427.362 89.24 427.214 89.264 427.174 89.312C427.142 89.36 427.13 89.508 427.138 89.756L427.498 100.268C427.506 100.476 427.518 100.612 427.534 100.676C427.558 100.732 427.682 100.76 427.906 100.76H429.826C430.026 100.76 430.146 100.792 430.186 100.856C430.234 100.912 430.258 101.044 430.258 101.252V103.34C430.258 103.596 430.23 103.772 430.174 103.868C430.126 103.956 429.962 104 429.682 104H420.37C420.106 104 419.946 103.964 419.89 103.892C419.842 103.812 419.818 103.636 419.818 103.364V101.324C419.818 101.052 419.862 100.892 419.95 100.844C420.046 100.788 420.218 100.76 420.466 100.76H421.738C421.994 100.76 422.162 100.72 422.242 100.64C422.33 100.552 422.37 100.384 422.362 100.136L422.218 94.724C422.202 94.164 422.214 93.636 422.254 93.14C422.302 92.636 422.326 92.228 422.326 91.916C422.326 91.596 422.25 91.436 422.098 91.436C422.002 91.436 421.926 91.488 421.87 91.592C421.814 91.688 421.758 91.844 421.702 92.06C421.646 92.276 421.554 92.564 421.426 92.924L417.742 103.748C417.654 104.004 417.558 104.168 417.454 104.24C417.35 104.32 417.122 104.36 416.77 104.36H414.609C414.258 104.36 414.026 104.32 413.914 104.24C413.81 104.168 413.714 104.004 413.626 103.748L410.062 93.356C409.958 93.052 409.858 92.704 409.762 92.312C409.674 91.92 409.586 91.576 409.498 91.28C409.41 90.984 409.314 90.836 409.21 90.836C409.106 90.836 409.046 90.948 409.03 91.172C409.014 91.396 408.994 91.78 408.97 92.324L408.61 99.908C408.602 100.196 408.614 100.412 408.646 100.556C408.678 100.692 408.858 100.76 409.186 100.76H410.77C410.994 100.76 411.138 100.792 411.202 100.856C411.266 100.92 411.298 101.068 411.298 101.3V103.388C411.298 103.684 411.25 103.86 411.154 103.916C411.066 103.972 410.882 104 410.602 104H403.162C402.882 104 402.706 103.964 402.634 103.892C402.57 103.82 402.538 103.636 402.538 103.34V101.18C402.538 101.012 402.558 100.9 402.598 100.844C402.638 100.788 402.738 100.76 402.898 100.76H404.794C405.154 100.76 405.338 100.688 405.346 100.544C405.362 100.392 405.378 100.156 405.394 99.836L405.946 89.66C405.962 89.404 405.926 89.272 405.838 89.264C405.75 89.248 405.578 89.24 405.322 89.24ZM443.207 91.772L441.803 95.18C441.723 95.356 441.675 95.532 441.659 95.708C441.651 95.876 441.807 95.96 442.127 95.96H444.659C444.939 95.96 445.079 95.88 445.079 95.72C445.087 95.56 445.059 95.396 444.995 95.228L443.747 91.724C443.651 91.444 443.555 91.336 443.459 91.4C443.371 91.464 443.287 91.588 443.207 91.772ZM433.259 103.316V101.348C433.259 101.14 433.295 100.992 433.367 100.904C433.439 100.808 433.587 100.76 433.811 100.76H435.791C435.991 100.76 436.107 100.72 436.139 100.64C436.171 100.552 436.215 100.444 436.271 100.316L442.355 86.036C442.435 85.844 442.511 85.732 442.583 85.7C442.663 85.66 442.839 85.64 443.111 85.64H446.711C446.991 85.64 447.171 85.68 447.251 85.76C447.339 85.832 447.423 85.964 447.503 86.156L453.035 100.028C453.123 100.252 453.191 100.432 453.239 100.568C453.295 100.696 453.495 100.76 453.839 100.76H455.423C455.631 100.76 455.787 100.78 455.891 100.82C456.003 100.86 456.059 100.996 456.059 101.228V103.46C456.059 103.7 456.027 103.852 455.963 103.916C455.899 103.972 455.751 104 455.519 104H444.791C444.551 104 444.407 103.964 444.359 103.892C444.319 103.812 444.299 103.652 444.299 103.412V101.276C444.299 101.044 444.327 100.9 444.383 100.844C444.447 100.788 444.591 100.76 444.815 100.76H446.183C446.535 100.76 446.743 100.72 446.807 100.64C446.871 100.56 446.859 100.404 446.771 100.172L446.483 99.356C446.427 99.196 446.375 99.092 446.327 99.044C446.287 98.988 446.151 98.96 445.919 98.96H440.855C440.623 98.96 440.459 98.968 440.363 98.984C440.267 98.992 440.183 99.084 440.111 99.26L439.715 100.244C439.635 100.436 439.611 100.572 439.643 100.652C439.675 100.724 439.799 100.76 440.015 100.76H441.263C441.455 100.76 441.567 100.796 441.599 100.868C441.639 100.932 441.659 101.06 441.659 101.252V103.556C441.659 103.756 441.623 103.88 441.551 103.928C441.479 103.976 441.351 104 441.167 104H434.051C433.715 104 433.499 103.972 433.403 103.916C433.307 103.852 433.259 103.652 433.259 103.316ZM461.271 103.388V101.36C461.271 101.12 461.303 100.96 461.367 100.88C461.439 100.8 461.591 100.76 461.823 100.76H463.407C463.727 100.76 463.931 100.712 464.019 100.616C464.107 100.512 464.151 100.3 464.151 99.98V89.576C464.151 89.432 464.119 89.32 464.055 89.24C463.999 89.16 463.895 89.12 463.743 89.12H463.551C462.759 89.12 462.139 89.228 461.691 89.444C461.251 89.66 460.939 90.04 460.755 90.584C460.571 91.12 460.467 91.884 460.443 92.876C460.435 93.164 460.375 93.352 460.263 93.44C460.159 93.52 459.951 93.56 459.639 93.56H458.187C457.955 93.56 457.791 93.536 457.695 93.488C457.599 93.44 457.551 93.3 457.551 93.068V86.696C457.551 86.44 457.575 86.26 457.623 86.156C457.671 86.052 457.823 86 458.079 86H475.431C475.623 86 475.751 86.044 475.815 86.132C475.879 86.22 475.911 86.368 475.911 86.576V92.876C475.911 93.18 475.867 93.372 475.779 93.452C475.691 93.524 475.487 93.56 475.167 93.56H473.751C473.439 93.56 473.239 93.524 473.151 93.452C473.071 93.38 473.027 93.196 473.019 92.9C472.995 91.9 472.891 91.128 472.707 90.584C472.523 90.04 472.211 89.66 471.771 89.444C471.331 89.228 470.711 89.12 469.911 89.12H469.767C469.591 89.12 469.471 89.164 469.407 89.252C469.343 89.332 469.311 89.46 469.311 89.636V99.8C469.311 100.176 469.347 100.432 469.419 100.568C469.499 100.696 469.727 100.76 470.103 100.76H471.507C471.787 100.76 471.971 100.808 472.059 100.904C472.147 100.992 472.191 101.164 472.191 101.42V103.34C472.191 103.628 472.147 103.812 472.059 103.892C471.979 103.964 471.799 104 471.519 104H461.919C461.671 104 461.499 103.968 461.403 103.904C461.315 103.832 461.271 103.66 461.271 103.388ZM482.021 89.24H480.461C480.213 89.24 480.057 89.204 479.993 89.132C479.937 89.06 479.909 88.904 479.909 88.664V86.552C479.909 86.28 479.957 86.12 480.053 86.072C480.157 86.024 480.333 86 480.581 86H497.765C497.997 86 498.137 86.04 498.185 86.12C498.241 86.2 498.269 86.352 498.269 86.576V92.624C498.269 92.848 498.249 92.98 498.209 93.02C498.177 93.06 498.045 93.08 497.813 93.08H495.533C495.357 93.08 495.249 93.04 495.209 92.96C495.169 92.872 495.145 92.752 495.137 92.6C495.113 91.784 495.005 91.132 494.813 90.644C494.629 90.148 494.297 89.792 493.817 89.576C493.345 89.352 492.669 89.24 491.789 89.24H488.885C488.653 89.24 488.477 89.272 488.357 89.336C488.245 89.392 488.189 89.548 488.189 89.804V92.984C488.189 93.272 488.217 93.46 488.273 93.548C488.329 93.636 488.453 93.68 488.645 93.68H488.705C489.321 93.68 489.817 93.464 490.193 93.032C490.569 92.6 490.805 92.104 490.901 91.544C490.933 91.36 490.969 91.22 491.009 91.124C491.049 91.02 491.153 90.968 491.321 90.968H492.653C492.909 90.968 493.069 91 493.133 91.064C493.197 91.128 493.229 91.288 493.229 91.544V98.504C493.229 98.712 493.201 98.848 493.145 98.912C493.089 98.976 492.949 99.008 492.725 99.008H491.429C491.181 99.008 491.037 98.956 490.997 98.852C490.965 98.74 490.929 98.584 490.889 98.384C490.825 98.016 490.685 97.668 490.469 97.34C490.261 97.004 490.009 96.732 489.713 96.524C489.425 96.308 489.125 96.2 488.813 96.2H488.741C488.581 96.2 488.449 96.256 488.345 96.368C488.241 96.472 488.189 96.648 488.189 96.896V100.28C488.189 100.56 488.229 100.712 488.309 100.736C488.389 100.752 488.565 100.76 488.837 100.76H491.549C492.565 100.76 493.341 100.632 493.877 100.376C494.421 100.112 494.801 99.696 495.017 99.128C495.233 98.56 495.353 97.816 495.377 96.896C495.393 96.592 495.417 96.4 495.449 96.32C495.481 96.24 495.661 96.2 495.989 96.2H498.029C498.301 96.2 498.449 96.236 498.473 96.308C498.497 96.372 498.509 96.536 498.509 96.8V103.52C498.509 103.768 498.485 103.912 498.437 103.952C498.389 103.984 498.237 104 497.981 104H480.509C480.269 104 480.109 103.992 480.029 103.976C479.949 103.96 479.909 103.824 479.909 103.568V101.144C479.909 100.936 479.929 100.82 479.969 100.796C480.017 100.772 480.141 100.76 480.341 100.76H482.021C482.277 100.76 482.429 100.74 482.477 100.7C482.525 100.66 482.549 100.512 482.549 100.256V89.696C482.549 89.488 482.513 89.36 482.441 89.312C482.377 89.264 482.237 89.24 482.021 89.24ZM502.826 85.976C502.826 85.392 502.974 84.888 503.27 84.464C503.574 84.032 503.966 83.7 504.446 83.468C504.934 83.236 505.45 83.12 505.994 83.12C507.002 83.12 507.814 83.452 508.43 84.116C509.046 84.772 509.354 85.748 509.354 87.044C509.354 87.884 509.166 88.656 508.79 89.36C508.422 90.056 507.942 90.664 507.35 91.184C506.766 91.704 506.15 92.124 505.502 92.444C504.854 92.756 504.254 92.948 503.702 93.02C503.526 93.044 503.406 93.032 503.342 92.984C503.286 92.936 503.258 92.816 503.258 92.624V91.196C503.258 91.076 503.282 90.996 503.33 90.956C503.378 90.916 503.454 90.892 503.558 90.884C504.038 90.836 504.506 90.692 504.962 90.452C505.418 90.212 505.818 89.936 506.162 89.624C506.514 89.304 506.774 89.008 506.942 88.736C506.974 88.688 506.97 88.652 506.93 88.628C506.898 88.596 506.846 88.596 506.774 88.628C506.638 88.684 506.462 88.732 506.246 88.772C506.038 88.812 505.802 88.832 505.538 88.832C504.722 88.832 504.066 88.576 503.57 88.064C503.074 87.544 502.826 86.848 502.826 85.976ZM510.266 85.976C510.266 85.392 510.414 84.888 510.71 84.464C511.014 84.032 511.406 83.7 511.886 83.468C512.374 83.236 512.89 83.12 513.434 83.12C514.442 83.12 515.254 83.452 515.87 84.116C516.486 84.772 516.794 85.748 516.794 87.044C516.794 87.884 516.606 88.656 516.23 89.36C515.862 90.056 515.382 90.664 514.79 91.184C514.206 91.704 513.59 92.124 512.942 92.444C512.294 92.756 511.694 92.948 511.142 93.02C510.966 93.044 510.846 93.032 510.782 92.984C510.726 92.936 510.698 92.816 510.698 92.624V91.196C510.698 91.076 510.722 90.996 510.77 90.956C510.818 90.916 510.894 90.892 510.998 90.884C511.478 90.836 511.946 90.692 512.402 90.452C512.858 90.212 513.258 89.936 513.602 89.624C513.954 89.304 514.214 89.008 514.382 88.736C514.414 88.688 514.41 88.652 514.37 88.628C514.338 88.596 514.286 88.596 514.214 88.628C514.078 88.684 513.902 88.732 513.686 88.772C513.478 88.812 513.242 88.832 512.978 88.832C512.162 88.832 511.506 88.576 511.01 88.064C510.514 87.544 510.266 86.848 510.266 85.976ZM255.319 124.6H252.479V135H249.019V124.6H246.179V121.66H255.319V124.6ZM258.853 121.66H262.313V129.56C262.313 130.12 262.333 130.98 262.993 131.62C263.393 132 264.033 132.26 264.633 132.26C265.233 132.26 265.853 132.02 266.233 131.68C267.033 130.98 267.013 130 267.013 129.26V121.66H270.473V129.32C270.473 130.72 270.413 132.18 268.973 133.64C267.853 134.78 266.453 135.3 264.573 135.3C262.473 135.3 260.973 134.58 260.153 133.7C258.993 132.44 258.853 130.74 258.853 129.32V121.66ZM280.827 135H275.267V121.66H280.427C281.387 121.66 282.527 121.8 283.347 122.7C283.807 123.2 284.167 124.02 284.167 125.2C284.167 125.78 284.067 126.28 283.787 126.84C283.507 127.36 283.207 127.66 282.707 127.88C283.407 127.96 284.107 128.28 284.527 128.68C285.067 129.2 285.427 130.06 285.427 131.12C285.427 132.38 284.947 133.24 284.447 133.74C283.727 134.48 282.467 135 280.827 135ZM278.727 124.32V126.92H279.367C279.727 126.92 280.327 126.88 280.687 126.5C280.907 126.28 281.007 125.92 281.007 125.62C281.007 125.28 280.887 124.94 280.687 124.72C280.467 124.5 280.047 124.32 279.367 124.32H278.727ZM278.727 129.5V132.3H279.507C280.467 132.3 281.267 132.2 281.647 131.76C281.807 131.58 281.927 131.28 281.927 130.9C281.927 130.48 281.787 130.14 281.587 129.94C281.167 129.52 280.307 129.5 279.447 129.5H278.727ZM297.21 121.66V124.6H293.09V126.82H296.99V129.76H293.09V132.06H297.21V135H289.63V121.66H297.21ZM308.084 121.66H311.544V132.06H315.704V135H308.084V121.66ZM328.438 135L327.618 132.76H322.778L321.878 135H318.218L323.338 121.66H327.118L332.138 135H328.438ZM323.738 130.12H326.698L325.198 125.8L323.738 130.12ZM337.353 135V128.6L332.533 121.66H336.673L339.193 125.3L341.613 121.66H345.813L340.833 128.6V135H337.353ZM362.325 128.34C362.325 130.1 361.645 131.96 360.225 133.32C358.865 134.62 356.945 135.3 354.965 135.3C352.985 135.3 351.065 134.62 349.705 133.32C348.285 131.96 347.605 130.1 347.605 128.34C347.605 126.56 348.285 124.68 349.705 123.34C351.065 122.04 352.985 121.36 354.965 121.36C356.945 121.36 358.865 122.04 360.225 123.34C361.645 124.68 362.325 126.56 362.325 128.34ZM354.965 124.72C354.005 124.72 352.985 125.06 352.265 125.78C351.545 126.48 351.205 127.46 351.205 128.4C351.205 129.58 351.765 130.4 352.265 130.88C352.905 131.5 353.805 131.94 354.965 131.94C356.145 131.94 357.025 131.52 357.645 130.9C358.265 130.28 358.725 129.36 358.725 128.34C358.725 127.3 358.265 126.38 357.645 125.78C356.905 125.08 355.885 124.72 354.965 124.72ZM366.533 121.66H369.993V129.56C369.993 130.12 370.013 130.98 370.673 131.62C371.073 132 371.713 132.26 372.313 132.26C372.913 132.26 373.533 132.02 373.913 131.68C374.713 130.98 374.693 130 374.693 129.26V121.66H378.153V129.32C378.153 130.72 378.093 132.18 376.653 133.64C375.533 134.78 374.133 135.3 372.253 135.3C370.153 135.3 368.653 134.58 367.833 133.7C366.673 132.44 366.533 130.74 366.533 129.32V121.66ZM390.827 124.6H387.987V135H384.527V124.6H381.687V121.66H390.827V124.6Z" fill="black"/>
</g>
<defs>
<clipPath id="clip0_45_2">
<rect width="638" height="344" fill="white"/>
</clipPath>
</defs>
</svg>
