<svg width="638" height="344" viewBox="0 0 638 344" fill="none" xmlns="http://www.w3.org/2000/svg">
<g clip-path="url(#clip0_4_2)">
<rect x="0.5" y="0.5" width="637" height="343" stroke="#767676" stroke-dasharray="2 5"/>
<circle cx="107" cy="217" r="43.5" stroke="black" stroke-width="3"/>
<circle cx="230" cy="217" r="43.5" stroke="black" stroke-width="3"/>
<circle cx="349.5" cy="229.5" r="31" stroke="black" stroke-width="3"/>
<circle cx="447.5" cy="229.5" r="31" stroke="black" stroke-width="3"/>
<circle cx="545.5" cy="229.5" r="31" stroke="black" stroke-width="3"/>
<circle cx="545.5" cy="90.5" r="31" stroke="black" stroke-width="3"/>
<path d="M95.96 209.92L99.6 219.08L103.26 209.92H107.52L101.08 225H98.04L91.7 209.92H95.96ZM118.495 218.88H120.315V221.88H118.495V225H114.855V221.88H107.535V219.38L113.355 209.92H118.495V218.88ZM114.855 218.88V213.08H114.815L111.295 218.88H114.855Z" fill="black"/>
<path d="M218.96 209.92L222.6 219.08L226.26 209.92H230.52L224.08 225H221.04L214.7 209.92H218.96ZM235.315 214.26H231.675C231.822 212.753 232.408 211.54 233.435 210.62C234.408 209.753 235.688 209.32 237.275 209.32C238.675 209.32 239.828 209.707 240.735 210.48C241.642 211.253 242.095 212.327 242.095 213.7C242.095 214.34 241.962 214.947 241.695 215.52C241.428 216.08 241.035 216.507 240.515 216.8C241.275 217 241.875 217.48 242.315 218.24C242.755 218.987 242.975 219.773 242.975 220.6C242.975 221.653 242.688 222.567 242.115 223.34C241.555 224.113 240.835 224.68 239.955 225.04C239.088 225.413 238.142 225.6 237.115 225.6C235.235 225.6 233.735 225.033 232.615 223.9C232.135 223.407 231.722 222.807 231.375 222.1C231.042 221.393 230.882 220.727 230.895 220.1H234.895C234.895 220.713 235.088 221.227 235.475 221.64C235.875 222.04 236.382 222.24 236.995 222.24C237.608 222.24 238.108 222.053 238.495 221.68C238.895 221.307 239.095 220.82 239.095 220.22C239.095 219.66 238.888 219.187 238.475 218.8C238.062 218.4 237.575 218.2 237.015 218.2C236.855 218.2 236.628 218.24 236.335 218.32V215.7H236.735C237.242 215.7 237.655 215.553 237.975 215.26C238.295 214.953 238.455 214.547 238.455 214.04C238.455 213.587 238.308 213.22 238.015 212.94C237.722 212.66 237.355 212.52 236.915 212.52C236.422 212.52 236.028 212.687 235.735 213.02C235.442 213.34 235.302 213.753 235.315 214.26Z" fill="black"/>
<path d="M69.284 278.444H72.392L69.396 282.014L69.424 282.042C69.9093 281.827 70.3993 281.72 70.894 281.72C71.8927 281.72 72.7047 282.089 73.33 282.826C73.9647 283.554 74.282 284.422 74.282 285.43C74.282 286.671 73.8433 287.647 72.966 288.356C72.0887 289.065 71.0153 289.42 69.746 289.42C68.5047 289.42 67.5013 289.117 66.736 288.51C66.3067 288.155 65.9613 287.721 65.7 287.208C65.448 286.685 65.322 286.153 65.322 285.612C65.322 284.287 65.8867 282.887 67.016 281.412L69.284 278.444ZM68.5 286.76C68.8453 287.096 69.256 287.264 69.732 287.264C70.208 287.264 70.6093 287.096 70.936 286.76C71.2627 286.415 71.426 285.999 71.426 285.514C71.426 285.038 71.2627 284.632 70.936 284.296C70.6093 283.96 70.208 283.792 69.732 283.792C69.256 283.792 68.8453 283.96 68.5 284.296C68.164 284.632 67.996 285.038 67.996 285.514C67.996 285.999 68.164 286.415 68.5 286.76ZM78.2377 284.632V286.9H78.5877C78.8117 286.9 78.961 286.9 79.0357 286.9C79.1197 286.9 79.2737 286.891 79.4977 286.872C79.7217 286.853 79.885 286.821 79.9877 286.774C80.0997 286.727 80.2257 286.667 80.3657 286.592C80.515 286.508 80.6177 286.401 80.6737 286.27C80.739 286.13 80.7717 285.967 80.7717 285.78C80.7717 285.64 80.7577 285.514 80.7297 285.402C80.7017 285.29 80.6503 285.197 80.5757 285.122C80.5103 285.047 80.4497 284.982 80.3937 284.926C80.3377 284.861 80.2443 284.814 80.1137 284.786C79.9923 284.749 79.899 284.721 79.8337 284.702C79.7683 284.674 79.6517 284.655 79.4837 284.646C79.325 284.637 79.2177 284.632 79.1617 284.632C79.115 284.632 79.003 284.632 78.8257 284.632C78.6483 284.632 78.5457 284.632 78.5177 284.632H78.2377ZM79.7217 289H75.4937V278.444H79.4137C81.5043 278.444 82.5497 279.359 82.5497 281.188C82.5497 282.233 82.1623 282.952 81.3877 283.344V283.372C82.825 283.559 83.5437 284.455 83.5437 286.06C83.5437 286.592 83.4363 287.054 83.2217 287.446C83.007 287.838 82.713 288.146 82.3397 288.37C81.9757 288.585 81.5743 288.743 81.1357 288.846C80.7063 288.949 80.235 289 79.7217 289ZM78.2377 280.544V282.588H78.5457C78.9937 282.588 79.353 282.518 79.6237 282.378C79.8943 282.238 80.0297 281.967 80.0297 281.566C80.0297 281.333 79.983 281.146 79.8897 281.006C79.8057 280.857 79.675 280.754 79.4977 280.698C79.3203 280.633 79.157 280.591 79.0077 280.572C78.8583 280.553 78.667 280.544 78.4337 280.544H78.2377ZM92.0243 284.548L92.7663 285.318C93.0929 284.861 93.2563 284.343 93.2563 283.764C93.2563 282.961 92.9623 282.261 92.3743 281.664C91.7956 281.057 91.1003 280.754 90.2883 280.754C89.4763 280.754 88.7716 281.034 88.1743 281.594C87.5863 282.154 87.2923 282.803 87.2923 283.54C87.2923 284.436 87.5816 285.187 88.1603 285.794C88.7483 286.391 89.4576 286.69 90.2883 286.69C90.5776 286.69 90.8576 286.643 91.1283 286.55L89.4343 284.87L92.0243 284.548ZM96.5323 289.266L94.0123 289.658L93.1723 288.664C92.4163 289.121 91.4503 289.35 90.2743 289.35C88.5756 289.35 87.1756 288.809 86.0743 287.726C84.9823 286.634 84.4363 285.234 84.4363 283.526C84.4363 282.49 84.7116 281.552 85.2623 280.712C85.8129 279.872 86.5316 279.228 87.4183 278.78C88.3049 278.323 89.2569 278.094 90.2743 278.094C91.9449 278.094 93.3356 278.617 94.4463 279.662C95.5569 280.698 96.1123 282.061 96.1123 283.75C96.1123 285.103 95.6596 286.34 94.7543 287.46L96.5323 289.266ZM104.396 280.768H100.742L100.56 281.972L101.428 281.902C102.492 281.818 103.379 282.149 104.088 282.896C104.807 283.643 105.166 284.571 105.166 285.682C105.166 286.839 104.714 287.791 103.808 288.538C103.071 289.126 102.044 289.42 100.728 289.42C99.4217 289.42 98.2737 289.103 97.2843 288.468L97.6903 285.878C98.5957 286.69 99.5757 287.096 100.63 287.096C101.078 287.096 101.47 286.951 101.806 286.662C102.142 286.363 102.31 285.99 102.31 285.542C102.31 284.954 102.077 284.506 101.61 284.198C101.153 283.89 100.616 283.736 100 283.736C99.2723 283.736 98.6003 283.881 97.9843 284.17L98.9083 278.444H104.396V280.768ZM111.865 277.38H113.867L108.519 290.302H106.517L111.865 277.38ZM121.148 280.768H117.886V282.532H120.98V284.856H117.886V286.676H121.148V289H115.142V278.444H121.148V280.768ZM125.583 278.444V286.676H128.873V289H122.839V278.444H125.583ZM134.489 280.278C134.265 280.045 133.994 279.928 133.677 279.928C133.36 279.928 133.084 280.045 132.851 280.278C132.627 280.511 132.515 280.791 132.515 281.118C132.515 281.445 132.627 281.725 132.851 281.958C133.084 282.191 133.36 282.308 133.677 282.308C133.994 282.308 134.265 282.191 134.489 281.958C134.722 281.725 134.839 281.445 134.839 281.118C134.839 280.791 134.722 280.511 134.489 280.278ZM134.559 284.954C134.316 284.693 134.022 284.562 133.677 284.562C133.332 284.562 133.033 284.693 132.781 284.954C132.538 285.206 132.417 285.514 132.417 285.878C132.417 286.233 132.538 286.536 132.781 286.788C133.033 287.04 133.332 287.166 133.677 287.166C134.022 287.166 134.316 287.04 134.559 286.788C134.811 286.536 134.937 286.233 134.937 285.878C134.937 285.514 134.811 285.206 134.559 284.954ZM131.143 278.822C131.852 278.29 132.697 278.024 133.677 278.024C134.657 278.024 135.502 278.29 136.211 278.822C136.92 279.345 137.275 280.082 137.275 281.034C137.275 281.585 137.116 282.084 136.799 282.532C136.491 282.971 136.094 283.269 135.609 283.428V283.456C136.253 283.671 136.762 284.021 137.135 284.506C137.518 284.982 137.709 285.556 137.709 286.228C137.709 286.919 137.494 287.516 137.065 288.02C136.636 288.515 136.122 288.869 135.525 289.084C134.937 289.308 134.321 289.42 133.677 289.42C133.033 289.42 132.412 289.308 131.815 289.084C131.227 288.869 130.718 288.515 130.289 288.02C129.86 287.516 129.645 286.919 129.645 286.228C129.645 285.556 129.832 284.982 130.205 284.506C130.588 284.021 131.101 283.671 131.745 283.456V283.428C131.26 283.269 130.858 282.971 130.541 282.532C130.233 282.084 130.079 281.585 130.079 281.034C130.079 280.082 130.434 279.345 131.143 278.822ZM146.369 284.716H147.643V286.816H146.369V289H143.821V286.816H138.697V285.066L142.771 278.444H146.369V284.716ZM143.821 284.716V280.656H143.793L141.329 284.716H143.821Z" fill="black"/>
<path d="M192.284 278.444H195.392L192.396 282.014L192.424 282.042C192.909 281.827 193.399 281.72 193.894 281.72C194.893 281.72 195.705 282.089 196.33 282.826C196.965 283.554 197.282 284.422 197.282 285.43C197.282 286.671 196.843 287.647 195.966 288.356C195.089 289.065 194.015 289.42 192.746 289.42C191.505 289.42 190.501 289.117 189.736 288.51C189.307 288.155 188.961 287.721 188.7 287.208C188.448 286.685 188.322 286.153 188.322 285.612C188.322 284.287 188.887 282.887 190.016 281.412L192.284 278.444ZM191.5 286.76C191.845 287.096 192.256 287.264 192.732 287.264C193.208 287.264 193.609 287.096 193.936 286.76C194.263 286.415 194.426 285.999 194.426 285.514C194.426 285.038 194.263 284.632 193.936 284.296C193.609 283.96 193.208 283.792 192.732 283.792C192.256 283.792 191.845 283.96 191.5 284.296C191.164 284.632 190.996 285.038 190.996 285.514C190.996 285.999 191.164 286.415 191.5 286.76ZM201.238 284.632V286.9H201.588C201.812 286.9 201.961 286.9 202.036 286.9C202.12 286.9 202.274 286.891 202.498 286.872C202.722 286.853 202.885 286.821 202.988 286.774C203.1 286.727 203.226 286.667 203.366 286.592C203.515 286.508 203.618 286.401 203.674 286.27C203.739 286.13 203.772 285.967 203.772 285.78C203.772 285.64 203.758 285.514 203.73 285.402C203.702 285.29 203.65 285.197 203.576 285.122C203.51 285.047 203.45 284.982 203.394 284.926C203.338 284.861 203.244 284.814 203.114 284.786C202.992 284.749 202.899 284.721 202.834 284.702C202.768 284.674 202.652 284.655 202.484 284.646C202.325 284.637 202.218 284.632 202.162 284.632C202.115 284.632 202.003 284.632 201.826 284.632C201.648 284.632 201.546 284.632 201.518 284.632H201.238ZM202.722 289H198.494V278.444H202.414C204.504 278.444 205.55 279.359 205.55 281.188C205.55 282.233 205.162 282.952 204.388 283.344V283.372C205.825 283.559 206.544 284.455 206.544 286.06C206.544 286.592 206.436 287.054 206.222 287.446C206.007 287.838 205.713 288.146 205.34 288.37C204.976 288.585 204.574 288.743 204.136 288.846C203.706 288.949 203.235 289 202.722 289ZM201.238 280.544V282.588H201.546C201.994 282.588 202.353 282.518 202.624 282.378C202.894 282.238 203.03 281.967 203.03 281.566C203.03 281.333 202.983 281.146 202.89 281.006C202.806 280.857 202.675 280.754 202.498 280.698C202.32 280.633 202.157 280.591 202.008 280.572C201.858 280.553 201.667 280.544 201.434 280.544H201.238ZM215.024 284.548L215.766 285.318C216.093 284.861 216.256 284.343 216.256 283.764C216.256 282.961 215.962 282.261 215.374 281.664C214.796 281.057 214.1 280.754 213.288 280.754C212.476 280.754 211.772 281.034 211.174 281.594C210.586 282.154 210.292 282.803 210.292 283.54C210.292 284.436 210.582 285.187 211.16 285.794C211.748 286.391 212.458 286.69 213.288 286.69C213.578 286.69 213.858 286.643 214.128 286.55L212.434 284.87L215.024 284.548ZM219.532 289.266L217.012 289.658L216.172 288.664C215.416 289.121 214.45 289.35 213.274 289.35C211.576 289.35 210.176 288.809 209.074 287.726C207.982 286.634 207.436 285.234 207.436 283.526C207.436 282.49 207.712 281.552 208.262 280.712C208.813 279.872 209.532 279.228 210.418 278.78C211.305 278.323 212.257 278.094 213.274 278.094C214.945 278.094 216.336 278.617 217.446 279.662C218.557 280.698 219.112 282.061 219.112 283.75C219.112 285.103 218.66 286.34 217.754 287.46L219.532 289.266ZM227.396 280.768H223.742L223.56 281.972L224.428 281.902C225.492 281.818 226.379 282.149 227.088 282.896C227.807 283.643 228.166 284.571 228.166 285.682C228.166 286.839 227.714 287.791 226.808 288.538C226.071 289.126 225.044 289.42 223.728 289.42C222.422 289.42 221.274 289.103 220.284 288.468L220.69 285.878C221.596 286.69 222.576 287.096 223.63 287.096C224.078 287.096 224.47 286.951 224.806 286.662C225.142 286.363 225.31 285.99 225.31 285.542C225.31 284.954 225.077 284.506 224.61 284.198C224.153 283.89 223.616 283.736 223 283.736C222.272 283.736 221.6 283.881 220.984 284.17L221.908 278.444H227.396V280.768ZM234.865 277.38H236.867L231.519 290.302H229.517L234.865 277.38ZM244.148 280.768H240.886V282.532H243.98V284.856H240.886V286.676H244.148V289H238.142V278.444H244.148V280.768ZM248.583 278.444V286.676H251.873V289H245.839V278.444H248.583ZM257.489 280.278C257.265 280.045 256.994 279.928 256.677 279.928C256.36 279.928 256.084 280.045 255.851 280.278C255.627 280.511 255.515 280.791 255.515 281.118C255.515 281.445 255.627 281.725 255.851 281.958C256.084 282.191 256.36 282.308 256.677 282.308C256.994 282.308 257.265 282.191 257.489 281.958C257.722 281.725 257.839 281.445 257.839 281.118C257.839 280.791 257.722 280.511 257.489 280.278ZM257.559 284.954C257.316 284.693 257.022 284.562 256.677 284.562C256.332 284.562 256.033 284.693 255.781 284.954C255.538 285.206 255.417 285.514 255.417 285.878C255.417 286.233 255.538 286.536 255.781 286.788C256.033 287.04 256.332 287.166 256.677 287.166C257.022 287.166 257.316 287.04 257.559 286.788C257.811 286.536 257.937 286.233 257.937 285.878C257.937 285.514 257.811 285.206 257.559 284.954ZM254.143 278.822C254.852 278.29 255.697 278.024 256.677 278.024C257.657 278.024 258.502 278.29 259.211 278.822C259.92 279.345 260.275 280.082 260.275 281.034C260.275 281.585 260.116 282.084 259.799 282.532C259.491 282.971 259.094 283.269 258.609 283.428V283.456C259.253 283.671 259.762 284.021 260.135 284.506C260.518 284.982 260.709 285.556 260.709 286.228C260.709 286.919 260.494 287.516 260.065 288.02C259.636 288.515 259.122 288.869 258.525 289.084C257.937 289.308 257.321 289.42 256.677 289.42C256.033 289.42 255.412 289.308 254.815 289.084C254.227 288.869 253.718 288.515 253.289 288.02C252.86 287.516 252.645 286.919 252.645 286.228C252.645 285.556 252.832 284.982 253.205 284.506C253.588 284.021 254.101 283.671 254.745 283.456V283.428C254.26 283.269 253.858 282.971 253.541 282.532C253.233 282.084 253.079 281.585 253.079 281.034C253.079 280.082 253.434 279.345 254.143 278.822ZM269.369 284.716H270.643V286.816H269.369V289H266.821V286.816H261.697V285.066L265.771 278.444H269.369V284.716ZM266.821 284.716V280.656H266.793L264.329 284.716H266.821Z" fill="black"/>
<path d="M322.766 280.768H321.254V278.444H325.51V289H322.766V280.768ZM334.086 286.676H337.544V289H329.06L333.372 284.31C334.174 283.433 334.576 282.569 334.576 281.72C334.576 281.365 334.459 281.048 334.226 280.768C334.002 280.488 333.717 280.348 333.372 280.348C333.017 280.348 332.737 280.469 332.532 280.712C332.326 280.955 332.224 281.263 332.224 281.636C332.224 281.785 332.238 281.935 332.266 282.084H329.242C329.288 280.861 329.676 279.881 330.404 279.144C331.141 278.397 332.126 278.024 333.358 278.024C334.496 278.024 335.458 278.369 336.242 279.06C337.035 279.751 337.432 280.656 337.432 281.776C337.432 282.485 337.292 283.092 337.012 283.596C336.741 284.1 336.312 284.618 335.724 285.15L334.086 286.676ZM345.559 287.166H341.779L341.051 289H338.139L342.199 278.444H345.195L349.171 289H346.245L345.559 287.166ZM344.817 285.066L343.697 281.706H343.669L342.535 285.066H344.817ZM353.151 283.358L349.777 278.444H353.151L354.761 281.174L356.371 278.444H359.745L356.371 283.358L360.277 289H356.973L354.761 285.556L352.339 289H349.021L353.151 283.358ZM365.584 280.768H361.174V278.444H369.84L363.778 289H360.768L365.584 280.768ZM377.141 287.166H373.361L372.633 289H369.721L373.781 278.444H376.777L380.753 289H377.827L377.141 287.166ZM376.399 285.066L375.279 281.706H375.251L374.117 285.066H376.399Z" fill="black"/>
<path d="M420.766 280.768H419.254V278.444H423.51V289H420.766V280.768ZM432.086 286.676H435.544V289H427.06L431.372 284.31C432.174 283.433 432.576 282.569 432.576 281.72C432.576 281.365 432.459 281.048 432.226 280.768C432.002 280.488 431.717 280.348 431.372 280.348C431.017 280.348 430.737 280.469 430.532 280.712C430.326 280.955 430.224 281.263 430.224 281.636C430.224 281.785 430.238 281.935 430.266 282.084H427.242C427.288 280.861 427.676 279.881 428.404 279.144C429.141 278.397 430.126 278.024 431.358 278.024C432.496 278.024 433.458 278.369 434.242 279.06C435.035 279.751 435.432 280.656 435.432 281.776C435.432 282.485 435.292 283.092 435.012 283.596C434.741 284.1 434.312 284.618 433.724 285.15L432.086 286.676ZM443.559 287.166H439.779L439.051 289H436.139L440.199 278.444H443.195L447.171 289H444.245L443.559 287.166ZM442.817 285.066L441.697 281.706H441.669L440.535 285.066H442.817ZM451.151 283.358L447.777 278.444H451.151L452.761 281.174L454.371 278.444H457.745L454.371 283.358L458.277 289H454.973L452.761 285.556L450.339 289H447.021L451.151 283.358ZM463.584 280.768H459.174V278.444H467.84L461.778 289H458.768L463.584 280.768ZM475.141 287.166H471.361L470.633 289H467.721L471.781 278.444H474.777L478.753 289H475.827L475.141 287.166ZM474.399 285.066L473.279 281.706H473.251L472.117 285.066H474.399Z" fill="black"/>
<path d="M518.766 280.768H517.254V278.444H521.51V289H518.766V280.768ZM530.086 286.676H533.544V289H525.06L529.372 284.31C530.174 283.433 530.576 282.569 530.576 281.72C530.576 281.365 530.459 281.048 530.226 280.768C530.002 280.488 529.717 280.348 529.372 280.348C529.017 280.348 528.737 280.469 528.532 280.712C528.326 280.955 528.224 281.263 528.224 281.636C528.224 281.785 528.238 281.935 528.266 282.084H525.242C525.288 280.861 525.676 279.881 526.404 279.144C527.141 278.397 528.126 278.024 529.358 278.024C530.496 278.024 531.458 278.369 532.242 279.06C533.035 279.751 533.432 280.656 533.432 281.776C533.432 282.485 533.292 283.092 533.012 283.596C532.741 284.1 532.312 284.618 531.724 285.15L530.086 286.676ZM541.559 287.166H537.779L537.051 289H534.139L538.199 278.444H541.195L545.171 289H542.245L541.559 287.166ZM540.817 285.066L539.697 281.706H539.669L538.535 285.066H540.817ZM549.151 283.358L545.777 278.444H549.151L550.761 281.174L552.371 278.444H555.745L552.371 283.358L556.277 289H552.973L550.761 285.556L548.339 289H545.021L549.151 283.358ZM561.584 280.768H557.174V278.444H565.84L559.778 289H556.768L561.584 280.768ZM573.141 287.166H569.361L568.633 289H565.721L569.781 278.444H572.777L576.753 289H573.827L573.141 287.166ZM572.399 285.066L571.279 281.706H571.251L570.117 285.066H572.399Z" fill="black"/>
<path d="M518.766 137.768H517.254V135.444H521.51V146H518.766V137.768ZM530.086 143.676H533.544V146H525.06L529.372 141.31C530.174 140.433 530.576 139.569 530.576 138.72C530.576 138.365 530.459 138.048 530.226 137.768C530.002 137.488 529.717 137.348 529.372 137.348C529.017 137.348 528.737 137.469 528.532 137.712C528.326 137.955 528.224 138.263 528.224 138.636C528.224 138.785 528.238 138.935 528.266 139.084H525.242C525.288 137.861 525.676 136.881 526.404 136.144C527.141 135.397 528.126 135.024 529.358 135.024C530.496 135.024 531.458 135.369 532.242 136.06C533.035 136.751 533.432 137.656 533.432 138.776C533.432 139.485 533.292 140.092 533.012 140.596C532.741 141.1 532.312 141.618 531.724 142.15L530.086 143.676ZM541.559 144.166H537.779L537.051 146H534.139L538.199 135.444H541.195L545.171 146H542.245L541.559 144.166ZM540.817 142.066L539.697 138.706H539.669L538.535 142.066H540.817ZM549.151 140.358L545.777 135.444H549.151L550.761 138.174L552.371 135.444H555.745L552.371 140.358L556.277 146H552.973L550.761 142.556L548.339 146H545.021L549.151 140.358ZM561.584 137.768H557.174V135.444H565.84L559.778 146H556.768L561.584 137.768ZM573.141 144.166H569.361L568.633 146H565.721L569.781 135.444H572.777L576.753 146H573.827L573.141 144.166ZM572.399 142.066L571.279 138.706H571.251L570.117 142.066H572.399Z" fill="black"/>
<path d="M338.96 221.92L342.6 231.08L346.26 221.92H350.52L344.08 237H341.04L334.7 221.92H338.96ZM358.055 233.68H362.995V237H350.875L357.035 230.3C358.182 229.047 358.755 227.813 358.755 226.6C358.755 226.093 358.588 225.64 358.255 225.24C357.935 224.84 357.528 224.64 357.035 224.64C356.528 224.64 356.128 224.813 355.835 225.16C355.542 225.507 355.395 225.947 355.395 226.48C355.395 226.693 355.415 226.907 355.455 227.12H351.135C351.202 225.373 351.755 223.973 352.795 222.92C353.848 221.853 355.255 221.32 357.015 221.32C358.642 221.32 360.015 221.813 361.135 222.8C362.268 223.787 362.835 225.08 362.835 226.68C362.835 227.693 362.635 228.56 362.235 229.28C361.848 230 361.235 230.74 360.395 231.5L358.055 233.68Z" fill="black"/>
<path d="M436.96 221.92L440.6 231.08L444.26 221.92H448.52L442.08 237H439.04L432.7 221.92H436.96ZM454.335 221.92H458.775L454.495 227.02L454.535 227.06C455.228 226.753 455.928 226.6 456.635 226.6C458.062 226.6 459.222 227.127 460.115 228.18C461.022 229.22 461.475 230.46 461.475 231.9C461.475 233.673 460.848 235.067 459.595 236.08C458.342 237.093 456.808 237.6 454.995 237.6C453.222 237.6 451.788 237.167 450.695 236.3C450.082 235.793 449.588 235.173 449.215 234.44C448.855 233.693 448.675 232.933 448.675 232.16C448.675 230.267 449.482 228.267 451.095 226.16L454.335 221.92ZM453.215 233.8C453.708 234.28 454.295 234.52 454.975 234.52C455.655 234.52 456.228 234.28 456.695 233.8C457.162 233.307 457.395 232.713 457.395 232.02C457.395 231.34 457.162 230.76 456.695 230.28C456.228 229.8 455.655 229.56 454.975 229.56C454.295 229.56 453.708 229.8 453.215 230.28C452.735 230.76 452.495 231.34 452.495 232.02C452.495 232.713 452.735 233.307 453.215 233.8Z" fill="black"/>
<path d="M534.96 221.92L538.6 231.08L542.26 221.92H546.52L540.08 237H537.04L530.7 221.92H534.96ZM557.515 225.24H552.295L552.035 226.96L553.275 226.86C554.795 226.74 556.062 227.213 557.075 228.28C558.102 229.347 558.615 230.673 558.615 232.26C558.615 233.913 557.968 235.273 556.675 236.34C555.622 237.18 554.155 237.6 552.275 237.6C550.408 237.6 548.768 237.147 547.355 236.24L547.935 232.54C549.228 233.7 550.628 234.28 552.135 234.28C552.775 234.28 553.335 234.073 553.815 233.66C554.295 233.233 554.535 232.7 554.535 232.06C554.535 231.22 554.202 230.58 553.535 230.14C552.882 229.7 552.115 229.48 551.235 229.48C550.195 229.48 549.235 229.687 548.355 230.1L549.675 221.92H557.515V225.24Z" fill="black"/>
<path d="M534.96 82.92L538.6 92.08L542.26 82.92H546.52L540.08 98H537.04L530.7 82.92H534.96ZM551.595 86.24H549.435V82.92H555.515V98H551.595V86.24Z" fill="black"/>
<rect x="38" y="36" width="562" height="273" rx="9" stroke="black" stroke-width="2"/>
<path d="M90.7922 102.568V100.312C90.7922 100.08 90.8162 99.932 90.8642 99.868C90.9122 99.796 91.0482 99.76 91.2722 99.76H92.9042C93.1442 99.76 93.2922 99.724 93.3482 99.652C93.4042 99.58 93.4322 99.42 93.4322 99.172V97.444C93.4322 97.116 93.4042 96.884 93.3482 96.748C93.2922 96.604 93.2042 96.444 93.0842 96.268L87.9602 88.792C87.8242 88.584 87.7082 88.44 87.6122 88.36C87.5242 88.28 87.3002 88.24 86.9402 88.24H85.6682C85.4202 88.24 85.2722 88.2 85.2242 88.12C85.1762 88.04 85.1522 87.876 85.1522 87.628V85.84C85.1522 85.464 85.2202 85.232 85.3562 85.144C85.4922 85.048 85.7322 85 86.0762 85H95.6042C95.9082 85 96.1202 85.036 96.2402 85.108C96.3682 85.172 96.4322 85.368 96.4322 85.696V87.676C96.4322 87.916 96.3962 88.072 96.3242 88.144C96.2602 88.208 96.1122 88.24 95.8802 88.24H94.8602C94.5642 88.24 94.3882 88.284 94.3322 88.372C94.2762 88.46 94.3362 88.632 94.5122 88.888L96.5762 91.888C96.8002 92.2 96.9642 92.4 97.0682 92.488C97.1802 92.576 97.2922 92.564 97.4042 92.452C97.5162 92.332 97.6842 92.128 97.9082 91.84L100.224 88.84C100.424 88.584 100.48 88.42 100.392 88.348C100.304 88.276 100.132 88.24 99.8762 88.24H98.9522C98.6482 88.24 98.4522 88.212 98.3642 88.156C98.2762 88.092 98.2322 87.908 98.2322 87.604V85.6C98.2322 85.328 98.2642 85.16 98.3282 85.096C98.4002 85.032 98.5682 85 98.8322 85H106.284C106.492 85 106.64 85.02 106.728 85.06C106.824 85.1 106.872 85.236 106.872 85.468V87.916C106.872 88.068 106.836 88.16 106.764 88.192C106.7 88.224 106.588 88.24 106.428 88.24H105.636C105.284 88.24 105.056 88.28 104.952 88.36C104.856 88.432 104.732 88.56 104.58 88.744L99.5522 94.972C99.4002 95.172 99.2802 95.34 99.1922 95.476C99.1122 95.612 99.0722 95.868 99.0722 96.244V99.196C99.0722 99.42 99.0962 99.572 99.1442 99.652C99.1922 99.724 99.3282 99.76 99.5522 99.76H101.46C101.692 99.76 101.832 99.8 101.88 99.88C101.928 99.952 101.952 100.108 101.952 100.348V102.532C101.952 102.716 101.928 102.84 101.88 102.904C101.84 102.968 101.728 103 101.544 103H91.1762C91.0162 103 90.9122 102.972 90.8642 102.916C90.8162 102.86 90.7922 102.744 90.7922 102.568ZM118.709 92.68H128.933C129.205 92.68 129.373 92.716 129.437 92.788C129.509 92.852 129.545 93.024 129.545 93.304V95.488C129.545 95.688 129.509 95.812 129.437 95.86C129.373 95.9 129.237 95.92 129.029 95.92H127.589C127.405 95.92 127.285 95.944 127.229 95.992C127.173 96.032 127.145 96.144 127.145 96.328V98.992C127.145 99.264 127.121 99.444 127.073 99.532C127.025 99.62 126.933 99.732 126.797 99.868C126.421 100.228 125.949 100.616 125.381 101.032C124.813 101.448 124.161 101.844 123.425 102.22C122.689 102.588 121.877 102.888 120.989 103.12C120.101 103.36 119.153 103.48 118.145 103.48C116.657 103.48 115.289 103.26 114.041 102.82C112.801 102.38 111.725 101.748 110.813 100.924C109.901 100.1 109.193 99.104 108.689 97.936C108.193 96.768 107.945 95.456 107.945 94C107.945 92.664 108.181 91.42 108.653 90.268C109.133 89.116 109.809 88.112 110.681 87.256C111.553 86.392 112.589 85.72 113.789 85.24C114.997 84.76 116.329 84.52 117.785 84.52C118.785 84.52 119.669 84.648 120.437 84.904C121.205 85.152 121.869 85.484 122.429 85.9C122.613 86.028 122.753 86.092 122.849 86.092C122.945 86.084 123.069 85.984 123.221 85.792L123.737 85.096C123.801 85.016 123.873 84.96 123.953 84.928C124.033 84.896 124.149 84.88 124.301 84.88H126.101C126.309 84.88 126.453 84.904 126.533 84.952C126.621 84.992 126.665 85.112 126.665 85.312V90.652C126.665 90.916 126.641 91.1 126.593 91.204C126.545 91.308 126.389 91.36 126.125 91.36H123.773C123.429 91.36 123.229 91.316 123.173 91.228C123.117 91.14 123.037 90.984 122.933 90.76C122.621 90.072 122.257 89.492 121.841 89.02C121.425 88.548 120.933 88.192 120.365 87.952C119.805 87.712 119.145 87.592 118.385 87.592C117.553 87.592 116.821 87.84 116.189 88.336C115.557 88.832 115.065 89.556 114.713 90.508C114.361 91.46 114.185 92.624 114.185 94C114.185 95.376 114.341 96.548 114.653 97.516C114.965 98.476 115.405 99.212 115.973 99.724C116.549 100.228 117.233 100.48 118.025 100.48C118.737 100.48 119.301 100.38 119.717 100.18C120.141 99.98 120.469 99.72 120.701 99.4C120.941 99.08 121.137 98.744 121.289 98.392C121.361 98.224 121.413 98.068 121.445 97.924C121.485 97.772 121.505 97.568 121.505 97.312V96.472C121.505 96.24 121.481 96.092 121.433 96.028C121.385 95.956 121.245 95.92 121.013 95.92H118.565C118.293 95.92 118.133 95.86 118.085 95.74C118.045 95.612 118.025 95.424 118.025 95.176V93.28C118.025 92.992 118.069 92.82 118.157 92.764C118.253 92.708 118.437 92.68 118.709 92.68ZM135.107 88.24H133.739C133.459 88.24 133.291 88.22 133.235 88.18C133.187 88.132 133.163 87.964 133.163 87.676V85.372C133.163 85.124 133.219 85 133.331 85C133.443 85 133.611 85 133.835 85H142.595C142.915 85 143.131 85.036 143.243 85.108C143.363 85.18 143.443 85.292 143.483 85.444C143.531 85.588 143.591 85.772 143.663 85.996L145.955 93.172C146.083 93.556 146.187 93.924 146.267 94.276C146.355 94.628 146.459 94.804 146.579 94.804C146.715 94.804 146.827 94.7 146.915 94.492C147.003 94.276 147.123 93.964 147.275 93.556L150.287 85.492C150.375 85.268 150.451 85.132 150.515 85.084C150.587 85.028 150.779 85 151.091 85H158.603C158.907 85 159.123 85.004 159.251 85.012C159.379 85.02 159.443 85.188 159.443 85.516V87.628C159.443 87.924 159.423 88.1 159.383 88.156C159.343 88.212 159.171 88.24 158.867 88.24H157.403C157.147 88.24 156.999 88.264 156.959 88.312C156.927 88.36 156.915 88.508 156.923 88.756L157.283 99.268C157.291 99.476 157.303 99.612 157.319 99.676C157.343 99.732 157.467 99.76 157.691 99.76H159.611C159.811 99.76 159.931 99.792 159.971 99.856C160.019 99.912 160.043 100.044 160.043 100.252V102.34C160.043 102.596 160.015 102.772 159.959 102.868C159.911 102.956 159.747 103 159.467 103H150.155C149.891 103 149.731 102.964 149.675 102.892C149.627 102.812 149.603 102.636 149.603 102.364V100.324C149.603 100.052 149.647 99.892 149.735 99.844C149.831 99.788 150.003 99.76 150.251 99.76H151.523C151.779 99.76 151.947 99.72 152.027 99.64C152.115 99.552 152.155 99.384 152.147 99.136L152.003 93.724C151.987 93.164 151.999 92.636 152.039 92.14C152.087 91.636 152.111 91.228 152.111 90.916C152.111 90.596 152.035 90.436 151.883 90.436C151.787 90.436 151.711 90.488 151.655 90.592C151.599 90.688 151.543 90.844 151.487 91.06C151.431 91.276 151.339 91.564 151.211 91.924L147.527 102.748C147.439 103.004 147.343 103.168 147.239 103.24C147.135 103.32 146.907 103.36 146.555 103.36H144.395C144.043 103.36 143.811 103.32 143.699 103.24C143.595 103.168 143.499 103.004 143.411 102.748L139.847 92.356C139.743 92.052 139.643 91.704 139.547 91.312C139.459 90.92 139.371 90.576 139.283 90.28C139.195 89.984 139.099 89.836 138.995 89.836C138.891 89.836 138.831 89.948 138.815 90.172C138.799 90.396 138.779 90.78 138.755 91.324L138.395 98.908C138.387 99.196 138.399 99.412 138.431 99.556C138.463 99.692 138.643 99.76 138.971 99.76H140.555C140.779 99.76 140.923 99.792 140.987 99.856C141.051 99.92 141.083 100.068 141.083 100.3V102.388C141.083 102.684 141.035 102.86 140.939 102.916C140.851 102.972 140.667 103 140.387 103H132.947C132.667 103 132.491 102.964 132.419 102.892C132.355 102.82 132.323 102.636 132.323 102.34V100.18C132.323 100.012 132.343 99.9 132.383 99.844C132.423 99.788 132.523 99.76 132.683 99.76H134.579C134.939 99.76 135.123 99.688 135.131 99.544C135.147 99.392 135.163 99.156 135.179 98.836L135.731 88.66C135.747 88.404 135.711 88.272 135.623 88.264C135.535 88.248 135.363 88.24 135.107 88.24ZM164.893 92.32H172.237C172.421 92.32 172.533 92.352 172.573 92.416C172.621 92.472 172.645 92.596 172.645 92.788V94.588C172.645 94.796 172.625 94.932 172.585 94.996C172.545 95.052 172.421 95.08 172.213 95.08H164.989C164.773 95.08 164.633 95.052 164.569 94.996C164.513 94.94 164.485 94.808 164.485 94.6V92.812C164.485 92.62 164.505 92.492 164.545 92.428C164.585 92.356 164.701 92.32 164.893 92.32ZM176.844 98.824C176.844 98.008 177.096 97.32 177.6 96.76C178.112 96.2 178.812 95.92 179.7 95.92C180.508 95.92 181.116 96.112 181.524 96.496C181.94 96.872 182.148 97.344 182.148 97.912C182.148 98.304 182.072 98.612 181.92 98.836C181.768 99.06 181.592 99.236 181.392 99.364C181.2 99.492 181.028 99.604 180.876 99.7C180.724 99.796 180.648 99.912 180.648 100.048C180.648 100.264 180.756 100.444 180.972 100.588C181.196 100.732 181.468 100.844 181.788 100.924C182.116 100.996 182.436 101.032 182.748 101.032C183.34 101.032 183.876 100.952 184.356 100.792C184.844 100.624 185.228 100.32 185.508 99.88C185.796 99.432 185.94 98.792 185.94 97.96C185.94 97.416 185.82 96.932 185.58 96.508C185.34 96.076 184.98 95.724 184.5 95.452C184.02 95.18 183.412 95.016 182.676 94.96C182.524 94.944 182.4 94.94 182.304 94.948C182.216 94.948 182.152 94.92 182.112 94.864C182.072 94.808 182.052 94.692 182.052 94.516V92.944C182.052 92.784 182.064 92.68 182.088 92.632C182.12 92.584 182.172 92.56 182.244 92.56C182.324 92.552 182.432 92.544 182.568 92.536C183.12 92.496 183.58 92.388 183.948 92.212C184.324 92.036 184.62 91.804 184.836 91.516C185.06 91.228 185.22 90.896 185.316 90.52C185.412 90.144 185.46 89.736 185.46 89.296C185.46 88.408 185.2 87.78 184.68 87.412C184.16 87.036 183.516 86.848 182.748 86.848C182.404 86.848 182.068 86.896 181.74 86.992C181.42 87.088 181.26 87.24 181.26 87.448C181.26 87.584 181.34 87.696 181.5 87.784C181.66 87.864 181.848 87.964 182.064 88.084C182.28 88.204 182.468 88.38 182.628 88.612C182.788 88.836 182.868 89.16 182.868 89.584C182.868 90.088 182.644 90.548 182.196 90.964C181.756 91.372 181.164 91.576 180.42 91.576C179.948 91.576 179.492 91.476 179.052 91.276C178.62 91.076 178.264 90.78 177.984 90.388C177.704 89.988 177.564 89.496 177.564 88.912C177.564 88.136 177.812 87.436 178.308 86.812C178.812 86.18 179.524 85.68 180.444 85.312C181.364 84.944 182.452 84.76 183.708 84.76C185.036 84.76 186.192 84.948 187.176 85.324C188.16 85.692 188.924 86.216 189.468 86.896C190.012 87.576 190.284 88.376 190.284 89.296C190.284 89.872 190.16 90.424 189.912 90.952C189.672 91.472 189.284 91.944 188.748 92.368C188.212 92.792 187.5 93.144 186.612 93.424C186.348 93.504 186.132 93.548 185.964 93.556C185.804 93.564 185.724 93.612 185.724 93.7C185.724 93.804 185.788 93.856 185.916 93.856C186.052 93.848 186.284 93.888 186.612 93.976C188.044 94.352 189.092 94.908 189.756 95.644C190.428 96.38 190.764 97.232 190.764 98.2C190.764 99.096 190.556 99.864 190.14 100.504C189.732 101.144 189.176 101.668 188.472 102.076C187.776 102.476 186.992 102.772 186.12 102.964C185.256 103.148 184.372 103.24 183.468 103.24C182.052 103.24 180.852 103.036 179.868 102.628C178.884 102.212 178.132 101.668 177.612 100.996C177.1 100.324 176.844 99.6 176.844 98.824ZM218.22 89.92C218.22 90.504 218.068 91.012 217.764 91.444C217.468 91.868 217.076 92.196 216.588 92.428C216.108 92.66 215.596 92.776 215.052 92.776C214.044 92.776 213.232 92.448 212.616 91.792C212 91.128 211.692 90.148 211.692 88.852C211.692 88.012 211.876 87.244 212.244 86.548C212.62 85.844 213.1 85.232 213.684 84.712C214.276 84.192 214.896 83.776 215.544 83.464C216.192 83.144 216.792 82.948 217.344 82.876C217.52 82.852 217.636 82.864 217.692 82.912C217.756 82.96 217.788 83.08 217.788 83.272V84.7C217.788 84.82 217.764 84.9 217.716 84.94C217.668 84.972 217.592 84.996 217.488 85.012C217.008 85.06 216.54 85.204 216.084 85.444C215.628 85.684 215.224 85.96 214.872 86.272C214.528 86.584 214.272 86.88 214.104 87.16C214.072 87.208 214.072 87.248 214.104 87.28C214.144 87.304 214.2 87.3 214.272 87.268C214.408 87.204 214.58 87.156 214.788 87.124C215.004 87.084 215.244 87.064 215.508 87.064C216.324 87.064 216.98 87.32 217.476 87.832C217.972 88.344 218.22 89.04 218.22 89.92ZM210.78 89.92C210.78 90.504 210.628 91.012 210.324 91.444C210.028 91.868 209.636 92.196 209.148 92.428C208.668 92.66 208.156 92.776 207.612 92.776C206.604 92.776 205.792 92.448 205.176 91.792C204.56 91.128 204.252 90.148 204.252 88.852C204.252 88.012 204.436 87.244 204.804 86.548C205.18 85.844 205.66 85.232 206.244 84.712C206.836 84.192 207.456 83.776 208.104 83.464C208.752 83.144 209.352 82.948 209.904 82.876C210.08 82.852 210.196 82.864 210.252 82.912C210.316 82.96 210.348 83.08 210.348 83.272V84.7C210.348 84.82 210.324 84.9 210.276 84.94C210.228 84.972 210.152 84.996 210.048 85.012C209.568 85.06 209.1 85.204 208.644 85.444C208.188 85.684 207.784 85.96 207.432 86.272C207.088 86.584 206.832 86.88 206.664 87.16C206.632 87.208 206.632 87.248 206.664 87.28C206.704 87.304 206.76 87.3 206.832 87.268C206.968 87.204 207.14 87.156 207.348 87.124C207.564 87.084 207.804 87.064 208.068 87.064C208.884 87.064 209.54 87.32 210.036 87.832C210.532 88.344 210.78 89.04 210.78 89.92ZM232.46 92.68H242.684C242.956 92.68 243.124 92.716 243.188 92.788C243.26 92.852 243.296 93.024 243.296 93.304V95.488C243.296 95.688 243.26 95.812 243.188 95.86C243.124 95.9 242.988 95.92 242.78 95.92H241.34C241.156 95.92 241.036 95.944 240.98 95.992C240.924 96.032 240.896 96.144 240.896 96.328V98.992C240.896 99.264 240.872 99.444 240.824 99.532C240.776 99.62 240.684 99.732 240.548 99.868C240.172 100.228 239.7 100.616 239.132 101.032C238.564 101.448 237.912 101.844 237.176 102.22C236.44 102.588 235.628 102.888 234.74 103.12C233.852 103.36 232.904 103.48 231.896 103.48C230.408 103.48 229.04 103.26 227.792 102.82C226.552 102.38 225.476 101.748 224.564 100.924C223.652 100.1 222.944 99.104 222.44 97.936C221.944 96.768 221.696 95.456 221.696 94C221.696 92.664 221.932 91.42 222.404 90.268C222.884 89.116 223.56 88.112 224.432 87.256C225.304 86.392 226.34 85.72 227.54 85.24C228.748 84.76 230.08 84.52 231.536 84.52C232.536 84.52 233.42 84.648 234.188 84.904C234.956 85.152 235.62 85.484 236.18 85.9C236.364 86.028 236.504 86.092 236.6 86.092C236.696 86.084 236.82 85.984 236.972 85.792L237.488 85.096C237.552 85.016 237.624 84.96 237.704 84.928C237.784 84.896 237.9 84.88 238.052 84.88H239.852C240.06 84.88 240.204 84.904 240.284 84.952C240.372 84.992 240.416 85.112 240.416 85.312V90.652C240.416 90.916 240.392 91.1 240.344 91.204C240.296 91.308 240.14 91.36 239.876 91.36H237.524C237.18 91.36 236.98 91.316 236.924 91.228C236.868 91.14 236.788 90.984 236.684 90.76C236.372 90.072 236.008 89.492 235.592 89.02C235.176 88.548 234.684 88.192 234.116 87.952C233.556 87.712 232.896 87.592 232.136 87.592C231.304 87.592 230.572 87.84 229.94 88.336C229.308 88.832 228.816 89.556 228.464 90.508C228.112 91.46 227.936 92.624 227.936 94C227.936 95.376 228.092 96.548 228.404 97.516C228.716 98.476 229.156 99.212 229.724 99.724C230.3 100.228 230.984 100.48 231.776 100.48C232.488 100.48 233.052 100.38 233.468 100.18C233.892 99.98 234.22 99.72 234.452 99.4C234.692 99.08 234.888 98.744 235.04 98.392C235.112 98.224 235.164 98.068 235.196 97.924C235.236 97.772 235.256 97.568 235.256 97.312V96.472C235.256 96.24 235.232 96.092 235.184 96.028C235.136 95.956 234.996 95.92 234.764 95.92H232.316C232.044 95.92 231.884 95.86 231.836 95.74C231.796 95.612 231.776 95.424 231.776 95.176V93.28C231.776 92.992 231.82 92.82 231.908 92.764C232.004 92.708 232.188 92.68 232.46 92.68ZM260.475 88.24H258.843C258.555 88.24 258.363 88.196 258.267 88.108C258.171 88.012 258.123 87.828 258.123 87.556V85.876C258.123 85.548 258.155 85.32 258.219 85.192C258.283 85.064 258.475 85 258.795 85H266.547C266.803 85 266.963 85.04 267.027 85.12C267.091 85.2 267.123 85.376 267.123 85.648V87.58C267.123 87.868 267.083 88.052 267.003 88.132C266.931 88.204 266.743 88.24 266.439 88.24H265.227C264.915 88.24 264.711 88.28 264.615 88.36C264.527 88.44 264.483 88.644 264.483 88.972V95.8C264.483 98.376 263.735 100.3 262.239 101.572C260.751 102.844 258.699 103.48 256.083 103.48C254.323 103.48 252.903 103.276 251.823 102.868C250.751 102.46 249.931 101.896 249.363 101.176C248.803 100.448 248.423 99.604 248.223 98.644C248.023 97.684 247.923 96.656 247.923 95.56V88.852C247.923 88.572 247.879 88.4 247.791 88.336C247.711 88.272 247.539 88.24 247.275 88.24H246.003C245.707 88.24 245.511 88.212 245.415 88.156C245.327 88.1 245.283 87.924 245.283 87.628V85.756C245.283 85.46 245.319 85.26 245.391 85.156C245.471 85.052 245.651 85 245.931 85H255.939C256.163 85 256.303 85.04 256.359 85.12C256.415 85.192 256.443 85.344 256.443 85.576V87.652C256.443 87.892 256.407 88.052 256.335 88.132C256.271 88.204 256.111 88.24 255.855 88.24H254.235C253.915 88.24 253.723 88.292 253.659 88.396C253.595 88.492 253.563 88.704 253.563 89.032V95.08C253.563 96.216 253.671 97.144 253.887 97.864C254.111 98.576 254.483 99.104 255.003 99.448C255.531 99.784 256.251 99.952 257.163 99.952C257.835 99.952 258.471 99.828 259.071 99.58C259.679 99.324 260.171 98.896 260.547 98.296C260.931 97.688 261.123 96.856 261.123 95.8V88.852C261.123 88.58 261.079 88.412 260.991 88.348C260.903 88.276 260.731 88.24 260.475 88.24ZM279.233 88.624V99.472C279.233 99.728 279.273 99.88 279.353 99.928C279.441 99.976 279.617 100 279.881 100H281.777C281.977 100 282.121 100.02 282.208 100.06C282.305 100.092 282.353 100.208 282.353 100.408V102.4C282.353 102.672 282.317 102.84 282.245 102.904C282.181 102.968 282.017 103 281.753 103H271.312C271.041 103 270.873 102.96 270.809 102.88C270.745 102.792 270.713 102.608 270.713 102.328V100.588C270.713 100.316 270.761 100.152 270.857 100.096C270.953 100.032 271.125 100 271.373 100H273.029C273.261 100 273.413 99.968 273.485 99.904C273.557 99.84 273.593 99.684 273.593 99.436V88.648C273.593 88.392 273.565 88.22 273.509 88.132C273.461 88.044 273.309 88 273.053 88H271.349C271.101 88 270.933 87.972 270.845 87.916C270.757 87.852 270.713 87.688 270.713 87.424V85.684C270.713 85.396 270.741 85.212 270.797 85.132C270.853 85.044 271.025 85 271.312 85H281.705C281.993 85 282.173 85.044 282.245 85.132C282.317 85.22 282.353 85.4 282.353 85.672V87.352C282.353 87.64 282.317 87.82 282.245 87.892C282.173 87.964 281.997 88 281.717 88H279.833C279.569 88 279.401 88.04 279.329 88.12C279.265 88.2 279.233 88.368 279.233 88.624ZM290.371 102.388V100.36C290.371 100.12 290.403 99.96 290.467 99.88C290.539 99.8 290.691 99.76 290.923 99.76H292.507C292.827 99.76 293.031 99.712 293.119 99.616C293.207 99.512 293.251 99.3 293.251 98.98V88.576C293.251 88.432 293.219 88.32 293.155 88.24C293.099 88.16 292.995 88.12 292.843 88.12H292.651C291.859 88.12 291.239 88.228 290.791 88.444C290.351 88.66 290.039 89.04 289.855 89.584C289.671 90.12 289.567 90.884 289.543 91.876C289.535 92.164 289.475 92.352 289.363 92.44C289.259 92.52 289.051 92.56 288.739 92.56H287.287C287.055 92.56 286.891 92.536 286.795 92.488C286.699 92.44 286.651 92.3 286.651 92.068V85.696C286.651 85.44 286.675 85.26 286.723 85.156C286.771 85.052 286.923 85 287.179 85H304.531C304.723 85 304.851 85.044 304.915 85.132C304.979 85.22 305.011 85.368 305.011 85.576V91.876C305.011 92.18 304.967 92.372 304.879 92.452C304.791 92.524 304.587 92.56 304.267 92.56H302.851C302.539 92.56 302.339 92.524 302.251 92.452C302.171 92.38 302.127 92.196 302.119 91.9C302.095 90.9 301.991 90.128 301.807 89.584C301.623 89.04 301.311 88.66 300.871 88.444C300.431 88.228 299.811 88.12 299.011 88.12H298.867C298.691 88.12 298.571 88.164 298.507 88.252C298.443 88.332 298.411 88.46 298.411 88.636V98.8C298.411 99.176 298.447 99.432 298.519 99.568C298.599 99.696 298.827 99.76 299.203 99.76H300.607C300.887 99.76 301.071 99.808 301.159 99.904C301.247 99.992 301.291 100.164 301.291 100.42V102.34C301.291 102.628 301.247 102.812 301.159 102.892C301.079 102.964 300.899 103 300.619 103H291.019C290.771 103 290.599 102.968 290.503 102.904C290.415 102.832 290.371 102.66 290.371 102.388ZM315.732 90.772L314.328 94.18C314.248 94.356 314.2 94.532 314.184 94.708C314.176 94.876 314.332 94.96 314.652 94.96H317.184C317.464 94.96 317.604 94.88 317.604 94.72C317.612 94.56 317.584 94.396 317.52 94.228L316.272 90.724C316.176 90.444 316.08 90.336 315.984 90.4C315.896 90.464 315.812 90.588 315.732 90.772ZM305.784 102.316V100.348C305.784 100.14 305.82 99.992 305.892 99.904C305.964 99.808 306.112 99.76 306.336 99.76H308.316C308.516 99.76 308.632 99.72 308.664 99.64C308.696 99.552 308.74 99.444 308.796 99.316L314.88 85.036C314.96 84.844 315.036 84.732 315.108 84.7C315.188 84.66 315.364 84.64 315.636 84.64H319.236C319.516 84.64 319.696 84.68 319.776 84.76C319.864 84.832 319.948 84.964 320.028 85.156L325.56 99.028C325.648 99.252 325.716 99.432 325.764 99.568C325.82 99.696 326.02 99.76 326.364 99.76H327.948C328.156 99.76 328.312 99.78 328.416 99.82C328.528 99.86 328.584 99.996 328.584 100.228V102.46C328.584 102.7 328.552 102.852 328.488 102.916C328.424 102.972 328.276 103 328.044 103H317.316C317.076 103 316.932 102.964 316.884 102.892C316.844 102.812 316.824 102.652 316.824 102.412V100.276C316.824 100.044 316.852 99.9 316.908 99.844C316.972 99.788 317.116 99.76 317.34 99.76H318.708C319.06 99.76 319.268 99.72 319.332 99.64C319.396 99.56 319.384 99.404 319.296 99.172L319.008 98.356C318.952 98.196 318.9 98.092 318.852 98.044C318.812 97.988 318.676 97.96 318.444 97.96H313.38C313.148 97.96 312.984 97.968 312.888 97.984C312.792 97.992 312.708 98.084 312.636 98.26L312.24 99.244C312.16 99.436 312.136 99.572 312.168 99.652C312.2 99.724 312.324 99.76 312.54 99.76H313.788C313.98 99.76 314.092 99.796 314.124 99.868C314.164 99.932 314.184 100.06 314.184 100.252V102.556C314.184 102.756 314.148 102.88 314.076 102.928C314.004 102.976 313.876 103 313.692 103H306.576C306.24 103 306.024 102.972 305.928 102.916C305.832 102.852 305.784 102.652 305.784 102.316ZM353.621 100.444C353.029 101.332 352.325 102.06 351.509 102.628C350.693 103.196 349.653 103.48 348.389 103.48C347.485 103.48 346.761 103.336 346.217 103.048C345.673 102.76 345.253 102.384 344.957 101.92C344.661 101.448 344.437 100.932 344.285 100.372C344.133 99.804 344.001 99.24 343.889 98.68C343.777 98.112 343.637 97.596 343.469 97.132C343.301 96.66 343.049 96.28 342.713 95.992C342.385 95.704 341.917 95.56 341.309 95.56H340.325C340.101 95.56 339.969 95.6 339.929 95.68C339.889 95.752 339.869 95.904 339.869 96.136V99.28C339.869 99.464 339.885 99.592 339.917 99.664C339.957 99.728 340.069 99.76 340.253 99.76H341.957C342.173 99.76 342.317 99.796 342.389 99.868C342.469 99.932 342.509 100.08 342.509 100.312V102.136C342.509 102.488 342.477 102.72 342.413 102.832C342.349 102.944 342.141 103 341.789 103H332.105C331.905 103 331.769 102.976 331.697 102.928C331.625 102.872 331.589 102.744 331.589 102.544V100.288C331.589 100.064 331.617 99.92 331.673 99.856C331.737 99.792 331.877 99.76 332.093 99.76H333.545C333.825 99.76 334.009 99.724 334.097 99.652C334.185 99.58 334.229 99.408 334.229 99.136V88.852C334.229 88.572 334.185 88.4 334.097 88.336C334.009 88.272 333.837 88.24 333.581 88.24H332.141C331.893 88.24 331.737 88.196 331.673 88.108C331.617 88.02 331.589 87.856 331.589 87.616V85.456C331.589 85.248 331.625 85.12 331.697 85.072C331.777 85.024 331.921 85 332.129 85H342.509C344.357 85 345.865 85.192 347.033 85.576C348.201 85.952 349.057 86.492 349.601 87.196C350.153 87.892 350.429 88.72 350.429 89.68C350.429 90.648 350.221 91.452 349.805 92.092C349.397 92.732 348.697 93.24 347.705 93.616C347.409 93.728 347.221 93.84 347.141 93.952C347.069 94.064 347.189 94.208 347.501 94.384C347.989 94.648 348.369 94.952 348.641 95.296C348.913 95.64 349.113 95.996 349.241 96.364C349.377 96.732 349.473 97.092 349.529 97.444C349.585 97.788 349.637 98.104 349.685 98.392C349.733 98.672 349.805 98.896 349.901 99.064C350.005 99.224 350.173 99.304 350.405 99.304C350.589 99.304 350.773 99.236 350.957 99.1C351.149 98.956 351.317 98.784 351.461 98.584C351.597 98.384 351.709 98.284 351.797 98.284C351.893 98.276 352.041 98.352 352.241 98.512L353.477 99.472C353.693 99.64 353.805 99.792 353.813 99.928C353.829 100.056 353.765 100.228 353.621 100.444ZM340.493 92.44H342.509C342.957 92.44 343.341 92.352 343.661 92.176C343.989 92 344.237 91.76 344.405 91.456C344.581 91.144 344.669 90.792 344.669 90.4C344.669 90.008 344.581 89.648 344.405 89.32C344.237 88.992 343.989 88.732 343.661 88.54C343.341 88.34 342.957 88.24 342.509 88.24H340.373C340.149 88.24 340.009 88.28 339.953 88.36C339.897 88.432 339.869 88.584 339.869 88.816V91.888C339.869 92.184 339.901 92.352 339.965 92.392C340.029 92.424 340.205 92.44 340.493 92.44ZM369.173 88.24H367.805C367.525 88.24 367.357 88.22 367.301 88.18C367.253 88.132 367.229 87.964 367.229 87.676V85.372C367.229 85.124 367.285 85 367.397 85C367.509 85 367.677 85 367.901 85H376.661C376.981 85 377.197 85.036 377.309 85.108C377.429 85.18 377.509 85.292 377.549 85.444C377.597 85.588 377.657 85.772 377.729 85.996L380.021 93.172C380.149 93.556 380.253 93.924 380.333 94.276C380.421 94.628 380.525 94.804 380.645 94.804C380.781 94.804 380.893 94.7 380.981 94.492C381.069 94.276 381.189 93.964 381.341 93.556L384.353 85.492C384.441 85.268 384.517 85.132 384.581 85.084C384.653 85.028 384.845 85 385.157 85H392.669C392.973 85 393.189 85.004 393.317 85.012C393.445 85.02 393.509 85.188 393.509 85.516V87.628C393.509 87.924 393.489 88.1 393.449 88.156C393.409 88.212 393.237 88.24 392.933 88.24H391.469C391.213 88.24 391.065 88.264 391.025 88.312C390.993 88.36 390.981 88.508 390.989 88.756L391.349 99.268C391.357 99.476 391.369 99.612 391.385 99.676C391.409 99.732 391.533 99.76 391.757 99.76H393.677C393.877 99.76 393.997 99.792 394.037 99.856C394.085 99.912 394.109 100.044 394.109 100.252V102.34C394.109 102.596 394.081 102.772 394.025 102.868C393.977 102.956 393.813 103 393.533 103H384.221C383.957 103 383.797 102.964 383.741 102.892C383.693 102.812 383.669 102.636 383.669 102.364V100.324C383.669 100.052 383.713 99.892 383.801 99.844C383.897 99.788 384.069 99.76 384.317 99.76H385.589C385.845 99.76 386.013 99.72 386.093 99.64C386.181 99.552 386.221 99.384 386.213 99.136L386.069 93.724C386.053 93.164 386.065 92.636 386.105 92.14C386.153 91.636 386.177 91.228 386.177 90.916C386.177 90.596 386.101 90.436 385.949 90.436C385.853 90.436 385.777 90.488 385.721 90.592C385.665 90.688 385.609 90.844 385.553 91.06C385.497 91.276 385.405 91.564 385.277 91.924L381.593 102.748C381.505 103.004 381.409 103.168 381.305 103.24C381.201 103.32 380.973 103.36 380.621 103.36H378.461C378.109 103.36 377.877 103.32 377.765 103.24C377.661 103.168 377.565 103.004 377.477 102.748L373.913 92.356C373.809 92.052 373.709 91.704 373.613 91.312C373.525 90.92 373.437 90.576 373.349 90.28C373.261 89.984 373.165 89.836 373.061 89.836C372.957 89.836 372.897 89.948 372.881 90.172C372.865 90.396 372.845 90.78 372.821 91.324L372.461 98.908C372.453 99.196 372.465 99.412 372.497 99.556C372.529 99.692 372.709 99.76 373.037 99.76H374.621C374.845 99.76 374.989 99.792 375.053 99.856C375.117 99.92 375.149 100.068 375.149 100.3V102.388C375.149 102.684 375.101 102.86 375.005 102.916C374.917 102.972 374.733 103 374.453 103H367.013C366.733 103 366.557 102.964 366.485 102.892C366.421 102.82 366.389 102.636 366.389 102.34V100.18C366.389 100.012 366.409 99.9 366.449 99.844C366.489 99.788 366.589 99.76 366.749 99.76H368.645C369.005 99.76 369.189 99.688 369.197 99.544C369.213 99.392 369.229 99.156 369.245 98.836L369.797 88.66C369.813 88.404 369.777 88.272 369.689 88.264C369.601 88.248 369.429 88.24 369.173 88.24ZM407.059 90.772L405.655 94.18C405.575 94.356 405.527 94.532 405.511 94.708C405.503 94.876 405.659 94.96 405.979 94.96H408.511C408.791 94.96 408.931 94.88 408.931 94.72C408.939 94.56 408.911 94.396 408.847 94.228L407.599 90.724C407.503 90.444 407.407 90.336 407.311 90.4C407.223 90.464 407.139 90.588 407.059 90.772ZM397.111 102.316V100.348C397.111 100.14 397.147 99.992 397.219 99.904C397.291 99.808 397.439 99.76 397.663 99.76H399.643C399.843 99.76 399.959 99.72 399.991 99.64C400.023 99.552 400.067 99.444 400.123 99.316L406.207 85.036C406.287 84.844 406.363 84.732 406.435 84.7C406.515 84.66 406.691 84.64 406.963 84.64H410.563C410.843 84.64 411.023 84.68 411.103 84.76C411.191 84.832 411.275 84.964 411.355 85.156L416.887 99.028C416.975 99.252 417.043 99.432 417.091 99.568C417.147 99.696 417.347 99.76 417.691 99.76H419.275C419.483 99.76 419.639 99.78 419.743 99.82C419.855 99.86 419.911 99.996 419.911 100.228V102.46C419.911 102.7 419.879 102.852 419.815 102.916C419.751 102.972 419.603 103 419.371 103H408.643C408.403 103 408.259 102.964 408.211 102.892C408.171 102.812 408.151 102.652 408.151 102.412V100.276C408.151 100.044 408.179 99.9 408.235 99.844C408.299 99.788 408.443 99.76 408.667 99.76H410.035C410.387 99.76 410.595 99.72 410.659 99.64C410.723 99.56 410.711 99.404 410.623 99.172L410.335 98.356C410.279 98.196 410.227 98.092 410.179 98.044C410.139 97.988 410.003 97.96 409.771 97.96H404.707C404.475 97.96 404.311 97.968 404.215 97.984C404.119 97.992 404.035 98.084 403.963 98.26L403.567 99.244C403.487 99.436 403.463 99.572 403.495 99.652C403.527 99.724 403.651 99.76 403.867 99.76H405.115C405.307 99.76 405.419 99.796 405.451 99.868C405.491 99.932 405.511 100.06 405.511 100.252V102.556C405.511 102.756 405.475 102.88 405.403 102.928C405.331 102.976 405.203 103 405.019 103H397.903C397.567 103 397.351 102.972 397.255 102.916C397.159 102.852 397.111 102.652 397.111 102.316ZM425.122 102.388V100.36C425.122 100.12 425.154 99.96 425.218 99.88C425.29 99.8 425.442 99.76 425.674 99.76H427.258C427.578 99.76 427.782 99.712 427.87 99.616C427.958 99.512 428.002 99.3 428.002 98.98V88.576C428.002 88.432 427.97 88.32 427.906 88.24C427.85 88.16 427.746 88.12 427.594 88.12H427.402C426.61 88.12 425.99 88.228 425.542 88.444C425.102 88.66 424.79 89.04 424.606 89.584C424.422 90.12 424.318 90.884 424.294 91.876C424.286 92.164 424.226 92.352 424.114 92.44C424.01 92.52 423.802 92.56 423.49 92.56H422.038C421.806 92.56 421.642 92.536 421.546 92.488C421.45 92.44 421.402 92.3 421.402 92.068V85.696C421.402 85.44 421.426 85.26 421.474 85.156C421.522 85.052 421.674 85 421.93 85H439.282C439.474 85 439.602 85.044 439.666 85.132C439.73 85.22 439.762 85.368 439.762 85.576V91.876C439.762 92.18 439.718 92.372 439.63 92.452C439.542 92.524 439.338 92.56 439.018 92.56H437.602C437.29 92.56 437.09 92.524 437.002 92.452C436.922 92.38 436.878 92.196 436.87 91.9C436.846 90.9 436.742 90.128 436.558 89.584C436.374 89.04 436.062 88.66 435.622 88.444C435.182 88.228 434.562 88.12 433.762 88.12H433.618C433.442 88.12 433.322 88.164 433.258 88.252C433.194 88.332 433.162 88.46 433.162 88.636V98.8C433.162 99.176 433.198 99.432 433.27 99.568C433.35 99.696 433.578 99.76 433.954 99.76H435.358C435.638 99.76 435.822 99.808 435.91 99.904C435.998 99.992 436.042 100.164 436.042 100.42V102.34C436.042 102.628 435.998 102.812 435.91 102.892C435.83 102.964 435.65 103 435.37 103H425.77C425.522 103 425.35 102.968 425.254 102.904C425.166 102.832 425.122 102.66 425.122 102.388ZM445.873 88.24H444.313C444.065 88.24 443.909 88.204 443.845 88.132C443.789 88.06 443.761 87.904 443.761 87.664V85.552C443.761 85.28 443.809 85.12 443.905 85.072C444.009 85.024 444.185 85 444.433 85H461.617C461.849 85 461.989 85.04 462.037 85.12C462.093 85.2 462.121 85.352 462.121 85.576V91.624C462.121 91.848 462.101 91.98 462.061 92.02C462.029 92.06 461.897 92.08 461.665 92.08H459.385C459.209 92.08 459.101 92.04 459.061 91.96C459.021 91.872 458.997 91.752 458.989 91.6C458.965 90.784 458.857 90.132 458.665 89.644C458.481 89.148 458.149 88.792 457.669 88.576C457.197 88.352 456.521 88.24 455.641 88.24H452.737C452.505 88.24 452.329 88.272 452.209 88.336C452.097 88.392 452.041 88.548 452.041 88.804V91.984C452.041 92.272 452.069 92.46 452.125 92.548C452.181 92.636 452.305 92.68 452.497 92.68H452.557C453.173 92.68 453.669 92.464 454.045 92.032C454.421 91.6 454.657 91.104 454.753 90.544C454.785 90.36 454.821 90.22 454.861 90.124C454.901 90.02 455.005 89.968 455.173 89.968H456.505C456.761 89.968 456.921 90 456.985 90.064C457.049 90.128 457.081 90.288 457.081 90.544V97.504C457.081 97.712 457.053 97.848 456.997 97.912C456.941 97.976 456.801 98.008 456.577 98.008H455.281C455.033 98.008 454.889 97.956 454.849 97.852C454.817 97.74 454.781 97.584 454.741 97.384C454.677 97.016 454.537 96.668 454.321 96.34C454.113 96.004 453.861 95.732 453.565 95.524C453.277 95.308 452.977 95.2 452.665 95.2H452.593C452.433 95.2 452.301 95.256 452.197 95.368C452.093 95.472 452.041 95.648 452.041 95.896V99.28C452.041 99.56 452.081 99.712 452.161 99.736C452.241 99.752 452.417 99.76 452.689 99.76H455.401C456.417 99.76 457.193 99.632 457.729 99.376C458.273 99.112 458.653 98.696 458.869 98.128C459.085 97.56 459.205 96.816 459.229 95.896C459.245 95.592 459.269 95.4 459.301 95.32C459.333 95.24 459.513 95.2 459.841 95.2H461.881C462.153 95.2 462.301 95.236 462.325 95.308C462.349 95.372 462.361 95.536 462.361 95.8V102.52C462.361 102.768 462.337 102.912 462.289 102.952C462.241 102.984 462.089 103 461.833 103H444.361C444.121 103 443.961 102.992 443.881 102.976C443.801 102.96 443.761 102.824 443.761 102.568V100.144C443.761 99.936 443.781 99.82 443.821 99.796C443.869 99.772 443.993 99.76 444.193 99.76H445.873C446.129 99.76 446.281 99.74 446.329 99.7C446.377 99.66 446.401 99.512 446.401 99.256V88.696C446.401 88.488 446.365 88.36 446.293 88.312C446.229 88.264 446.089 88.24 445.873 88.24ZM466.677 84.976C466.677 84.392 466.825 83.888 467.121 83.464C467.425 83.032 467.817 82.7 468.297 82.468C468.785 82.236 469.301 82.12 469.845 82.12C470.853 82.12 471.665 82.452 472.281 83.116C472.897 83.772 473.205 84.748 473.205 86.044C473.205 86.884 473.017 87.656 472.641 88.36C472.273 89.056 471.793 89.664 471.201 90.184C470.617 90.704 470.001 91.124 469.353 91.444C468.705 91.756 468.105 91.948 467.553 92.02C467.377 92.044 467.257 92.032 467.193 91.984C467.137 91.936 467.109 91.816 467.109 91.624V90.196C467.109 90.076 467.133 89.996 467.181 89.956C467.229 89.916 467.305 89.892 467.409 89.884C467.889 89.836 468.357 89.692 468.813 89.452C469.269 89.212 469.669 88.936 470.013 88.624C470.365 88.304 470.625 88.008 470.793 87.736C470.825 87.688 470.821 87.652 470.781 87.628C470.749 87.596 470.697 87.596 470.625 87.628C470.489 87.684 470.313 87.732 470.097 87.772C469.889 87.812 469.653 87.832 469.389 87.832C468.573 87.832 467.917 87.576 467.421 87.064C466.925 86.544 466.677 85.848 466.677 84.976ZM474.117 84.976C474.117 84.392 474.265 83.888 474.561 83.464C474.865 83.032 475.257 82.7 475.737 82.468C476.225 82.236 476.741 82.12 477.285 82.12C478.293 82.12 479.105 82.452 479.721 83.116C480.337 83.772 480.645 84.748 480.645 86.044C480.645 86.884 480.457 87.656 480.081 88.36C479.713 89.056 479.233 89.664 478.641 90.184C478.057 90.704 477.441 91.124 476.793 91.444C476.145 91.756 475.545 91.948 474.993 92.02C474.817 92.044 474.697 92.032 474.633 91.984C474.577 91.936 474.549 91.816 474.549 91.624V90.196C474.549 90.076 474.573 89.996 474.621 89.956C474.669 89.916 474.745 89.892 474.849 89.884C475.329 89.836 475.797 89.692 476.253 89.452C476.709 89.212 477.109 88.936 477.453 88.624C477.805 88.304 478.065 88.008 478.233 87.736C478.265 87.688 478.261 87.652 478.221 87.628C478.189 87.596 478.137 87.596 478.065 87.628C477.929 87.684 477.753 87.732 477.537 87.772C477.329 87.812 477.093 87.832 476.829 87.832C476.013 87.832 475.357 87.576 474.861 87.064C474.365 86.544 474.117 85.848 474.117 84.976ZM220.319 123.6H217.479V134H214.019V123.6H211.179V120.66H220.319V123.6ZM223.853 120.66H227.313V128.56C227.313 129.12 227.333 129.98 227.993 130.62C228.393 131 229.033 131.26 229.633 131.26C230.233 131.26 230.853 131.02 231.233 130.68C232.033 129.98 232.013 129 232.013 128.26V120.66H235.473V128.32C235.473 129.72 235.413 131.18 233.973 132.64C232.853 133.78 231.453 134.3 229.573 134.3C227.473 134.3 225.973 133.58 225.153 132.7C223.993 131.44 223.853 129.74 223.853 128.32V120.66ZM245.827 134H240.267V120.66H245.427C246.387 120.66 247.527 120.8 248.347 121.7C248.807 122.2 249.167 123.02 249.167 124.2C249.167 124.78 249.067 125.28 248.787 125.84C248.507 126.36 248.207 126.66 247.707 126.88C248.407 126.96 249.107 127.28 249.527 127.68C250.067 128.2 250.427 129.06 250.427 130.12C250.427 131.38 249.947 132.24 249.447 132.74C248.727 133.48 247.467 134 245.827 134ZM243.727 123.32V125.92H244.367C244.727 125.92 245.327 125.88 245.687 125.5C245.907 125.28 246.007 124.92 246.007 124.62C246.007 124.28 245.887 123.94 245.687 123.72C245.467 123.5 245.047 123.32 244.367 123.32H243.727ZM243.727 128.5V131.3H244.507C245.467 131.3 246.267 131.2 246.647 130.76C246.807 130.58 246.927 130.28 246.927 129.9C246.927 129.48 246.787 129.14 246.587 128.94C246.167 128.52 245.307 128.5 244.447 128.5H243.727ZM262.21 120.66V123.6H258.09V125.82H261.99V128.76H258.09V131.06H262.21V134H254.63V120.66H262.21ZM273.084 120.66H276.544V131.06H280.704V134H273.084V120.66ZM293.438 134L292.618 131.76H287.778L286.878 134H283.218L288.338 120.66H292.118L297.138 134H293.438ZM288.738 129.12H291.698L290.198 124.8L288.738 129.12ZM302.353 134V127.6L297.533 120.66H301.673L304.193 124.3L306.613 120.66H310.813L305.833 127.6V134H302.353ZM327.325 127.34C327.325 129.1 326.645 130.96 325.225 132.32C323.865 133.62 321.945 134.3 319.965 134.3C317.985 134.3 316.065 133.62 314.705 132.32C313.285 130.96 312.605 129.1 312.605 127.34C312.605 125.56 313.285 123.68 314.705 122.34C316.065 121.04 317.985 120.36 319.965 120.36C321.945 120.36 323.865 121.04 325.225 122.34C326.645 123.68 327.325 125.56 327.325 127.34ZM319.965 123.72C319.005 123.72 317.985 124.06 317.265 124.78C316.545 125.48 316.205 126.46 316.205 127.4C316.205 128.58 316.765 129.4 317.265 129.88C317.905 130.5 318.805 130.94 319.965 130.94C321.145 130.94 322.025 130.52 322.645 129.9C323.265 129.28 323.725 128.36 323.725 127.34C323.725 126.3 323.265 125.38 322.645 124.78C321.905 124.08 320.885 123.72 319.965 123.72ZM331.533 120.66H334.993V128.56C334.993 129.12 335.013 129.98 335.673 130.62C336.073 131 336.713 131.26 337.313 131.26C337.913 131.26 338.533 131.02 338.913 130.68C339.713 129.98 339.693 129 339.693 128.26V120.66H343.153V128.32C343.153 129.72 343.093 131.18 341.653 132.64C340.533 133.78 339.133 134.3 337.253 134.3C335.153 134.3 333.653 133.58 332.833 132.7C331.673 131.44 331.533 129.74 331.533 128.32V120.66ZM355.827 123.6H352.987V134H349.527V123.6H346.687V120.66H355.827V123.6Z" fill="black"/>
</g>
<defs>
<clipPath id="clip0_4_2">
<rect width="638" height="344" fill="white"/>
</clipPath>
</defs>
</svg>
