<svg width="638" height="344" viewBox="0 0 638 344" fill="none" xmlns="http://www.w3.org/2000/svg">
<g clip-path="url(#clip0_1_2)">
<rect x="0.5" y="0.5" width="637" height="343" stroke="#767676" stroke-dasharray="2 5"/>
<circle cx="107" cy="217" r="43.5" stroke="black" stroke-width="3"/>
<circle cx="230" cy="217" r="43.5" stroke="black" stroke-width="3"/>
<circle cx="349.5" cy="229.5" r="31" stroke="black" stroke-width="3"/>
<circle cx="447.5" cy="229.5" r="31" stroke="black" stroke-width="3"/>
<circle cx="545.5" cy="229.5" r="31" stroke="black" stroke-width="3"/>
<circle cx="545.5" cy="90.5" r="31" stroke="black" stroke-width="3"/>
<path d="M95.96 209.92L99.6 219.08L103.26 209.92H107.52L101.08 225H98.04L91.7 209.92H95.96ZM118.495 218.88H120.315V221.88H118.495V225H114.855V221.88H107.535V219.38L113.355 209.92H118.495V218.88ZM114.855 218.88V213.08H114.815L111.295 218.88H114.855Z" fill="black"/>
<path d="M218.96 209.92L222.6 219.08L226.26 209.92H230.52L224.08 225H221.04L214.7 209.92H218.96ZM235.315 214.26H231.675C231.822 212.753 232.408 211.54 233.435 210.62C234.408 209.753 235.688 209.32 237.275 209.32C238.675 209.32 239.828 209.707 240.735 210.48C241.642 211.253 242.095 212.327 242.095 213.7C242.095 214.34 241.962 214.947 241.695 215.52C241.428 216.08 241.035 216.507 240.515 216.8C241.275 217 241.875 217.48 242.315 218.24C242.755 218.987 242.975 219.773 242.975 220.6C242.975 221.653 242.688 222.567 242.115 223.34C241.555 224.113 240.835 224.68 239.955 225.04C239.088 225.413 238.142 225.6 237.115 225.6C235.235 225.6 233.735 225.033 232.615 223.9C232.135 223.407 231.722 222.807 231.375 222.1C231.042 221.393 230.882 220.727 230.895 220.1H234.895C234.895 220.713 235.088 221.227 235.475 221.64C235.875 222.04 236.382 222.24 236.995 222.24C237.608 222.24 238.108 222.053 238.495 221.68C238.895 221.307 239.095 220.82 239.095 220.22C239.095 219.66 238.888 219.187 238.475 218.8C238.062 218.4 237.575 218.2 237.015 218.2C236.855 218.2 236.628 218.24 236.335 218.32V215.7H236.735C237.242 215.7 237.655 215.553 237.975 215.26C238.295 214.953 238.455 214.547 238.455 214.04C238.455 213.587 238.308 213.22 238.015 212.94C237.722 212.66 237.355 212.52 236.915 212.52C236.422 212.52 236.028 212.687 235.735 213.02C235.442 213.34 235.302 213.753 235.315 214.26Z" fill="black"/>
<path d="M69.284 278.444H72.392L69.396 282.014L69.424 282.042C69.9093 281.827 70.3993 281.72 70.894 281.72C71.8927 281.72 72.7047 282.089 73.33 282.826C73.9647 283.554 74.282 284.422 74.282 285.43C74.282 286.671 73.8433 287.647 72.966 288.356C72.0887 289.065 71.0153 289.42 69.746 289.42C68.5047 289.42 67.5013 289.117 66.736 288.51C66.3067 288.155 65.9613 287.721 65.7 287.208C65.448 286.685 65.322 286.153 65.322 285.612C65.322 284.287 65.8867 282.887 67.016 281.412L69.284 278.444ZM68.5 286.76C68.8453 287.096 69.256 287.264 69.732 287.264C70.208 287.264 70.6093 287.096 70.936 286.76C71.2627 286.415 71.426 285.999 71.426 285.514C71.426 285.038 71.2627 284.632 70.936 284.296C70.6093 283.96 70.208 283.792 69.732 283.792C69.256 283.792 68.8453 283.96 68.5 284.296C68.164 284.632 67.996 285.038 67.996 285.514C67.996 285.999 68.164 286.415 68.5 286.76ZM78.2377 284.632V286.9H78.5877C78.8117 286.9 78.961 286.9 79.0357 286.9C79.1197 286.9 79.2737 286.891 79.4977 286.872C79.7217 286.853 79.885 286.821 79.9877 286.774C80.0997 286.727 80.2257 286.667 80.3657 286.592C80.515 286.508 80.6177 286.401 80.6737 286.27C80.739 286.13 80.7717 285.967 80.7717 285.78C80.7717 285.64 80.7577 285.514 80.7297 285.402C80.7017 285.29 80.6503 285.197 80.5757 285.122C80.5103 285.047 80.4497 284.982 80.3937 284.926C80.3377 284.861 80.2443 284.814 80.1137 284.786C79.9923 284.749 79.899 284.721 79.8337 284.702C79.7683 284.674 79.6517 284.655 79.4837 284.646C79.325 284.637 79.2177 284.632 79.1617 284.632C79.115 284.632 79.003 284.632 78.8257 284.632C78.6483 284.632 78.5457 284.632 78.5177 284.632H78.2377ZM79.7217 289H75.4937V278.444H79.4137C81.5043 278.444 82.5497 279.359 82.5497 281.188C82.5497 282.233 82.1623 282.952 81.3877 283.344V283.372C82.825 283.559 83.5437 284.455 83.5437 286.06C83.5437 286.592 83.4363 287.054 83.2217 287.446C83.007 287.838 82.713 288.146 82.3397 288.37C81.9757 288.585 81.5743 288.743 81.1357 288.846C80.7063 288.949 80.235 289 79.7217 289ZM78.2377 280.544V282.588H78.5457C78.9937 282.588 79.353 282.518 79.6237 282.378C79.8943 282.238 80.0297 281.967 80.0297 281.566C80.0297 281.333 79.983 281.146 79.8897 281.006C79.8057 280.857 79.675 280.754 79.4977 280.698C79.3203 280.633 79.157 280.591 79.0077 280.572C78.8583 280.553 78.667 280.544 78.4337 280.544H78.2377ZM92.0243 284.548L92.7663 285.318C93.0929 284.861 93.2563 284.343 93.2563 283.764C93.2563 282.961 92.9623 282.261 92.3743 281.664C91.7956 281.057 91.1003 280.754 90.2883 280.754C89.4763 280.754 88.7716 281.034 88.1743 281.594C87.5863 282.154 87.2923 282.803 87.2923 283.54C87.2923 284.436 87.5816 285.187 88.1603 285.794C88.7483 286.391 89.4576 286.69 90.2883 286.69C90.5776 286.69 90.8576 286.643 91.1283 286.55L89.4343 284.87L92.0243 284.548ZM96.5323 289.266L94.0123 289.658L93.1723 288.664C92.4163 289.121 91.4503 289.35 90.2743 289.35C88.5756 289.35 87.1756 288.809 86.0743 287.726C84.9823 286.634 84.4363 285.234 84.4363 283.526C84.4363 282.49 84.7116 281.552 85.2623 280.712C85.8129 279.872 86.5316 279.228 87.4183 278.78C88.3049 278.323 89.2569 278.094 90.2743 278.094C91.9449 278.094 93.3356 278.617 94.4463 279.662C95.5569 280.698 96.1123 282.061 96.1123 283.75C96.1123 285.103 95.6596 286.34 94.7543 287.46L96.5323 289.266ZM104.396 280.768H100.742L100.56 281.972L101.428 281.902C102.492 281.818 103.379 282.149 104.088 282.896C104.807 283.643 105.166 284.571 105.166 285.682C105.166 286.839 104.714 287.791 103.808 288.538C103.071 289.126 102.044 289.42 100.728 289.42C99.4217 289.42 98.2737 289.103 97.2843 288.468L97.6903 285.878C98.5957 286.69 99.5757 287.096 100.63 287.096C101.078 287.096 101.47 286.951 101.806 286.662C102.142 286.363 102.31 285.99 102.31 285.542C102.31 284.954 102.077 284.506 101.61 284.198C101.153 283.89 100.616 283.736 100 283.736C99.2723 283.736 98.6003 283.881 97.9843 284.17L98.9083 278.444H104.396V280.768ZM111.865 277.38H113.867L108.519 290.302H106.517L111.865 277.38ZM121.148 280.768H117.886V282.532H120.98V284.856H117.886V286.676H121.148V289H115.142V278.444H121.148V280.768ZM125.583 278.444V286.676H128.873V289H122.839V278.444H125.583ZM134.489 280.278C134.265 280.045 133.994 279.928 133.677 279.928C133.36 279.928 133.084 280.045 132.851 280.278C132.627 280.511 132.515 280.791 132.515 281.118C132.515 281.445 132.627 281.725 132.851 281.958C133.084 282.191 133.36 282.308 133.677 282.308C133.994 282.308 134.265 282.191 134.489 281.958C134.722 281.725 134.839 281.445 134.839 281.118C134.839 280.791 134.722 280.511 134.489 280.278ZM134.559 284.954C134.316 284.693 134.022 284.562 133.677 284.562C133.332 284.562 133.033 284.693 132.781 284.954C132.538 285.206 132.417 285.514 132.417 285.878C132.417 286.233 132.538 286.536 132.781 286.788C133.033 287.04 133.332 287.166 133.677 287.166C134.022 287.166 134.316 287.04 134.559 286.788C134.811 286.536 134.937 286.233 134.937 285.878C134.937 285.514 134.811 285.206 134.559 284.954ZM131.143 278.822C131.852 278.29 132.697 278.024 133.677 278.024C134.657 278.024 135.502 278.29 136.211 278.822C136.92 279.345 137.275 280.082 137.275 281.034C137.275 281.585 137.116 282.084 136.799 282.532C136.491 282.971 136.094 283.269 135.609 283.428V283.456C136.253 283.671 136.762 284.021 137.135 284.506C137.518 284.982 137.709 285.556 137.709 286.228C137.709 286.919 137.494 287.516 137.065 288.02C136.636 288.515 136.122 288.869 135.525 289.084C134.937 289.308 134.321 289.42 133.677 289.42C133.033 289.42 132.412 289.308 131.815 289.084C131.227 288.869 130.718 288.515 130.289 288.02C129.86 287.516 129.645 286.919 129.645 286.228C129.645 285.556 129.832 284.982 130.205 284.506C130.588 284.021 131.101 283.671 131.745 283.456V283.428C131.26 283.269 130.858 282.971 130.541 282.532C130.233 282.084 130.079 281.585 130.079 281.034C130.079 280.082 130.434 279.345 131.143 278.822ZM146.369 284.716H147.643V286.816H146.369V289H143.821V286.816H138.697V285.066L142.771 278.444H146.369V284.716ZM143.821 284.716V280.656H143.793L141.329 284.716H143.821Z" fill="black"/>
<path d="M192.284 278.444H195.392L192.396 282.014L192.424 282.042C192.909 281.827 193.399 281.72 193.894 281.72C194.893 281.72 195.705 282.089 196.33 282.826C196.965 283.554 197.282 284.422 197.282 285.43C197.282 286.671 196.843 287.647 195.966 288.356C195.089 289.065 194.015 289.42 192.746 289.42C191.505 289.42 190.501 289.117 189.736 288.51C189.307 288.155 188.961 287.721 188.7 287.208C188.448 286.685 188.322 286.153 188.322 285.612C188.322 284.287 188.887 282.887 190.016 281.412L192.284 278.444ZM191.5 286.76C191.845 287.096 192.256 287.264 192.732 287.264C193.208 287.264 193.609 287.096 193.936 286.76C194.263 286.415 194.426 285.999 194.426 285.514C194.426 285.038 194.263 284.632 193.936 284.296C193.609 283.96 193.208 283.792 192.732 283.792C192.256 283.792 191.845 283.96 191.5 284.296C191.164 284.632 190.996 285.038 190.996 285.514C190.996 285.999 191.164 286.415 191.5 286.76ZM201.238 284.632V286.9H201.588C201.812 286.9 201.961 286.9 202.036 286.9C202.12 286.9 202.274 286.891 202.498 286.872C202.722 286.853 202.885 286.821 202.988 286.774C203.1 286.727 203.226 286.667 203.366 286.592C203.515 286.508 203.618 286.401 203.674 286.27C203.739 286.13 203.772 285.967 203.772 285.78C203.772 285.64 203.758 285.514 203.73 285.402C203.702 285.29 203.65 285.197 203.576 285.122C203.51 285.047 203.45 284.982 203.394 284.926C203.338 284.861 203.244 284.814 203.114 284.786C202.992 284.749 202.899 284.721 202.834 284.702C202.768 284.674 202.652 284.655 202.484 284.646C202.325 284.637 202.218 284.632 202.162 284.632C202.115 284.632 202.003 284.632 201.826 284.632C201.648 284.632 201.546 284.632 201.518 284.632H201.238ZM202.722 289H198.494V278.444H202.414C204.504 278.444 205.55 279.359 205.55 281.188C205.55 282.233 205.162 282.952 204.388 283.344V283.372C205.825 283.559 206.544 284.455 206.544 286.06C206.544 286.592 206.436 287.054 206.222 287.446C206.007 287.838 205.713 288.146 205.34 288.37C204.976 288.585 204.574 288.743 204.136 288.846C203.706 288.949 203.235 289 202.722 289ZM201.238 280.544V282.588H201.546C201.994 282.588 202.353 282.518 202.624 282.378C202.894 282.238 203.03 281.967 203.03 281.566C203.03 281.333 202.983 281.146 202.89 281.006C202.806 280.857 202.675 280.754 202.498 280.698C202.32 280.633 202.157 280.591 202.008 280.572C201.858 280.553 201.667 280.544 201.434 280.544H201.238ZM215.024 284.548L215.766 285.318C216.093 284.861 216.256 284.343 216.256 283.764C216.256 282.961 215.962 282.261 215.374 281.664C214.796 281.057 214.1 280.754 213.288 280.754C212.476 280.754 211.772 281.034 211.174 281.594C210.586 282.154 210.292 282.803 210.292 283.54C210.292 284.436 210.582 285.187 211.16 285.794C211.748 286.391 212.458 286.69 213.288 286.69C213.578 286.69 213.858 286.643 214.128 286.55L212.434 284.87L215.024 284.548ZM219.532 289.266L217.012 289.658L216.172 288.664C215.416 289.121 214.45 289.35 213.274 289.35C211.576 289.35 210.176 288.809 209.074 287.726C207.982 286.634 207.436 285.234 207.436 283.526C207.436 282.49 207.712 281.552 208.262 280.712C208.813 279.872 209.532 279.228 210.418 278.78C211.305 278.323 212.257 278.094 213.274 278.094C214.945 278.094 216.336 278.617 217.446 279.662C218.557 280.698 219.112 282.061 219.112 283.75C219.112 285.103 218.66 286.34 217.754 287.46L219.532 289.266ZM227.396 280.768H223.742L223.56 281.972L224.428 281.902C225.492 281.818 226.379 282.149 227.088 282.896C227.807 283.643 228.166 284.571 228.166 285.682C228.166 286.839 227.714 287.791 226.808 288.538C226.071 289.126 225.044 289.42 223.728 289.42C222.422 289.42 221.274 289.103 220.284 288.468L220.69 285.878C221.596 286.69 222.576 287.096 223.63 287.096C224.078 287.096 224.47 286.951 224.806 286.662C225.142 286.363 225.31 285.99 225.31 285.542C225.31 284.954 225.077 284.506 224.61 284.198C224.153 283.89 223.616 283.736 223 283.736C222.272 283.736 221.6 283.881 220.984 284.17L221.908 278.444H227.396V280.768ZM234.865 277.38H236.867L231.519 290.302H229.517L234.865 277.38ZM244.148 280.768H240.886V282.532H243.98V284.856H240.886V286.676H244.148V289H238.142V278.444H244.148V280.768ZM248.583 278.444V286.676H251.873V289H245.839V278.444H248.583ZM257.489 280.278C257.265 280.045 256.994 279.928 256.677 279.928C256.36 279.928 256.084 280.045 255.851 280.278C255.627 280.511 255.515 280.791 255.515 281.118C255.515 281.445 255.627 281.725 255.851 281.958C256.084 282.191 256.36 282.308 256.677 282.308C256.994 282.308 257.265 282.191 257.489 281.958C257.722 281.725 257.839 281.445 257.839 281.118C257.839 280.791 257.722 280.511 257.489 280.278ZM257.559 284.954C257.316 284.693 257.022 284.562 256.677 284.562C256.332 284.562 256.033 284.693 255.781 284.954C255.538 285.206 255.417 285.514 255.417 285.878C255.417 286.233 255.538 286.536 255.781 286.788C256.033 287.04 256.332 287.166 256.677 287.166C257.022 287.166 257.316 287.04 257.559 286.788C257.811 286.536 257.937 286.233 257.937 285.878C257.937 285.514 257.811 285.206 257.559 284.954ZM254.143 278.822C254.852 278.29 255.697 278.024 256.677 278.024C257.657 278.024 258.502 278.29 259.211 278.822C259.92 279.345 260.275 280.082 260.275 281.034C260.275 281.585 260.116 282.084 259.799 282.532C259.491 282.971 259.094 283.269 258.609 283.428V283.456C259.253 283.671 259.762 284.021 260.135 284.506C260.518 284.982 260.709 285.556 260.709 286.228C260.709 286.919 260.494 287.516 260.065 288.02C259.636 288.515 259.122 288.869 258.525 289.084C257.937 289.308 257.321 289.42 256.677 289.42C256.033 289.42 255.412 289.308 254.815 289.084C254.227 288.869 253.718 288.515 253.289 288.02C252.86 287.516 252.645 286.919 252.645 286.228C252.645 285.556 252.832 284.982 253.205 284.506C253.588 284.021 254.101 283.671 254.745 283.456V283.428C254.26 283.269 253.858 282.971 253.541 282.532C253.233 282.084 253.079 281.585 253.079 281.034C253.079 280.082 253.434 279.345 254.143 278.822ZM269.369 284.716H270.643V286.816H269.369V289H266.821V286.816H261.697V285.066L265.771 278.444H269.369V284.716ZM266.821 284.716V280.656H266.793L264.329 284.716H266.821Z" fill="black"/>
<path d="M322.766 280.768H321.254V278.444H325.51V289H322.766V280.768ZM334.086 286.676H337.544V289H329.06L333.372 284.31C334.174 283.433 334.576 282.569 334.576 281.72C334.576 281.365 334.459 281.048 334.226 280.768C334.002 280.488 333.717 280.348 333.372 280.348C333.017 280.348 332.737 280.469 332.532 280.712C332.326 280.955 332.224 281.263 332.224 281.636C332.224 281.785 332.238 281.935 332.266 282.084H329.242C329.288 280.861 329.676 279.881 330.404 279.144C331.141 278.397 332.126 278.024 333.358 278.024C334.496 278.024 335.458 278.369 336.242 279.06C337.035 279.751 337.432 280.656 337.432 281.776C337.432 282.485 337.292 283.092 337.012 283.596C336.741 284.1 336.312 284.618 335.724 285.15L334.086 286.676ZM345.559 287.166H341.779L341.051 289H338.139L342.199 278.444H345.195L349.171 289H346.245L345.559 287.166ZM344.817 285.066L343.697 281.706H343.669L342.535 285.066H344.817ZM353.151 283.358L349.777 278.444H353.151L354.761 281.174L356.371 278.444H359.745L356.371 283.358L360.277 289H356.973L354.761 285.556L352.339 289H349.021L353.151 283.358ZM365.584 280.768H361.174V278.444H369.84L363.778 289H360.768L365.584 280.768ZM377.141 287.166H373.361L372.633 289H369.721L373.781 278.444H376.777L380.753 289H377.827L377.141 287.166ZM376.399 285.066L375.279 281.706H375.251L374.117 285.066H376.399Z" fill="black"/>
<path d="M420.766 280.768H419.254V278.444H423.51V289H420.766V280.768ZM432.086 286.676H435.544V289H427.06L431.372 284.31C432.174 283.433 432.576 282.569 432.576 281.72C432.576 281.365 432.459 281.048 432.226 280.768C432.002 280.488 431.717 280.348 431.372 280.348C431.017 280.348 430.737 280.469 430.532 280.712C430.326 280.955 430.224 281.263 430.224 281.636C430.224 281.785 430.238 281.935 430.266 282.084H427.242C427.288 280.861 427.676 279.881 428.404 279.144C429.141 278.397 430.126 278.024 431.358 278.024C432.496 278.024 433.458 278.369 434.242 279.06C435.035 279.751 435.432 280.656 435.432 281.776C435.432 282.485 435.292 283.092 435.012 283.596C434.741 284.1 434.312 284.618 433.724 285.15L432.086 286.676ZM443.559 287.166H439.779L439.051 289H436.139L440.199 278.444H443.195L447.171 289H444.245L443.559 287.166ZM442.817 285.066L441.697 281.706H441.669L440.535 285.066H442.817ZM451.151 283.358L447.777 278.444H451.151L452.761 281.174L454.371 278.444H457.745L454.371 283.358L458.277 289H454.973L452.761 285.556L450.339 289H447.021L451.151 283.358ZM463.584 280.768H459.174V278.444H467.84L461.778 289H458.768L463.584 280.768ZM475.141 287.166H471.361L470.633 289H467.721L471.781 278.444H474.777L478.753 289H475.827L475.141 287.166ZM474.399 285.066L473.279 281.706H473.251L472.117 285.066H474.399Z" fill="black"/>
<path d="M518.766 280.768H517.254V278.444H521.51V289H518.766V280.768ZM530.086 286.676H533.544V289H525.06L529.372 284.31C530.174 283.433 530.576 282.569 530.576 281.72C530.576 281.365 530.459 281.048 530.226 280.768C530.002 280.488 529.717 280.348 529.372 280.348C529.017 280.348 528.737 280.469 528.532 280.712C528.326 280.955 528.224 281.263 528.224 281.636C528.224 281.785 528.238 281.935 528.266 282.084H525.242C525.288 280.861 525.676 279.881 526.404 279.144C527.141 278.397 528.126 278.024 529.358 278.024C530.496 278.024 531.458 278.369 532.242 279.06C533.035 279.751 533.432 280.656 533.432 281.776C533.432 282.485 533.292 283.092 533.012 283.596C532.741 284.1 532.312 284.618 531.724 285.15L530.086 286.676ZM541.559 287.166H537.779L537.051 289H534.139L538.199 278.444H541.195L545.171 289H542.245L541.559 287.166ZM540.817 285.066L539.697 281.706H539.669L538.535 285.066H540.817ZM549.151 283.358L545.777 278.444H549.151L550.761 281.174L552.371 278.444H555.745L552.371 283.358L556.277 289H552.973L550.761 285.556L548.339 289H545.021L549.151 283.358ZM561.584 280.768H557.174V278.444H565.84L559.778 289H556.768L561.584 280.768ZM573.141 287.166H569.361L568.633 289H565.721L569.781 278.444H572.777L576.753 289H573.827L573.141 287.166ZM572.399 285.066L571.279 281.706H571.251L570.117 285.066H572.399Z" fill="black"/>
<path d="M518.766 137.768H517.254V135.444H521.51V146H518.766V137.768ZM530.086 143.676H533.544V146H525.06L529.372 141.31C530.174 140.433 530.576 139.569 530.576 138.72C530.576 138.365 530.459 138.048 530.226 137.768C530.002 137.488 529.717 137.348 529.372 137.348C529.017 137.348 528.737 137.469 528.532 137.712C528.326 137.955 528.224 138.263 528.224 138.636C528.224 138.785 528.238 138.935 528.266 139.084H525.242C525.288 137.861 525.676 136.881 526.404 136.144C527.141 135.397 528.126 135.024 529.358 135.024C530.496 135.024 531.458 135.369 532.242 136.06C533.035 136.751 533.432 137.656 533.432 138.776C533.432 139.485 533.292 140.092 533.012 140.596C532.741 141.1 532.312 141.618 531.724 142.15L530.086 143.676ZM541.559 144.166H537.779L537.051 146H534.139L538.199 135.444H541.195L545.171 146H542.245L541.559 144.166ZM540.817 142.066L539.697 138.706H539.669L538.535 142.066H540.817ZM549.151 140.358L545.777 135.444H549.151L550.761 138.174L552.371 135.444H555.745L552.371 140.358L556.277 146H552.973L550.761 142.556L548.339 146H545.021L549.151 140.358ZM561.584 137.768H557.174V135.444H565.84L559.778 146H556.768L561.584 137.768ZM573.141 144.166H569.361L568.633 146H565.721L569.781 135.444H572.777L576.753 146H573.827L573.141 144.166ZM572.399 142.066L571.279 138.706H571.251L570.117 142.066H572.399Z" fill="black"/>
<path d="M338.96 221.92L342.6 231.08L346.26 221.92H350.52L344.08 237H341.04L334.7 221.92H338.96ZM358.055 233.68H362.995V237H350.875L357.035 230.3C358.182 229.047 358.755 227.813 358.755 226.6C358.755 226.093 358.588 225.64 358.255 225.24C357.935 224.84 357.528 224.64 357.035 224.64C356.528 224.64 356.128 224.813 355.835 225.16C355.542 225.507 355.395 225.947 355.395 226.48C355.395 226.693 355.415 226.907 355.455 227.12H351.135C351.202 225.373 351.755 223.973 352.795 222.92C353.848 221.853 355.255 221.32 357.015 221.32C358.642 221.32 360.015 221.813 361.135 222.8C362.268 223.787 362.835 225.08 362.835 226.68C362.835 227.693 362.635 228.56 362.235 229.28C361.848 230 361.235 230.74 360.395 231.5L358.055 233.68Z" fill="black"/>
<path d="M436.96 221.92L440.6 231.08L444.26 221.92H448.52L442.08 237H439.04L432.7 221.92H436.96ZM454.335 221.92H458.775L454.495 227.02L454.535 227.06C455.228 226.753 455.928 226.6 456.635 226.6C458.062 226.6 459.222 227.127 460.115 228.18C461.022 229.22 461.475 230.46 461.475 231.9C461.475 233.673 460.848 235.067 459.595 236.08C458.342 237.093 456.808 237.6 454.995 237.6C453.222 237.6 451.788 237.167 450.695 236.3C450.082 235.793 449.588 235.173 449.215 234.44C448.855 233.693 448.675 232.933 448.675 232.16C448.675 230.267 449.482 228.267 451.095 226.16L454.335 221.92ZM453.215 233.8C453.708 234.28 454.295 234.52 454.975 234.52C455.655 234.52 456.228 234.28 456.695 233.8C457.162 233.307 457.395 232.713 457.395 232.02C457.395 231.34 457.162 230.76 456.695 230.28C456.228 229.8 455.655 229.56 454.975 229.56C454.295 229.56 453.708 229.8 453.215 230.28C452.735 230.76 452.495 231.34 452.495 232.02C452.495 232.713 452.735 233.307 453.215 233.8Z" fill="black"/>
<path d="M534.96 221.92L538.6 231.08L542.26 221.92H546.52L540.08 237H537.04L530.7 221.92H534.96ZM557.515 225.24H552.295L552.035 226.96L553.275 226.86C554.795 226.74 556.062 227.213 557.075 228.28C558.102 229.347 558.615 230.673 558.615 232.26C558.615 233.913 557.968 235.273 556.675 236.34C555.622 237.18 554.155 237.6 552.275 237.6C550.408 237.6 548.768 237.147 547.355 236.24L547.935 232.54C549.228 233.7 550.628 234.28 552.135 234.28C552.775 234.28 553.335 234.073 553.815 233.66C554.295 233.233 554.535 232.7 554.535 232.06C554.535 231.22 554.202 230.58 553.535 230.14C552.882 229.7 552.115 229.48 551.235 229.48C550.195 229.48 549.235 229.687 548.355 230.1L549.675 221.92H557.515V225.24Z" fill="black"/>
<path d="M534.96 82.92L538.6 92.08L542.26 82.92H546.52L540.08 98H537.04L530.7 82.92H534.96ZM551.595 86.24H549.435V82.92H555.515V98H551.595V86.24Z" fill="black"/>
<rect x="38" y="36" width="562" height="273" rx="9" stroke="black" stroke-width="2"/>
<path d="M97.6992 102.568V100.312C97.6992 100.08 97.7232 99.932 97.7712 99.868C97.8192 99.796 97.9552 99.76 98.1792 99.76H99.8112C100.051 99.76 100.199 99.724 100.255 99.652C100.311 99.58 100.339 99.42 100.339 99.172V97.444C100.339 97.116 100.311 96.884 100.255 96.748C100.199 96.604 100.111 96.444 99.9912 96.268L94.8672 88.792C94.7312 88.584 94.6152 88.44 94.5192 88.36C94.4312 88.28 94.2072 88.24 93.8472 88.24H92.5752C92.3272 88.24 92.1792 88.2 92.1312 88.12C92.0832 88.04 92.0592 87.876 92.0592 87.628V85.84C92.0592 85.464 92.1272 85.232 92.2632 85.144C92.3992 85.048 92.6392 85 92.9832 85H102.511C102.815 85 103.027 85.036 103.147 85.108C103.275 85.172 103.339 85.368 103.339 85.696V87.676C103.339 87.916 103.303 88.072 103.231 88.144C103.167 88.208 103.019 88.24 102.787 88.24H101.767C101.471 88.24 101.295 88.284 101.239 88.372C101.183 88.46 101.243 88.632 101.419 88.888L103.483 91.888C103.707 92.2 103.871 92.4 103.975 92.488C104.087 92.576 104.199 92.564 104.311 92.452C104.423 92.332 104.591 92.128 104.815 91.84L107.131 88.84C107.331 88.584 107.387 88.42 107.299 88.348C107.211 88.276 107.039 88.24 106.783 88.24H105.859C105.555 88.24 105.359 88.212 105.271 88.156C105.183 88.092 105.139 87.908 105.139 87.604V85.6C105.139 85.328 105.171 85.16 105.235 85.096C105.307 85.032 105.475 85 105.739 85H113.191C113.399 85 113.547 85.02 113.635 85.06C113.731 85.1 113.779 85.236 113.779 85.468V87.916C113.779 88.068 113.743 88.16 113.671 88.192C113.607 88.224 113.495 88.24 113.335 88.24H112.543C112.191 88.24 111.963 88.28 111.859 88.36C111.763 88.432 111.639 88.56 111.487 88.744L106.459 94.972C106.307 95.172 106.187 95.34 106.099 95.476C106.019 95.612 105.979 95.868 105.979 96.244V99.196C105.979 99.42 106.003 99.572 106.051 99.652C106.099 99.724 106.235 99.76 106.459 99.76H108.367C108.599 99.76 108.739 99.8 108.787 99.88C108.835 99.952 108.859 100.108 108.859 100.348V102.532C108.859 102.716 108.835 102.84 108.787 102.904C108.747 102.968 108.635 103 108.451 103H98.0832C97.9232 103 97.8192 102.972 97.7712 102.916C97.7232 102.86 97.6992 102.744 97.6992 102.568ZM125.616 92.68H135.84C136.112 92.68 136.28 92.716 136.344 92.788C136.416 92.852 136.452 93.024 136.452 93.304V95.488C136.452 95.688 136.416 95.812 136.344 95.86C136.28 95.9 136.144 95.92 135.936 95.92H134.496C134.312 95.92 134.192 95.944 134.136 95.992C134.08 96.032 134.052 96.144 134.052 96.328V98.992C134.052 99.264 134.028 99.444 133.98 99.532C133.932 99.62 133.84 99.732 133.704 99.868C133.328 100.228 132.856 100.616 132.288 101.032C131.72 101.448 131.068 101.844 130.332 102.22C129.596 102.588 128.784 102.888 127.896 103.12C127.008 103.36 126.06 103.48 125.052 103.48C123.564 103.48 122.196 103.26 120.948 102.82C119.708 102.38 118.632 101.748 117.72 100.924C116.808 100.1 116.1 99.104 115.596 97.936C115.1 96.768 114.852 95.456 114.852 94C114.852 92.664 115.088 91.42 115.56 90.268C116.04 89.116 116.716 88.112 117.588 87.256C118.46 86.392 119.496 85.72 120.696 85.24C121.904 84.76 123.236 84.52 124.692 84.52C125.692 84.52 126.576 84.648 127.344 84.904C128.112 85.152 128.776 85.484 129.336 85.9C129.52 86.028 129.66 86.092 129.756 86.092C129.852 86.084 129.976 85.984 130.128 85.792L130.644 85.096C130.708 85.016 130.78 84.96 130.86 84.928C130.94 84.896 131.056 84.88 131.208 84.88H133.008C133.216 84.88 133.36 84.904 133.44 84.952C133.528 84.992 133.572 85.112 133.572 85.312V90.652C133.572 90.916 133.548 91.1 133.5 91.204C133.452 91.308 133.296 91.36 133.032 91.36H130.68C130.336 91.36 130.136 91.316 130.08 91.228C130.024 91.14 129.944 90.984 129.84 90.76C129.528 90.072 129.164 89.492 128.748 89.02C128.332 88.548 127.84 88.192 127.272 87.952C126.712 87.712 126.052 87.592 125.292 87.592C124.46 87.592 123.728 87.84 123.096 88.336C122.464 88.832 121.972 89.556 121.62 90.508C121.268 91.46 121.092 92.624 121.092 94C121.092 95.376 121.248 96.548 121.56 97.516C121.872 98.476 122.312 99.212 122.88 99.724C123.456 100.228 124.14 100.48 124.932 100.48C125.644 100.48 126.208 100.38 126.624 100.18C127.048 99.98 127.376 99.72 127.608 99.4C127.848 99.08 128.044 98.744 128.196 98.392C128.268 98.224 128.32 98.068 128.352 97.924C128.392 97.772 128.412 97.568 128.412 97.312V96.472C128.412 96.24 128.388 96.092 128.34 96.028C128.292 95.956 128.152 95.92 127.92 95.92H125.472C125.2 95.92 125.04 95.86 124.992 95.74C124.952 95.612 124.932 95.424 124.932 95.176V93.28C124.932 92.992 124.976 92.82 125.064 92.764C125.16 92.708 125.344 92.68 125.616 92.68ZM142.014 88.24H140.646C140.366 88.24 140.198 88.22 140.142 88.18C140.094 88.132 140.07 87.964 140.07 87.676V85.372C140.07 85.124 140.126 85 140.238 85C140.35 85 140.518 85 140.742 85H149.502C149.822 85 150.038 85.036 150.15 85.108C150.27 85.18 150.35 85.292 150.39 85.444C150.438 85.588 150.498 85.772 150.57 85.996L152.862 93.172C152.99 93.556 153.094 93.924 153.174 94.276C153.262 94.628 153.366 94.804 153.486 94.804C153.622 94.804 153.734 94.7 153.822 94.492C153.91 94.276 154.03 93.964 154.182 93.556L157.194 85.492C157.282 85.268 157.358 85.132 157.422 85.084C157.494 85.028 157.686 85 157.998 85H165.51C165.814 85 166.03 85.004 166.158 85.012C166.286 85.02 166.35 85.188 166.35 85.516V87.628C166.35 87.924 166.33 88.1 166.29 88.156C166.25 88.212 166.078 88.24 165.774 88.24H164.31C164.054 88.24 163.906 88.264 163.866 88.312C163.834 88.36 163.822 88.508 163.83 88.756L164.19 99.268C164.198 99.476 164.21 99.612 164.226 99.676C164.25 99.732 164.374 99.76 164.598 99.76H166.518C166.718 99.76 166.838 99.792 166.878 99.856C166.926 99.912 166.95 100.044 166.95 100.252V102.34C166.95 102.596 166.922 102.772 166.866 102.868C166.818 102.956 166.654 103 166.374 103H157.062C156.798 103 156.638 102.964 156.582 102.892C156.534 102.812 156.51 102.636 156.51 102.364V100.324C156.51 100.052 156.554 99.892 156.642 99.844C156.738 99.788 156.91 99.76 157.158 99.76H158.43C158.686 99.76 158.854 99.72 158.934 99.64C159.022 99.552 159.062 99.384 159.054 99.136L158.91 93.724C158.894 93.164 158.906 92.636 158.946 92.14C158.994 91.636 159.018 91.228 159.018 90.916C159.018 90.596 158.942 90.436 158.79 90.436C158.694 90.436 158.618 90.488 158.562 90.592C158.506 90.688 158.45 90.844 158.394 91.06C158.338 91.276 158.246 91.564 158.118 91.924L154.434 102.748C154.346 103.004 154.25 103.168 154.146 103.24C154.042 103.32 153.814 103.36 153.462 103.36H151.302C150.95 103.36 150.718 103.32 150.606 103.24C150.502 103.168 150.406 103.004 150.318 102.748L146.754 92.356C146.65 92.052 146.55 91.704 146.454 91.312C146.366 90.92 146.278 90.576 146.19 90.28C146.102 89.984 146.006 89.836 145.902 89.836C145.798 89.836 145.738 89.948 145.722 90.172C145.706 90.396 145.686 90.78 145.662 91.324L145.302 98.908C145.294 99.196 145.306 99.412 145.338 99.556C145.37 99.692 145.55 99.76 145.878 99.76H147.462C147.686 99.76 147.83 99.792 147.894 99.856C147.958 99.92 147.99 100.068 147.99 100.3V102.388C147.99 102.684 147.942 102.86 147.846 102.916C147.758 102.972 147.574 103 147.294 103H139.854C139.574 103 139.398 102.964 139.326 102.892C139.262 102.82 139.23 102.636 139.23 102.34V100.18C139.23 100.012 139.25 99.9 139.29 99.844C139.33 99.788 139.43 99.76 139.59 99.76H141.486C141.846 99.76 142.03 99.688 142.038 99.544C142.054 99.392 142.07 99.156 142.086 98.836L142.638 88.66C142.654 88.404 142.618 88.272 142.53 88.264C142.442 88.248 142.27 88.24 142.014 88.24ZM171.8 92.32H179.144C179.328 92.32 179.44 92.352 179.48 92.416C179.528 92.472 179.552 92.596 179.552 92.788V94.588C179.552 94.796 179.532 94.932 179.492 94.996C179.452 95.052 179.328 95.08 179.12 95.08H171.896C171.68 95.08 171.54 95.052 171.476 94.996C171.42 94.94 171.392 94.808 171.392 94.6V92.812C171.392 92.62 171.412 92.492 171.452 92.428C171.492 92.356 171.608 92.32 171.8 92.32ZM198.511 101.032V102.568C198.511 102.768 198.479 102.892 198.415 102.94C198.351 102.98 198.215 103 198.007 103H189.223C188.943 103 188.759 102.976 188.671 102.928C188.591 102.872 188.551 102.704 188.551 102.424V101.02C188.551 100.804 188.583 100.66 188.647 100.588C188.711 100.516 188.855 100.48 189.079 100.48H190.867C191.131 100.48 191.291 100.444 191.347 100.372C191.403 100.3 191.431 100.128 191.431 99.856V98.728C191.431 98.4 191.403 98.212 191.347 98.164C191.299 98.108 191.111 98.08 190.783 98.08H184.807C184.551 98.08 184.395 98.052 184.339 97.996C184.283 97.932 184.211 97.824 184.123 97.672L183.751 96.976C183.679 96.848 183.655 96.744 183.679 96.664C183.711 96.584 183.759 96.48 183.823 96.352C184.199 95.6 184.675 94.9 185.251 94.252C185.835 93.596 186.455 92.956 187.111 92.332C187.775 91.708 188.423 91.064 189.055 90.4C189.695 89.736 190.263 89.02 190.759 88.252C191.263 87.484 191.639 86.624 191.887 85.672C191.951 85.416 192.019 85.24 192.091 85.144C192.163 85.048 192.367 85 192.703 85H195.943C196.263 85 196.463 85.036 196.543 85.108C196.623 85.172 196.639 85.344 196.591 85.624C196.439 86.552 196.111 87.38 195.607 88.108C195.111 88.828 194.515 89.48 193.819 90.064C193.123 90.648 192.395 91.192 191.635 91.696C190.875 92.2 190.151 92.696 189.463 93.184C188.775 93.664 188.195 94.168 187.723 94.696C187.619 94.816 187.531 94.944 187.459 95.08C187.387 95.208 187.387 95.32 187.459 95.416C187.531 95.512 187.723 95.56 188.035 95.56H190.975C191.183 95.56 191.311 95.528 191.359 95.464C191.407 95.392 191.431 95.248 191.431 95.032V94.48C191.431 94.2 191.467 94.036 191.539 93.988C191.619 93.932 191.751 93.852 191.935 93.748C192.335 93.54 192.763 93.28 193.219 92.968C193.683 92.648 194.039 92.232 194.287 91.72C194.343 91.6 194.403 91.512 194.467 91.456C194.531 91.392 194.655 91.36 194.839 91.36H195.631C195.815 91.36 195.939 91.38 196.003 91.42C196.075 91.452 196.111 91.56 196.111 91.744V94.864C196.111 95.064 196.147 95.232 196.219 95.368C196.291 95.496 196.439 95.56 196.663 95.56H198.439C198.631 95.56 198.751 95.592 198.799 95.656C198.847 95.712 198.871 95.832 198.871 96.016V97.408C198.871 97.68 198.847 97.86 198.799 97.948C198.759 98.036 198.599 98.08 198.319 98.08H196.759C196.511 98.08 196.339 98.112 196.243 98.176C196.155 98.232 196.111 98.392 196.111 98.656V99.856C196.111 100.128 196.143 100.3 196.207 100.372C196.279 100.444 196.455 100.48 196.735 100.48H197.983C198.215 100.48 198.359 100.512 198.415 100.576C198.479 100.64 198.511 100.792 198.511 101.032ZM226.041 89.92C226.041 90.504 225.889 91.012 225.585 91.444C225.289 91.868 224.897 92.196 224.409 92.428C223.929 92.66 223.417 92.776 222.873 92.776C221.865 92.776 221.053 92.448 220.437 91.792C219.821 91.128 219.513 90.148 219.513 88.852C219.513 88.012 219.697 87.244 220.065 86.548C220.441 85.844 220.921 85.232 221.505 84.712C222.097 84.192 222.717 83.776 223.365 83.464C224.013 83.144 224.613 82.948 225.165 82.876C225.341 82.852 225.457 82.864 225.513 82.912C225.577 82.96 225.609 83.08 225.609 83.272V84.7C225.609 84.82 225.585 84.9 225.537 84.94C225.489 84.972 225.413 84.996 225.309 85.012C224.829 85.06 224.361 85.204 223.905 85.444C223.449 85.684 223.045 85.96 222.693 86.272C222.349 86.584 222.093 86.88 221.925 87.16C221.893 87.208 221.893 87.248 221.925 87.28C221.965 87.304 222.021 87.3 222.093 87.268C222.229 87.204 222.401 87.156 222.609 87.124C222.825 87.084 223.065 87.064 223.329 87.064C224.145 87.064 224.801 87.32 225.297 87.832C225.793 88.344 226.041 89.04 226.041 89.92ZM218.601 89.92C218.601 90.504 218.449 91.012 218.145 91.444C217.849 91.868 217.457 92.196 216.969 92.428C216.489 92.66 215.977 92.776 215.433 92.776C214.425 92.776 213.613 92.448 212.997 91.792C212.381 91.128 212.073 90.148 212.073 88.852C212.073 88.012 212.257 87.244 212.625 86.548C213.001 85.844 213.481 85.232 214.065 84.712C214.657 84.192 215.277 83.776 215.925 83.464C216.573 83.144 217.173 82.948 217.725 82.876C217.901 82.852 218.017 82.864 218.073 82.912C218.137 82.96 218.169 83.08 218.169 83.272V84.7C218.169 84.82 218.145 84.9 218.097 84.94C218.049 84.972 217.973 84.996 217.869 85.012C217.389 85.06 216.921 85.204 216.465 85.444C216.009 85.684 215.605 85.96 215.253 86.272C214.909 86.584 214.653 86.88 214.485 87.16C214.453 87.208 214.453 87.248 214.485 87.28C214.525 87.304 214.581 87.3 214.653 87.268C214.789 87.204 214.961 87.156 215.169 87.124C215.385 87.084 215.625 87.064 215.889 87.064C216.705 87.064 217.361 87.32 217.857 87.832C218.353 88.344 218.601 89.04 218.601 89.92ZM242.663 90.796C242.511 90.052 242.183 89.46 241.679 89.02C241.175 88.58 240.595 88.264 239.939 88.072C239.291 87.88 238.663 87.784 238.055 87.784C237.263 87.784 236.647 87.908 236.207 88.156C235.775 88.396 235.559 88.72 235.559 89.128C235.559 89.536 235.747 89.872 236.123 90.136C236.507 90.4 237.011 90.632 237.635 90.832C238.267 91.032 238.955 91.236 239.699 91.444C240.451 91.644 241.199 91.888 241.943 92.176C242.695 92.464 243.383 92.832 244.007 93.28C244.639 93.728 245.143 94.292 245.519 94.972C245.903 95.652 246.095 96.488 246.095 97.48C246.095 99 245.767 100.196 245.111 101.068C244.455 101.94 243.555 102.56 242.411 102.928C241.275 103.296 239.983 103.48 238.535 103.48C237.455 103.48 236.547 103.336 235.811 103.048C235.075 102.76 234.471 102.396 233.999 101.956C233.743 101.716 233.567 101.652 233.471 101.764C233.383 101.868 233.247 102.076 233.063 102.388L232.847 102.796C232.767 102.932 232.667 103.02 232.547 103.06C232.435 103.1 232.267 103.12 232.043 103.12H230.543C230.311 103.12 230.143 103.084 230.039 103.012C229.943 102.948 229.895 102.804 229.895 102.58V96.556C229.895 96.3 229.919 96.132 229.967 96.052C230.023 95.964 230.175 95.92 230.423 95.92H232.175C232.455 95.92 232.603 95.956 232.619 96.028C232.635 96.1 232.659 96.26 232.691 96.508C232.787 97.212 233.047 97.856 233.471 98.44C233.903 99.016 234.467 99.476 235.163 99.82C235.867 100.164 236.671 100.336 237.575 100.336C238.263 100.336 238.839 100.272 239.303 100.144C239.767 100.008 240.115 99.808 240.347 99.544C240.579 99.28 240.695 98.952 240.695 98.56C240.695 98.08 240.507 97.696 240.131 97.408C239.755 97.112 239.255 96.864 238.631 96.664C238.015 96.464 237.335 96.272 236.591 96.088C235.847 95.904 235.103 95.684 234.359 95.428C233.615 95.164 232.931 94.824 232.307 94.408C231.691 93.984 231.195 93.444 230.819 92.788C230.443 92.124 230.255 91.296 230.255 90.304C230.255 89.28 230.447 88.412 230.831 87.7C231.223 86.98 231.739 86.396 232.379 85.948C233.019 85.492 233.727 85.16 234.503 84.952C235.287 84.744 236.071 84.64 236.855 84.64C237.767 84.64 238.591 84.768 239.327 85.024C240.071 85.28 240.711 85.612 241.247 86.02C241.479 86.196 241.655 86.28 241.775 86.272C241.903 86.264 242.055 86.12 242.231 85.84L242.531 85.324C242.603 85.212 242.659 85.132 242.699 85.084C242.747 85.028 242.871 85 243.071 85H244.919C245.127 85 245.275 85.036 245.363 85.108C245.451 85.18 245.495 85.328 245.495 85.552V90.94C245.495 91.228 245.455 91.412 245.375 91.492C245.303 91.564 245.115 91.6 244.811 91.6H243.503C243.111 91.6 242.887 91.544 242.831 91.432C242.783 91.32 242.727 91.108 242.663 90.796ZM253.361 102.388V100.36C253.361 100.12 253.393 99.96 253.457 99.88C253.529 99.8 253.681 99.76 253.913 99.76H255.497C255.817 99.76 256.021 99.712 256.109 99.616C256.197 99.512 256.241 99.3 256.241 98.98V88.576C256.241 88.432 256.209 88.32 256.145 88.24C256.089 88.16 255.985 88.12 255.833 88.12H255.641C254.849 88.12 254.229 88.228 253.781 88.444C253.341 88.66 253.029 89.04 252.845 89.584C252.661 90.12 252.557 90.884 252.533 91.876C252.525 92.164 252.465 92.352 252.353 92.44C252.249 92.52 252.041 92.56 251.729 92.56H250.277C250.045 92.56 249.881 92.536 249.785 92.488C249.689 92.44 249.641 92.3 249.641 92.068V85.696C249.641 85.44 249.665 85.26 249.713 85.156C249.761 85.052 249.913 85 250.169 85H267.521C267.713 85 267.841 85.044 267.905 85.132C267.969 85.22 268.001 85.368 268.001 85.576V91.876C268.001 92.18 267.957 92.372 267.869 92.452C267.781 92.524 267.577 92.56 267.257 92.56H265.841C265.529 92.56 265.329 92.524 265.241 92.452C265.161 92.38 265.117 92.196 265.109 91.9C265.085 90.9 264.981 90.128 264.797 89.584C264.613 89.04 264.301 88.66 263.861 88.444C263.421 88.228 262.801 88.12 262.001 88.12H261.857C261.681 88.12 261.561 88.164 261.497 88.252C261.433 88.332 261.401 88.46 261.401 88.636V98.8C261.401 99.176 261.437 99.432 261.509 99.568C261.589 99.696 261.817 99.76 262.193 99.76H263.597C263.877 99.76 264.061 99.808 264.149 99.904C264.237 99.992 264.281 100.164 264.281 100.42V102.34C264.281 102.628 264.237 102.812 264.149 102.892C264.069 102.964 263.889 103 263.609 103H254.009C253.761 103 253.589 102.968 253.493 102.904C253.405 102.832 253.361 102.66 253.361 102.388ZM286.657 88.24H285.025C284.737 88.24 284.545 88.196 284.449 88.108C284.353 88.012 284.305 87.828 284.305 87.556V85.876C284.305 85.548 284.337 85.32 284.401 85.192C284.465 85.064 284.657 85 284.977 85H292.729C292.985 85 293.145 85.04 293.209 85.12C293.273 85.2 293.305 85.376 293.305 85.648V87.58C293.305 87.868 293.265 88.052 293.185 88.132C293.113 88.204 292.925 88.24 292.621 88.24H291.409C291.097 88.24 290.893 88.28 290.797 88.36C290.709 88.44 290.665 88.644 290.665 88.972V95.8C290.665 98.376 289.917 100.3 288.421 101.572C286.933 102.844 284.881 103.48 282.265 103.48C280.505 103.48 279.085 103.276 278.005 102.868C276.933 102.46 276.113 101.896 275.545 101.176C274.985 100.448 274.605 99.604 274.405 98.644C274.205 97.684 274.105 96.656 274.105 95.56V88.852C274.105 88.572 274.061 88.4 273.973 88.336C273.893 88.272 273.721 88.24 273.457 88.24H272.185C271.889 88.24 271.693 88.212 271.597 88.156C271.509 88.1 271.465 87.924 271.465 87.628V85.756C271.465 85.46 271.501 85.26 271.573 85.156C271.653 85.052 271.833 85 272.113 85H282.121C282.345 85 282.485 85.04 282.541 85.12C282.597 85.192 282.625 85.344 282.625 85.576V87.652C282.625 87.892 282.589 88.052 282.517 88.132C282.453 88.204 282.293 88.24 282.037 88.24H280.417C280.097 88.24 279.905 88.292 279.841 88.396C279.777 88.492 279.745 88.704 279.745 89.032V95.08C279.745 96.216 279.853 97.144 280.069 97.864C280.293 98.576 280.665 99.104 281.185 99.448C281.713 99.784 282.433 99.952 283.345 99.952C284.017 99.952 284.653 99.828 285.253 99.58C285.861 99.324 286.353 98.896 286.729 98.296C287.113 97.688 287.305 96.856 287.305 95.8V88.852C287.305 88.58 287.261 88.412 287.173 88.348C287.085 88.276 286.913 88.24 286.657 88.24ZM296.595 102.592V100.24C296.595 100.04 296.627 99.912 296.691 99.856C296.755 99.792 296.879 99.76 297.063 99.76H298.791C299.007 99.76 299.135 99.724 299.175 99.652C299.215 99.58 299.235 99.432 299.235 99.208V88.852C299.235 88.596 299.203 88.432 299.139 88.36C299.075 88.28 298.919 88.24 298.671 88.24H297.183C296.919 88.24 296.755 88.208 296.691 88.144C296.627 88.072 296.595 87.912 296.595 87.664V85.636C296.595 85.364 296.635 85.192 296.715 85.12C296.803 85.04 296.975 85 297.231 85H306.915C308.915 85 310.579 85.228 311.907 85.684C313.235 86.132 314.287 86.764 315.063 87.58C315.847 88.396 316.403 89.352 316.731 90.448C317.067 91.536 317.235 92.72 317.235 94C317.235 95.28 317.059 96.468 316.707 97.564C316.355 98.652 315.779 99.604 314.979 100.42C314.187 101.236 313.127 101.872 311.799 102.328C310.479 102.776 308.851 103 306.915 103H297.171C296.971 103 296.823 102.984 296.727 102.952C296.639 102.912 296.595 102.792 296.595 102.592ZM305.571 99.76H306.675C307.587 99.76 308.363 99.552 309.003 99.136C309.651 98.712 310.143 98.076 310.479 97.228C310.823 96.372 310.995 95.296 310.995 94C310.995 92.704 310.807 91.632 310.431 90.784C310.063 89.928 309.551 89.292 308.895 88.876C308.247 88.452 307.507 88.24 306.675 88.24H305.583C305.303 88.24 305.115 88.28 305.019 88.36C304.923 88.44 304.875 88.624 304.875 88.912V99.208C304.875 99.472 304.923 99.632 305.019 99.688C305.115 99.736 305.299 99.76 305.571 99.76ZM329.424 88.624V99.472C329.424 99.728 329.464 99.88 329.544 99.928C329.632 99.976 329.808 100 330.072 100H331.968C332.168 100 332.312 100.02 332.4 100.06C332.496 100.092 332.544 100.208 332.544 100.408V102.4C332.544 102.672 332.508 102.84 332.436 102.904C332.372 102.968 332.208 103 331.944 103H321.504C321.232 103 321.064 102.96 321 102.88C320.936 102.792 320.904 102.608 320.904 102.328V100.588C320.904 100.316 320.952 100.152 321.048 100.096C321.144 100.032 321.316 100 321.564 100H323.22C323.452 100 323.604 99.968 323.676 99.904C323.748 99.84 323.784 99.684 323.784 99.436V88.648C323.784 88.392 323.756 88.22 323.7 88.132C323.652 88.044 323.5 88 323.244 88H321.54C321.292 88 321.124 87.972 321.036 87.916C320.948 87.852 320.904 87.688 320.904 87.424V85.684C320.904 85.396 320.932 85.212 320.988 85.132C321.044 85.044 321.216 85 321.504 85H331.896C332.184 85 332.364 85.044 332.436 85.132C332.508 85.22 332.544 85.4 332.544 85.672V87.352C332.544 87.64 332.508 87.82 332.436 87.892C332.364 87.964 332.188 88 331.908 88H330.024C329.76 88 329.592 88.04 329.52 88.12C329.456 88.2 329.424 88.368 329.424 88.624ZM335.947 94C335.947 92.6 336.175 91.324 336.631 90.172C337.087 89.012 337.747 88.012 338.611 87.172C339.483 86.324 340.543 85.672 341.791 85.216C343.039 84.752 344.451 84.52 346.027 84.52C347.603 84.52 349.015 84.752 350.263 85.216C351.511 85.672 352.567 86.324 353.431 87.172C354.303 88.012 354.967 89.012 355.423 90.172C355.879 91.324 356.107 92.6 356.107 94C356.107 95.4 355.867 96.68 355.387 97.84C354.915 98.992 354.235 99.992 353.347 100.84C352.459 101.68 351.395 102.332 350.155 102.796C348.923 103.252 347.547 103.48 346.027 103.48C344.451 103.48 343.039 103.252 341.791 102.796C340.543 102.332 339.483 101.68 338.611 100.84C337.747 99.992 337.087 98.992 336.631 97.84C336.175 96.68 335.947 95.4 335.947 94ZM342.187 94C342.187 94.968 342.259 95.844 342.403 96.628C342.547 97.412 342.771 98.084 343.075 98.644C343.387 99.196 343.787 99.62 344.275 99.916C344.763 100.212 345.347 100.36 346.027 100.36C346.771 100.36 347.391 100.212 347.887 99.916C348.383 99.62 348.775 99.196 349.063 98.644C349.351 98.084 349.555 97.412 349.675 96.628C349.803 95.844 349.867 94.968 349.867 94C349.867 93.024 349.795 92.148 349.651 91.372C349.507 90.588 349.279 89.92 348.967 89.368C348.663 88.808 348.267 88.38 347.779 88.084C347.299 87.788 346.715 87.64 346.027 87.64C345.347 87.64 344.763 87.788 344.275 88.084C343.787 88.38 343.387 88.808 343.075 89.368C342.771 89.92 342.547 90.588 342.403 91.372C342.259 92.148 342.187 93.024 342.187 94ZM362.266 88.24H360.898C360.618 88.24 360.45 88.22 360.394 88.18C360.346 88.132 360.322 87.964 360.322 87.676V85.372C360.322 85.124 360.378 85 360.49 85C360.602 85 360.77 85 360.994 85H369.754C370.074 85 370.29 85.036 370.402 85.108C370.522 85.18 370.602 85.292 370.642 85.444C370.69 85.588 370.75 85.772 370.822 85.996L373.114 93.172C373.242 93.556 373.346 93.924 373.426 94.276C373.514 94.628 373.618 94.804 373.738 94.804C373.874 94.804 373.986 94.7 374.074 94.492C374.162 94.276 374.282 93.964 374.434 93.556L377.446 85.492C377.534 85.268 377.61 85.132 377.674 85.084C377.746 85.028 377.938 85 378.25 85H385.762C386.066 85 386.282 85.004 386.41 85.012C386.538 85.02 386.602 85.188 386.602 85.516V87.628C386.602 87.924 386.582 88.1 386.542 88.156C386.502 88.212 386.33 88.24 386.026 88.24H384.562C384.306 88.24 384.158 88.264 384.118 88.312C384.086 88.36 384.074 88.508 384.082 88.756L384.442 99.268C384.45 99.476 384.462 99.612 384.478 99.676C384.502 99.732 384.626 99.76 384.85 99.76H386.77C386.97 99.76 387.09 99.792 387.13 99.856C387.178 99.912 387.202 100.044 387.202 100.252V102.34C387.202 102.596 387.174 102.772 387.118 102.868C387.07 102.956 386.906 103 386.626 103H377.314C377.05 103 376.89 102.964 376.834 102.892C376.786 102.812 376.762 102.636 376.762 102.364V100.324C376.762 100.052 376.806 99.892 376.894 99.844C376.99 99.788 377.162 99.76 377.41 99.76H378.682C378.938 99.76 379.106 99.72 379.186 99.64C379.274 99.552 379.314 99.384 379.306 99.136L379.162 93.724C379.146 93.164 379.158 92.636 379.198 92.14C379.246 91.636 379.27 91.228 379.27 90.916C379.27 90.596 379.194 90.436 379.042 90.436C378.946 90.436 378.87 90.488 378.814 90.592C378.758 90.688 378.702 90.844 378.646 91.06C378.59 91.276 378.498 91.564 378.37 91.924L374.686 102.748C374.598 103.004 374.502 103.168 374.398 103.24C374.294 103.32 374.066 103.36 373.714 103.36H371.554C371.202 103.36 370.97 103.32 370.858 103.24C370.754 103.168 370.658 103.004 370.57 102.748L367.006 92.356C366.902 92.052 366.802 91.704 366.706 91.312C366.618 90.92 366.53 90.576 366.442 90.28C366.354 89.984 366.258 89.836 366.154 89.836C366.05 89.836 365.99 89.948 365.974 90.172C365.958 90.396 365.938 90.78 365.914 91.324L365.554 98.908C365.546 99.196 365.558 99.412 365.59 99.556C365.622 99.692 365.802 99.76 366.13 99.76H367.714C367.938 99.76 368.082 99.792 368.146 99.856C368.21 99.92 368.242 100.068 368.242 100.3V102.388C368.242 102.684 368.194 102.86 368.098 102.916C368.01 102.972 367.826 103 367.546 103H360.106C359.826 103 359.65 102.964 359.578 102.892C359.514 102.82 359.482 102.636 359.482 102.34V100.18C359.482 100.012 359.502 99.9 359.542 99.844C359.582 99.788 359.682 99.76 359.842 99.76H361.738C362.098 99.76 362.282 99.688 362.29 99.544C362.306 99.392 362.322 99.156 362.338 98.836L362.89 88.66C362.906 88.404 362.87 88.272 362.782 88.264C362.694 88.248 362.522 88.24 362.266 88.24ZM400.152 90.772L398.748 94.18C398.668 94.356 398.62 94.532 398.604 94.708C398.596 94.876 398.752 94.96 399.072 94.96H401.604C401.884 94.96 402.024 94.88 402.024 94.72C402.032 94.56 402.004 94.396 401.94 94.228L400.692 90.724C400.596 90.444 400.5 90.336 400.404 90.4C400.316 90.464 400.232 90.588 400.152 90.772ZM390.204 102.316V100.348C390.204 100.14 390.24 99.992 390.312 99.904C390.384 99.808 390.532 99.76 390.756 99.76H392.736C392.936 99.76 393.052 99.72 393.084 99.64C393.116 99.552 393.16 99.444 393.216 99.316L399.3 85.036C399.38 84.844 399.456 84.732 399.528 84.7C399.608 84.66 399.784 84.64 400.056 84.64H403.656C403.936 84.64 404.116 84.68 404.196 84.76C404.284 84.832 404.368 84.964 404.448 85.156L409.98 99.028C410.068 99.252 410.136 99.432 410.184 99.568C410.24 99.696 410.44 99.76 410.784 99.76H412.368C412.576 99.76 412.732 99.78 412.836 99.82C412.948 99.86 413.004 99.996 413.004 100.228V102.46C413.004 102.7 412.972 102.852 412.908 102.916C412.844 102.972 412.696 103 412.464 103H401.736C401.496 103 401.352 102.964 401.304 102.892C401.264 102.812 401.244 102.652 401.244 102.412V100.276C401.244 100.044 401.272 99.9 401.328 99.844C401.392 99.788 401.536 99.76 401.76 99.76H403.128C403.48 99.76 403.688 99.72 403.752 99.64C403.816 99.56 403.804 99.404 403.716 99.172L403.428 98.356C403.372 98.196 403.32 98.092 403.272 98.044C403.232 97.988 403.096 97.96 402.864 97.96H397.8C397.568 97.96 397.404 97.968 397.308 97.984C397.212 97.992 397.128 98.084 397.056 98.26L396.66 99.244C396.58 99.436 396.556 99.572 396.588 99.652C396.62 99.724 396.744 99.76 396.96 99.76H398.208C398.4 99.76 398.512 99.796 398.544 99.868C398.584 99.932 398.604 100.06 398.604 100.252V102.556C398.604 102.756 398.568 102.88 398.496 102.928C398.424 102.976 398.296 103 398.112 103H390.996C390.66 103 390.444 102.972 390.348 102.916C390.252 102.852 390.204 102.652 390.204 102.316ZM418.215 102.388V100.36C418.215 100.12 418.247 99.96 418.311 99.88C418.383 99.8 418.535 99.76 418.767 99.76H420.351C420.671 99.76 420.875 99.712 420.963 99.616C421.051 99.512 421.095 99.3 421.095 98.98V88.576C421.095 88.432 421.063 88.32 420.999 88.24C420.943 88.16 420.839 88.12 420.687 88.12H420.495C419.703 88.12 419.083 88.228 418.635 88.444C418.195 88.66 417.883 89.04 417.699 89.584C417.515 90.12 417.411 90.884 417.387 91.876C417.379 92.164 417.319 92.352 417.207 92.44C417.103 92.52 416.895 92.56 416.583 92.56H415.131C414.899 92.56 414.735 92.536 414.639 92.488C414.543 92.44 414.495 92.3 414.495 92.068V85.696C414.495 85.44 414.519 85.26 414.567 85.156C414.615 85.052 414.767 85 415.023 85H432.375C432.567 85 432.695 85.044 432.759 85.132C432.823 85.22 432.855 85.368 432.855 85.576V91.876C432.855 92.18 432.811 92.372 432.723 92.452C432.635 92.524 432.431 92.56 432.111 92.56H430.695C430.383 92.56 430.183 92.524 430.095 92.452C430.015 92.38 429.971 92.196 429.963 91.9C429.939 90.9 429.835 90.128 429.651 89.584C429.467 89.04 429.155 88.66 428.715 88.444C428.275 88.228 427.655 88.12 426.855 88.12H426.711C426.535 88.12 426.415 88.164 426.351 88.252C426.287 88.332 426.255 88.46 426.255 88.636V98.8C426.255 99.176 426.291 99.432 426.363 99.568C426.443 99.696 426.671 99.76 427.047 99.76H428.451C428.731 99.76 428.915 99.808 429.003 99.904C429.091 99.992 429.135 100.164 429.135 100.42V102.34C429.135 102.628 429.091 102.812 429.003 102.892C428.923 102.964 428.743 103 428.463 103H418.863C418.615 103 418.443 102.968 418.347 102.904C418.259 102.832 418.215 102.66 418.215 102.388ZM438.966 88.24H437.406C437.158 88.24 437.002 88.204 436.938 88.132C436.882 88.06 436.854 87.904 436.854 87.664V85.552C436.854 85.28 436.902 85.12 436.998 85.072C437.102 85.024 437.278 85 437.526 85H454.71C454.942 85 455.082 85.04 455.13 85.12C455.186 85.2 455.214 85.352 455.214 85.576V91.624C455.214 91.848 455.194 91.98 455.154 92.02C455.122 92.06 454.99 92.08 454.758 92.08H452.478C452.302 92.08 452.194 92.04 452.154 91.96C452.114 91.872 452.09 91.752 452.082 91.6C452.058 90.784 451.95 90.132 451.758 89.644C451.574 89.148 451.242 88.792 450.762 88.576C450.29 88.352 449.614 88.24 448.734 88.24H445.83C445.598 88.24 445.422 88.272 445.302 88.336C445.19 88.392 445.134 88.548 445.134 88.804V91.984C445.134 92.272 445.162 92.46 445.218 92.548C445.274 92.636 445.398 92.68 445.59 92.68H445.65C446.266 92.68 446.762 92.464 447.138 92.032C447.514 91.6 447.75 91.104 447.846 90.544C447.878 90.36 447.914 90.22 447.954 90.124C447.994 90.02 448.098 89.968 448.266 89.968H449.598C449.854 89.968 450.014 90 450.078 90.064C450.142 90.128 450.174 90.288 450.174 90.544V97.504C450.174 97.712 450.146 97.848 450.09 97.912C450.034 97.976 449.894 98.008 449.67 98.008H448.374C448.126 98.008 447.982 97.956 447.942 97.852C447.91 97.74 447.874 97.584 447.834 97.384C447.77 97.016 447.63 96.668 447.414 96.34C447.206 96.004 446.954 95.732 446.658 95.524C446.37 95.308 446.07 95.2 445.758 95.2H445.686C445.526 95.2 445.394 95.256 445.29 95.368C445.186 95.472 445.134 95.648 445.134 95.896V99.28C445.134 99.56 445.174 99.712 445.254 99.736C445.334 99.752 445.51 99.76 445.782 99.76H448.494C449.51 99.76 450.286 99.632 450.822 99.376C451.366 99.112 451.746 98.696 451.962 98.128C452.178 97.56 452.298 96.816 452.322 95.896C452.338 95.592 452.362 95.4 452.394 95.32C452.426 95.24 452.606 95.2 452.934 95.2H454.974C455.246 95.2 455.394 95.236 455.418 95.308C455.442 95.372 455.454 95.536 455.454 95.8V102.52C455.454 102.768 455.43 102.912 455.382 102.952C455.334 102.984 455.182 103 454.926 103H437.454C437.214 103 437.054 102.992 436.974 102.976C436.894 102.96 436.854 102.824 436.854 102.568V100.144C436.854 99.936 436.874 99.82 436.914 99.796C436.962 99.772 437.086 99.76 437.286 99.76H438.966C439.222 99.76 439.374 99.74 439.422 99.7C439.47 99.66 439.494 99.512 439.494 99.256V88.696C439.494 88.488 439.458 88.36 439.386 88.312C439.322 88.264 439.182 88.24 438.966 88.24ZM459.77 84.976C459.77 84.392 459.918 83.888 460.214 83.464C460.518 83.032 460.91 82.7 461.39 82.468C461.878 82.236 462.394 82.12 462.938 82.12C463.946 82.12 464.758 82.452 465.374 83.116C465.99 83.772 466.298 84.748 466.298 86.044C466.298 86.884 466.11 87.656 465.734 88.36C465.366 89.056 464.886 89.664 464.294 90.184C463.71 90.704 463.094 91.124 462.446 91.444C461.798 91.756 461.198 91.948 460.646 92.02C460.47 92.044 460.35 92.032 460.286 91.984C460.23 91.936 460.202 91.816 460.202 91.624V90.196C460.202 90.076 460.226 89.996 460.274 89.956C460.322 89.916 460.398 89.892 460.502 89.884C460.982 89.836 461.45 89.692 461.906 89.452C462.362 89.212 462.762 88.936 463.106 88.624C463.458 88.304 463.718 88.008 463.886 87.736C463.918 87.688 463.914 87.652 463.874 87.628C463.842 87.596 463.79 87.596 463.718 87.628C463.582 87.684 463.406 87.732 463.19 87.772C462.982 87.812 462.746 87.832 462.482 87.832C461.666 87.832 461.01 87.576 460.514 87.064C460.018 86.544 459.77 85.848 459.77 84.976ZM467.21 84.976C467.21 84.392 467.358 83.888 467.654 83.464C467.958 83.032 468.35 82.7 468.83 82.468C469.318 82.236 469.834 82.12 470.378 82.12C471.386 82.12 472.198 82.452 472.814 83.116C473.43 83.772 473.738 84.748 473.738 86.044C473.738 86.884 473.55 87.656 473.174 88.36C472.806 89.056 472.326 89.664 471.734 90.184C471.15 90.704 470.534 91.124 469.886 91.444C469.238 91.756 468.638 91.948 468.086 92.02C467.91 92.044 467.79 92.032 467.726 91.984C467.67 91.936 467.642 91.816 467.642 91.624V90.196C467.642 90.076 467.666 89.996 467.714 89.956C467.762 89.916 467.838 89.892 467.942 89.884C468.422 89.836 468.89 89.692 469.346 89.452C469.802 89.212 470.202 88.936 470.546 88.624C470.898 88.304 471.158 88.008 471.326 87.736C471.358 87.688 471.354 87.652 471.314 87.628C471.282 87.596 471.23 87.596 471.158 87.628C471.022 87.684 470.846 87.732 470.63 87.772C470.422 87.812 470.186 87.832 469.922 87.832C469.106 87.832 468.45 87.576 467.954 87.064C467.458 86.544 467.21 85.848 467.21 84.976ZM220.319 123.6H217.479V134H214.019V123.6H211.179V120.66H220.319V123.6ZM223.853 120.66H227.313V128.56C227.313 129.12 227.333 129.98 227.993 130.62C228.393 131 229.033 131.26 229.633 131.26C230.233 131.26 230.853 131.02 231.233 130.68C232.033 129.98 232.013 129 232.013 128.26V120.66H235.473V128.32C235.473 129.72 235.413 131.18 233.973 132.64C232.853 133.78 231.453 134.3 229.573 134.3C227.473 134.3 225.973 133.58 225.153 132.7C223.993 131.44 223.853 129.74 223.853 128.32V120.66ZM245.827 134H240.267V120.66H245.427C246.387 120.66 247.527 120.8 248.347 121.7C248.807 122.2 249.167 123.02 249.167 124.2C249.167 124.78 249.067 125.28 248.787 125.84C248.507 126.36 248.207 126.66 247.707 126.88C248.407 126.96 249.107 127.28 249.527 127.68C250.067 128.2 250.427 129.06 250.427 130.12C250.427 131.38 249.947 132.24 249.447 132.74C248.727 133.48 247.467 134 245.827 134ZM243.727 123.32V125.92H244.367C244.727 125.92 245.327 125.88 245.687 125.5C245.907 125.28 246.007 124.92 246.007 124.62C246.007 124.28 245.887 123.94 245.687 123.72C245.467 123.5 245.047 123.32 244.367 123.32H243.727ZM243.727 128.5V131.3H244.507C245.467 131.3 246.267 131.2 246.647 130.76C246.807 130.58 246.927 130.28 246.927 129.9C246.927 129.48 246.787 129.14 246.587 128.94C246.167 128.52 245.307 128.5 244.447 128.5H243.727ZM262.21 120.66V123.6H258.09V125.82H261.99V128.76H258.09V131.06H262.21V134H254.63V120.66H262.21ZM273.084 120.66H276.544V131.06H280.704V134H273.084V120.66ZM293.438 134L292.618 131.76H287.778L286.878 134H283.218L288.338 120.66H292.118L297.138 134H293.438ZM288.738 129.12H291.698L290.198 124.8L288.738 129.12ZM302.353 134V127.6L297.533 120.66H301.673L304.193 124.3L306.613 120.66H310.813L305.833 127.6V134H302.353ZM327.325 127.34C327.325 129.1 326.645 130.96 325.225 132.32C323.865 133.62 321.945 134.3 319.965 134.3C317.985 134.3 316.065 133.62 314.705 132.32C313.285 130.96 312.605 129.1 312.605 127.34C312.605 125.56 313.285 123.68 314.705 122.34C316.065 121.04 317.985 120.36 319.965 120.36C321.945 120.36 323.865 121.04 325.225 122.34C326.645 123.68 327.325 125.56 327.325 127.34ZM319.965 123.72C319.005 123.72 317.985 124.06 317.265 124.78C316.545 125.48 316.205 126.46 316.205 127.4C316.205 128.58 316.765 129.4 317.265 129.88C317.905 130.5 318.805 130.94 319.965 130.94C321.145 130.94 322.025 130.52 322.645 129.9C323.265 129.28 323.725 128.36 323.725 127.34C323.725 126.3 323.265 125.38 322.645 124.78C321.905 124.08 320.885 123.72 319.965 123.72ZM331.533 120.66H334.993V128.56C334.993 129.12 335.013 129.98 335.673 130.62C336.073 131 336.713 131.26 337.313 131.26C337.913 131.26 338.533 131.02 338.913 130.68C339.713 129.98 339.693 129 339.693 128.26V120.66H343.153V128.32C343.153 129.72 343.093 131.18 341.653 132.64C340.533 133.78 339.133 134.3 337.253 134.3C335.153 134.3 333.653 133.58 332.833 132.7C331.673 131.44 331.533 129.74 331.533 128.32V120.66ZM355.827 123.6H352.987V134H349.527V123.6H346.687V120.66H355.827V123.6Z" fill="black"/>
</g>
<defs>
<clipPath id="clip0_1_2">
<rect width="638" height="344" fill="white"/>
</clipPath>
</defs>
</svg>
