<svg width="797" height="344" viewBox="0 0 797 344" fill="none" xmlns="http://www.w3.org/2000/svg">
<g clip-path="url(#clip0_4_94)">
<rect x="0.5" y="0.5" width="796" height="343" stroke="#767676" stroke-dasharray="2 5"/>
<circle cx="107" cy="103" r="43.5" stroke="black" stroke-width="3"/>
<path d="M95.96 95.92L99.6 105.08L103.26 95.92H107.52L101.08 111H98.04L91.7 95.92H95.96ZM114.935 99.24H108.635V95.92H121.015L112.355 111H108.055L114.935 99.24Z" fill="black"/>
<path d="M91.284 164.444H94.392L91.396 168.014L91.424 168.042C91.9093 167.827 92.3993 167.72 92.894 167.72C93.8927 167.72 94.7047 168.089 95.33 168.826C95.9647 169.554 96.282 170.422 96.282 171.43C96.282 172.671 95.8433 173.647 94.966 174.356C94.0887 175.065 93.0153 175.42 91.746 175.42C90.5047 175.42 89.5013 175.117 88.736 174.51C88.3067 174.155 87.9613 173.721 87.7 173.208C87.448 172.685 87.322 172.153 87.322 171.612C87.322 170.287 87.8867 168.887 89.016 167.412L91.284 164.444ZM90.5 172.76C90.8453 173.096 91.256 173.264 91.732 173.264C92.208 173.264 92.6093 173.096 92.936 172.76C93.2627 172.415 93.426 171.999 93.426 171.514C93.426 171.038 93.2627 170.632 92.936 170.296C92.6093 169.96 92.208 169.792 91.732 169.792C91.256 169.792 90.8453 169.96 90.5 170.296C90.164 170.632 89.996 171.038 89.996 171.514C89.996 171.999 90.164 172.415 90.5 172.76ZM105.04 164.696V167.986C104.76 167.613 104.405 167.328 103.976 167.132C103.556 166.927 103.108 166.824 102.632 166.824C101.801 166.824 101.124 167.104 100.602 167.664C100.079 168.224 99.8177 168.919 99.8177 169.75C99.8177 170.59 100.079 171.281 100.602 171.822C101.134 172.354 101.824 172.62 102.674 172.62C103.122 172.62 103.556 172.522 103.976 172.326C104.396 172.121 104.75 171.845 105.04 171.5V174.79C103.976 175.117 103.168 175.28 102.618 175.28C101.115 175.28 99.7943 174.762 98.6557 173.726C97.5263 172.709 96.9617 171.379 96.9617 169.736C96.9617 168.224 97.4797 166.936 98.5157 165.872C99.0383 165.34 99.6543 164.925 100.364 164.626C101.073 164.318 101.796 164.164 102.534 164.164C103.346 164.164 104.181 164.341 105.04 164.696ZM113.204 173.166H109.424L108.696 175H105.784L109.844 164.444H112.84L116.816 175H113.89L113.204 173.166ZM112.462 171.066L111.342 167.706H111.314L110.18 171.066H112.462ZM122.181 166.768H117.771V164.444H126.437L120.375 175H117.365L122.181 166.768Z" fill="black"/>
<circle cx="219" cy="103" r="43.5" stroke="black" stroke-width="3"/>
<path d="M207.96 95.92L211.6 105.08L215.26 95.92H219.52L213.08 111H210.04L203.7 95.92H207.96ZM225.335 95.92H229.775L225.495 101.02L225.535 101.06C226.228 100.753 226.928 100.6 227.635 100.6C229.062 100.6 230.222 101.127 231.115 102.18C232.022 103.22 232.475 104.46 232.475 105.9C232.475 107.673 231.848 109.067 230.595 110.08C229.342 111.093 227.808 111.6 225.995 111.6C224.222 111.6 222.788 111.167 221.695 110.3C221.082 109.793 220.588 109.173 220.215 108.44C219.855 107.693 219.675 106.933 219.675 106.16C219.675 104.267 220.482 102.267 222.095 100.16L225.335 95.92ZM224.215 107.8C224.708 108.28 225.295 108.52 225.975 108.52C226.655 108.52 227.228 108.28 227.695 107.8C228.162 107.307 228.395 106.713 228.395 106.02C228.395 105.34 228.162 104.76 227.695 104.28C227.228 103.8 226.655 103.56 225.975 103.56C225.295 103.56 224.708 103.8 224.215 104.28C223.735 104.76 223.495 105.34 223.495 106.02C223.495 106.713 223.735 107.307 224.215 107.8Z" fill="black"/>
<path d="M203.284 164.444H206.392L203.396 168.014L203.424 168.042C203.909 167.827 204.399 167.72 204.894 167.72C205.893 167.72 206.705 168.089 207.33 168.826C207.965 169.554 208.282 170.422 208.282 171.43C208.282 172.671 207.843 173.647 206.966 174.356C206.089 175.065 205.015 175.42 203.746 175.42C202.505 175.42 201.501 175.117 200.736 174.51C200.307 174.155 199.961 173.721 199.7 173.208C199.448 172.685 199.322 172.153 199.322 171.612C199.322 170.287 199.887 168.887 201.016 167.412L203.284 164.444ZM202.5 172.76C202.845 173.096 203.256 173.264 203.732 173.264C204.208 173.264 204.609 173.096 204.936 172.76C205.263 172.415 205.426 171.999 205.426 171.514C205.426 171.038 205.263 170.632 204.936 170.296C204.609 169.96 204.208 169.792 203.732 169.792C203.256 169.792 202.845 169.96 202.5 170.296C202.164 170.632 201.996 171.038 201.996 171.514C201.996 171.999 202.164 172.415 202.5 172.76ZM217.04 164.696V167.986C216.76 167.613 216.405 167.328 215.976 167.132C215.556 166.927 215.108 166.824 214.632 166.824C213.801 166.824 213.124 167.104 212.602 167.664C212.079 168.224 211.818 168.919 211.818 169.75C211.818 170.59 212.079 171.281 212.602 171.822C213.134 172.354 213.824 172.62 214.674 172.62C215.122 172.62 215.556 172.522 215.976 172.326C216.396 172.121 216.75 171.845 217.04 171.5V174.79C215.976 175.117 215.168 175.28 214.618 175.28C213.115 175.28 211.794 174.762 210.656 173.726C209.526 172.709 208.962 171.379 208.962 169.736C208.962 168.224 209.48 166.936 210.516 165.872C211.038 165.34 211.654 164.925 212.364 164.626C213.073 164.318 213.796 164.164 214.534 164.164C215.346 164.164 216.181 164.341 217.04 164.696ZM225.204 173.166H221.424L220.696 175H217.784L221.844 164.444H224.84L228.816 175H225.89L225.204 173.166ZM224.462 171.066L223.342 167.706H223.314L222.18 171.066H224.462ZM234.181 166.768H229.771V164.444H238.437L232.375 175H229.365L234.181 166.768Z" fill="black"/>
<circle cx="701.5" cy="227.5" r="31" stroke="black" stroke-width="3"/>
<path d="M674.766 278.768H673.254V276.444H677.51V287H674.766V278.768ZM686.086 284.676H689.544V287H681.06L685.372 282.31C686.174 281.433 686.576 280.569 686.576 279.72C686.576 279.365 686.459 279.048 686.226 278.768C686.002 278.488 685.717 278.348 685.372 278.348C685.017 278.348 684.737 278.469 684.532 278.712C684.326 278.955 684.224 279.263 684.224 279.636C684.224 279.785 684.238 279.935 684.266 280.084H681.242C681.288 278.861 681.676 277.881 682.404 277.144C683.141 276.397 684.126 276.024 685.358 276.024C686.496 276.024 687.458 276.369 688.242 277.06C689.035 277.751 689.432 278.656 689.432 279.776C689.432 280.485 689.292 281.092 689.012 281.596C688.741 282.1 688.312 282.618 687.724 283.15L686.086 284.676ZM697.559 285.166H693.779L693.051 287H690.139L694.199 276.444H697.195L701.171 287H698.245L697.559 285.166ZM696.817 283.066L695.697 279.706H695.669L694.535 283.066H696.817ZM705.151 281.358L701.777 276.444H705.151L706.761 279.174L708.371 276.444H711.745L708.371 281.358L712.277 287H708.973L706.761 283.556L704.339 287H701.021L705.151 281.358ZM717.584 278.768H713.174V276.444H721.84L715.778 287H712.768L717.584 278.768ZM729.141 285.166H725.361L724.633 287H721.721L725.781 276.444H728.777L732.753 287H729.827L729.141 285.166ZM728.399 283.066L727.279 279.706H727.251L726.117 283.066H728.399Z" fill="black"/>
<path d="M690.96 219.92L694.6 229.08L698.26 219.92H702.52L696.08 235H693.04L686.7 219.92H690.96ZM707.595 223.24H705.435V219.92H711.515V235H707.595V223.24Z" fill="black"/>
<circle cx="569.5" cy="100.5" r="31" stroke="black" stroke-width="3"/>
<path d="M542.766 151.768H541.254V149.444H545.51V160H542.766V151.768ZM554.086 157.676H557.544V160H549.06L553.372 155.31C554.174 154.433 554.576 153.569 554.576 152.72C554.576 152.365 554.459 152.048 554.226 151.768C554.002 151.488 553.717 151.348 553.372 151.348C553.017 151.348 552.737 151.469 552.532 151.712C552.326 151.955 552.224 152.263 552.224 152.636C552.224 152.785 552.238 152.935 552.266 153.084H549.242C549.288 151.861 549.676 150.881 550.404 150.144C551.141 149.397 552.126 149.024 553.358 149.024C554.496 149.024 555.458 149.369 556.242 150.06C557.035 150.751 557.432 151.656 557.432 152.776C557.432 153.485 557.292 154.092 557.012 154.596C556.741 155.1 556.312 155.618 555.724 156.15L554.086 157.676ZM565.559 158.166H561.779L561.051 160H558.139L562.199 149.444H565.195L569.171 160H566.245L565.559 158.166ZM564.817 156.066L563.697 152.706H563.669L562.535 156.066H564.817ZM573.151 154.358L569.777 149.444H573.151L574.761 152.174L576.371 149.444H579.745L576.371 154.358L580.277 160H576.973L574.761 156.556L572.339 160H569.021L573.151 154.358ZM585.584 151.768H581.174V149.444H589.84L583.778 160H580.768L585.584 151.768ZM597.141 158.166H593.361L592.633 160H589.721L593.781 149.444H596.777L600.753 160H597.827L597.141 158.166ZM596.399 156.066L595.279 152.706H595.251L594.117 156.066H596.399Z" fill="black"/>
<path d="M558.96 92.92L562.6 102.08L566.26 92.92H570.52L564.08 108H561.04L554.7 92.92H558.96ZM575.315 97.26H571.675C571.822 95.7533 572.408 94.54 573.435 93.62C574.408 92.7533 575.688 92.32 577.275 92.32C578.675 92.32 579.828 92.7067 580.735 93.48C581.642 94.2533 582.095 95.3267 582.095 96.7C582.095 97.34 581.962 97.9467 581.695 98.52C581.428 99.08 581.035 99.5067 580.515 99.8C581.275 100 581.875 100.48 582.315 101.24C582.755 101.987 582.975 102.773 582.975 103.6C582.975 104.653 582.688 105.567 582.115 106.34C581.555 107.113 580.835 107.68 579.955 108.04C579.088 108.413 578.142 108.6 577.115 108.6C575.235 108.6 573.735 108.033 572.615 106.9C572.135 106.407 571.722 105.807 571.375 105.1C571.042 104.393 570.882 103.727 570.895 103.1H574.895C574.895 103.713 575.088 104.227 575.475 104.64C575.875 105.04 576.382 105.24 576.995 105.24C577.608 105.24 578.108 105.053 578.495 104.68C578.895 104.307 579.095 103.82 579.095 103.22C579.095 102.66 578.888 102.187 578.475 101.8C578.062 101.4 577.575 101.2 577.015 101.2C576.855 101.2 576.628 101.24 576.335 101.32V98.7H576.735C577.242 98.7 577.655 98.5533 577.975 98.26C578.295 97.9533 578.455 97.5467 578.455 97.04C578.455 96.5867 578.308 96.22 578.015 95.94C577.722 95.66 577.355 95.52 576.915 95.52C576.422 95.52 576.028 95.6867 575.735 96.02C575.442 96.34 575.302 96.7533 575.315 97.26Z" fill="black"/>
<circle cx="669.5" cy="100.5" r="31" stroke="black" stroke-width="3"/>
<path d="M632.284 149.444H635.392L632.396 153.014L632.424 153.042C632.909 152.827 633.399 152.72 633.894 152.72C634.893 152.72 635.705 153.089 636.33 153.826C636.965 154.554 637.282 155.422 637.282 156.43C637.282 157.671 636.843 158.647 635.966 159.356C635.089 160.065 634.015 160.42 632.746 160.42C631.505 160.42 630.501 160.117 629.736 159.51C629.307 159.155 628.961 158.721 628.7 158.208C628.448 157.685 628.322 157.153 628.322 156.612C628.322 155.287 628.887 153.887 630.016 152.412L632.284 149.444ZM631.5 157.76C631.845 158.096 632.256 158.264 632.732 158.264C633.208 158.264 633.609 158.096 633.936 157.76C634.263 157.415 634.426 156.999 634.426 156.514C634.426 156.038 634.263 155.632 633.936 155.296C633.609 154.96 633.208 154.792 632.732 154.792C632.256 154.792 631.845 154.96 631.5 155.296C631.164 155.632 630.996 156.038 630.996 156.514C630.996 156.999 631.164 157.415 631.5 157.76ZM641.238 155.632V157.9H641.588C641.812 157.9 641.961 157.9 642.036 157.9C642.12 157.9 642.274 157.891 642.498 157.872C642.722 157.853 642.885 157.821 642.988 157.774C643.1 157.727 643.226 157.667 643.366 157.592C643.515 157.508 643.618 157.401 643.674 157.27C643.739 157.13 643.772 156.967 643.772 156.78C643.772 156.64 643.758 156.514 643.73 156.402C643.702 156.29 643.65 156.197 643.576 156.122C643.51 156.047 643.45 155.982 643.394 155.926C643.338 155.861 643.244 155.814 643.114 155.786C642.992 155.749 642.899 155.721 642.834 155.702C642.768 155.674 642.652 155.655 642.484 155.646C642.325 155.637 642.218 155.632 642.162 155.632C642.115 155.632 642.003 155.632 641.826 155.632C641.648 155.632 641.546 155.632 641.518 155.632H641.238ZM642.722 160H638.494V149.444H642.414C644.504 149.444 645.55 150.359 645.55 152.188C645.55 153.233 645.162 153.952 644.388 154.344V154.372C645.825 154.559 646.544 155.455 646.544 157.06C646.544 157.592 646.436 158.054 646.222 158.446C646.007 158.838 645.713 159.146 645.34 159.37C644.976 159.585 644.574 159.743 644.136 159.846C643.706 159.949 643.235 160 642.722 160ZM641.238 151.544V153.588H641.546C641.994 153.588 642.353 153.518 642.624 153.378C642.894 153.238 643.03 152.967 643.03 152.566C643.03 152.333 642.983 152.146 642.89 152.006C642.806 151.857 642.675 151.754 642.498 151.698C642.32 151.633 642.157 151.591 642.008 151.572C641.858 151.553 641.667 151.544 641.434 151.544H641.238ZM655.024 155.548L655.766 156.318C656.093 155.861 656.256 155.343 656.256 154.764C656.256 153.961 655.962 153.261 655.374 152.664C654.796 152.057 654.1 151.754 653.288 151.754C652.476 151.754 651.772 152.034 651.174 152.594C650.586 153.154 650.292 153.803 650.292 154.54C650.292 155.436 650.582 156.187 651.16 156.794C651.748 157.391 652.458 157.69 653.288 157.69C653.578 157.69 653.858 157.643 654.128 157.55L652.434 155.87L655.024 155.548ZM659.532 160.266L657.012 160.658L656.172 159.664C655.416 160.121 654.45 160.35 653.274 160.35C651.576 160.35 650.176 159.809 649.074 158.726C647.982 157.634 647.436 156.234 647.436 154.526C647.436 153.49 647.712 152.552 648.262 151.712C648.813 150.872 649.532 150.228 650.418 149.78C651.305 149.323 652.257 149.094 653.274 149.094C654.945 149.094 656.336 149.617 657.446 150.662C658.557 151.698 659.112 153.061 659.112 154.75C659.112 156.103 658.66 157.34 657.754 158.46L659.532 160.266ZM667.396 151.768H663.742L663.56 152.972L664.428 152.902C665.492 152.818 666.379 153.149 667.088 153.896C667.807 154.643 668.166 155.571 668.166 156.682C668.166 157.839 667.714 158.791 666.808 159.538C666.071 160.126 665.044 160.42 663.728 160.42C662.422 160.42 661.274 160.103 660.284 159.468L660.69 156.878C661.596 157.69 662.576 158.096 663.63 158.096C664.078 158.096 664.47 157.951 664.806 157.662C665.142 157.363 665.31 156.99 665.31 156.542C665.31 155.954 665.077 155.506 664.61 155.198C664.153 154.89 663.616 154.736 663 154.736C662.272 154.736 661.6 154.881 660.984 155.17L661.908 149.444H667.396V151.768ZM674.865 148.38H676.867L671.519 161.302H669.517L674.865 148.38ZM684.148 151.768H680.886V153.532H683.98V155.856H680.886V157.676H684.148V160H678.142V149.444H684.148V151.768ZM688.583 149.444V157.676H691.873V160H685.839V149.444H688.583ZM697.489 151.278C697.265 151.045 696.994 150.928 696.677 150.928C696.36 150.928 696.084 151.045 695.851 151.278C695.627 151.511 695.515 151.791 695.515 152.118C695.515 152.445 695.627 152.725 695.851 152.958C696.084 153.191 696.36 153.308 696.677 153.308C696.994 153.308 697.265 153.191 697.489 152.958C697.722 152.725 697.839 152.445 697.839 152.118C697.839 151.791 697.722 151.511 697.489 151.278ZM697.559 155.954C697.316 155.693 697.022 155.562 696.677 155.562C696.332 155.562 696.033 155.693 695.781 155.954C695.538 156.206 695.417 156.514 695.417 156.878C695.417 157.233 695.538 157.536 695.781 157.788C696.033 158.04 696.332 158.166 696.677 158.166C697.022 158.166 697.316 158.04 697.559 157.788C697.811 157.536 697.937 157.233 697.937 156.878C697.937 156.514 697.811 156.206 697.559 155.954ZM694.143 149.822C694.852 149.29 695.697 149.024 696.677 149.024C697.657 149.024 698.502 149.29 699.211 149.822C699.92 150.345 700.275 151.082 700.275 152.034C700.275 152.585 700.116 153.084 699.799 153.532C699.491 153.971 699.094 154.269 698.609 154.428V154.456C699.253 154.671 699.762 155.021 700.135 155.506C700.518 155.982 700.709 156.556 700.709 157.228C700.709 157.919 700.494 158.516 700.065 159.02C699.636 159.515 699.122 159.869 698.525 160.084C697.937 160.308 697.321 160.42 696.677 160.42C696.033 160.42 695.412 160.308 694.815 160.084C694.227 159.869 693.718 159.515 693.289 159.02C692.86 158.516 692.645 157.919 692.645 157.228C692.645 156.556 692.832 155.982 693.205 155.506C693.588 155.021 694.101 154.671 694.745 154.456V154.428C694.26 154.269 693.858 153.971 693.541 153.532C693.233 153.084 693.079 152.585 693.079 152.034C693.079 151.082 693.434 150.345 694.143 149.822ZM709.369 155.716H710.643V157.816H709.369V160H706.821V157.816H701.697V156.066L705.771 149.444H709.369V155.716ZM706.821 155.716V151.656H706.793L704.329 155.716H706.821Z" fill="black"/>
<path d="M658.96 92.92L662.6 102.08L666.26 92.92H670.52L664.08 108H661.04L654.7 92.92H658.96ZM678.055 104.68H682.995V108H670.875L677.035 101.3C678.182 100.047 678.755 98.8133 678.755 97.6C678.755 97.0933 678.588 96.64 678.255 96.24C677.935 95.84 677.528 95.64 677.035 95.64C676.528 95.64 676.128 95.8133 675.835 96.16C675.542 96.5067 675.395 96.9467 675.395 97.48C675.395 97.6933 675.415 97.9067 675.455 98.12H671.135C671.202 96.3733 671.755 94.9733 672.795 93.92C673.848 92.8533 675.255 92.32 677.015 92.32C678.642 92.32 680.015 92.8133 681.135 93.8C682.268 94.7867 682.835 96.08 682.835 97.68C682.835 98.6933 682.635 99.56 682.235 100.28C681.848 101 681.235 101.74 680.395 102.5L678.055 104.68Z" fill="black"/>
<circle cx="139.5" cy="227.5" r="31" stroke="black" stroke-width="3"/>
<path d="M112.766 278.768H111.254V276.444H115.51V287H112.766V278.768ZM124.086 284.676H127.544V287H119.06L123.372 282.31C124.174 281.433 124.576 280.569 124.576 279.72C124.576 279.365 124.459 279.048 124.226 278.768C124.002 278.488 123.717 278.348 123.372 278.348C123.017 278.348 122.737 278.469 122.532 278.712C122.326 278.955 122.224 279.263 122.224 279.636C122.224 279.785 122.238 279.935 122.266 280.084H119.242C119.288 278.861 119.676 277.881 120.404 277.144C121.141 276.397 122.126 276.024 123.358 276.024C124.496 276.024 125.458 276.369 126.242 277.06C127.035 277.751 127.432 278.656 127.432 279.776C127.432 280.485 127.292 281.092 127.012 281.596C126.741 282.1 126.312 282.618 125.724 283.15L124.086 284.676ZM135.559 285.166H131.779L131.051 287H128.139L132.199 276.444H135.195L139.171 287H136.245L135.559 285.166ZM134.817 283.066L133.697 279.706H133.669L132.535 283.066H134.817ZM143.151 281.358L139.777 276.444H143.151L144.761 279.174L146.371 276.444H149.745L146.371 281.358L150.277 287H146.973L144.761 283.556L142.339 287H139.021L143.151 281.358ZM155.584 278.768H151.174V276.444H159.84L153.778 287H150.768L155.584 278.768ZM167.141 285.166H163.361L162.633 287H159.721L163.781 276.444H166.777L170.753 287H167.827L167.141 285.166ZM166.399 283.066L165.279 279.706H165.251L164.117 283.066H166.399Z" fill="black"/>
<path d="M128.96 219.92L132.6 229.08L136.26 219.92H140.52L134.08 235H131.04L124.7 219.92H128.96ZM151.515 223.24H146.295L146.035 224.96L147.275 224.86C148.795 224.74 150.062 225.213 151.075 226.28C152.102 227.347 152.615 228.673 152.615 230.26C152.615 231.913 151.968 233.273 150.675 234.34C149.622 235.18 148.155 235.6 146.275 235.6C144.408 235.6 142.768 235.147 141.355 234.24L141.935 230.54C143.228 231.7 144.628 232.28 146.135 232.28C146.775 232.28 147.335 232.073 147.815 231.66C148.295 231.233 148.535 230.7 148.535 230.06C148.535 229.22 148.202 228.58 147.535 228.14C146.882 227.7 146.115 227.48 145.235 227.48C144.195 227.48 143.235 227.687 142.355 228.1L143.675 219.92H151.515V223.24Z" fill="black"/>
<circle cx="240.5" cy="227.5" r="31" stroke="black" stroke-width="3"/>
<path d="M213.766 278.768H212.254V276.444H216.51V287H213.766V278.768ZM225.086 284.676H228.544V287H220.06L224.372 282.31C225.174 281.433 225.576 280.569 225.576 279.72C225.576 279.365 225.459 279.048 225.226 278.768C225.002 278.488 224.717 278.348 224.372 278.348C224.017 278.348 223.737 278.469 223.532 278.712C223.326 278.955 223.224 279.263 223.224 279.636C223.224 279.785 223.238 279.935 223.266 280.084H220.242C220.288 278.861 220.676 277.881 221.404 277.144C222.141 276.397 223.126 276.024 224.358 276.024C225.496 276.024 226.458 276.369 227.242 277.06C228.035 277.751 228.432 278.656 228.432 279.776C228.432 280.485 228.292 281.092 228.012 281.596C227.741 282.1 227.312 282.618 226.724 283.15L225.086 284.676ZM236.559 285.166H232.779L232.051 287H229.139L233.199 276.444H236.195L240.171 287H237.245L236.559 285.166ZM235.817 283.066L234.697 279.706H234.669L233.535 283.066H235.817ZM244.151 281.358L240.777 276.444H244.151L245.761 279.174L247.371 276.444H250.745L247.371 281.358L251.277 287H247.973L245.761 283.556L243.339 287H240.021L244.151 281.358ZM256.584 278.768H252.174V276.444H260.84L254.778 287H251.768L256.584 278.768ZM268.141 285.166H264.361L263.633 287H260.721L264.781 276.444H267.777L271.753 287H268.827L268.141 285.166ZM267.399 283.066L266.279 279.706H266.251L265.117 283.066H267.399Z" fill="black"/>
<path d="M229.96 219.92L233.6 229.08L237.26 219.92H241.52L235.08 235H232.04L225.7 219.92H229.96ZM252.495 228.88H254.315V231.88H252.495V235H248.855V231.88H241.535V229.38L247.355 219.92H252.495V228.88ZM248.855 228.88V223.08H248.815L245.295 228.88H248.855Z" fill="black"/>
<rect x="38" y="36" width="721" height="273" rx="9" stroke="black" stroke-width="2"/>
<path d="M376.319 254.6H373.479V265H370.019V254.6H367.179V251.66H376.319V254.6ZM379.853 251.66H383.313V259.56C383.313 260.12 383.333 260.98 383.993 261.62C384.393 262 385.033 262.26 385.633 262.26C386.233 262.26 386.853 262.02 387.233 261.68C388.033 260.98 388.013 260 388.013 259.26V251.66H391.473V259.32C391.473 260.72 391.413 262.18 389.973 263.64C388.853 264.78 387.453 265.3 385.573 265.3C383.473 265.3 381.973 264.58 381.153 263.7C379.993 262.44 379.853 260.74 379.853 259.32V251.66ZM401.827 265H396.267V251.66H401.427C402.387 251.66 403.527 251.8 404.347 252.7C404.807 253.2 405.167 254.02 405.167 255.2C405.167 255.78 405.067 256.28 404.787 256.84C404.507 257.36 404.207 257.66 403.707 257.88C404.407 257.96 405.107 258.28 405.527 258.68C406.067 259.2 406.427 260.06 406.427 261.12C406.427 262.38 405.947 263.24 405.447 263.74C404.727 264.48 403.467 265 401.827 265ZM399.727 254.32V256.92H400.367C400.727 256.92 401.327 256.88 401.687 256.5C401.907 256.28 402.007 255.92 402.007 255.62C402.007 255.28 401.887 254.94 401.687 254.72C401.467 254.5 401.047 254.32 400.367 254.32H399.727ZM399.727 259.5V262.3H400.507C401.467 262.3 402.267 262.2 402.647 261.76C402.807 261.58 402.927 261.28 402.927 260.9C402.927 260.48 402.787 260.14 402.587 259.94C402.167 259.52 401.307 259.5 400.447 259.5H399.727ZM418.21 251.66V254.6H414.09V256.82H417.99V259.76H414.09V262.06H418.21V265H410.63V251.66H418.21ZM429.084 251.66H432.544V262.06H436.704V265H429.084V251.66ZM449.438 265L448.618 262.76H443.778L442.878 265H439.218L444.338 251.66H448.118L453.138 265H449.438ZM444.738 260.12H447.698L446.198 255.8L444.738 260.12ZM458.353 265V258.6L453.533 251.66H457.673L460.193 255.3L462.613 251.66H466.813L461.833 258.6V265H458.353ZM483.325 258.34C483.325 260.1 482.645 261.96 481.225 263.32C479.865 264.62 477.945 265.3 475.965 265.3C473.985 265.3 472.065 264.62 470.705 263.32C469.285 261.96 468.605 260.1 468.605 258.34C468.605 256.56 469.285 254.68 470.705 253.34C472.065 252.04 473.985 251.36 475.965 251.36C477.945 251.36 479.865 252.04 481.225 253.34C482.645 254.68 483.325 256.56 483.325 258.34ZM475.965 254.72C475.005 254.72 473.985 255.06 473.265 255.78C472.545 256.48 472.205 257.46 472.205 258.4C472.205 259.58 472.765 260.4 473.265 260.88C473.905 261.5 474.805 261.94 475.965 261.94C477.145 261.94 478.025 261.52 478.645 260.9C479.265 260.28 479.725 259.36 479.725 258.34C479.725 257.3 479.265 256.38 478.645 255.78C477.905 255.08 476.885 254.72 475.965 254.72ZM487.533 251.66H490.993V259.56C490.993 260.12 491.013 260.98 491.673 261.62C492.073 262 492.713 262.26 493.313 262.26C493.913 262.26 494.533 262.02 494.913 261.68C495.713 260.98 495.693 260 495.693 259.26V251.66H499.153V259.32C499.153 260.72 499.093 262.18 497.653 263.64C496.533 264.78 495.133 265.3 493.253 265.3C491.153 265.3 489.653 264.58 488.833 263.7C487.673 262.44 487.533 260.74 487.533 259.32V251.66ZM511.827 254.6H508.987V265H505.527V254.6H502.687V251.66H511.827V254.6Z" fill="black"/>
<path d="M330.339 215.92C330.339 216.504 330.187 217.012 329.883 217.444C329.587 217.868 329.195 218.196 328.707 218.428C328.227 218.66 327.715 218.776 327.171 218.776C326.163 218.776 325.351 218.448 324.735 217.792C324.119 217.128 323.811 216.148 323.811 214.852C323.811 214.012 323.995 213.244 324.363 212.548C324.739 211.844 325.219 211.232 325.803 210.712C326.395 210.192 327.015 209.776 327.663 209.464C328.311 209.144 328.911 208.948 329.463 208.876C329.639 208.852 329.755 208.864 329.811 208.912C329.875 208.96 329.907 209.08 329.907 209.272V210.7C329.907 210.82 329.883 210.9 329.835 210.94C329.787 210.972 329.711 210.996 329.607 211.012C329.127 211.06 328.659 211.204 328.203 211.444C327.747 211.684 327.343 211.96 326.991 212.272C326.647 212.584 326.391 212.88 326.223 213.16C326.191 213.208 326.191 213.248 326.223 213.28C326.263 213.304 326.319 213.3 326.391 213.268C326.527 213.204 326.699 213.156 326.907 213.124C327.123 213.084 327.363 213.064 327.627 213.064C328.443 213.064 329.099 213.32 329.595 213.832C330.091 214.344 330.339 215.04 330.339 215.92ZM322.899 215.92C322.899 216.504 322.747 217.012 322.443 217.444C322.147 217.868 321.755 218.196 321.267 218.428C320.787 218.66 320.275 218.776 319.731 218.776C318.723 218.776 317.911 218.448 317.295 217.792C316.679 217.128 316.371 216.148 316.371 214.852C316.371 214.012 316.555 213.244 316.923 212.548C317.299 211.844 317.779 211.232 318.363 210.712C318.955 210.192 319.575 209.776 320.223 209.464C320.871 209.144 321.471 208.948 322.023 208.876C322.199 208.852 322.315 208.864 322.371 208.912C322.435 208.96 322.467 209.08 322.467 209.272V210.7C322.467 210.82 322.443 210.9 322.395 210.94C322.347 210.972 322.271 210.996 322.167 211.012C321.687 211.06 321.219 211.204 320.763 211.444C320.307 211.684 319.903 211.96 319.551 212.272C319.207 212.584 318.951 212.88 318.783 213.16C318.751 213.208 318.751 213.248 318.783 213.28C318.823 213.304 318.879 213.3 318.951 213.268C319.087 213.204 319.259 213.156 319.467 213.124C319.683 213.084 319.923 213.064 320.187 213.064C321.003 213.064 321.659 213.32 322.155 213.832C322.651 214.344 322.899 215.04 322.899 215.92ZM343.122 218.44H345.222C345.67 218.44 346.054 218.352 346.374 218.176C346.702 218 346.95 217.76 347.118 217.456C347.294 217.144 347.382 216.792 347.382 216.4C347.382 216.008 347.294 215.648 347.118 215.32C346.95 214.992 346.702 214.732 346.374 214.54C346.054 214.34 345.67 214.24 345.222 214.24H343.194C343.002 214.24 342.85 214.26 342.738 214.3C342.634 214.332 342.582 214.456 342.582 214.672V218.032C342.582 218.224 342.626 218.34 342.714 218.38C342.81 218.42 342.946 218.44 343.122 218.44ZM353.85 229H350.982C349.942 229 349.134 228.868 348.558 228.604C347.982 228.332 347.558 227.976 347.286 227.536C347.022 227.088 346.838 226.6 346.734 226.072C346.638 225.544 346.558 225.016 346.494 224.488C346.43 223.96 346.31 223.476 346.134 223.036C345.966 222.588 345.674 222.232 345.258 221.968C344.842 221.696 344.23 221.56 343.422 221.56H343.122C342.906 221.56 342.762 221.584 342.69 221.632C342.618 221.672 342.582 221.8 342.582 222.016V225.04C342.582 225.28 342.622 225.46 342.702 225.58C342.782 225.7 342.954 225.76 343.218 225.76H344.682C344.938 225.76 345.09 225.804 345.138 225.892C345.194 225.972 345.222 226.144 345.222 226.408V228.304C345.222 228.608 345.15 228.8 345.006 228.88C344.862 228.96 344.65 229 344.37 229H335.034C334.69 229 334.482 228.952 334.41 228.856C334.338 228.76 334.302 228.536 334.302 228.184V226.432C334.302 226.104 334.35 225.912 334.446 225.856C334.55 225.792 334.77 225.76 335.106 225.76H336.114C336.41 225.76 336.622 225.736 336.75 225.688C336.878 225.632 336.942 225.456 336.942 225.16V214.984C336.942 214.72 336.898 214.532 336.81 214.42C336.73 214.3 336.546 214.24 336.258 214.24H334.938C334.714 214.24 334.55 214.212 334.446 214.156C334.35 214.092 334.302 213.944 334.302 213.712V211.648C334.302 211.376 334.362 211.2 334.482 211.12C334.602 211.04 334.786 211 335.034 211H345.222C346.99 211 348.458 211.176 349.626 211.528C350.802 211.88 351.682 212.42 352.266 213.148C352.85 213.876 353.142 214.8 353.142 215.92C353.142 216.992 352.85 217.852 352.266 218.5C351.682 219.148 350.762 219.612 349.506 219.892C349.178 219.964 349.006 220.044 348.99 220.132C348.974 220.22 349.138 220.332 349.482 220.468C350.146 220.724 350.646 221.032 350.982 221.392C351.318 221.744 351.55 222.12 351.678 222.52C351.814 222.912 351.898 223.3 351.93 223.684C351.962 224.068 351.994 224.416 352.026 224.728C352.066 225.04 352.154 225.292 352.29 225.484C352.434 225.668 352.686 225.76 353.046 225.76H353.85C354.122 225.76 354.29 225.776 354.354 225.808C354.426 225.832 354.462 225.984 354.462 226.264V228.472C354.462 228.72 354.418 228.872 354.33 228.928C354.242 228.976 354.082 229 353.85 229ZM360.048 214.24H358.488C358.24 214.24 358.084 214.204 358.02 214.132C357.964 214.06 357.936 213.904 357.936 213.664V211.552C357.936 211.28 357.984 211.12 358.08 211.072C358.184 211.024 358.36 211 358.608 211H375.792C376.024 211 376.164 211.04 376.212 211.12C376.268 211.2 376.296 211.352 376.296 211.576V217.624C376.296 217.848 376.276 217.98 376.236 218.02C376.204 218.06 376.072 218.08 375.84 218.08H373.56C373.384 218.08 373.276 218.04 373.236 217.96C373.196 217.872 373.172 217.752 373.164 217.6C373.14 216.784 373.032 216.132 372.84 215.644C372.656 215.148 372.324 214.792 371.844 214.576C371.372 214.352 370.696 214.24 369.816 214.24H366.912C366.68 214.24 366.504 214.272 366.384 214.336C366.272 214.392 366.216 214.548 366.216 214.804V217.984C366.216 218.272 366.244 218.46 366.3 218.548C366.356 218.636 366.48 218.68 366.672 218.68H366.732C367.348 218.68 367.844 218.464 368.22 218.032C368.596 217.6 368.832 217.104 368.928 216.544C368.96 216.36 368.996 216.22 369.036 216.124C369.076 216.02 369.18 215.968 369.348 215.968H370.68C370.936 215.968 371.096 216 371.16 216.064C371.224 216.128 371.256 216.288 371.256 216.544V223.504C371.256 223.712 371.228 223.848 371.172 223.912C371.116 223.976 370.976 224.008 370.752 224.008H369.456C369.208 224.008 369.064 223.956 369.024 223.852C368.992 223.74 368.956 223.584 368.916 223.384C368.852 223.016 368.712 222.668 368.496 222.34C368.288 222.004 368.036 221.732 367.74 221.524C367.452 221.308 367.152 221.2 366.84 221.2H366.768C366.608 221.2 366.476 221.256 366.372 221.368C366.268 221.472 366.216 221.648 366.216 221.896V225.28C366.216 225.56 366.256 225.712 366.336 225.736C366.416 225.752 366.592 225.76 366.864 225.76H369.576C370.592 225.76 371.368 225.632 371.904 225.376C372.448 225.112 372.828 224.696 373.044 224.128C373.26 223.56 373.38 222.816 373.404 221.896C373.42 221.592 373.444 221.4 373.476 221.32C373.508 221.24 373.688 221.2 374.016 221.2H376.056C376.328 221.2 376.476 221.236 376.5 221.308C376.524 221.372 376.536 221.536 376.536 221.8V228.52C376.536 228.768 376.512 228.912 376.464 228.952C376.416 228.984 376.264 229 376.008 229H358.536C358.296 229 358.136 228.992 358.056 228.976C357.976 228.96 357.936 228.824 357.936 228.568V226.144C357.936 225.936 357.956 225.82 357.996 225.796C358.044 225.772 358.168 225.76 358.368 225.76H360.048C360.304 225.76 360.456 225.74 360.504 225.7C360.552 225.66 360.576 225.512 360.576 225.256V214.696C360.576 214.488 360.54 214.36 360.468 214.312C360.404 214.264 360.264 214.24 360.048 214.24ZM393.008 223.132L396.608 214.828C396.712 214.588 396.744 214.432 396.704 214.36C396.672 214.28 396.492 214.24 396.164 214.24H395.492C395.228 214.24 395.06 214.208 394.988 214.144C394.924 214.08 394.892 213.924 394.892 213.676V211.756C394.892 211.452 394.92 211.252 394.976 211.156C395.032 211.052 395.212 211 395.516 211H402.02C402.3 211 402.5 211.036 402.62 211.108C402.748 211.18 402.812 211.368 402.812 211.672V213.748C402.812 213.94 402.768 214.072 402.68 214.144C402.592 214.208 402.444 214.24 402.236 214.24H401.156C400.828 214.24 400.612 214.288 400.508 214.384C400.412 214.48 400.316 214.636 400.22 214.852L394.16 228.532C394.072 228.74 393.996 228.904 393.932 229.024C393.876 229.144 393.78 229.228 393.644 229.276C393.516 229.332 393.292 229.36 392.972 229.36H389.948C389.524 229.36 389.244 229.32 389.108 229.24C388.98 229.168 388.856 228.988 388.736 228.7L382.784 214.756C382.68 214.516 382.584 214.372 382.496 214.324C382.408 214.268 382.188 214.24 381.836 214.24H380.384C380.104 214.24 379.932 214.188 379.868 214.084C379.804 213.98 379.772 213.796 379.772 213.532V211.588C379.772 211.3 379.812 211.132 379.892 211.084C379.98 211.028 380.172 211 380.468 211H391.004C391.212 211 391.352 211.044 391.424 211.132C391.496 211.22 391.532 211.376 391.532 211.6V213.676C391.532 213.924 391.496 214.08 391.424 214.144C391.352 214.208 391.188 214.24 390.932 214.24H389.348C389.092 214.24 388.932 214.28 388.868 214.36C388.812 214.44 388.82 214.576 388.892 214.768L391.628 221.788C391.748 222.092 391.852 222.412 391.94 222.748C392.028 223.084 392.116 223.36 392.204 223.576C392.3 223.792 392.408 223.884 392.528 223.852C392.656 223.812 392.816 223.572 393.008 223.132ZM407.809 214.24H406.249C406.001 214.24 405.845 214.204 405.781 214.132C405.725 214.06 405.697 213.904 405.697 213.664V211.552C405.697 211.28 405.745 211.12 405.841 211.072C405.945 211.024 406.121 211 406.369 211H423.553C423.785 211 423.925 211.04 423.973 211.12C424.029 211.2 424.057 211.352 424.057 211.576V217.624C424.057 217.848 424.037 217.98 423.997 218.02C423.965 218.06 423.833 218.08 423.601 218.08H421.321C421.145 218.08 421.037 218.04 420.997 217.96C420.957 217.872 420.933 217.752 420.925 217.6C420.901 216.784 420.793 216.132 420.601 215.644C420.417 215.148 420.085 214.792 419.605 214.576C419.133 214.352 418.457 214.24 417.577 214.24H414.673C414.441 214.24 414.265 214.272 414.145 214.336C414.033 214.392 413.977 214.548 413.977 214.804V217.984C413.977 218.272 414.005 218.46 414.061 218.548C414.117 218.636 414.241 218.68 414.433 218.68H414.493C415.109 218.68 415.605 218.464 415.981 218.032C416.357 217.6 416.593 217.104 416.689 216.544C416.721 216.36 416.757 216.22 416.797 216.124C416.837 216.02 416.941 215.968 417.109 215.968H418.441C418.697 215.968 418.857 216 418.921 216.064C418.985 216.128 419.017 216.288 419.017 216.544V223.504C419.017 223.712 418.989 223.848 418.933 223.912C418.877 223.976 418.737 224.008 418.513 224.008H417.217C416.969 224.008 416.825 223.956 416.785 223.852C416.753 223.74 416.717 223.584 416.677 223.384C416.613 223.016 416.473 222.668 416.257 222.34C416.049 222.004 415.797 221.732 415.501 221.524C415.213 221.308 414.913 221.2 414.601 221.2H414.529C414.369 221.2 414.237 221.256 414.133 221.368C414.029 221.472 413.977 221.648 413.977 221.896V225.28C413.977 225.56 414.017 225.712 414.097 225.736C414.177 225.752 414.353 225.76 414.625 225.76H417.337C418.353 225.76 419.129 225.632 419.665 225.376C420.209 225.112 420.589 224.696 420.805 224.128C421.021 223.56 421.141 222.816 421.165 221.896C421.181 221.592 421.205 221.4 421.237 221.32C421.269 221.24 421.449 221.2 421.777 221.2H423.817C424.089 221.2 424.237 221.236 424.261 221.308C424.285 221.372 424.297 221.536 424.297 221.8V228.52C424.297 228.768 424.273 228.912 424.225 228.952C424.177 228.984 424.025 229 423.769 229H406.297C406.057 229 405.897 228.992 405.817 228.976C405.737 228.96 405.697 228.824 405.697 228.568V226.144C405.697 225.936 405.717 225.82 405.757 225.796C405.805 225.772 405.929 225.76 406.129 225.76H407.809C408.065 225.76 408.217 225.74 408.265 225.7C408.313 225.66 408.337 225.512 408.337 225.256V214.696C408.337 214.488 408.301 214.36 408.229 214.312C408.165 214.264 408.025 214.24 407.809 214.24ZM437.073 218.44H439.173C439.621 218.44 440.005 218.352 440.325 218.176C440.653 218 440.901 217.76 441.069 217.456C441.245 217.144 441.333 216.792 441.333 216.4C441.333 216.008 441.245 215.648 441.069 215.32C440.901 214.992 440.653 214.732 440.325 214.54C440.005 214.34 439.621 214.24 439.173 214.24H437.145C436.953 214.24 436.801 214.26 436.689 214.3C436.585 214.332 436.533 214.456 436.533 214.672V218.032C436.533 218.224 436.577 218.34 436.665 218.38C436.761 218.42 436.897 218.44 437.073 218.44ZM447.801 229H444.933C443.893 229 443.085 228.868 442.509 228.604C441.933 228.332 441.509 227.976 441.237 227.536C440.973 227.088 440.789 226.6 440.685 226.072C440.589 225.544 440.509 225.016 440.445 224.488C440.381 223.96 440.261 223.476 440.085 223.036C439.917 222.588 439.625 222.232 439.209 221.968C438.793 221.696 438.181 221.56 437.373 221.56H437.073C436.857 221.56 436.713 221.584 436.641 221.632C436.569 221.672 436.533 221.8 436.533 222.016V225.04C436.533 225.28 436.573 225.46 436.653 225.58C436.733 225.7 436.905 225.76 437.169 225.76H438.633C438.889 225.76 439.041 225.804 439.089 225.892C439.145 225.972 439.173 226.144 439.173 226.408V228.304C439.173 228.608 439.101 228.8 438.957 228.88C438.813 228.96 438.601 229 438.321 229H428.985C428.641 229 428.433 228.952 428.361 228.856C428.289 228.76 428.253 228.536 428.253 228.184V226.432C428.253 226.104 428.301 225.912 428.397 225.856C428.501 225.792 428.721 225.76 429.057 225.76H430.065C430.361 225.76 430.573 225.736 430.701 225.688C430.829 225.632 430.893 225.456 430.893 225.16V214.984C430.893 214.72 430.849 214.532 430.761 214.42C430.681 214.3 430.497 214.24 430.209 214.24H428.889C428.665 214.24 428.501 214.212 428.397 214.156C428.301 214.092 428.253 213.944 428.253 213.712V211.648C428.253 211.376 428.313 211.2 428.433 211.12C428.553 211.04 428.737 211 428.985 211H439.173C440.941 211 442.409 211.176 443.577 211.528C444.753 211.88 445.633 212.42 446.217 213.148C446.801 213.876 447.093 214.8 447.093 215.92C447.093 216.992 446.801 217.852 446.217 218.5C445.633 219.148 444.713 219.612 443.457 219.892C443.129 219.964 442.957 220.044 442.941 220.132C442.925 220.22 443.089 220.332 443.433 220.468C444.097 220.724 444.597 221.032 444.933 221.392C445.269 221.744 445.501 222.12 445.629 222.52C445.765 222.912 445.849 223.3 445.881 223.684C445.913 224.068 445.945 224.416 445.977 224.728C446.017 225.04 446.105 225.292 446.241 225.484C446.385 225.668 446.637 225.76 446.997 225.76H447.801C448.073 225.76 448.241 225.776 448.305 225.808C448.377 225.832 448.413 225.984 448.413 226.264V228.472C448.413 228.72 448.369 228.872 448.281 228.928C448.193 228.976 448.033 229 447.801 229ZM462.447 225.76C463.135 225.76 463.671 225.66 464.055 225.46C464.439 225.252 464.707 224.968 464.859 224.608C465.011 224.248 465.087 223.832 465.087 223.36C465.087 222.888 464.975 222.504 464.751 222.208C464.535 221.904 464.227 221.68 463.827 221.536C463.435 221.392 462.975 221.32 462.447 221.32H460.659C460.507 221.32 460.387 221.368 460.299 221.464C460.211 221.552 460.167 221.68 460.167 221.848V225.088C460.167 225.336 460.199 225.512 460.263 225.616C460.327 225.712 460.475 225.76 460.707 225.76H462.447ZM460.851 218.08H461.967C462.455 218.08 462.879 218.008 463.239 217.864C463.599 217.72 463.875 217.5 464.067 217.204C464.267 216.9 464.367 216.512 464.367 216.04C464.367 215.568 464.283 215.204 464.115 214.948C463.955 214.684 463.699 214.5 463.347 214.396C462.995 214.292 462.535 214.24 461.967 214.24H460.779C460.595 214.24 460.447 214.26 460.335 214.3C460.223 214.332 460.167 214.44 460.167 214.624V217.372C460.167 217.668 460.207 217.86 460.287 217.948C460.367 218.036 460.555 218.08 460.851 218.08ZM462.927 229H452.451C452.179 229 452.015 228.94 451.959 228.82C451.911 228.692 451.887 228.488 451.887 228.208V226.12C451.887 225.96 451.919 225.86 451.983 225.82C452.055 225.78 452.163 225.76 452.307 225.76H453.963C454.227 225.76 454.387 225.704 454.443 225.592C454.499 225.48 454.527 225.288 454.527 225.016V214.864C454.527 214.648 454.495 214.492 454.431 214.396C454.375 214.292 454.243 214.24 454.035 214.24H452.403C452.179 214.24 452.035 214.212 451.971 214.156C451.915 214.092 451.887 213.952 451.887 213.736V211.624C451.887 211.384 451.923 211.22 451.995 211.132C452.075 211.044 452.227 211 452.451 211H462.207C464.055 211 465.563 211.136 466.731 211.408C467.899 211.68 468.755 212.14 469.299 212.788C469.851 213.436 470.127 214.32 470.127 215.44C470.127 216.432 469.843 217.248 469.275 217.888C468.715 218.528 467.899 219.012 466.827 219.34C466.603 219.404 466.491 219.496 466.491 219.616C466.491 219.736 466.627 219.824 466.899 219.88C468.235 220.152 469.267 220.628 469.995 221.308C470.723 221.98 471.087 222.864 471.087 223.96C471.087 225.24 470.807 226.248 470.247 226.984C469.695 227.712 468.819 228.232 467.619 228.544C466.419 228.848 464.855 229 462.927 229ZM487.057 214.24H485.689C485.409 214.24 485.241 214.22 485.185 214.18C485.137 214.132 485.113 213.964 485.113 213.676V211.372C485.113 211.124 485.169 211 485.281 211C485.393 211 485.561 211 485.785 211H494.545C494.865 211 495.081 211.036 495.193 211.108C495.313 211.18 495.393 211.292 495.433 211.444C495.481 211.588 495.541 211.772 495.613 211.996L497.905 219.172C498.033 219.556 498.137 219.924 498.217 220.276C498.305 220.628 498.409 220.804 498.529 220.804C498.665 220.804 498.777 220.7 498.865 220.492C498.953 220.276 499.073 219.964 499.225 219.556L502.237 211.492C502.325 211.268 502.401 211.132 502.465 211.084C502.537 211.028 502.729 211 503.041 211H510.553C510.857 211 511.073 211.004 511.201 211.012C511.329 211.02 511.393 211.188 511.393 211.516V213.628C511.393 213.924 511.373 214.1 511.333 214.156C511.293 214.212 511.121 214.24 510.817 214.24H509.353C509.097 214.24 508.949 214.264 508.909 214.312C508.877 214.36 508.865 214.508 508.873 214.756L509.233 225.268C509.241 225.476 509.253 225.612 509.269 225.676C509.293 225.732 509.417 225.76 509.641 225.76H511.561C511.761 225.76 511.881 225.792 511.921 225.856C511.969 225.912 511.993 226.044 511.993 226.252V228.34C511.993 228.596 511.965 228.772 511.909 228.868C511.861 228.956 511.697 229 511.417 229H502.105C501.841 229 501.681 228.964 501.625 228.892C501.577 228.812 501.553 228.636 501.553 228.364V226.324C501.553 226.052 501.597 225.892 501.685 225.844C501.781 225.788 501.953 225.76 502.201 225.76H503.473C503.729 225.76 503.897 225.72 503.977 225.64C504.065 225.552 504.105 225.384 504.097 225.136L503.953 219.724C503.937 219.164 503.949 218.636 503.989 218.14C504.037 217.636 504.061 217.228 504.061 216.916C504.061 216.596 503.985 216.436 503.833 216.436C503.737 216.436 503.661 216.488 503.605 216.592C503.549 216.688 503.493 216.844 503.437 217.06C503.381 217.276 503.289 217.564 503.161 217.924L499.477 228.748C499.389 229.004 499.293 229.168 499.189 229.24C499.085 229.32 498.857 229.36 498.505 229.36H496.345C495.993 229.36 495.761 229.32 495.649 229.24C495.545 229.168 495.449 229.004 495.361 228.748L491.797 218.356C491.693 218.052 491.593 217.704 491.497 217.312C491.409 216.92 491.321 216.576 491.233 216.28C491.145 215.984 491.049 215.836 490.945 215.836C490.841 215.836 490.781 215.948 490.765 216.172C490.749 216.396 490.729 216.78 490.705 217.324L490.345 224.908C490.337 225.196 490.349 225.412 490.381 225.556C490.413 225.692 490.593 225.76 490.921 225.76H492.505C492.729 225.76 492.873 225.792 492.937 225.856C493.001 225.92 493.033 226.068 493.033 226.3V228.388C493.033 228.684 492.985 228.86 492.889 228.916C492.801 228.972 492.617 229 492.337 229H484.897C484.617 229 484.441 228.964 484.369 228.892C484.305 228.82 484.273 228.636 484.273 228.34V226.18C484.273 226.012 484.293 225.9 484.333 225.844C484.373 225.788 484.473 225.76 484.633 225.76H486.529C486.889 225.76 487.073 225.688 487.081 225.544C487.097 225.392 487.113 225.156 487.129 224.836L487.681 214.66C487.697 214.404 487.661 214.272 487.573 214.264C487.485 214.248 487.313 214.24 487.057 214.24ZM524.943 216.772L523.539 220.18C523.459 220.356 523.411 220.532 523.395 220.708C523.387 220.876 523.543 220.96 523.863 220.96H526.395C526.675 220.96 526.815 220.88 526.815 220.72C526.823 220.56 526.795 220.396 526.731 220.228L525.483 216.724C525.387 216.444 525.291 216.336 525.195 216.4C525.107 216.464 525.023 216.588 524.943 216.772ZM514.995 228.316V226.348C514.995 226.14 515.031 225.992 515.103 225.904C515.175 225.808 515.323 225.76 515.547 225.76H517.527C517.727 225.76 517.843 225.72 517.875 225.64C517.907 225.552 517.951 225.444 518.007 225.316L524.091 211.036C524.171 210.844 524.247 210.732 524.319 210.7C524.399 210.66 524.575 210.64 524.847 210.64H528.447C528.727 210.64 528.907 210.68 528.987 210.76C529.075 210.832 529.159 210.964 529.239 211.156L534.771 225.028C534.859 225.252 534.927 225.432 534.975 225.568C535.031 225.696 535.231 225.76 535.575 225.76H537.159C537.367 225.76 537.523 225.78 537.627 225.82C537.739 225.86 537.795 225.996 537.795 226.228V228.46C537.795 228.7 537.763 228.852 537.699 228.916C537.635 228.972 537.487 229 537.255 229H526.527C526.287 229 526.143 228.964 526.095 228.892C526.055 228.812 526.035 228.652 526.035 228.412V226.276C526.035 226.044 526.063 225.9 526.119 225.844C526.183 225.788 526.327 225.76 526.551 225.76H527.919C528.271 225.76 528.479 225.72 528.543 225.64C528.607 225.56 528.595 225.404 528.507 225.172L528.219 224.356C528.163 224.196 528.111 224.092 528.063 224.044C528.023 223.988 527.887 223.96 527.655 223.96H522.591C522.359 223.96 522.195 223.968 522.099 223.984C522.003 223.992 521.919 224.084 521.847 224.26L521.451 225.244C521.371 225.436 521.347 225.572 521.379 225.652C521.411 225.724 521.535 225.76 521.751 225.76H522.999C523.191 225.76 523.303 225.796 523.335 225.868C523.375 225.932 523.395 226.06 523.395 226.252V228.556C523.395 228.756 523.359 228.88 523.287 228.928C523.215 228.976 523.087 229 522.903 229H515.787C515.451 229 515.235 228.972 515.139 228.916C515.043 228.852 514.995 228.652 514.995 228.316ZM553.928 216.796C553.776 216.052 553.448 215.46 552.944 215.02C552.44 214.58 551.86 214.264 551.204 214.072C550.556 213.88 549.928 213.784 549.32 213.784C548.528 213.784 547.912 213.908 547.472 214.156C547.04 214.396 546.824 214.72 546.824 215.128C546.824 215.536 547.012 215.872 547.388 216.136C547.772 216.4 548.276 216.632 548.9 216.832C549.532 217.032 550.22 217.236 550.964 217.444C551.716 217.644 552.464 217.888 553.208 218.176C553.96 218.464 554.648 218.832 555.272 219.28C555.904 219.728 556.408 220.292 556.784 220.972C557.168 221.652 557.36 222.488 557.36 223.48C557.36 225 557.032 226.196 556.376 227.068C555.72 227.94 554.82 228.56 553.676 228.928C552.54 229.296 551.248 229.48 549.8 229.48C548.72 229.48 547.812 229.336 547.076 229.048C546.34 228.76 545.736 228.396 545.264 227.956C545.008 227.716 544.832 227.652 544.736 227.764C544.648 227.868 544.512 228.076 544.328 228.388L544.112 228.796C544.032 228.932 543.932 229.02 543.812 229.06C543.7 229.1 543.532 229.12 543.308 229.12H541.808C541.576 229.12 541.408 229.084 541.304 229.012C541.208 228.948 541.16 228.804 541.16 228.58V222.556C541.16 222.3 541.184 222.132 541.232 222.052C541.288 221.964 541.44 221.92 541.688 221.92H543.44C543.72 221.92 543.868 221.956 543.884 222.028C543.9 222.1 543.924 222.26 543.956 222.508C544.052 223.212 544.312 223.856 544.736 224.44C545.168 225.016 545.732 225.476 546.428 225.82C547.132 226.164 547.936 226.336 548.84 226.336C549.528 226.336 550.104 226.272 550.568 226.144C551.032 226.008 551.38 225.808 551.612 225.544C551.844 225.28 551.96 224.952 551.96 224.56C551.96 224.08 551.772 223.696 551.396 223.408C551.02 223.112 550.52 222.864 549.896 222.664C549.28 222.464 548.6 222.272 547.856 222.088C547.112 221.904 546.368 221.684 545.624 221.428C544.88 221.164 544.196 220.824 543.572 220.408C542.956 219.984 542.46 219.444 542.084 218.788C541.708 218.124 541.52 217.296 541.52 216.304C541.52 215.28 541.712 214.412 542.096 213.7C542.488 212.98 543.004 212.396 543.644 211.948C544.284 211.492 544.992 211.16 545.768 210.952C546.552 210.744 547.336 210.64 548.12 210.64C549.032 210.64 549.856 210.768 550.592 211.024C551.336 211.28 551.976 211.612 552.512 212.02C552.744 212.196 552.92 212.28 553.04 212.272C553.168 212.264 553.32 212.12 553.496 211.84L553.796 211.324C553.868 211.212 553.924 211.132 553.964 211.084C554.012 211.028 554.136 211 554.336 211H556.184C556.392 211 556.54 211.036 556.628 211.108C556.716 211.18 556.76 211.328 556.76 211.552V216.94C556.76 217.228 556.72 217.412 556.64 217.492C556.568 217.564 556.38 217.6 556.076 217.6H554.768C554.376 217.6 554.152 217.544 554.096 217.432C554.048 217.32 553.992 217.108 553.928 216.796ZM564.626 228.388V226.36C564.626 226.12 564.658 225.96 564.722 225.88C564.794 225.8 564.946 225.76 565.178 225.76H566.762C567.082 225.76 567.286 225.712 567.374 225.616C567.462 225.512 567.506 225.3 567.506 224.98V214.576C567.506 214.432 567.474 214.32 567.41 214.24C567.354 214.16 567.25 214.12 567.098 214.12H566.906C566.114 214.12 565.494 214.228 565.046 214.444C564.606 214.66 564.294 215.04 564.11 215.584C563.926 216.12 563.822 216.884 563.798 217.876C563.79 218.164 563.73 218.352 563.618 218.44C563.514 218.52 563.306 218.56 562.994 218.56H561.542C561.31 218.56 561.146 218.536 561.05 218.488C560.954 218.44 560.906 218.3 560.906 218.068V211.696C560.906 211.44 560.93 211.26 560.978 211.156C561.026 211.052 561.178 211 561.434 211H578.786C578.978 211 579.106 211.044 579.17 211.132C579.234 211.22 579.266 211.368 579.266 211.576V217.876C579.266 218.18 579.222 218.372 579.134 218.452C579.046 218.524 578.842 218.56 578.522 218.56H577.106C576.794 218.56 576.594 218.524 576.506 218.452C576.426 218.38 576.382 218.196 576.374 217.9C576.35 216.9 576.246 216.128 576.062 215.584C575.878 215.04 575.566 214.66 575.126 214.444C574.686 214.228 574.066 214.12 573.266 214.12H573.122C572.946 214.12 572.826 214.164 572.762 214.252C572.698 214.332 572.666 214.46 572.666 214.636V224.8C572.666 225.176 572.702 225.432 572.774 225.568C572.854 225.696 573.082 225.76 573.458 225.76H574.862C575.142 225.76 575.326 225.808 575.414 225.904C575.502 225.992 575.546 226.164 575.546 226.42V228.34C575.546 228.628 575.502 228.812 575.414 228.892C575.334 228.964 575.154 229 574.874 229H565.274C565.026 229 564.854 228.968 564.758 228.904C564.67 228.832 564.626 228.66 564.626 228.388ZM585.376 214.24H583.816C583.568 214.24 583.412 214.204 583.348 214.132C583.292 214.06 583.264 213.904 583.264 213.664V211.552C583.264 211.28 583.312 211.12 583.408 211.072C583.512 211.024 583.688 211 583.936 211H601.12C601.352 211 601.492 211.04 601.54 211.12C601.596 211.2 601.624 211.352 601.624 211.576V217.624C601.624 217.848 601.604 217.98 601.564 218.02C601.532 218.06 601.4 218.08 601.168 218.08H598.888C598.712 218.08 598.604 218.04 598.564 217.96C598.524 217.872 598.5 217.752 598.492 217.6C598.468 216.784 598.36 216.132 598.168 215.644C597.984 215.148 597.652 214.792 597.172 214.576C596.7 214.352 596.024 214.24 595.144 214.24H592.24C592.008 214.24 591.832 214.272 591.712 214.336C591.6 214.392 591.544 214.548 591.544 214.804V217.984C591.544 218.272 591.572 218.46 591.628 218.548C591.684 218.636 591.808 218.68 592 218.68H592.06C592.676 218.68 593.172 218.464 593.548 218.032C593.924 217.6 594.16 217.104 594.256 216.544C594.288 216.36 594.324 216.22 594.364 216.124C594.404 216.02 594.508 215.968 594.676 215.968H596.008C596.264 215.968 596.424 216 596.488 216.064C596.552 216.128 596.584 216.288 596.584 216.544V223.504C596.584 223.712 596.556 223.848 596.5 223.912C596.444 223.976 596.304 224.008 596.08 224.008H594.784C594.536 224.008 594.392 223.956 594.352 223.852C594.32 223.74 594.284 223.584 594.244 223.384C594.18 223.016 594.04 222.668 593.824 222.34C593.616 222.004 593.364 221.732 593.068 221.524C592.78 221.308 592.48 221.2 592.168 221.2H592.096C591.936 221.2 591.804 221.256 591.7 221.368C591.596 221.472 591.544 221.648 591.544 221.896V225.28C591.544 225.56 591.584 225.712 591.664 225.736C591.744 225.752 591.92 225.76 592.192 225.76H594.904C595.92 225.76 596.696 225.632 597.232 225.376C597.776 225.112 598.156 224.696 598.372 224.128C598.588 223.56 598.708 222.816 598.732 221.896C598.748 221.592 598.772 221.4 598.804 221.32C598.836 221.24 599.016 221.2 599.344 221.2H601.384C601.656 221.2 601.804 221.236 601.828 221.308C601.852 221.372 601.864 221.536 601.864 221.8V228.52C601.864 228.768 601.84 228.912 601.792 228.952C601.744 228.984 601.592 229 601.336 229H583.864C583.624 229 583.464 228.992 583.384 228.976C583.304 228.96 583.264 228.824 583.264 228.568V226.144C583.264 225.936 583.284 225.82 583.324 225.796C583.372 225.772 583.496 225.76 583.696 225.76H585.376C585.632 225.76 585.784 225.74 585.832 225.7C585.88 225.66 585.904 225.512 585.904 225.256V214.696C585.904 214.488 585.868 214.36 585.796 214.312C585.732 214.264 585.592 214.24 585.376 214.24ZM627.852 226.444C627.26 227.332 626.556 228.06 625.74 228.628C624.924 229.196 623.884 229.48 622.62 229.48C621.716 229.48 620.992 229.336 620.448 229.048C619.904 228.76 619.484 228.384 619.188 227.92C618.892 227.448 618.668 226.932 618.516 226.372C618.364 225.804 618.232 225.24 618.12 224.68C618.008 224.112 617.868 223.596 617.7 223.132C617.532 222.66 617.28 222.28 616.944 221.992C616.616 221.704 616.148 221.56 615.54 221.56H614.556C614.332 221.56 614.2 221.6 614.16 221.68C614.12 221.752 614.1 221.904 614.1 222.136V225.28C614.1 225.464 614.116 225.592 614.148 225.664C614.188 225.728 614.3 225.76 614.484 225.76H616.188C616.404 225.76 616.548 225.796 616.62 225.868C616.7 225.932 616.74 226.08 616.74 226.312V228.136C616.74 228.488 616.708 228.72 616.644 228.832C616.58 228.944 616.372 229 616.02 229H606.336C606.136 229 606 228.976 605.928 228.928C605.856 228.872 605.82 228.744 605.82 228.544V226.288C605.82 226.064 605.848 225.92 605.904 225.856C605.968 225.792 606.108 225.76 606.324 225.76H607.776C608.056 225.76 608.24 225.724 608.328 225.652C608.416 225.58 608.46 225.408 608.46 225.136V214.852C608.46 214.572 608.416 214.4 608.328 214.336C608.24 214.272 608.068 214.24 607.812 214.24H606.372C606.124 214.24 605.968 214.196 605.904 214.108C605.848 214.02 605.82 213.856 605.82 213.616V211.456C605.82 211.248 605.856 211.12 605.928 211.072C606.008 211.024 606.152 211 606.36 211H616.74C618.588 211 620.096 211.192 621.264 211.576C622.432 211.952 623.288 212.492 623.832 213.196C624.384 213.892 624.66 214.72 624.66 215.68C624.66 216.648 624.452 217.452 624.036 218.092C623.628 218.732 622.928 219.24 621.936 219.616C621.64 219.728 621.452 219.84 621.372 219.952C621.3 220.064 621.42 220.208 621.732 220.384C622.22 220.648 622.6 220.952 622.872 221.296C623.144 221.64 623.344 221.996 623.472 222.364C623.608 222.732 623.704 223.092 623.76 223.444C623.816 223.788 623.868 224.104 623.916 224.392C623.964 224.672 624.036 224.896 624.132 225.064C624.236 225.224 624.404 225.304 624.636 225.304C624.82 225.304 625.004 225.236 625.188 225.1C625.38 224.956 625.548 224.784 625.692 224.584C625.828 224.384 625.94 224.284 626.028 224.284C626.124 224.276 626.272 224.352 626.472 224.512L627.708 225.472C627.924 225.64 628.036 225.792 628.044 225.928C628.06 226.056 627.996 226.228 627.852 226.444ZM614.724 218.44H616.74C617.188 218.44 617.572 218.352 617.892 218.176C618.22 218 618.468 217.76 618.636 217.456C618.812 217.144 618.9 216.792 618.9 216.4C618.9 216.008 618.812 215.648 618.636 215.32C618.468 214.992 618.22 214.732 617.892 214.54C617.572 214.34 617.188 214.24 616.74 214.24H614.604C614.38 214.24 614.24 214.28 614.184 214.36C614.128 214.432 614.1 214.584 614.1 214.816V217.888C614.1 218.184 614.132 218.352 614.196 218.392C614.26 218.424 614.436 218.44 614.724 218.44ZM630.658 210.976C630.658 210.392 630.806 209.888 631.102 209.464C631.406 209.032 631.798 208.7 632.278 208.468C632.766 208.236 633.282 208.12 633.826 208.12C634.834 208.12 635.646 208.452 636.262 209.116C636.878 209.772 637.186 210.748 637.186 212.044C637.186 212.884 636.998 213.656 636.622 214.36C636.254 215.056 635.774 215.664 635.182 216.184C634.598 216.704 633.982 217.124 633.334 217.444C632.686 217.756 632.086 217.948 631.534 218.02C631.358 218.044 631.238 218.032 631.174 217.984C631.118 217.936 631.09 217.816 631.09 217.624V216.196C631.09 216.076 631.114 215.996 631.162 215.956C631.21 215.916 631.286 215.892 631.39 215.884C631.87 215.836 632.338 215.692 632.794 215.452C633.25 215.212 633.65 214.936 633.994 214.624C634.346 214.304 634.606 214.008 634.774 213.736C634.806 213.688 634.802 213.652 634.762 213.628C634.73 213.596 634.678 213.596 634.606 213.628C634.47 213.684 634.294 213.732 634.078 213.772C633.87 213.812 633.634 213.832 633.37 213.832C632.554 213.832 631.898 213.576 631.402 213.064C630.906 212.544 630.658 211.848 630.658 210.976ZM638.098 210.976C638.098 210.392 638.246 209.888 638.542 209.464C638.846 209.032 639.238 208.7 639.718 208.468C640.206 208.236 640.722 208.12 641.266 208.12C642.274 208.12 643.086 208.452 643.702 209.116C644.318 209.772 644.626 210.748 644.626 212.044C644.626 212.884 644.438 213.656 644.062 214.36C643.694 215.056 643.214 215.664 642.622 216.184C642.038 216.704 641.422 217.124 640.774 217.444C640.126 217.756 639.526 217.948 638.974 218.02C638.798 218.044 638.678 218.032 638.614 217.984C638.558 217.936 638.53 217.816 638.53 217.624V216.196C638.53 216.076 638.554 215.996 638.602 215.956C638.65 215.916 638.726 215.892 638.83 215.884C639.31 215.836 639.778 215.692 640.234 215.452C640.69 215.212 641.09 214.936 641.434 214.624C641.786 214.304 642.046 214.008 642.214 213.736C642.246 213.688 642.242 213.652 642.202 213.628C642.17 213.596 642.118 213.596 642.046 213.628C641.91 213.684 641.734 213.732 641.518 213.772C641.31 213.812 641.074 213.832 640.81 213.832C639.994 213.832 639.338 213.576 638.842 213.064C638.346 212.544 638.098 211.848 638.098 210.976Z" fill="black"/>
<path d="M293.49 189.568V187.312C293.49 187.08 293.514 186.932 293.562 186.868C293.61 186.796 293.746 186.76 293.97 186.76H295.602C295.842 186.76 295.99 186.724 296.046 186.652C296.102 186.58 296.13 186.42 296.13 186.172V184.444C296.13 184.116 296.102 183.884 296.046 183.748C295.99 183.604 295.902 183.444 295.782 183.268L290.658 175.792C290.522 175.584 290.406 175.44 290.31 175.36C290.222 175.28 289.998 175.24 289.638 175.24H288.366C288.118 175.24 287.97 175.2 287.922 175.12C287.874 175.04 287.85 174.876 287.85 174.628V172.84C287.85 172.464 287.918 172.232 288.054 172.144C288.19 172.048 288.43 172 288.774 172H298.302C298.606 172 298.818 172.036 298.938 172.108C299.066 172.172 299.13 172.368 299.13 172.696V174.676C299.13 174.916 299.094 175.072 299.022 175.144C298.958 175.208 298.81 175.24 298.578 175.24H297.558C297.262 175.24 297.086 175.284 297.03 175.372C296.974 175.46 297.034 175.632 297.21 175.888L299.274 178.888C299.498 179.2 299.662 179.4 299.766 179.488C299.878 179.576 299.99 179.564 300.102 179.452C300.214 179.332 300.382 179.128 300.606 178.84L302.922 175.84C303.122 175.584 303.178 175.42 303.09 175.348C303.002 175.276 302.83 175.24 302.574 175.24H301.65C301.346 175.24 301.15 175.212 301.062 175.156C300.974 175.092 300.93 174.908 300.93 174.604V172.6C300.93 172.328 300.962 172.16 301.026 172.096C301.098 172.032 301.266 172 301.53 172H308.982C309.19 172 309.338 172.02 309.426 172.06C309.522 172.1 309.57 172.236 309.57 172.468V174.916C309.57 175.068 309.534 175.16 309.462 175.192C309.398 175.224 309.286 175.24 309.126 175.24H308.334C307.982 175.24 307.754 175.28 307.65 175.36C307.554 175.432 307.43 175.56 307.278 175.744L302.25 181.972C302.098 182.172 301.978 182.34 301.89 182.476C301.81 182.612 301.77 182.868 301.77 183.244V186.196C301.77 186.42 301.794 186.572 301.842 186.652C301.89 186.724 302.026 186.76 302.25 186.76H304.158C304.39 186.76 304.53 186.8 304.578 186.88C304.626 186.952 304.65 187.108 304.65 187.348V189.532C304.65 189.716 304.626 189.84 304.578 189.904C304.538 189.968 304.426 190 304.242 190H293.874C293.714 190 293.61 189.972 293.562 189.916C293.514 189.86 293.49 189.744 293.49 189.568ZM321.144 179.44H323.244C323.692 179.44 324.076 179.352 324.396 179.176C324.724 179 324.972 178.76 325.14 178.456C325.316 178.144 325.404 177.792 325.404 177.4C325.404 177.008 325.316 176.648 325.14 176.32C324.972 175.992 324.724 175.732 324.396 175.54C324.076 175.34 323.692 175.24 323.244 175.24H321.216C321.024 175.24 320.872 175.26 320.76 175.3C320.656 175.332 320.604 175.456 320.604 175.672V179.032C320.604 179.224 320.648 179.34 320.736 179.38C320.832 179.42 320.968 179.44 321.144 179.44ZM331.872 190H329.004C327.964 190 327.156 189.868 326.58 189.604C326.004 189.332 325.58 188.976 325.308 188.536C325.044 188.088 324.86 187.6 324.756 187.072C324.66 186.544 324.58 186.016 324.516 185.488C324.452 184.96 324.332 184.476 324.156 184.036C323.988 183.588 323.696 183.232 323.28 182.968C322.864 182.696 322.252 182.56 321.444 182.56H321.144C320.928 182.56 320.784 182.584 320.712 182.632C320.64 182.672 320.604 182.8 320.604 183.016V186.04C320.604 186.28 320.644 186.46 320.724 186.58C320.804 186.7 320.976 186.76 321.24 186.76H322.704C322.96 186.76 323.112 186.804 323.16 186.892C323.216 186.972 323.244 187.144 323.244 187.408V189.304C323.244 189.608 323.172 189.8 323.028 189.88C322.884 189.96 322.672 190 322.392 190H313.056C312.712 190 312.504 189.952 312.432 189.856C312.36 189.76 312.324 189.536 312.324 189.184V187.432C312.324 187.104 312.372 186.912 312.468 186.856C312.572 186.792 312.792 186.76 313.128 186.76H314.136C314.432 186.76 314.644 186.736 314.772 186.688C314.9 186.632 314.964 186.456 314.964 186.16V175.984C314.964 175.72 314.92 175.532 314.832 175.42C314.752 175.3 314.568 175.24 314.28 175.24H312.96C312.736 175.24 312.572 175.212 312.468 175.156C312.372 175.092 312.324 174.944 312.324 174.712V172.648C312.324 172.376 312.384 172.2 312.504 172.12C312.624 172.04 312.808 172 313.056 172H323.244C325.012 172 326.48 172.176 327.648 172.528C328.824 172.88 329.704 173.42 330.288 174.148C330.872 174.876 331.164 175.8 331.164 176.92C331.164 177.992 330.872 178.852 330.288 179.5C329.704 180.148 328.784 180.612 327.528 180.892C327.2 180.964 327.028 181.044 327.012 181.132C326.996 181.22 327.16 181.332 327.504 181.468C328.168 181.724 328.668 182.032 329.004 182.392C329.34 182.744 329.572 183.12 329.7 183.52C329.836 183.912 329.92 184.3 329.952 184.684C329.984 185.068 330.016 185.416 330.048 185.728C330.088 186.04 330.176 186.292 330.312 186.484C330.456 186.668 330.708 186.76 331.068 186.76H331.872C332.144 186.76 332.312 186.776 332.376 186.808C332.448 186.832 332.484 186.984 332.484 187.264V189.472C332.484 189.72 332.44 189.872 332.352 189.928C332.264 189.976 332.104 190 331.872 190ZM338.743 175.24H337.375C337.095 175.24 336.927 175.22 336.871 175.18C336.823 175.132 336.799 174.964 336.799 174.676V172.372C336.799 172.124 336.855 172 336.967 172C337.079 172 337.247 172 337.471 172H346.231C346.551 172 346.767 172.036 346.879 172.108C346.999 172.18 347.079 172.292 347.119 172.444C347.167 172.588 347.227 172.772 347.299 172.996L349.591 180.172C349.719 180.556 349.823 180.924 349.903 181.276C349.991 181.628 350.095 181.804 350.215 181.804C350.351 181.804 350.463 181.7 350.551 181.492C350.639 181.276 350.759 180.964 350.911 180.556L353.923 172.492C354.011 172.268 354.087 172.132 354.151 172.084C354.223 172.028 354.415 172 354.727 172H362.239C362.543 172 362.759 172.004 362.887 172.012C363.015 172.02 363.079 172.188 363.079 172.516V174.628C363.079 174.924 363.059 175.1 363.019 175.156C362.979 175.212 362.807 175.24 362.503 175.24H361.039C360.783 175.24 360.635 175.264 360.595 175.312C360.563 175.36 360.551 175.508 360.559 175.756L360.919 186.268C360.927 186.476 360.939 186.612 360.955 186.676C360.979 186.732 361.103 186.76 361.327 186.76H363.247C363.447 186.76 363.567 186.792 363.607 186.856C363.655 186.912 363.679 187.044 363.679 187.252V189.34C363.679 189.596 363.651 189.772 363.595 189.868C363.547 189.956 363.383 190 363.103 190H353.791C353.527 190 353.367 189.964 353.311 189.892C353.263 189.812 353.239 189.636 353.239 189.364V187.324C353.239 187.052 353.283 186.892 353.371 186.844C353.467 186.788 353.639 186.76 353.887 186.76H355.159C355.415 186.76 355.583 186.72 355.663 186.64C355.751 186.552 355.791 186.384 355.783 186.136L355.639 180.724C355.623 180.164 355.635 179.636 355.675 179.14C355.723 178.636 355.747 178.228 355.747 177.916C355.747 177.596 355.671 177.436 355.519 177.436C355.423 177.436 355.347 177.488 355.291 177.592C355.235 177.688 355.179 177.844 355.123 178.06C355.067 178.276 354.975 178.564 354.847 178.924L351.163 189.748C351.075 190.004 350.979 190.168 350.875 190.24C350.771 190.32 350.543 190.36 350.191 190.36H348.031C347.679 190.36 347.447 190.32 347.335 190.24C347.231 190.168 347.135 190.004 347.047 189.748L343.483 179.356C343.379 179.052 343.279 178.704 343.183 178.312C343.095 177.92 343.007 177.576 342.919 177.28C342.831 176.984 342.735 176.836 342.631 176.836C342.527 176.836 342.467 176.948 342.451 177.172C342.435 177.396 342.415 177.78 342.391 178.324L342.031 185.908C342.023 186.196 342.035 186.412 342.067 186.556C342.099 186.692 342.279 186.76 342.607 186.76H344.191C344.415 186.76 344.559 186.792 344.623 186.856C344.687 186.92 344.719 187.068 344.719 187.3V189.388C344.719 189.684 344.671 189.86 344.575 189.916C344.487 189.972 344.303 190 344.023 190H336.583C336.303 190 336.127 189.964 336.055 189.892C335.991 189.82 335.959 189.636 335.959 189.34V187.18C335.959 187.012 335.979 186.9 336.019 186.844C336.059 186.788 336.159 186.76 336.319 186.76H338.215C338.575 186.76 338.759 186.688 338.767 186.544C338.783 186.392 338.799 186.156 338.815 185.836L339.367 175.66C339.383 175.404 339.347 175.272 339.259 175.264C339.171 175.248 338.999 175.24 338.743 175.24ZM368.528 179.32H375.872C376.056 179.32 376.168 179.352 376.208 179.416C376.256 179.472 376.28 179.596 376.28 179.788V181.588C376.28 181.796 376.26 181.932 376.22 181.996C376.18 182.052 376.056 182.08 375.848 182.08H368.624C368.408 182.08 368.268 182.052 368.204 181.996C368.148 181.94 368.12 181.808 368.12 181.6V179.812C368.12 179.62 368.14 179.492 368.18 179.428C368.22 179.356 368.336 179.32 368.528 179.32ZM380.96 189.22V188.008C380.96 187.752 381 187.6 381.08 187.552C381.168 187.504 381.34 187.48 381.596 187.48H384.74C385.036 187.48 385.22 187.444 385.292 187.372C385.364 187.292 385.4 187.112 385.4 186.832V177.124C385.4 176.884 385.364 176.732 385.292 176.668C385.22 176.596 385.068 176.56 384.836 176.56H381.908C381.708 176.56 381.568 176.536 381.488 176.488C381.408 176.44 381.368 176.308 381.368 176.092V174.652C381.368 174.324 381.456 174.14 381.632 174.1C381.808 174.06 382.036 174.036 382.316 174.028C383.052 174.012 383.748 173.948 384.404 173.836C385.06 173.716 385.656 173.484 386.192 173.14C386.728 172.796 387.18 172.276 387.548 171.58C387.652 171.388 387.748 171.252 387.836 171.172C387.924 171.084 388.124 171.04 388.436 171.04H389.468C389.724 171.04 389.888 171.072 389.96 171.136C390.04 171.192 390.08 171.344 390.08 171.592V186.808C390.08 187.128 390.128 187.32 390.224 187.384C390.32 187.448 390.532 187.48 390.86 187.48H393.524C393.724 187.48 393.88 187.508 393.992 187.564C394.104 187.612 394.16 187.744 394.16 187.96V189.292C394.16 189.588 394.132 189.78 394.076 189.868C394.02 189.956 393.844 190 393.548 190H381.74C381.396 190 381.18 189.96 381.092 189.88C381.004 189.8 380.96 189.58 380.96 189.22Z" fill="black"/>
</g>
<defs>
<clipPath id="clip0_4_94">
<rect width="797" height="344" fill="white"/>
</clipPath>
</defs>
</svg>
